<?xml version="1.0" standalone="no"?>
<!DOCTYPE svg PUBLIC "-//W3C//DTD SVG 1.1//EN" "http://www.w3.org/Graphics/SVG/1.1/DTD/svg11.dtd" >
<svg xmlns="http://www.w3.org/2000/svg" xmlns:xlink="http://www.w3.org/1999/xlink" version="1.1">
<metadata>
Created by FontForge 20201107 at Sun Sep 14 15:44:28 2025
 By 
copyright missing
</metadata>
<defs>
<font id="VCHenrietta-SemiBold" horiz-adv-x="0" >
  <font-face 
    font-family="VC Henrietta Trial SemiBold"
    font-weight="600"
    font-stretch="normal"
    units-per-em="2048"
    panose-1="0 0 0 0 0 0 0 0 0 0"
    ascent="1638"
    descent="-410"
    x-height="1128"
    cap-height="1501"
    bbox="-354.452 -762.486 2619 2025"
    underline-thickness="102"
    underline-position="-255"
    unicode-range="U+0020-A78C"
  />
<missing-glyph horiz-adv-x="911" 
d="M918 1507v-1517h-926v1517h926zM39 96l389 652l-389 649v-1301zM53 1462l402 -667l403 667h-805zM55 35h803l-401 667zM483 748l391 -656v1311z" />
    <glyph glyph-name=".notdef" horiz-adv-x="911" 
d="M918 1507v-1517h-926v1517h926zM39 96l389 652l-389 649v-1301zM53 1462l402 -667l403 667h-805zM55 35h803l-401 667zM483 748l391 -656v1311z" />
    <glyph glyph-name=".null" 
 />
    <glyph glyph-name="nonmarkingreturn" horiz-adv-x="682" 
 />
    <glyph glyph-name="space" unicode=" " horiz-adv-x="376" 
 />
    <glyph glyph-name="exclam" unicode="!" horiz-adv-x="487" 
d="M252 465q-104 -6 -119 88q-43 191 -63 403q-35 280 -29 443q3 63 44 85t167 25q121 1 161 -22t40 -88q0 -159 -43 -455q-24 -188 -60 -391q-14 -88 -98 -88zM27 174q0 89 65 153t154 64t151 -62t62 -149q0 -88 -64 -150.5t-153 -62.5q-87 0 -151 61.5t-64 145.5z" />
    <glyph glyph-name="quotedbl" unicode="&#x22;" horiz-adv-x="587" 
d="M147 950q-42 0 -59.5 15.5t-24.5 60.5q-15 78 -26 194.5t-10 180.5q-1 57 26.5 81.5t93.5 26.5q68 2 96 -23t27 -83q-12 -249 -34 -377q-9 -43 -28.5 -59.5t-60.5 -16.5zM317 1401q-1 57 27 81.5t94 26.5q68 2 96 -23t27 -83q-11 -241 -35 -377q-9 -43 -28 -59.5
t-60 -16.5q-42 0 -59.5 15.5t-24.5 60.5q-15 79 -26.5 195.5t-10.5 179.5z" />
    <glyph glyph-name="numbersign" unicode="#" horiz-adv-x="1488" 
d="M717 0q-43 0 -55.5 25.5t0.5 66.5l75 273h-202l-78 -281q-13 -48 -39 -66t-74 -18h-160q-79 0 -55 92l76 273h-88q-59 0 -81 20t-22 78v74q0 58 22 78t81 20h164l59 217h-123q-59 0 -80.5 20t-21.5 76v76q0 56 21.5 76t80.5 20h197l82 293q14 51 39.5 69.5t68.5 18.5h164
q49 0 61.5 -24t-0.5 -62l-81 -295h198l82 293q14 52 41.5 70t79.5 18h154q47 0 59.5 -24t-0.5 -62l-82 -295h94q58 0 79.5 -20t21.5 -76v-76q0 -56 -21.5 -76t-79.5 -20h-170l-61 -217h131q58 0 79 -20t21 -78v-74q0 -58 -21 -78t-79 -20h-207l-76 -275q-14 -52 -40 -71
t-74 -19h-160zM610 635h203l59 217h-200z" />
    <glyph glyph-name="dollar" unicode="$" horiz-adv-x="1316" 
d="M662 -152q-70 0 -100 22.5t-25 68.5l4 67q-134 14 -251.5 55.5t-193.5 104.5q-42 34 -58.5 63t-6.5 61.5t31 60t65 73.5q36 35 51.5 48.5t41 29.5t44.5 16q23 0 44.5 -18.5t51.5 -59.5q73 -104 157.5 -169.5t172.5 -65.5q89 0 144 48.5t55 125.5q0 82 -73.5 132.5
t-242.5 82.5q-270 53 -393 158.5t-123 287.5q0 185 139 308.5t357 152.5l-4 74q-3 47 28.5 67.5t112.5 20.5q69 0 96 -21t21 -69l-8 -72q234 -31 385 -139q44 -30 63 -58.5t13.5 -58t-28 -59t-65.5 -68.5q-93 -84 -135 -84q-46 0 -96 68q-74 106 -142 155.5t-141 49.5
q-79 0 -133.5 -46t-54.5 -114q0 -77 72.5 -126.5t232.5 -80.5q280 -51 404 -157t124 -298q0 -193 -142.5 -319t-367.5 -156l5 -73q2 -46 -29 -67.5t-102 -21.5z" />
    <glyph glyph-name="percent" unicode="%" horiz-adv-x="1687" 
d="M317 0q-42 0 -47.5 23t21.5 61l473 723l405 649q28 45 93 45h118q48 0 58 -23t-17 -63l-454 -692l-424 -678q-28 -45 -92 -45h-134zM43 1135q0 160 117.5 272.5t283.5 112.5t280 -105.5t114 -259.5q0 -161 -120 -276t-286 -115q-164 0 -276.5 107t-112.5 264zM324 1176
q0 -98 39.5 -170t93.5 -72q40 0 69 46t29 124q0 100 -38.5 174t-92.5 74q-46 0 -73 -46.5t-27 -129.5zM858 334q0 160 118 272.5t284 112.5t278.5 -105t112.5 -260q0 -161 -119 -276t-285 -115q-165 0 -277 107t-112 264zM1139 377q0 -97 39 -170.5t96 -73.5q40 0 68 45
t28 121q0 101 -39 176.5t-92 75.5q-45 0 -72.5 -46.5t-27.5 -127.5z" />
    <glyph glyph-name="ampersand" unicode="&#x26;" horiz-adv-x="1574" 
d="M526 -23q-112 0 -209.5 36t-165 97.5t-106.5 145.5t-39 178q0 123 76 222.5t203 166.5q26 12 27.5 31t-17.5 37q-117 126 -117 250q0 178 151.5 286.5t405.5 108.5q160 0 304.5 -69.5t228.5 -178.5q33 -43 32 -74t-27 -56t-89 -66q-90 -62 -152 -62q-50 0 -78 43
q-76 131 -127.5 182.5t-115.5 51.5q-47 0 -83 -28.5t-36 -72.5q0 -77 104 -164q200 -172 389 -366q217 -224 365 -420q24 -29 70 -59q59 -45 59 -109q0 -88 -100 -88h-273q-47 0 -76 15t-69 59q-6 7 -19 22t-16 18t-12.5 10.5t-13.5 7t-12.5 -1t-17 -6.5t-20.5 -15
q-181 -132 -424 -132zM416 502q0 -110 67 -192.5t176 -82.5q45 0 94 17t78 43q23 20 23 38t-20 42q-54 69 -140 154t-159 145q-35 31 -62 4q-27 -25 -42 -72t-15 -96z" />
    <glyph glyph-name="quotesingle" unicode="'" horiz-adv-x="296" 
d="M147 950q-42 0 -59.5 15.5t-24.5 60.5q-15 78 -26 194.5t-10 180.5q-1 57 26.5 81.5t93.5 26.5q68 2 96 -23t27 -83q-12 -249 -34 -377q-9 -43 -28.5 -59.5t-60.5 -16.5z" />
    <glyph glyph-name="parenleft" unicode="(" horiz-adv-x="706" 
d="M625 -307q-54 0 -146 61q-203 136 -328.5 368.5t-125.5 489.5t125.5 489.5t328.5 368.5q94 62 146 62q26 0 42.5 -16t18.5 -41q-3 -38 -35 -91q-87 -131 -140.5 -331t-53.5 -443q0 -240 53.5 -439.5t140.5 -330.5q32 -54 35 -88q-1 -28 -18 -43.5t-43 -15.5z" />
    <glyph glyph-name="parenright" unicode=")" horiz-adv-x="718" 
d="M68 1530q51 0 145 -62q203 -136 329 -368.5t126 -489.5t-126 -489.5t-329 -368.5q-92 -61 -145 -61q-26 0 -43 16t-19 41q3 36 35 90q87 131 141 331t54 443q0 240 -54 439.5t-141 330.5q-32 54 -35 88q1 28 18.5 44t43.5 16z" />
    <glyph glyph-name="asterisk" unicode="*" horiz-adv-x="765" 
d="M150 813q-49 35 -66.5 68.5t-4 61t53.5 48.5l168 90q12 8 9.5 21t-17.5 10l-184 -18q-70 -9 -93 29t4 126q58 171 162 72l137 -127q9 -9 18.5 -2t2.5 20l-76 168q-31 63 -1 97t120 34t120 -34t-1 -97l-76 -168q-6 -13 4 -21t19 1l135 129q100 100 161 -70
q29 -86 6.5 -125t-92.5 -30l-186 16q-15 2 -18 -11t12 -20l166 -88q130 -69 -15 -178q-72 -52 -117.5 -43t-60.5 78l-43 182q-3 12 -13 12t-13 -12l-43 -182q-14 -70 -60 -80.5t-118 43.5z" />
    <glyph glyph-name="plus" unicode="+" horiz-adv-x="907" 
d="M401 346q-55 0 -73.5 20t-18.5 76v205h-196q-58 0 -78.5 18.5t-20.5 73.5v103q0 55 20.5 73.5t78.5 18.5h196v207q0 55 18.5 74.5t73.5 19.5h105q55 0 73.5 -19.5t18.5 -74.5v-207h199q56 0 76 -18.5t20 -73.5v-103q0 -55 -20 -73.5t-76 -18.5h-199v-205q0 -56 -18.5 -76
t-73.5 -20h-105z" />
    <glyph glyph-name="comma" unicode="," horiz-adv-x="487" 
d="M190 -289q-67 -39 -120 29q-49 64 4 102q35 28 52.5 43.5t32.5 37t15 40.5q0 26 -33 37q-127 50 -127 190q0 96 65 161t159 65q109 0 171 -72t62 -197q0 -136 -81 -255t-200 -181z" />
    <glyph glyph-name="hyphen" unicode="-" horiz-adv-x="690" 
d="M121 539q-62 0 -84.5 19.5t-22.5 76.5v70q0 57 22.5 77.5t84.5 20.5h450q60 0 82.5 -20.5t22.5 -77.5v-70q0 -56 -22 -76t-83 -20h-450z" />
    <glyph glyph-name="period" unicode="." horiz-adv-x="487" 
d="M242 -33q-91 0 -159.5 66.5t-68.5 156.5q0 96 69 165t163 69q95 0 161 -66t66 -159q0 -95 -67.5 -163.5t-161.5 -68.5h-2z" />
    <glyph glyph-name="slash" unicode="/" horiz-adv-x="815" 
d="M-80 -358q-68 0 -41 73l656 1731q21 55 83 55h170q32 0 43 -19.5t-2 -54.5l-655 -1730q-18 -55 -84 -55h-170z" />
    <glyph glyph-name="zero" unicode="0" horiz-adv-x="1556" 
d="M782 -37q-128 0 -243 35.5t-208.5 104.5t-162 164.5t-106 221t-37.5 267.5q0 177 61 326t164 247.5t237.5 153.5t282.5 55q157 -1 297.5 -62t242.5 -167t162 -256t60 -320q0 -151 -43 -278.5t-115.5 -217t-169 -152t-203.5 -92.5t-219 -30zM459 899q0 -119 28 -240.5
t76 -221.5t121 -163t156 -63q115 0 186.5 104.5t71.5 276.5q0 171 -47 329.5t-135.5 262t-194.5 104.5q-118 0 -190 -106t-72 -283z" />
    <glyph glyph-name="one" unicode="1" horiz-adv-x="727" 
d="M150 0q-61 0 -92 26t-31 66q0 54 69 84q57 26 75.5 59t16.5 101v764q0 50 -19 70.5t-77 35.5q-72 21 -72 82q0 44 45 79.5t168 86.5q80 34 135 48t117 14q53 0 76 -19t23 -63v-1098q-1 -66 15.5 -100t62.5 -60q55 -32 55 -86q0 -40 -25.5 -65.5t-75.5 -24.5h-466z" />
    <glyph glyph-name="two" unicode="2" horiz-adv-x="1241" 
d="M145 0q-56 0 -80 25t-24 81q0 98 38.5 180t123.5 167q62 67 262 225q164 131 239 229t74 197q0 86 -46 140t-114 54q-83 0 -133 -75t-104 -258q-12 -45 -43.5 -54.5t-101.5 9.5q-155 39 -204.5 91t-13.5 142q69 164 239 269.5t384 105.5q153 0 282 -59t207 -168.5
t78 -247.5q0 -79 -25 -150.5t-75 -136t-104.5 -116t-133.5 -113.5t-179 -133t-136 -99q-16 -11 -25 -18t-16.5 -18t-7.5 -23q0 -16 24 -19.5t109 -1.5q111 0 193.5 40t191.5 138q41 38 58.5 52.5t39.5 26.5t43 12q34 0 53 -24.5t19 -68.5q0 -84 -53 -264q-21 -73 -50.5 -105
t-95.5 -32h-893z" />
    <glyph glyph-name="three" unicode="3" horiz-adv-x="1253" 
d="M625 -25q-172 0 -325 59.5t-245 162.5q-74 74 -41 134.5t199 147.5q72 37 107 31t57 -57q56 -126 115.5 -185t140.5 -59q82 0 130 51t48 141q0 126 -75.5 189t-233.5 69q-57 3 -76.5 22.5t-19.5 70.5q0 86 21 118.5t83 38.5q130 12 190 57t60 140q0 81 -45.5 134.5
t-112.5 53.5q-70 0 -115.5 -52.5t-93.5 -184.5q-17 -46 -54 -50.5t-112 27.5q-144 58 -178.5 111.5t23.5 128.5q89 120 240.5 187t332.5 67q239 0 391 -111.5t152 -286.5q0 -85 -58.5 -151t-160.5 -109q-21 -8 -22 -24t20 -25q272 -113 272 -372q0 -131 -80.5 -240
t-221.5 -171.5t-312 -62.5z" />
    <glyph glyph-name="four" unicode="4" horiz-adv-x="1239" 
d="M655 0q-57 0 -84.5 26t-27.5 66q0 54 63 84q52 26 69 59.5t15 100.5v-23q0 26 -10 37.5t-35 11.5l-510 3q-82 0 -108.5 28.5t-26.5 108.5q0 83 17 137t67 129q198 300 438 567q61 69 96 100.5t81.5 48.5t113.5 17h176q50 0 70 -21t20 -71l-2 -700q0 -32 11.5 -41t56.5 -9
q59 0 75.5 -12.5t16.5 -62.5v-142q0 -45 -18.5 -58.5t-77.5 -21.5q-37 -3 -48.5 -13t-11.5 -40q1 -52 18 -81t60 -52q58 -32 58 -86q-2 -40 -28 -65.5t-77 -24.5h-457zM299 715q-15 -22 -10 -41t33 -19h301q38 0 48.5 9.5t10.5 48.5l2 424q0 28 -15 31.5t-34 -17.5
q-181 -192 -336 -436zM1081 309v27v-27z" />
    <glyph glyph-name="five" unicode="5" horiz-adv-x="1249" 
d="M590 -27q-166 0 -302.5 56.5t-217.5 160.5q-35 44 -42 80t16.5 70.5t74.5 67t139 71.5q58 29 88.5 20.5t50.5 -61.5q82 -231 221 -231q84 0 134.5 74t50.5 182q0 138 -57 220.5t-154 82.5q-74 0 -156 -68q-32 -25 -59.5 -37t-65.5 -12q-237 -6 -225 125l55 623
q4 58 29.5 81t85.5 23h723q65 0 94 -30t43 -103q2 -16 9 -58t11 -73.5t5 -54.5q2 -43 -18.5 -69t-55.5 -26q-12 0 -24.5 3.5t-23.5 7.5t-30 14.5t-31 17.5t-40.5 24.5t-45.5 27.5q-145 92 -270 92q-48 0 -64 -12.5t-18 -42.5l-20 -230q-1 -24 12 -30t35 4q103 41 188 41
q217 0 356.5 -141t139.5 -359q0 -237 -178 -384t-463 -147z" />
    <glyph glyph-name="six" unicode="6" horiz-adv-x="1341" 
d="M670 -27q-300 0 -476 162.5t-176 444.5q0 185 83.5 351t267.5 347q13 13 47.5 48.5t63.5 64.5t59 55q38 31 69 43t88 12h336q39 0 46.5 -27.5t-21.5 -50.5l-336 -290q-15 -13 -12 -25t20 -12h19q263 0 419 -149.5t156 -399.5q0 -162 -84.5 -293.5t-234 -206t-334.5 -74.5
zM422 592q0 -153 76 -252.5t188 -99.5q89 0 148 74t59 184q0 157 -74.5 255.5t-189.5 98.5q-88 0 -147.5 -74t-59.5 -186z" />
    <glyph glyph-name="seven" unicode="7" horiz-adv-x="1107" 
d="M233 0q-101 0 -55 100l488 1076q16 39 16 57q2 25 -21.5 37t-82.5 12q-89 0 -158 -30.5t-146 -98.5q-9 -8 -29.5 -25.5t-29 -25t-26 -21.5t-26.5 -20t-23.5 -15.5t-24.5 -13.5t-22 -7t-23 -3q-38 0 -55 35t-17 86q0 57 15.5 144.5t35.5 144.5q12 37 36 53t73 16h831
q69 0 89 -21t20 -87q1 -68 -12 -120t-46 -140l-403 -1070q-13 -35 -36.5 -49t-68.5 -14h-299z" />
    <glyph glyph-name="eight" unicode="8" horiz-adv-x="1351" 
d="M678 -37q-288 0 -476 133t-188 334q0 229 269 365q18 10 17.5 21.5t-15.5 21.5q-213 112 -213 295q0 179 165.5 288t434.5 109q279 0 448.5 -112t169.5 -294q0 -200 -217 -301q-13 -6 -13 -18.5t13 -16.5q122 -48 193 -142.5t71 -227.5q1 -129 -84.5 -233.5t-237 -163
t-337.5 -58.5zM446 442q0 -112 65 -181t167 -66q103 0 165 67.5t62 175.5q0 101 -63.5 165.5t-163.5 64.5q-102 1 -167 -62.5t-65 -163.5zM496 1098q0 -88 52 -147.5t128 -59.5q84 0 137 57t53 144q0 93 -54.5 152t-139.5 59q-76 0 -126 -57t-50 -148z" />
    <glyph glyph-name="nine" unicode="9" horiz-adv-x="1341" 
d="M672 1528q300 0 475.5 -162t175.5 -444q0 -186 -83.5 -352.5t-266.5 -346.5q-13 -13 -47.5 -48.5t-63.5 -64.5t-59 -55q-38 -31 -69.5 -43t-88.5 -12h-336q-39 0 -46 27.5t22 50.5l336 291q15 13 11.5 25t-20.5 12h-18q-263 0 -419.5 149t-156.5 399q0 121 50 227.5
t136 182.5t208 120t260 44zM449 1004q0 -157 74.5 -256t189.5 -99q88 0 147.5 74t59.5 186q0 153 -76.5 253t-188.5 100q-89 0 -147.5 -73.5t-58.5 -184.5z" />
    <glyph glyph-name="colon" unicode=":" horiz-adv-x="497" 
d="M246 -33q-91 0 -159.5 66.5t-68.5 156.5q0 96 69 165t163 69q95 0 161 -66t66 -159q0 -95 -67.5 -163.5t-161.5 -68.5h-2zM18 801q0 96 69 164.5t163 68.5q95 0 161 -66t66 -159q0 -95 -67.5 -163t-161.5 -68h-2q-91 0 -159.5 66.5t-68.5 156.5z" />
    <glyph glyph-name="semicolon" unicode=";" horiz-adv-x="497" 
d="M195 -289q-68 -39 -121 29q-49 64 4 102q35 28 52.5 43.5t32.5 37t15 40.5q0 26 -33 37q-127 50 -127 190q0 96 65 161t159 65q109 0 171 -72t62 -197q0 -137 -80.5 -255.5t-199.5 -180.5zM18 801q0 96 69 164.5t163 68.5q95 0 161 -66t66 -159q0 -95 -67.5 -163
t-161.5 -68h-2q-91 0 -159.5 66.5t-68.5 156.5z" />
    <glyph glyph-name="question" unicode="?" horiz-adv-x="1173" 
d="M551 463q-63 0 -88 27t-31 92q-9 117 35 212t158 191q62 57 87 94t25 78q0 61 -42.5 100t-106.5 39q-65 0 -120 -58t-108 -181q-15 -38 -40.5 -45.5t-69.5 12.5q-165 74 -208.5 147.5t30.5 157.5q80 93 219.5 147t312.5 54q242 0 402.5 -123.5t160.5 -308.5
q0 -112 -63 -194.5t-209 -176.5q-95 -61 -138 -101.5t-75 -95.5q-22 -38 -48 -52.5t-83 -14.5zM350 174q0 90 64.5 154.5t154.5 64.5q86 0 148.5 -62.5t62.5 -148.5q0 -88 -63.5 -151.5t-151.5 -63.5q-87 0 -151 61.5t-64 145.5z" />
    <glyph glyph-name="at" unicode="@" horiz-adv-x="2088" 
d="M954 -434q-197 -1 -368.5 63.5t-294 177.5t-192.5 273.5t-70 345.5q0 238 83 444.5t226.5 352t344 228.5t427.5 83q199 0 375.5 -70.5t302 -191.5t198 -288t72.5 -353q0 -196 -69.5 -355t-196.5 -250.5t-287 -91.5q-219 0 -334 132q-28 28 -67 2q-61 -49 -136 -77
t-143 -28q-174 0 -276.5 127t-102.5 340q0 184 79.5 345.5t214 258t290.5 99.5q95 0 209 -43q72 -29 133 -29q14 0 58.5 10t72.5 10q46 0 66 -27.5t12 -70.5q-4 -25 -21 -82t-22 -92l-72 -473q-15 -92 14 -139t93 -47t119.5 62t87.5 167t32 225q0 212 -87 374.5
t-250.5 252.5t-380.5 90q-239 0 -424.5 -109t-288 -307.5t-102.5 -455.5q0 -312 189.5 -492t514.5 -180q166 0 373 65q87 26 119 -43q38 -75 -45 -129q-78 -50 -205 -77t-271 -27zM836 440q0 -89 32.5 -136.5t85.5 -47.5q122 0 142 131l57 350q9 68 -18.5 106t-87.5 38
q-61 0 -110.5 -65.5t-75 -165.5t-25.5 -210z" />
    <glyph glyph-name="A" unicode="A" horiz-adv-x="1601" 
d="M96 0q-43 0 -65.5 22.5t-22.5 63.5q0 57 55 100q29 25 44.5 49.5t29.5 67.5q141 436 189 565q118 312 239 539q33 61 61.5 83.5t75.5 22.5q15 0 44 -2t40 -2q14 0 45 2t48 2q39 0 62.5 -18t47.5 -57q81 -136 147.5 -287.5t153.5 -378.5q75 -190 176 -489q19 -52 80 -107
q47 -41 47 -90q0 -36 -21.5 -61t-64.5 -25h-508q-45 0 -70.5 24t-25.5 64q0 63 72 102q55 27 55 80q0 36 -18 95q-13 54 -70 51h-209h-221q-33 0 -49.5 -12t-24.5 -39q-16 -53 -16 -84q0 -43 59 -86q66 -50 66 -105q0 -37 -20 -63.5t-62 -26.5h-369zM547 717
q-10 -32 -0.5 -48t41.5 -16h270q32 0 38.5 15.5t-7.5 56.5q-22 71 -67.5 180t-84.5 182q-12 21 -25 21t-24 -21q-98 -208 -141 -370z" />
    <glyph glyph-name="B" unicode="B" horiz-adv-x="1456" 
d="M129 0q-51 0 -75.5 26t-24.5 66q0 55 55 84q47 26 62.5 59t13.5 101v829q2 67 -14 100.5t-62 57.5q-55 32 -55 86q0 40 24.5 66t73.5 26h750q487 0 487 -358q0 -80 -45 -146t-152 -137q-20 -13 -20.5 -29t18.5 -26q139 -70 204 -165t65 -224q0 -187 -127.5 -301.5
t-319.5 -114.5h-858zM557 408q0 -108 51 -153.5t160 -45.5q112 0 182 63t70 156q0 128 -102 201q-68 49 -144 49q-66 0 -174 -43q-43 -21 -43 -68v-159zM557 889q0 -26 13.5 -34.5t35.5 1.5q13 5 100 35t117 45q61 26 93 70t32 100q0 84 -56.5 130t-164.5 46h-109
q-61 0 -61 -57v-336z" />
    <glyph glyph-name="C" unicode="C" horiz-adv-x="1470" 
d="M821 -35q-174 0 -324 64t-251.5 172t-159 251.5t-57.5 301.5q0 166 63 311t169 244.5t248 157t298 57.5q331 0 563 -209q84 -75 61 -149.5t-165 -182.5q-137 -100 -207 35q-77 146 -153 209t-169 63q-127 0 -203.5 -104t-76.5 -266q0 -169 63.5 -312.5t175 -228
t244.5 -84.5q100 0 184.5 34t171.5 103q28 24 56.5 21.5t62.5 -35.5q37 -36 37.5 -72t-37.5 -92q-91 -129 -252 -209t-342 -80z" />
    <glyph glyph-name="D" unicode="D" horiz-adv-x="1562" 
d="M135 0q-51 0 -75.5 26t-24.5 66q0 55 55 84q47 26 62.5 59t13.5 101v829q1 66 -15.5 100t-62.5 60q-55 32 -55 86q0 39 25 64.5t75 25.5h600q371 0 587 -197.5t216 -562.5q0 -176 -57.5 -316.5t-162 -233.5t-250 -142t-321.5 -49h-610zM561 414q0 -103 41 -146t135 -43
q177 0 274 122.5t97 346.5q0 157 -59 290.5t-162.5 211.5t-227.5 78h-30q-68 0 -68 -74v-786z" />
    <glyph glyph-name="E" unicode="E" horiz-adv-x="1320" 
d="M129 0q-50 0 -75 26t-25 66q0 55 55 84q47 26 62.5 59.5t13.5 100.5v829q2 66 -14.5 100t-63.5 60q-55 32 -55 86q2 40 26.5 65t73.5 25h944q51 0 79.5 -18.5t43.5 -61.5q2 -8 18 -61t24.5 -83.5t17 -74t8.5 -69.5q0 -36 -17.5 -57t-46.5 -21q-27 0 -72.5 23t-71.5 41
t-87 61q-78 58 -136.5 83t-125.5 25q-78 0 -114 -48t-36 -148v-97q0 -48 16.5 -64t65.5 -16h354q37 0 58.5 -18.5t21.5 -54.5q0 -40 -21 -88t-51 -86q-26 -31 -45 -44.5t-49 -13.5q-39 0 -130 36t-124 36q-46 2 -70 -33t-24 -106v-187q0 -76 40 -109.5t126 -31.5
q104 0 289 121q26 18 74 52t67.5 46.5t47.5 24.5t52 12q34 0 51 -20t17 -54q0 -72 -57 -223q-32 -100 -60.5 -137t-89.5 -37h-985z" />
    <glyph glyph-name="F" unicode="F" horiz-adv-x="1265" 
d="M129 0q-49 0 -73.5 26t-24.5 66q0 55 55 84q46 26 61 59t15 101v829q0 66 -16.5 100t-61.5 60q-55 32 -55 86q0 39 25 64.5t73 25.5h944q51 0 79.5 -18.5t43.5 -61.5q2 -7 19 -63.5t25.5 -88.5t18 -77.5t9.5 -71.5q0 -37 -18 -56.5t-48 -19.5q-62 0 -229 132
q-138 112 -262 112q-81 0 -117.5 -51t-36.5 -162v-92q0 -57 16 -74.5t66 -17.5l354 -2q37 0 58.5 -18t21.5 -54q0 -42 -24.5 -98t-57.5 -92q-31 -39 -82 -39q-37 0 -133 34.5t-133 34.5q-39 0 -61.5 -28t-22.5 -82v-197q-2 -71 19.5 -105.5t82.5 -62.5q73 -36 70 -90
q0 -41 -33 -67t-98 -25h-469z" />
    <glyph glyph-name="G" unicode="G" horiz-adv-x="1533" 
d="M836 -27q-182 0 -335 63t-255 171t-158.5 252t-56.5 305q0 160 63 303t170 245.5t256.5 162t315.5 59.5q180 0 346.5 -69t255.5 -173q50 -60 34 -111.5t-104 -117.5q-127 -94 -174 -94t-92 69q-91 141 -168 201.5t-172 60.5q-132 0 -217.5 -115t-85.5 -292
q0 -165 65 -311.5t183.5 -238t261.5 -91.5q77 0 107 21t30 69v121q0 70 -19.5 104t-76.5 60q-66 32 -66 88q0 40 30.5 66t90.5 26l43 -2h285q110 0 110 -107l-2 -391q0 -77 -31 -128t-104 -85q-112 -56 -252 -88.5t-278 -32.5z" />
    <glyph glyph-name="H" unicode="H" horiz-adv-x="1650" 
d="M129 0q-51 0 -75.5 26t-24.5 66q0 55 55 84q47 26 62.5 59.5t13.5 100.5v829q2 67 -14 100.5t-62 57.5q-55 32 -55 86q0 40 24.5 66t75.5 26h461q57 0 84.5 -26t27.5 -66q0 -54 -63 -86q-52 -24 -69 -57t-17 -101v-166q0 -65 53 -65l418 -2q45 0 58.5 15.5t13.5 60.5v157
q2 67 -15 100.5t-69 57.5q-64 33 -64 86q0 40 28 66t85 26h461q50 0 75 -26t25 -66q0 -28 -12.5 -48t-44.5 -38q-45 -24 -60.5 -57.5t-13.5 -100.5v-829q-2 -66 14.5 -100t63.5 -60q56 -33 53 -86q0 -40 -25 -65.5t-75 -24.5h-463q-55 0 -84 26t-29 66q0 54 64 84
q53 26 70.5 59.5t15.5 100.5v248q0 58 -16 74t-70 16l-389 2q-35 0 -49.5 -11t-14.5 -44l-2 -285q-2 -67 16.5 -101t71.5 -61q62 -33 62 -86q-2 -40 -30 -64.5t-85 -23.5h-461z" />
    <glyph glyph-name="I" unicode="I" horiz-adv-x="716" 
d="M129 0q-49 0 -73.5 26t-24.5 66q0 55 55 84q46 26 61 59t15 101v829q0 66 -16.5 100t-61.5 60q-55 32 -55 86q0 39 25 64.5t73 25.5h463q49 0 73.5 -26t24.5 -66q0 -53 -57 -86q-45 -24 -60.5 -57.5t-13.5 -100.5v-829q-2 -67 13.5 -100.5t60.5 -59.5q57 -30 57 -84
q0 -40 -25 -66t-75 -26h-459z" />
    <glyph glyph-name="J" unicode="J" horiz-adv-x="909" 
d="M367 -29q-93 -1 -181 21.5t-149 62.5q-36 21 -43 45t12 76q18 44 37 57.5t55 6.5q68 -11 115 -11q71 0 109 43.5t38 118.5v770q2 68 -16.5 102t-71.5 60q-66 34 -63 88q0 40 29 65.5t84 24.5h469q48 0 72 -26t24 -66q0 -53 -56 -86q-46 -24 -60.5 -56.5t-14.5 -101.5
v-833q0 -172 -106 -265t-283 -96z" />
    <glyph glyph-name="K" unicode="K" horiz-adv-x="1511" 
d="M129 0q-51 0 -75.5 26t-24.5 66q0 55 55 84q47 26 62.5 59.5t13.5 100.5v829q2 67 -14 100.5t-62 57.5q-55 32 -55 86q0 40 24.5 66t75.5 26h461q57 0 84.5 -26t27.5 -66q0 -54 -63 -86q-52 -24 -69 -57t-17 -101v-188q0 -25 17.5 -27.5t37.5 23.5q56 81 87.5 125
t84.5 106.5t107 112.5q93 87 193.5 138.5t174.5 49.5q42 -3 67.5 -31t43.5 -85q35 -119 35 -181q0 -57 -51 -63q-346 -66 -488 -195q-14 -13 -17.5 -26t5 -24t29.5 -17q146 -38 225 -123t153 -279l31 -82q37 -99 66 -138.5t84 -67.5q38 -21 54.5 -45t16.5 -60
q0 -43 -25.5 -65.5t-68.5 -22.5h-295q-81 0 -123.5 43.5t-72.5 140.5l-74 228q-40 126 -99 186.5t-143 60.5q-27 0 -39 -13.5t-12 -43.5l-2 -266q0 -67 18 -101t70 -61q65 -33 62 -86q0 -39 -29 -64t-86 -24h-461z" />
    <glyph glyph-name="L" unicode="L" horiz-adv-x="1232" 
d="M129 0q-50 -1 -75 24.5t-25 65.5q0 54 55 86q45 26 61.5 60t16.5 100v829q0 68 -15 101t-61 57q-55 32 -55 86q0 40 24 66t72 26h473q64 1 96.5 -25t32.5 -67q3 -56 -70 -92q-61 -26 -82.5 -61t-19.5 -105v-729q0 -109 30.5 -156t110.5 -47q33 -1 68 9.5t56 19.5t63 40
t52 39t60 50q6 5 25.5 21.5t28.5 24t27.5 21t31 20t29 12t30.5 5.5q31 0 49.5 -21t18.5 -59q0 -51 -26.5 -150.5t-51.5 -170.5q-15 -43 -43 -61.5t-78 -18.5h-909z" />
    <glyph glyph-name="M" unicode="M" horiz-adv-x="1771" 
d="M129 0q-49 0 -73.5 26t-24.5 66q0 55 55 84q46 26 61 59t15 101v829q2 66 -14.5 100t-63.5 60q-55 32 -55 86q2 40 26.5 65t73.5 25h328q54 0 89 -21.5t60 -68.5l254 -475q22 -45 47 4l246 459q32 62 72.5 82t115.5 20h301q48 0 72.5 -26t24.5 -66q0 -53 -56 -86
q-46 -24 -60.5 -56.5t-14.5 -101.5l2 -829q-2 -66 14.5 -100t63.5 -60q55 -32 55 -86q0 -40 -26 -65.5t-77 -24.5h-454q-58 0 -86.5 26t-28.5 66q0 56 64 86q54 26 72 59.5t16 102.5v528q0 31 -18.5 35t-33.5 -22l-237 -416q-43 -72 -117 -72q-41 0 -71.5 24.5t-63.5 80.5
l-201 364q-12 23 -28.5 20t-16.5 -28l4 -512q-2 -68 17.5 -102t74.5 -62q64 -33 64 -86q0 -41 -29 -66.5t-88 -25.5h-350z" />
    <glyph glyph-name="N" unicode="N" horiz-adv-x="1521" 
d="M1198 -10q-95 0 -104 94q-8 90 -76 176l-535 647q-12 15 -24.5 12t-12.5 -22l-2 -561q-1 -66 19.5 -100t79.5 -62q72 -33 69 -86q0 -40 -32.5 -64.5t-96.5 -23.5h-354q-50 0 -75 26t-25 66q0 55 55 84q47 26 62.5 59.5t13.5 100.5v829q2 66 -14.5 100t-63.5 60
q-55 32 -55 86q2 40 26.5 65t73.5 25h311q65 0 106 -22.5t81 -71.5l413 -518q17 -20 29 -16.5t12 22.5v270q2 67 -16.5 100.5t-71.5 59.5q-63 32 -63 86q2 40 30 65.5t84 24.5h361q49 0 73.5 -26t24.5 -66q0 -54 -55 -86q-47 -24 -62.5 -57.5t-13.5 -100.5l2 -1028
q0 -147 -108 -147h-66z" />
    <glyph glyph-name="O" unicode="O" horiz-adv-x="1658" 
d="M844 -33q-174 0 -325.5 59.5t-259 163.5t-169 250.5t-61.5 313.5q0 214 103 391t282 279t395 102q234 0 421.5 -103.5t293.5 -288.5t106 -417q0 -155 -61.5 -294t-166 -239t-250.5 -158.5t-308 -58.5zM457 887q0 -167 59.5 -322.5t162 -252.5t218.5 -97q139 0 221 107.5
t82 291.5q0 166 -60 319t-163 248.5t-219 96.5q-137 0 -219 -105t-82 -286z" />
    <glyph glyph-name="P" unicode="P" horiz-adv-x="1323" 
d="M129 0q-50 0 -75 26t-25 66q0 55 55 84q47 26 62.5 59.5t13.5 100.5v829q2 66 -14.5 100t-63.5 60q-55 32 -55 86q2 40 26.5 65t73.5 25h643q246 0 394.5 -131t148.5 -344q0 -167 -123.5 -296t-327.5 -189q-203 -64 -260 -84q-27 -7 -38 -23.5t-11 -46.5v-51
q-2 -67 17.5 -100.5t76.5 -61.5q66 -30 66 -86q0 -39 -30.5 -64t-90.5 -24h-463zM555 743q0 -34 31 -34q39 0 112 34q95 53 140 111.5t45 146.5q0 113 -65.5 190t-162.5 77h-49q-30 0 -40.5 -13t-10.5 -45v-467z" />
    <glyph glyph-name="Q" unicode="Q" horiz-adv-x="1683" 
d="M1548 -215q-26 0 -56.5 16t-93.5 57q-13 8 -20 13q-111 72 -161.5 95.5t-86.5 23.5q-25 0 -83 -8q-89 -19 -179 -19q-250 0 -441.5 101.5t-294.5 281.5t-103 410q0 161 61.5 304.5t166 246.5t250.5 163t308 60q171 0 323.5 -61.5t263 -167.5t174.5 -255.5t64 -318.5
q0 -148 -61.5 -282.5t-171.5 -272.5q-34 -43 10 -49q157 0 193 2q63 3 91 -15t28 -57q0 -67 -76 -184q-53 -84 -105 -84zM463 901q0 -181 59.5 -342t162.5 -258.5t222 -97.5q135 0 218 104.5t83 282.5q-1 186 -61.5 346.5t-164 255.5t-224.5 96q-134 0 -214.5 -104.5
t-80.5 -282.5z" />
    <glyph glyph-name="R" unicode="R" horiz-adv-x="1531" 
d="M133 0q-50 0 -75 26t-25 66q0 54 57 84q45 26 60.5 59.5t15.5 100.5v829q0 67 -16.5 100.5t-63.5 59.5q-56 34 -53 86q0 40 24 65t74 25h760q209 0 341 -110.5t132 -303.5q0 -125 -71 -210.5t-201 -153.5q-14 -8 -15 -20t13 -21q56 -32 97 -79t79 -122l53 -100
q43 -82 74.5 -122t70.5 -64q32 -21 47 -44.5t15 -60.5q0 -90 -105 -90h-245q-88 0 -133.5 31t-81.5 114q-67 165 -95 220q-56 113 -114 163t-142 47q-26 -2 -38.5 -13t-12.5 -38v-188q0 -67 18.5 -101t71.5 -61q64 -30 64 -86q0 -40 -29.5 -64.5t-87.5 -23.5h-463zM559 1198
l2 -330q0 -29 10 -40t35 -11h62q118 0 193 65t75 165q0 96 -61 158.5t-156 62.5h-92q-40 0 -54 -15.5t-14 -54.5z" />
    <glyph glyph-name="S" unicode="S" horiz-adv-x="1325" 
d="M670 -29q-152 0 -312.5 43.5t-261.5 126.5q-34 29 -50.5 55t-19 48.5t12.5 50.5t34.5 52t55.5 61q32 34 49 50t42.5 32t45.5 16q23 0 44.5 -19.5t51.5 -62.5q168 -242 332 -242q90 0 146.5 50t56.5 128q0 85 -74 137t-245 87q-273 53 -397 161.5t-124 296.5
q0 109 49 200.5t133 152.5t197 95t240 34q138 0 276.5 -39t239.5 -113q58 -43 72 -83t-7.5 -78t-80.5 -91q-93 -84 -136 -84q-49 0 -98 70q-74 108 -143 158.5t-142 50.5q-82 0 -136 -47.5t-54 -118.5q0 -79 73.5 -129.5t235.5 -81.5q282 -53 406.5 -162t124.5 -305
q0 -115 -50.5 -210t-137 -158t-202.5 -97.5t-247 -34.5z" />
    <glyph glyph-name="T" unicode="T" horiz-adv-x="1388" 
d="M459 0q-62 0 -93.5 26t-31.5 66q0 54 72 84q57 26 76.5 59.5t17.5 100.5v809q0 56 -16 82t-52 26q-71 0 -190 -131q-75 -86 -101 -107q-37 -30 -71 -30q-72 0 -72 105q0 67 11.5 150.5t29.5 137.5q19 66 51 94.5t90 28.5h1024q60 0 92 -24t50 -86q20 -63 33.5 -158.5
t13.5 -165.5q0 -38 -19.5 -60t-48.5 -22q-26 0 -57 20.5t-51.5 41t-65.5 69.5q-67 72 -113 104.5t-84 32.5q-69 0 -69 -108l2 -809q-2 -67 18.5 -101t79.5 -61q68 -30 68 -86q0 -39 -32 -64t-95 -24h-467z" />
    <glyph glyph-name="U" unicode="U" horiz-adv-x="1519" 
d="M766 -29q-132 0 -240.5 29.5t-192 88t-129.5 154t-46 220.5v702q2 66 -14.5 100t-63.5 60q-55 32 -55 86q2 40 26.5 65t73.5 25h485q62 0 92.5 -25.5t30.5 -64.5q0 -54 -69 -84q-60 -24 -79.5 -57t-17.5 -99v-688q0 -113 72 -173t186 -60q116 0 186.5 69t69.5 181v659
q2 68 -19 102t-81 60q-39 20 -54.5 40.5t-15.5 49.5q2 40 33.5 65.5t93.5 24.5h369q48 0 72 -26t24 -66q0 -54 -55 -86q-46 -24 -61 -57t-13 -101l2 -612q0 -125 -34 -227.5t-104.5 -183.5t-190.5 -126t-281 -45z" />
    <glyph glyph-name="V" unicode="V" horiz-adv-x="1540" 
d="M690 -6q-51 0 -85 28.5t-66 92.5q-115 232 -226 535.5t-180 547.5q-24 78 -74 115q-57 40 -57 92q0 96 117 96h456q111 0 111 -94q0 -61 -59 -88q-51 -27 -61.5 -56t3.5 -85q59 -287 238 -695q15 -33 36 -31.5t36 35.5q61 142 127.5 336t101.5 334q17 54 7.5 89.5
t-54.5 60.5q-66 32 -66 90q0 51 29.5 77.5t83.5 26.5h315q115 0 115 -88q0 -25 -8 -43.5t-19 -30t-36 -32.5q-28 -23 -45.5 -56.5t-36.5 -97.5q-222 -743 -371 -1044q-32 -65 -63.5 -90t-88.5 -25l-96 2q-13 0 -41 -1t-43 -1z" />
    <glyph glyph-name="W" unicode="W" horiz-adv-x="2209" 
d="M696 -14q-91 2 -127 24.5t-67 100.5q-143 352 -234 634q-22 68 -69 235.5t-60 209.5q-15 52 -31.5 79.5t-44.5 49.5q-30 22 -43.5 42.5t-13.5 51.5q0 39 27.5 63.5t75.5 24.5h483q44 0 69 -23t25 -63q0 -48 -59 -92q-64 -45 -64 -94q0 -96 82 -361q51 -166 94 -280
q12 -30 30.5 -28.5t27.5 28.5q54 142 98 307q61 215 61 334q0 32 -11.5 52t-43.5 40q-55 30 -55 92q0 36 23 62t67 26h481q49 0 75 -24.5t26 -63.5q0 -50 -66 -98q-51 -40 -51 -90q0 -89 67 -320q49 -170 109 -323q7 -16 16 -22t18 0t15 22q29 70 88 274q70 254 70 361
q0 62 -55 94q-66 40 -66 104q0 34 23.5 60t62.5 26h350q48 0 74.5 -23.5t26.5 -62.5q0 -55 -60 -98q-30 -22 -46 -48t-28 -71q-71 -294 -139 -518q-107 -352 -194 -559q-39 -89 -70 -110.5t-127 -22.5q-72 -1 -108 9t-56 33t-45 79q-87 201 -192 561q-7 29 -27 29t-29 -31
q-100 -358 -194 -570q-32 -76 -63.5 -94t-125.5 -18z" />
    <glyph glyph-name="X" unicode="X" horiz-adv-x="1490" 
d="M102 0q-46 0 -72 26t-26 70q0 55 64 92q75 43 133 136q31 49 123.5 198.5t136.5 216.5q19 32 17.5 54.5t-23.5 54.5q-136 208 -234 348q-57 82 -117 117q-40 23 -56.5 44t-16.5 52q0 41 27 66.5t71 25.5h539q44 0 71 -27t27 -67q0 -51 -64 -88q-62 -32 -26 -90
q87 -150 117 -193q19 -29 34 -29.5t35 27.5q61 83 125 191q19 31 14.5 56t-40.5 46q-60 35 -60 84q0 90 98 90h369q43 0 69.5 -22t26.5 -60q0 -59 -65 -98q-34 -20 -56.5 -42.5t-52.5 -66.5q-36 -55 -126 -198.5t-122 -190.5q-24 -37 -24 -57t24 -57q40 -62 128.5 -206.5
t129.5 -205.5q51 -75 113 -107q74 -41 74 -102q0 -38 -25 -63t-69 -25h-500q-139 0 -139 94q0 52 53 88q38 25 41.5 51t-19.5 68q-54 97 -133 207q-21 30 -35.5 30t-35.5 -30q-56 -81 -129 -215q-27 -42 -21 -69t45 -54q51 -36 51 -84q0 -40 -24.5 -63t-65.5 -23h-379z" />
    <glyph glyph-name="Y" unicode="Y" horiz-adv-x="1415" 
d="M485 0q-62 0 -93.5 26t-31.5 66q0 54 70 84q58 26 77 59t17 101v131q0 66 -32 121q-174 281 -342 612q-21 42 -41.5 68.5t-53.5 50.5q-28 21 -41.5 42t-13.5 52q0 40 26 64t70 24h471q109 0 109 -92q0 -32 -13.5 -51t-41.5 -35q-46 -22 -46 -59q0 -26 21 -68
q93 -202 166 -305q18 -29 33 -30t36 30q87 136 162 309q19 48 19 66q0 33 -43 55q-34 19 -50 37t-16 47q0 96 107 96h309q46 0 71 -25.5t25 -66.5q0 -54 -51 -94q-46 -33 -84 -111q-104 -215 -319 -596q-25 -44 -33 -72t-8 -69v-131q-2 -66 19 -100t79 -62q70 -33 67 -86
q0 -39 -32 -64t-95 -24h-473z" />
    <glyph glyph-name="Z" unicode="Z" horiz-adv-x="1263" 
d="M135 0q-67 0 -98 27.5t-31 85.5q0 110 94 243l611 856q14 22 14 37t-20 21t-70 6q-109 0 -187 -32.5t-169 -108.5q-6 -5 -23.5 -20t-25.5 -22t-23.5 -19.5t-26 -18.5t-24.5 -13.5t-26 -10.5t-24 -3q-36 0 -54.5 32t-18.5 81q0 121 45 254q20 59 48.5 82.5t78.5 23.5h917
q58 0 84.5 -23.5t26.5 -76.5q0 -132 -105 -277l-598 -833q-18 -27 -18 -43q0 -13 16.5 -18t59.5 -5q130 0 218 32t171 105q23 20 54 48t48 43.5t37.5 31t37 22.5t32.5 7q36 0 56 -28t20 -76q0 -64 -13.5 -151t-29.5 -144q-20 -68 -54.5 -91.5t-103.5 -23.5h-926z" />
    <glyph glyph-name="bracketleft" unicode="[" horiz-adv-x="626" 
d="M195 -213q-66 0 -89.5 16.5t-23.5 67.5v1538q0 57 23.5 74.5t91.5 17.5h297q52 0 79 -28.5t27 -71.5q0 -60 -61 -92q-51 -27 -67.5 -62.5t-16.5 -109.5v-985q-2 -72 15.5 -109t68.5 -66q59 -34 59 -94q0 -43 -28 -70t-83 -26h-292z" />
    <glyph glyph-name="bracketright" unicode="]" horiz-adv-x="626" 
d="M432 1497q66 0 89.5 -16.5t23.5 -67.5v-1538q0 -57 -23.5 -74.5t-91.5 -17.5h-297q-52 0 -79 28.5t-27 71.5q0 60 61 92q51 27 67.5 62.5t16.5 109.5v986q2 72 -15.5 108.5t-68.5 65.5q-59 34 -59 94q0 43 27.5 70t82.5 26h293z" />
    <glyph glyph-name="asciicircum" unicode="^" horiz-adv-x="946" 
d="M762 1051q-67 0 -127 47l-162 123l-154 -127q-55 -43 -106 -43h-127q-51 0 -67 32.5t18 75.5l231 281q34 41 71 53t132 12q96 0 133 -11.5t68 -49.5l237 -285q34 -41 18 -74.5t-65 -33.5h-100z" />
    <glyph glyph-name="underscore" unicode="_" horiz-adv-x="815" 
d="M102 -264q-59 0 -80.5 20t-21.5 76v70q0 56 21.5 76t80.5 20h611q59 0 80.5 -20t21.5 -76v-70q0 -56 -21.5 -76t-80.5 -20h-611z" />
    <glyph glyph-name="grave" unicode="`" horiz-adv-x="604" 
d="M420 1151q-42 0 -68 7t-53 30l-254 223q-60 54 -45.5 93.5t86.5 39.5h199q84 0 131 -61l178 -236q29 -38 19 -67t-54 -29h-139z" />
    <glyph glyph-name="a" unicode="a" horiz-adv-x="1220" 
d="M399 -25q-74 0 -143 26t-123.5 74t-87.5 123.5t-33 166.5t39 168t102 126.5t140 77t156 27.5q51 0 114.5 -8t71.5 -8q31 0 31 32q0 63 -45.5 110.5t-120.5 47.5q-18 0 -38 -4t-36.5 -8.5t-40.5 -15.5t-36.5 -17t-39 -22t-35 -21.5t-37 -24t-32.5 -20.5q-82 -50 -125 47
q-42 102 -35 157.5t68 82.5q52 24 160 40.5t210 16.5q261 0 397.5 -94t163.5 -310l43 -360q21 -143 93 -209q41 -38 41 -84q0 -48 -56 -80.5t-135 -29.5q-135 0 -231 86q-23 18 -37 18t-37 -16q-139 -95 -326 -95zM387 408q0 -79 48.5 -141t131.5 -62q82 0 127 42t35 109
l-18 123q-9 53 -39.5 76t-104.5 23q-86 0 -133 -51t-47 -119z" />
    <glyph glyph-name="b" unicode="b" horiz-adv-x="1312" 
d="M614 -31q-162 0 -309 36.5t-235 94.5q-52 32 -52 90q0 50 33 74q46 35 62 69.5t16 100.5v774q0 64 -15 96.5t-55 57.5q-51 33 -51 82q0 38 24 63t72 25h269q57 0 89.5 -29t31.5 -80l-11 -379q0 -23 12 -24.5t29 16.5q116 119 267 119q112 0 206.5 -43t157 -115.5t97 -169
t34.5 -204.5q0 -191 -82.5 -339.5t-235.5 -231.5t-354 -83zM487 383q-1 -101 48 -152.5t137 -48.5q104 1 168.5 88.5t64.5 214.5q0 150 -71.5 257.5t-182.5 107.5q-67 0 -114.5 -42t-47.5 -106z" />
    <glyph glyph-name="c" unicode="c" horiz-adv-x="1144" 
d="M616 -33q-154 0 -288.5 75t-218.5 216.5t-84 319.5q0 165 83 300t221.5 210t301.5 75q118 0 233 -43t187 -110q51 -45 61.5 -85.5t-10 -77t-74.5 -89.5q-97 -90 -151 -90q-46 0 -82 65q-57 98 -108.5 146.5t-117.5 48.5q-72 0 -119 -65.5t-47 -166.5q0 -179 97.5 -306.5
t238.5 -127.5q118 0 252 98q29 23 54.5 18t56.5 -40q27 -30 26 -63t-34 -76q-82 -106 -206 -169t-272 -63z" />
    <glyph glyph-name="d" unicode="d" horiz-adv-x="1312" 
d="M502 -27q-205 0 -341 154.5t-136 386.5q0 177 73.5 322t207 230t300.5 85q58 0 135 -14q36 -9 47 -9q29 0 29 43v27q1 66 -15.5 99.5t-62.5 56.5q-57 36 -57 86q0 38 27 63t82 25h280q60 0 84.5 -27.5t24.5 -95.5v-1081q0 -66 12 -97.5t47 -54.5q57 -36 57 -84
q0 -39 -23 -63.5t-71 -24.5h-276q-83 0 -95 82q-6 30 -24.5 34t-38.5 -20q-96 -123 -266 -123zM399 637q0 -147 70.5 -260t179.5 -113q74 0 121 49t47 133l2 244q0 121 -53 183.5t-145 60.5q-98 -1 -160 -85t-62 -212z" />
    <glyph glyph-name="e" unicode="e" horiz-adv-x="1202" 
d="M633 -31q-123 0 -234.5 45t-193 122.5t-130.5 186.5t-50 232q-2 171 80.5 311t218 216.5t290.5 76.5q147 0 273 -62.5t199 -168t73 -226.5q0 -132 -153 -170q-52 -13 -232 -49q-162 -37 -219 -80q-29 -18 -29 -34q0 -32 49 -64q64 -49 166 -49q145 0 293 115
q37 26 64.5 22t56.5 -39q29 -34 28.5 -65t-28.5 -70q-82 -113 -225 -181.5t-297 -68.5zM375 713q0 -59 15 -107.5t42 -48.5q4 0 11 4t18.5 12t19.5 13q82 63 211 116q37 14 54.5 27.5t17.5 36.5q0 53 -63 107.5t-138 54.5q-79 0 -133.5 -59t-54.5 -156z" />
    <glyph glyph-name="f" unicode="f" horiz-adv-x="694" 
d="M121 0q-48 0 -71 24.5t-23 63.5q0 50 57 84q35 23 47 54.5t10 97.5v510q0 50 -12 68.5t-53 27.5t-58.5 30.5t-17.5 69.5q0 41 22.5 62t79.5 28q30 3 34 21t-19 37q-74 68 -74 143q0 100 100 170t246 70q153 0 250 -43q44 -17 61 -43.5t11 -62t-33 -89.5q-44 -86 -78 -86
q-7 0 -15.5 2.5t-13.5 5t-16.5 9t-15.5 8.5q-73 51 -131 51q-31 0 -49.5 -17.5t-18.5 -46.5q0 -54 61.5 -86.5t173.5 -32.5q58 0 79.5 -19t21.5 -69q0 -60 -18.5 -82.5t-65.5 -25.5h-25q-38 -1 -50.5 -18.5t-12.5 -63.5v-522q0 -67 13 -99t52 -55q66 -36 66 -86
q0 -39 -26.5 -64.5t-80.5 -25.5h-407z" />
    <glyph glyph-name="g" unicode="g" horiz-adv-x="1296" 
d="M623 -422q-116 0 -241.5 17t-211.5 43q-70 20 -80 67.5t33 159.5q26 66 59 78t97 -19q12 -5 63 -27.5t67.5 -29.5t58 -23t64 -21.5t54 -11.5t57.5 -6q167 0 164 199v66q0 28 -19.5 35.5t-42.5 -15.5q-107 -104 -253 -104q-212 0 -339.5 145.5t-127.5 374.5
q0 180 80.5 325.5t223 227.5t320.5 82q41 0 148 -10.5t180 -10.5q38 0 99 4t91 4h29q48 1 72 -24t24 -64q0 -48 -53 -82q-40 -24 -54.5 -56t-13.5 -97l-2 -488q0 -85 9 -213q8 -118 8 -137q0 -103 -40.5 -179t-117 -121.5t-177 -67t-228.5 -21.5zM401 604q0 -145 62 -231
t168 -86q91 0 135 43t43 133v233q2 101 -44.5 154t-137.5 53q-92 0 -159 -83t-67 -216z" />
    <glyph glyph-name="h" unicode="h" horiz-adv-x="1361" 
d="M123 0q-47 0 -70.5 25t-23.5 63q0 48 57 84q35 23 47 54.5t12 97.5v870q0 66 -14.5 98.5t-54.5 57.5q-51 33 -51 82q0 38 24 63t72 25h295q92 0 92 -90l-4 -392q0 -27 17 -31.5t34 21.5q42 56 111 91.5t151 35.5q285 0 336 -326l74 -479q18 -117 78 -166q57 -42 57 -100
q0 -37 -22 -60.5t-66 -23.5h-178q-110 0 -164.5 47t-67.5 160l-55 481q-9 84 -50.5 125t-109.5 41q-62 0 -101.5 -33.5t-39.5 -87.5v-403q0 -67 13 -99t52 -55q64 -37 64 -86q0 -38 -26.5 -64t-78.5 -26h-409z" />
    <glyph glyph-name="i" unicode="i" horiz-adv-x="630" 
d="M152 1223q-44 0 -69.5 25.5t-25.5 72.5q0 90 64.5 152.5t159.5 62.5t161 -63t66 -152q0 -48 -25.5 -73t-70.5 -25h-260zM18 1042q0 38 24.5 63t72.5 25l28 -2h248q59 0 84 -29.5t25 -99.5v-673q0 -67 12.5 -99t48.5 -53q33 -21 46.5 -41t13.5 -45q0 -38 -24.5 -63
t-74.5 -25h-405q-48 0 -71 24.5t-23 63.5q0 48 57 84q35 23 47 54.5t12 97.5v481q0 66 -14.5 98t-54.5 55q-52 36 -52 84z" />
    <glyph glyph-name="j" unicode="j" horiz-adv-x="538" 
d="M145 -377q-74 0 -149 19.5t-121 50.5q-39 25 -46.5 56.5t11.5 68.5q15 37 34 50.5t48 8.5q39 -8 88 -8q113 0 113 117v819q1 65 -13.5 97t-54.5 56q-54 37 -51 84q0 39 23.5 63.5t72.5 24.5l27 -2h248q60 0 85 -29.5t25 -99.5l2 -1075q0 -140 -93.5 -220.5t-248.5 -80.5z
M31 1323q0 90 65 152.5t158 62.5q95 0 161 -63t66 -152q0 -98 -94 -98h-260q-44 0 -70 26t-26 72z" />
    <glyph glyph-name="k" unicode="k" horiz-adv-x="1224" 
d="M121 0q-48 0 -72 25t-24 63q0 48 57 84q36 23 47.5 53.5t11.5 98.5v870q0 67 -14 99t-55 57q-52 33 -52 82q2 39 25.5 63.5t71.5 24.5h297q92 0 92 -90l-2 -607q0 -15 7.5 -21.5t19 -2t22.5 17.5q82 100 139 152q90 82 187.5 129t175.5 47q95 0 110 -227q1 -38 -19 -56.5
t-65 -23.5q-147 -15 -260 -54q-26 -8 -29.5 -25.5t21.5 -29.5q78 -35 128.5 -96.5t88.5 -155.5l68 -164q31 -80 86 -120q53 -39 53 -99q0 -42 -24.5 -68t-65.5 -26h-232q-77 0 -115 46.5t-61 137.5l-47 158q-60 205 -149 205q-39 0 -39 -43v-174q0 -67 13 -99t52 -55
q62 -37 62 -86q0 -38 -26 -64t-77 -26h-407z" />
    <glyph glyph-name="l" unicode="l" horiz-adv-x="638" 
d="M121 0q-48 0 -72 25t-24 63q0 48 57 84q36 23 47.5 53.5t11.5 98.5v872q0 66 -14 98.5t-55 55.5q-52 33 -52 84q2 38 25.5 62.5t71.5 23.5h293q96 0 96 -107v-1087q-2 -67 10.5 -98.5t48.5 -53.5q33 -21 46.5 -41t13.5 -45q0 -38 -24.5 -63t-74.5 -25h-405z" />
    <glyph glyph-name="m" unicode="m" horiz-adv-x="1996" 
d="M117 0q-48 0 -71 24.5t-23 63.5q0 48 57 84q35 23 47 54.5t12 97.5v481q0 66 -14.5 98t-54.5 55q-52 36 -52 84q0 38 24.5 63t72.5 25l28 -2h232q47 0 71 -22t43 -82q6 -18 21 -19.5t27 13.5q47 66 120 101.5t160 35.5q173 0 262 -141q2 -2 5.5 -8t5.5 -8.5t5.5 -6t7 -5
t7.5 -1.5q2 0 4.5 0.5t4.5 2t4 2.5t4.5 3.5l4 4t4 5t3.5 5t4 5t4 5.5q105 137 293 137q288 0 340 -328l80 -477q18 -118 77 -166q60 -42 60 -100q0 -36 -24 -60t-66 -24h-185q-111 0 -164 47t-65 160l-55 481q-10 87 -50.5 128.5t-109.5 39.5q-56 -2 -86.5 -32.5
t-30.5 -84.5l2 -413q0 -59 16 -88.5t66 -53.5q37 -21 53.5 -42.5t16.5 -55.5q0 -41 -25 -63.5t-73 -22.5h-332q-134 0 -137 119q0 41 24 76q31 31 31 92l-2 387q-1 89 -41.5 135.5t-112.5 46.5q-67 0 -106 -34t-39 -91v-401q-2 -66 11.5 -98.5t53.5 -55.5q64 -37 64 -86
q0 -39 -26.5 -64.5t-80.5 -25.5h-407z" />
    <glyph glyph-name="n" unicode="n" horiz-adv-x="1355" 
d="M117 0q-48 0 -71 24.5t-23 63.5q0 48 57 84q35 23 47 54.5t12 97.5v481q0 66 -14.5 98t-54.5 55q-52 36 -52 84q0 38 24.5 63t72.5 25l28 -2h240q45 0 67.5 -24t36.5 -82q6 -21 20.5 -23t29.5 19q44 62 116.5 99.5t157.5 37.5q285 0 336 -324l74 -481q18 -118 75 -166
q60 -42 60 -100q0 -37 -22.5 -60.5t-65.5 -23.5h-178q-111 0 -165.5 47.5t-66.5 159.5l-57 481q-17 166 -160 166q-62 0 -100.5 -33.5t-38.5 -87.5v-403q-2 -66 11.5 -98.5t53.5 -55.5q64 -37 64 -86q0 -39 -26.5 -64.5t-80.5 -25.5h-407z" />
    <glyph glyph-name="o" unicode="o" horiz-adv-x="1261" 
d="M629 -33q-125 0 -237.5 46t-192.5 124.5t-127 188t-47 231.5q0 172 80.5 310.5t222.5 217t319 78.5q124 0 233.5 -47.5t187 -128.5t122.5 -192.5t45 -235.5q0 -167 -79.5 -303t-218 -212.5t-308.5 -76.5zM395 690q0 -110 39 -222t107 -187.5t143 -75.5q79 0 129.5 60.5
t50.5 160.5q0 115 -39 230t-107 191.5t-143 76.5q-79 0 -129.5 -64t-50.5 -170z" />
    <glyph glyph-name="p" unicode="p" horiz-adv-x="1318" 
d="M113 -379q-48 0 -72.5 25t-24.5 63q0 48 58 84q35 23 47 54.5t12 97.5v860q0 66 -14.5 98t-55.5 55q-51 35 -51 84q0 38 24.5 63t72.5 25l28 -2h250q43 0 62.5 -22t33.5 -78q6 -22 22.5 -24.5t31.5 20.5q43 63 113.5 98t152.5 35q143 0 256.5 -74t174 -195t60.5 -265
q0 -142 -48 -263.5t-130.5 -205.5t-195.5 -131.5t-242 -47.5q-52 0 -121 19q-20 4 -31 4q-30 0 -30 -45v-12q0 -66 13 -96.5t52 -53.5q66 -36 66 -82q0 -38 -26.5 -63t-80.5 -25h-407zM496 401q-1 -99 46.5 -149.5t135.5 -50.5q102 0 169.5 84t67.5 213q0 142 -74 247
t-186 105q-66 0 -112 -43t-47 -109v-297z" />
    <glyph glyph-name="q" unicode="q" horiz-adv-x="1296" 
d="M784 -381q-52 0 -78 25.5t-26 62.5q0 48 63 84q39 24 55 55.5t17 96.5l2 116q0 33 -18 33q-6 0 -11.5 -2.5t-9 -5.5t-11 -10.5t-11.5 -10.5q-108 -88 -242 -88q-147 0 -260 74t-171 194t-58 265q0 286 171 463.5t445 177.5q63 0 168.5 -24.5t159.5 -24.5q32 0 94 20
q64 19 82 19q34 0 55 -20t21 -52q0 -26 -21 -80q-29 -74 -29 -162v-882q0 -65 13 -96.5t47 -55.5q55 -36 55 -84q-2 -39 -25 -63.5t-69 -24.5h-408zM401 614q0 -138 70.5 -240t179.5 -102q67 0 113 42t47 106l2 301q0 101 -48 152t-134 49q-100 -1 -165 -90t-65 -218z" />
    <glyph glyph-name="r" unicode="r" horiz-adv-x="868" 
d="M117 0q-48 0 -71 24.5t-23 63.5q0 48 57 84q35 23 47 54.5t12 97.5v481q0 66 -14.5 98t-54.5 55q-52 36 -52 84q0 38 24.5 63t72.5 25l28 -2h258q68 0 88 -65l11 -37q5 -17 18.5 -18t24.5 16q45 67 90 95t102 28q131 0 131 -162q0 -65 -17.5 -132.5t-50.5 -115t-71 -47.5
q-35 0 -65 35q-20 23 -37.5 32t-42.5 9q-37 0 -58.5 -25.5t-21.5 -74.5v-338q-2 -67 12 -99t55 -55q66 -36 66 -84q0 -38 -27.5 -64t-81.5 -26h-409z" />
    <glyph glyph-name="s" unicode="s" horiz-adv-x="1007" 
d="M469 -31q-126 1 -232 28.5t-167 70.5q-59 41 -64.5 95.5t39.5 143.5q29 78 78 78q10 0 20.5 -3.5t18 -7.5t21 -14.5t21.5 -17.5t26.5 -24t29.5 -27q126 -123 229 -123q55 0 93.5 31t38.5 71q0 50 -55 88t-183 80q-192 60 -277.5 141.5t-85.5 208.5q0 166 143 271.5
t369 105.5q105 0 204.5 -28t154.5 -68q67 -44 74.5 -94.5t-37.5 -145.5q-23 -55 -66 -55q-20 0 -47.5 20t-85.5 72q-117 105 -213 105q-51 0 -86 -29t-35 -72q0 -47 53.5 -76.5t217.5 -82.5q175 -56 256.5 -141t81.5 -214q0 -174 -149.5 -280.5t-385.5 -106.5z" />
    <glyph glyph-name="t" unicode="t" horiz-adv-x="686" 
d="M354 0q-136 1 -196 59t-60 189q0 91 35 338q35 236 35 286q0 42 -16 56.5t-78 17.5q-42 1 -58 22.5t-16 69.5q0 32 13.5 53t47.5 39q101 53 146 103q46 46 110 149q39 54 93 54q76 0 73 -70l-2 -186q-2 -32 10.5 -42t55.5 -10h74q42 0 58 -21.5t15 -76.5q1 -58 -18 -82
t-64 -24h-65q-44 0 -55 -13t-11 -67q-2 -182 -2 -543q0 -48 18 -68t83 -40q63 -19 85.5 -38t22.5 -67q0 -43 -22.5 -65.5t-63.5 -22.5h-248z" />
    <glyph glyph-name="u" unicode="u" horiz-adv-x="1312" 
d="M496 -35q-172 2 -270.5 88t-98.5 266v486q0 66 -14.5 98t-55.5 55q-51 35 -51 84q0 38 24 63t72 25l29 -2h254q58 0 84 -26.5t25 -85.5l-5 -584q-2 -78 37.5 -121t114.5 -43q79 0 127.5 45.5t48.5 116.5v375q0 66 -16 98.5t-62 57.5q-58 34 -55 81q0 38 26.5 63t80.5 25
l30 -2h252q62 0 85.5 -27t23.5 -95l-2 -682q0 -68 11.5 -98.5t47.5 -53.5q57 -36 57 -84q0 -38 -24 -63t-72 -25h-278q-43 0 -63.5 19.5t-31.5 66.5q-6 26 -26 30t-37 -20q-43 -63 -114.5 -98t-153.5 -33z" />
    <glyph glyph-name="v" unicode="v" horiz-adv-x="1251" 
d="M616 -6h-73q-50 0 -83 24.5t-61 81.5q-171 361 -276 715q-27 85 -82 137q-39 39 -39 86q0 39 25.5 64.5t66.5 25.5h430q42 0 66 -22.5t24 -61.5q0 -60 -51 -94q-46 -31 -55 -63t6 -88q55 -207 152 -414q12 -27 29 -26t28 28q41 85 83 204t62 206q6 32 8 49.5t-1.5 38.5
t-16.5 37t-37 32q-49 34 -49 88q0 35 24 60.5t64 25.5h301q44 0 67 -24t23 -64q0 -41 -47 -88q-41 -44 -65 -127q-49 -179 -125 -386t-144 -347q-27 -56 -54 -79t-71 -23q-20 0 -63.5 2t-65.5 2z" />
    <glyph glyph-name="w" unicode="w" horiz-adv-x="1896" 
d="M584 -6q-106 0 -141 20.5t-74 110.5q-126 286 -265 721q-18 65 -61 102q-43 46 -43 92q0 44 27.5 66t72.5 22h406q97 0 100 -79q0 -58 -63 -103q-41 -24 -48.5 -54.5t7.5 -78.5q37 -150 127 -358q8 -20 18.5 -27.5t21 -1t17.5 24.5q95 244 119 358q11 49 2.5 81t-43.5 64
q-51 45 -51 95q0 79 98 79h432q40 0 61 -23t21 -58q0 -55 -53 -97q-38 -27 -47.5 -56t2.5 -73q57 -206 137 -377q11 -24 25.5 -24t25.5 24q91 208 125 375q11 50 -1 80t-56 57q-47 35 -47 82q-2 41 24 65.5t72 24.5h272q46 0 68 -24.5t22 -63.5q0 -48 -43 -94
q-38 -43 -69 -145q-130 -433 -248 -707q-21 -48 -38 -66t-50 -25t-109 -7q-105 -2 -141 12t-61 68q-89 183 -160 383q-9 23 -24.5 23t-24.5 -23q-93 -260 -140 -373q-26 -61 -61.5 -76.5t-140.5 -15.5z" />
    <glyph glyph-name="x" unicode="x" horiz-adv-x="1245" 
d="M104 0q-48 0 -74 23.5t-26 62.5q0 49 49 90q55 40 90 96q88 143 207 297q24 34 21.5 52.5t-29.5 52.5q-92 109 -172 211q-38 53 -92 73q-62 33 -62 91q0 34 25.5 56.5t69.5 22.5h479q47 0 73.5 -20.5t26.5 -60.5q0 -50 -51 -80q-34 -19 -38.5 -37.5t15.5 -46.5
q68 -95 76 -105q19 -23 32 -23.5t30 19.5q28 32 75 98q20 28 18.5 47.5t-32.5 38.5q-51 35 -51 86q0 35 26.5 59.5t71.5 24.5h275q43 0 66.5 -23t23.5 -56q0 -44 -47 -78q-1 -1 -14 -10.5t-15.5 -11.5t-12.5 -10.5t-15 -14.5t-12.5 -16t-14.5 -21q-93 -142 -197 -269
q-21 -28 -20.5 -45.5t24.5 -42.5q96 -116 211 -286q5 -8 10 -14.5t11 -13t10 -10.5t11 -10.5t10.5 -9.5t13.5 -11t14 -11q26 -21 38.5 -38.5t12.5 -45.5q0 -32 -23 -56t-57 -24h-483q-44 0 -72 22t-28 58q0 29 10.5 49t40.5 41q34 23 37.5 43t-19.5 55q-47 76 -90 127
q-21 21 -34 21t-31 -23q-50 -66 -82 -129q-17 -34 -14 -49.5t34 -40.5q26 -20 36.5 -39t10.5 -47q0 -36 -21 -62t-61 -26h-295z" />
    <glyph glyph-name="y" unicode="y" horiz-adv-x="1232" 
d="M252 -373q-36 0 -61 23.5t-25 52.5q0 38 41 74l221 186q27 23 30.5 47t-14.5 56q-183 388 -333 792q-22 57 -66 98q-45 33 -45 84q0 39 27 63.5t75 24.5h398q58 0 84 -20.5t26 -65.5q0 -27 -14 -44.5t-49 -36.5q-20 -13 -31.5 -26t-17 -23t-3.5 -28t4.5 -28t10.5 -36
q3 -9 4 -13q63 -207 156 -401q31 -63 55 0q95 228 141 401q16 46 9.5 78t-44.5 63q-55 51 -55 96q0 37 22.5 60.5t61.5 23.5h281q43 0 67.5 -23.5t24.5 -57.5q0 -48 -43 -86q-45 -42 -78 -146q-104 -331 -254 -698q-44 -103 -71 -163t-69.5 -137t-84.5 -134
q-39 -56 -109 -56h-272z" />
    <glyph glyph-name="z" unicode="z" horiz-adv-x="1032" 
d="M123 0q-53 0 -80 29t-27 77q0 52 45 117l431 633q26 42 26 55t-11 20t-26 7q-60 0 -194 -80q-41 -25 -61.5 -36.5t-54.5 -25.5t-56 -14q-31 0 -52 19t-22 55q0 87 27 203q18 69 106 69h731q96 0 96 -92q0 -65 -38 -121l-451 -653q-18 -21 -18 -43t41 -22q32 1 106.5 26.5
t146.5 59.5q17 8 46.5 22.5t45 21.5t35 13t33.5 6q72 0 72 -104q0 -91 -23 -166q-11 -40 -39.5 -58t-83.5 -18h-751z" />
    <glyph glyph-name="braceleft" unicode="{" horiz-adv-x="768" 
d="M637 -307q-456 0 -459 549q-2 159 -18.5 209.5t-69.5 50.5q-41 0 -58.5 19t-17.5 75q0 50 15.5 68.5t54.5 21.5q53 6 66.5 48.5t11.5 180.5q0 302 121 451.5t374 149.5q45 0 72 -19.5t27 -54.5q0 -18 -5 -31t-18 -23t-21.5 -14.5t-29.5 -13.5q-98 -40 -98 -246v-166
q0 -131 -41 -212.5t-142 -117.5q-13 -5 -18.5 -13.5t0 -17.5t20.5 -14q114 -40 163.5 -135t51.5 -250v-110q0 -171 70 -213q4 -3 16.5 -11.5t16.5 -11.5t12.5 -11t11.5 -14t6 -15.5t3 -20.5q0 -41 -30.5 -64.5t-86.5 -23.5z" />
    <glyph glyph-name="bar" unicode="|" horiz-adv-x="456" 
d="M195 -350q-61 0 -83 23.5t-22 88.5v1760q0 66 21.5 89t83.5 23h67q62 0 83.5 -23t21.5 -89v-1760q0 -65 -22 -88.5t-83 -23.5h-67z" />
    <glyph glyph-name="braceright" unicode="}" horiz-adv-x="780" 
d="M143 1511q456 0 459 -548q2 -159 18.5 -210t69.5 -51q41 0 58.5 -19t17.5 -75q0 -50 -15.5 -68.5t-54.5 -21.5q-53 -6 -66.5 -48.5t-11.5 -180.5q0 -302 -121 -451t-374 -149q-45 0 -71.5 19t-26.5 54q0 18 4.5 31t17.5 23t21.5 14.5t29.5 13.5q99 40 99 246v166
q0 131 40.5 212.5t141.5 117.5q13 5 18.5 13.5t0 17.5t-20.5 14q-114 40 -163.5 135t-51.5 250v110q0 171 -70 213q-4 3 -14 10t-14.5 10t-11.5 9t-10.5 11t-7.5 12t-5.5 15t-1.5 17q0 41 30 64.5t86 23.5z" />
    <glyph glyph-name="asciitilde" unicode="~" horiz-adv-x="1110" 
d="M819 496q-41 0 -97.5 17t-94.5 34t-119 55q-95 46 -142 64t-77 18t-50 -18.5t-44 -65.5q-39 -74 -117 -51q-50 13 -59.5 51.5t14.5 108.5q44 168 107 238.5t163 70.5q98 0 295 -96q190 -93 236 -93q28 0 49 20.5t47 68.5q39 74 119 43q37 -15 43 -54t-17 -106
q-45 -171 -100.5 -238t-155.5 -67z" />
    <glyph glyph-name="uni00A0" unicode="&#xa0;" horiz-adv-x="587" 
 />
    <glyph glyph-name="sterling" unicode="&#xa3;" horiz-adv-x="1286" 
d="M123 0q-50 -1 -75 24.5t-25 65.5q-3 53 53 86q47 26 63.5 60t14.5 100v239h-37q-59 -2 -82 21t-23 84v39q0 61 23 83.5t82 20.5h37v234q0 141 73.5 248.5t195 162t271.5 54.5q140 0 269 -52t227 -153q41 -43 57 -73t6 -59t-34.5 -53.5t-77.5 -64.5q-100 -76 -144 -76
q-47 0 -86 82q-96 209 -231 209q-58 0 -94.5 -38.5t-36.5 -102.5v-316l319 4q60 0 82.5 -21t22.5 -81v-41q0 -60 -22.5 -81t-82.5 -21l-319 2v-187q0 -107 31.5 -152.5t111.5 -45.5q128 0 277 108q31 22 91 70.5t91.5 67t60.5 18.5q31 0 48.5 -20t17.5 -56q0 -14 -2 -30
t-7.5 -40t-9.5 -39.5t-14 -48.5t-14 -46t-17 -54t-16 -51q-15 -44 -42.5 -62t-78.5 -18h-954z" />
    <glyph glyph-name="yen" unicode="&#xa5;" horiz-adv-x="1423" 
d="M485 0q-62 0 -93.5 26t-31.5 66q0 54 70 84q55 25 74.5 54t19.5 85l-297 -2q-43 0 -60 16t-17 58v47q0 44 17 60t60 16l295 -2q-4 30 -30 80l-265 -2q-43 0 -60 15.5t-17 57.5v48q0 44 17 59.5t60 15.5l150 -2q-86 149 -227 420q-21 42 -41.5 68.5t-53.5 50.5
q-28 21 -41.5 42t-13.5 52q0 40 26 64t70 24h471q109 0 109 -92q0 -32 -13.5 -51t-41.5 -35q-46 -22 -46 -59q0 -26 21 -68q93 -202 166 -305q18 -29 33 -30t36 30q87 136 162 309q19 48 19 66q0 33 -43 55q-34 19 -50 37t-16 47q0 96 107 96h309q46 0 71 -25.5t25 -66.5
q0 -54 -51 -94q-46 -33 -84 -111q-102 -208 -223 -424l135 2q45 0 62.5 -15.5t17.5 -59.5v-48q0 -42 -17.5 -57.5t-62.5 -15.5l-242 2q-22 -39 -28 -80l270 2q45 0 62.5 -16t17.5 -60v-47q0 -42 -17.5 -58t-62.5 -16l-272 2q1 -55 22 -84.5t76 -56.5q70 -33 67 -86
q0 -39 -32 -64t-95 -24h-473z" />
    <glyph glyph-name="dieresis" unicode="&#xa8;" horiz-adv-x="1021" 
d="M748 1157q-80 0 -136.5 58t-56.5 141q0 87 60.5 149t144.5 62q82 0 139 -58t57 -141q0 -88 -61 -149.5t-147 -61.5zM59 1356q0 87 61 149t146 62q80 0 136.5 -58t56.5 -141q0 -88 -61.5 -149.5t-147.5 -61.5q-78 0 -134.5 58t-56.5 141z" />
    <glyph glyph-name="copyright" unicode="&#xa9;" horiz-adv-x="1611" 
d="M807 -33q-159 0 -305.5 62.5t-253.5 167.5t-170.5 249.5t-63.5 301.5q0 208 107.5 387.5t290.5 285t395 105.5q158 0 304 -62.5t252.5 -167t170 -248.5t63.5 -300q0 -157 -63.5 -301.5t-170 -249.5t-252.5 -167.5t-304 -62.5zM117 748q0 -139 55 -266.5t148 -220.5
t220.5 -148.5t266.5 -55.5q138 0 265.5 55.5t220 148.5t147.5 220.5t55 266.5q0 111 -35 215.5t-99.5 189t-149 149t-189 99.5t-215.5 35q-139 0 -266.5 -55t-220.5 -148t-148 -220t-55 -265zM281 748q0 212 153 357.5t377 145.5q140 0 260.5 -62t190.5 -157q26 -43 -21 -67
l-119 -62q-45 -28 -67 23q-51 102 -109.5 149t-134.5 47q-125 0 -207 -105t-82 -269t82 -270.5t207 -106.5q167 0 258 209q21 45 68 24l114 -55q50 -22 25 -64q-70 -109 -196 -176t-269 -67q-147 0 -269 67t-191.5 183t-69.5 256z" />
    <glyph glyph-name="guillemotleft" unicode="&#xab;" horiz-adv-x="1116" 
d="M322 0q-29 0 -48 12t-36 41l-183 318q-5 9 -15 26t-13.5 23.5t-8.5 18t-6.5 22t-1.5 24.5q0 21 6.5 39.5t13.5 29l27 40.5l211 328q24 41 74 41h246q35 0 44 -29.5t-16 -67.5l-243 -352q-3 -5 -9 -12t-8 -12t-2 -11q0 -11 17 -35l217 -346q25 -37 17 -67.5t-44 -30.5
h-239zM489 485q0 20 7 39.5t13 28.5t28 41l208 328q27 41 74 41h248q34 0 43.5 -29.5t-16.5 -67.5l-244 -352q-3 -5 -7.5 -12t-6.5 -12t-2 -11q0 -11 14 -35l219 -346q25 -37 16.5 -67.5t-43.5 -30.5h-239q-29 0 -48 12t-38 41l-180 318q-6 10 -15.5 26t-13.5 23t-9 18.5
t-6.5 22t-1.5 24.5z" />
    <glyph glyph-name="uni00AD" unicode="&#xad;" 
 />
    <glyph glyph-name="registered" unicode="&#xae;" horiz-adv-x="667" 
d="M334 881q-138 0 -232 91.5t-94 225.5q0 131 94.5 223t231.5 92t230 -92t93 -223q0 -134 -92.5 -225.5t-230.5 -91.5zM86 1198q0 -106 72 -180t176 -74t176 74t72 180q0 104 -72.5 178t-175.5 74q-104 0 -176 -73.5t-72 -178.5zM199 1055v293q0 24 24 24h139q53 0 86 -30
t33 -80q0 -78 -59 -101q-17 -7 -6 -24l73 -80q6 -6 7.5 -12.5t-2.5 -10.5t-13 -4h-37q-21 0 -30 12l-82 88q-17 19 -35 19h-12q-15 0 -15 -14v-80q0 -25 -22 -25h-25q-24 0 -24 25zM270 1229q0 -7 5.5 -12t11.5 -5h69q22 0 37 13.5t15 34.5t-15 34t-37 13h-73q-13 0 -13 -15
v-63z" />
    <glyph glyph-name="macron" unicode="&#xaf;" horiz-adv-x="815" 
d="M123 1206q-69 0 -94 20.5t-25 78.5v67q0 58 24.5 78t94.5 20h575q70 0 94.5 -20t24.5 -78v-67q0 -58 -25 -78.5t-94 -20.5h-575z" />
    <glyph glyph-name="acute" unicode="&#xb4;" horiz-adv-x="604" 
d="M59 1151q-44 0 -54 29t18 67l180 236q47 61 131 61h188q72 0 86 -39.5t-45 -93.5l-256 -223q-26 -23 -52 -30t-69 -7h-127z" />
    <glyph glyph-name="cedilla" unicode="&#xb8;" horiz-adv-x="520" 
d="M213 -483q-97 0 -160 49q-26 18 -35 45t7 57q13 23 38.5 29.5t49.5 -4.5q34 -19 69 -19q66 0 66 72q0 32 -17 49t-57 23q-37 3 -48 31.5t11 66.5l72 123l186 -2l-65 -103q93 -22 146.5 -72.5t53.5 -117.5q0 -95 -91 -161t-226 -66z" />
    <glyph glyph-name="guillemotright" unicode="&#xbb;" horiz-adv-x="1099" 
d="M539 0q-35 0 -43.5 30.5t16.5 67.5l219 346q14 24 14 35q0 6 -2 11t-6.5 12t-7.5 12l-244 352q-26 38 -16.5 67.5t43.5 29.5h248q47 0 74 -41l208 -328q37 -54 43 -75q5 -15 5 -34q0 -14 -1.5 -24.5t-6.5 -22t-9 -18.5t-13.5 -23t-15.5 -26l-180 -318q-19 -29 -38 -41
t-48 -12h-239zM6 866q-25 38 -15.5 67.5t42.5 29.5h248q46 0 73 -41l211 -328q27 -39 36 -59t9 -50q0 -12 -1.5 -22t-3 -16.5t-6.5 -17.5t-7.5 -15.5t-11.5 -20t-13 -22.5l-182 -318q-31 -53 -86 -53h-240q-35 0 -43 30.5t17 67.5l219 346q14 20 14 35q0 9 -16 35z" />
    <glyph glyph-name="onequarter" unicode="&#xbc;" horiz-adv-x="1521" 
d="M82 700q-37 0 -56.5 16.5t-19.5 45.5q0 37 39 55q36 16 46.5 35t10.5 55v350q0 27 -12 38t-49 20q-43 13 -43 49q0 29 27 51t108 51q64 24 97 31.5t75 7.5q57 0 57 -45v-553q0 -34 10.5 -53.5t41.5 -36.5q30 -20 30 -57q0 -28 -17 -44t-46 -16h-299zM139 74l418 710
l365 662q27 55 82 55h116q34 0 47.5 -19.5t-6.5 -54.5l-424 -733l-356 -639q-16 -29 -34 -42t-48 -13h-117q-35 0 -48 18.5t5 55.5zM809 279q0 59 8.5 88.5t38.5 74.5q84 121 221 267q54 56 83 72t85 16h144q45 0 45 -45v-338q0 -15 6.5 -21t27.5 -6q31 0 41.5 -7.5
t10.5 -31.5v-102q0 -35 -56 -43q-24 -4 -27 -9t-3 -22q0 -37 39 -61q32 -19 32 -54q-3 -57 -65 -57h-266q-32 0 -50 15.5t-18 43.5q0 33 35 54q24 15 32.5 29t8.5 36q-4 25 -23 25h-264q-52 0 -69 16.5t-17 59.5zM993 414q-10 -12 -6.5 -25.5t21.5 -13.5h139q18 0 24.5 7
t6.5 30v178q0 15 -9.5 18t-21.5 -8q-65 -58 -154 -186z" />
    <glyph glyph-name="onehalf" unicode="&#xbd;" horiz-adv-x="1536" 
d="M82 700q-37 0 -56.5 16.5t-19.5 45.5q0 37 39 55q36 16 46.5 35t10.5 55v350q0 27 -12 38t-49 20q-43 13 -43 49q0 29 27 51t108 51q64 24 97 31.5t75 7.5q57 0 57 -45v-553q0 -34 10.5 -53.5t41.5 -36.5q30 -20 30 -57q0 -28 -17 -44t-46 -16h-299zM139 74l418 710
l365 662q27 55 82 55h116q34 0 47.5 -19.5t-6.5 -54.5l-424 -733l-356 -639q-16 -29 -34 -42t-48 -13h-117q-35 0 -48 18.5t5 55.5zM817 614q40 88 138 143.5t233 55.5q140 0 236 -73t96 -185q0 -26 -7 -51.5t-14.5 -44t-27 -42t-29.5 -35t-38 -34.5t-37.5 -30t-41.5 -31
q-41 -30 -87.5 -59t-63.5 -42q-29 -18 -29 -32q0 -9 10.5 -11t46.5 -2q47 0 92 20.5t125 78.5q48 39 72 39q43 0 43 -54q0 -41 -29 -151q-10 -38 -26.5 -56t-53.5 -18h-534q-57 0 -57 66q0 98 75 176q43 49 127 110q103 76 153 130.5t50 105.5q0 35 -20.5 58.5t-51.5 23.5
q-14 0 -24.5 -4t-20.5 -16t-16 -21t-15 -33t-14 -38t-16 -48q-7 -26 -27.5 -32t-64.5 5q-109 24 -141.5 53.5t-10.5 77.5z" />
    <glyph glyph-name="threequarters" unicode="&#xbe;" horiz-adv-x="1755" 
d="M350 688q-202 0 -317 100q-49 37 -26 74.5t136 93.5q41 22 63.5 20t35.5 -32q28 -60 54 -87.5t62 -27.5q34 0 55 23.5t21 60.5q0 66 -39 96.5t-119 32.5q-30 0 -39.5 11.5t-9.5 42.5q0 47 13 67.5t49 24.5q65 8 94 27.5t29 66.5q0 34 -20 59t-50 25q-31 0 -52 -23.5
t-42 -76.5q-11 -29 -33 -34.5t-74 13.5q-94 37 -118 66t8 67q54 63 143.5 99t196.5 36q140 0 228.5 -58.5t88.5 -147.5q0 -87 -129 -131q-14 -5 -14.5 -15t12.5 -16q156 -61 156 -195q0 -114 -103 -188t-260 -74zM373 74l418 710l364 662q27 55 82 55h117q34 0 47.5 -19.5
t-6.5 -54.5l-424 -733l-357 -639q-16 -29 -34 -42t-48 -13h-116q-35 0 -48 18.5t5 55.5zM1042 279q0 59 9 88.5t39 74.5q84 121 221 267q54 56 83 72t85 16h143q45 0 45 -45v-338q0 -14 7 -20.5t28 -6.5q31 0 41 -7.5t10 -31.5v-102q0 -35 -55 -43q-24 -4 -28 -9
q-3 -6 -3 -22q0 -37 39 -61q33 -20 33 -54q-2 -27 -19 -42t-47 -15h-266q-32 0 -50 15.5t-18 43.5q0 33 35 54q24 15 32.5 29t8.5 36q-4 25 -22 25h-265q-52 0 -69 16.5t-17 59.5zM1227 414q-10 -12 -7 -25.5t21 -13.5h139q18 0 24.5 7t6.5 30v178q0 15 -9.5 18t-21.5 -8
q-62 -56 -153 -186z" />
    <glyph glyph-name="Agrave" unicode="&#xc0;" horiz-adv-x="1601" 
d="M96 0q-43 0 -65.5 22.5t-22.5 63.5q0 57 55 100q29 25 44.5 49.5t29.5 67.5q141 436 189 565q118 312 239 539q33 61 61.5 83.5t75.5 22.5q15 0 44 -2t40 -2q14 0 45 2t48 2q39 0 62.5 -18t47.5 -57q81 -136 147.5 -287.5t153.5 -378.5q75 -190 176 -489q19 -52 80 -107
q47 -41 47 -90q0 -36 -21.5 -61t-64.5 -25h-508q-45 0 -70.5 24t-25.5 64q0 63 72 102q55 27 55 80q0 36 -18 95q-13 54 -70 51h-209h-221q-33 0 -49.5 -12t-24.5 -39q-16 -53 -16 -84q0 -43 59 -86q66 -50 66 -105q0 -37 -20 -63.5t-62 -26.5h-369zM500 1776
q-68 50 -56 92.5t82 42.5h230q82 0 133 -62l160 -172q25 -28 31 -52t-9 -38t-47 -14h-182q-51 0 -90 26zM547 717q-10 -32 -0.5 -48t41.5 -16h270q32 0 38.5 15.5t-7.5 56.5q-22 71 -67.5 180t-84.5 182q-12 21 -25 21t-24 -21q-98 -208 -141 -370z" />
    <glyph glyph-name="Aacute" unicode="&#xc1;" horiz-adv-x="1601" 
d="M96 0q-43 0 -65.5 22.5t-22.5 63.5q0 57 55 100q29 25 44.5 49.5t29.5 67.5q141 436 189 565q118 312 239 539q33 61 61.5 83.5t75.5 22.5q15 0 44 -2t40 -2q14 0 45 2t48 2q39 0 62.5 -18t47.5 -57q81 -136 147.5 -287.5t153.5 -378.5q75 -190 176 -489q19 -52 80 -107
q47 -41 47 -90q0 -36 -21.5 -61t-64.5 -25h-508q-45 0 -70.5 24t-25.5 64q0 63 72 102q55 27 55 80q0 36 -18 95q-13 54 -70 51h-209h-221q-33 0 -49.5 -12t-24.5 -39q-16 -53 -16 -84q0 -43 59 -86q66 -50 66 -105q0 -37 -20 -63.5t-62 -26.5h-369zM547 717
q-10 -32 -0.5 -48t41.5 -16h270q32 0 38.5 15.5t-7.5 56.5q-22 71 -67.5 180t-84.5 182q-12 21 -25 21t-24 -21q-98 -208 -141 -370zM614 1686l160 172q53 61 135 61h228q34 0 56.5 -12.5t28.5 -31.5t-8 -44t-49 -49l-252 -172q-39 -29 -96 -29h-176q-49 0 -56.5 31t29.5 74
z" />
    <glyph glyph-name="Acircumflex" unicode="&#xc2;" horiz-adv-x="1601" 
d="M96 0q-43 0 -65.5 22.5t-22.5 63.5q0 57 55 100q29 25 44.5 49.5t29.5 67.5q141 436 189 565q118 312 239 539q33 61 61.5 83.5t75.5 22.5q15 0 44 -2t40 -2q14 0 45 2t48 2q39 0 62.5 -18t47.5 -57q81 -136 147.5 -287.5t153.5 -378.5q75 -190 176 -489q19 -52 80 -107
q47 -41 47 -90q0 -36 -21.5 -61t-64.5 -25h-508q-45 0 -70.5 24t-25.5 64q0 63 72 102q55 27 55 80q0 36 -18 95q-13 54 -70 51h-209h-221q-33 0 -49.5 -12t-24.5 -39q-16 -53 -16 -84q0 -43 59 -86q66 -50 66 -105q0 -37 -20 -63.5t-62 -26.5h-369zM381 1649l209 209
q30 30 65 39.5t131 9.5q106 0 143 -8.5t66 -36.5l228 -211q31 -32 15 -57t-60 -25h-144q-57 0 -108 37l-135 88l-136 -92q-51 -33 -90 -33h-139q-43 0 -59 24.5t14 55.5zM547 717q-10 -32 -0.5 -48t41.5 -16h270q32 0 38.5 15.5t-7.5 56.5q-22 71 -67.5 180t-84.5 182
q-12 21 -25 21t-24 -21q-98 -208 -141 -370z" />
    <glyph glyph-name="Atilde" unicode="&#xc3;" horiz-adv-x="1601" 
d="M96 0q-43 0 -65.5 22.5t-22.5 63.5q0 57 55 100q29 25 44.5 49.5t29.5 67.5q141 436 189 565q118 312 239 539q33 61 61.5 83.5t75.5 22.5q15 0 44 -2t40 -2q14 0 45 2t48 2q39 0 62.5 -18t47.5 -57q81 -136 147.5 -287.5t153.5 -378.5q75 -190 176 -489q19 -52 80 -107
q47 -41 47 -90q0 -36 -21.5 -61t-64.5 -25h-508q-45 0 -70.5 24t-25.5 64q0 63 72 102q55 27 55 80q0 36 -18 95q-13 54 -70 51h-209h-221q-33 0 -49.5 -12t-24.5 -39q-16 -53 -16 -84q0 -43 59 -86q66 -50 66 -105q0 -37 -20 -63.5t-62 -26.5h-369zM403 1704
q43 124 95.5 176.5t134.5 52.5q76 0 239 -71q152 -64 187 -64q24 0 42 14t46 50q21 33 46 40t56 -6q61 -24 15 -127q-40 -123 -87 -173t-128 -50q-13 0 -28 2t-27.5 4t-31 8t-29 9t-33 12t-31.5 12.5t-35 14.5t-35 14q-133 57 -181 57q-24 0 -41 -13t-42 -50
q-20 -31 -42.5 -40.5t-56.5 -0.5q-41 12 -48 42t15 87zM547 717q-10 -32 -0.5 -48t41.5 -16h270q32 0 38.5 15.5t-7.5 56.5q-22 71 -67.5 180t-84.5 182q-12 21 -25 21t-24 -21q-98 -208 -141 -370z" />
    <glyph glyph-name="Adieresis" unicode="&#xc4;" horiz-adv-x="1601" 
d="M96 0q-43 0 -65.5 22.5t-22.5 63.5q0 57 55 100q29 25 44.5 49.5t29.5 67.5q141 436 189 565q118 312 239 539q33 61 61.5 83.5t75.5 22.5q15 0 44 -2t40 -2q14 0 45 2t48 2q39 0 62.5 -18t47.5 -57q81 -136 147.5 -287.5t153.5 -378.5q75 -190 176 -489q19 -52 80 -107
q47 -41 47 -90q0 -36 -21.5 -61t-64.5 -25h-508q-45 0 -70.5 24t-25.5 64q0 63 72 102q55 27 55 80q0 36 -18 95q-13 54 -70 51h-209h-221q-33 0 -49.5 -12t-24.5 -39q-16 -53 -16 -84q0 -43 59 -86q66 -50 66 -105q0 -37 -20 -63.5t-62 -26.5h-369zM352 1743
q0 83 58.5 139.5t146.5 56.5q82 0 137.5 -53t55.5 -131q0 -83 -58.5 -138.5t-146.5 -55.5q-82 0 -137.5 52.5t-55.5 129.5zM547 717q-10 -32 -0.5 -48t41.5 -16h270q32 0 38.5 15.5t-7.5 56.5q-22 71 -67.5 180t-84.5 182q-12 21 -25 21t-24 -21q-98 -208 -141 -370z
M836 1739q0 83 58.5 139.5t145.5 56.5q82 0 137.5 -53t55.5 -131q0 -83 -58.5 -139t-146.5 -56q-81 0 -136.5 53t-55.5 130z" />
    <glyph glyph-name="Aring" unicode="&#xc5;" horiz-adv-x="1601" 
d="M96 0q-43 0 -65.5 22.5t-22.5 63.5q0 57 55 100q29 25 44.5 49.5t29.5 67.5q141 436 189 565q118 312 239 539q33 61 61.5 83.5t75.5 22.5q15 0 44 -2t40 -2q14 0 45 2t48 2q39 0 62.5 -18t47.5 -57q81 -136 147.5 -287.5t153.5 -378.5q75 -190 176 -489q19 -52 80 -107
q47 -41 47 -90q0 -36 -21.5 -61t-64.5 -25h-508q-45 0 -70.5 24t-25.5 64q0 63 72 102q55 27 55 80q0 36 -18 95q-13 54 -70 51h-209h-221q-33 0 -49.5 -12t-24.5 -39q-16 -53 -16 -84q0 -43 59 -86q66 -50 66 -105q0 -37 -20 -63.5t-62 -26.5h-369zM547 717
q-10 -32 -0.5 -48t41.5 -16h270q32 0 38.5 15.5t-7.5 56.5q-22 71 -67.5 180t-84.5 182q-12 21 -25 21t-24 -21q-98 -208 -141 -370zM551 1790q0 97 73 166t177 69t177 -69t73 -166q0 -100 -73 -170t-177 -70t-177 70t-73 170zM686 1790q0 -54 33 -88.5t84 -34.5
q48 0 80 34.5t32 88.5q0 51 -32 84t-80 33q-51 0 -84 -33t-33 -84z" />
    <glyph glyph-name="Ccedilla" unicode="&#xc7;" horiz-adv-x="1470" 
d="M754 -522q-97 0 -160 49q-27 18 -35.5 45t6.5 57q13 23 38.5 29.5t49.5 -4.5q34 -19 70 -19q65 0 65 72q0 32 -16.5 49t-56.5 23q-37 3 -48 31.5t11 66.5l53 92q-156 16 -288.5 85.5t-222.5 175t-140.5 241.5t-50.5 283q0 166 63 311t169 244.5t248 157t298 57.5
q331 0 563 -209q84 -75 61 -149.5t-165 -182.5q-137 -100 -207 35q-77 146 -153 209t-169 63q-127 0 -203.5 -104t-76.5 -266q0 -169 63.5 -312.5t175 -228t244.5 -84.5q100 0 184.5 34t171.5 103q28 24 56.5 21.5t62.5 -35.5q37 -36 37.5 -72t-37.5 -92
q-77 -111 -209.5 -187t-285.5 -96l-50 -75q93 -22 147 -73t54 -118q0 -95 -91 -161t-226 -66z" />
    <glyph glyph-name="Egrave" unicode="&#xc8;" horiz-adv-x="1320" 
d="M129 0q-50 0 -75 26t-25 66q0 55 55 84q47 26 62.5 59.5t13.5 100.5v829q2 66 -14.5 100t-63.5 60q-55 32 -55 86q2 40 26.5 65t73.5 25h944q51 0 79.5 -18.5t43.5 -61.5q2 -8 18 -61t24.5 -83.5t17 -74t8.5 -69.5q0 -36 -17.5 -57t-46.5 -21q-27 0 -72.5 23t-71.5 41
t-87 61q-78 58 -136.5 83t-125.5 25q-78 0 -114 -48t-36 -148v-97q0 -48 16.5 -64t65.5 -16h354q37 0 58.5 -18.5t21.5 -54.5q0 -40 -21 -88t-51 -86q-26 -31 -45 -44.5t-49 -13.5q-39 0 -130 36t-124 36q-46 2 -70 -33t-24 -106v-187q0 -76 40 -109.5t126 -31.5
q104 0 289 121q26 18 74 52t67.5 46.5t47.5 24.5t52 12q34 0 51 -20t17 -54q0 -72 -57 -223q-32 -100 -60.5 -137t-89.5 -37h-985zM379 1784q-68 50 -55.5 92.5t82.5 42.5h229q83 0 133 -61l160 -172q25 -28 31 -52t-9 -38.5t-47 -14.5h-182q-49 0 -90 27z" />
    <glyph glyph-name="Eacute" unicode="&#xc9;" horiz-adv-x="1320" 
d="M129 0q-50 0 -75 26t-25 66q0 55 55 84q47 26 62.5 59.5t13.5 100.5v829q2 66 -14.5 100t-63.5 60q-55 32 -55 86q2 40 26.5 65t73.5 25h944q51 0 79.5 -18.5t43.5 -61.5q2 -8 18 -61t24.5 -83.5t17 -74t8.5 -69.5q0 -36 -17.5 -57t-46.5 -21q-27 0 -72.5 23t-71.5 41
t-87 61q-78 58 -136.5 83t-125.5 25q-78 0 -114 -48t-36 -148v-97q0 -48 16.5 -64t65.5 -16h354q37 0 58.5 -18.5t21.5 -54.5q0 -40 -21 -88t-51 -86q-26 -31 -45 -44.5t-49 -13.5q-39 0 -130 36t-124 36q-46 2 -70 -33t-24 -106v-187q0 -76 40 -109.5t126 -31.5
q104 0 289 121q26 18 74 52t67.5 46.5t47.5 24.5t52 12q34 0 51 -20t17 -54q0 -72 -57 -223q-32 -100 -60.5 -137t-89.5 -37h-985zM494 1692l159 172q53 61 135 61h228q34 0 56.5 -12.5t28.5 -31.5t-8 -44t-49 -49l-251 -172q-39 -29 -97 -29h-176q-49 0 -56 31t30 74z" />
    <glyph glyph-name="Ecircumflex" unicode="&#xca;" horiz-adv-x="1320" 
d="M129 0q-50 0 -75 26t-25 66q0 55 55 84q47 26 62.5 59.5t13.5 100.5v829q2 66 -14.5 100t-63.5 60q-55 32 -55 86q2 40 26.5 65t73.5 25h944q51 0 79.5 -18.5t43.5 -61.5q2 -8 18 -61t24.5 -83.5t17 -74t8.5 -69.5q0 -36 -17.5 -57t-46.5 -21q-27 0 -72.5 23t-71.5 41
t-87 61q-78 58 -136.5 83t-125.5 25q-78 0 -114 -48t-36 -148v-97q0 -48 16.5 -64t65.5 -16h354q37 0 58.5 -18.5t21.5 -54.5q0 -40 -21 -88t-51 -86q-26 -31 -45 -44.5t-49 -13.5q-39 0 -130 36t-124 36q-46 2 -70 -33t-24 -106v-187q0 -76 40 -109.5t126 -31.5
q104 0 289 121q26 18 74 52t67.5 46.5t47.5 24.5t52 12q34 0 51 -20t17 -54q0 -72 -57 -223q-32 -100 -60.5 -137t-89.5 -37h-985zM260 1655l209 211q30 30 64.5 38.5t132.5 8.5q107 0 143 -8t65 -35l228 -213q32 -31 15 -55.5t-60 -24.5h-144q-55 0 -108 37l-135 88
l-135 -92q-51 -33 -91 -33h-139q-43 0 -59 24.5t14 53.5z" />
    <glyph glyph-name="Edieresis" unicode="&#xcb;" horiz-adv-x="1320" 
d="M129 0q-50 0 -75 26t-25 66q0 55 55 84q47 26 62.5 59.5t13.5 100.5v829q2 66 -14.5 100t-63.5 60q-55 32 -55 86q2 40 26.5 65t73.5 25h944q51 0 79.5 -18.5t43.5 -61.5q2 -8 18 -61t24.5 -83.5t17 -74t8.5 -69.5q0 -36 -17.5 -57t-46.5 -21q-27 0 -72.5 23t-71.5 41
t-87 61q-78 58 -136.5 83t-125.5 25q-78 0 -114 -48t-36 -148v-97q0 -48 16.5 -64t65.5 -16h354q37 0 58.5 -18.5t21.5 -54.5q0 -40 -21 -88t-51 -86q-26 -31 -45 -44.5t-49 -13.5q-39 0 -130 36t-124 36q-46 2 -70 -33t-24 -106v-187q0 -76 40 -109.5t126 -31.5
q104 0 289 121q26 18 74 52t67.5 46.5t47.5 24.5t52 12q34 0 51 -20t17 -54q0 -72 -57 -223q-32 -100 -60.5 -137t-89.5 -37h-985zM231 1751q0 84 59 140.5t146 56.5q82 0 137.5 -53.5t55.5 -131.5q0 -83 -58.5 -138.5t-146.5 -55.5q-82 0 -137.5 52.5t-55.5 129.5z
M715 1747q0 84 59 140.5t146 56.5q82 0 137 -53.5t55 -131.5q0 -83 -58.5 -138.5t-146.5 -55.5q-82 0 -137 52.5t-55 129.5z" />
    <glyph glyph-name="Igrave" unicode="&#xcc;" horiz-adv-x="716" 
d="M129 0q-49 0 -73.5 26t-24.5 66q0 55 55 84q46 26 61 59t15 101v829q0 66 -16.5 100t-61.5 60q-55 32 -55 86q0 39 25 64.5t73 25.5h463q49 0 73.5 -26t24.5 -66q0 -53 -57 -86q-45 -24 -60.5 -57.5t-13.5 -100.5v-829q-2 -67 13.5 -100.5t60.5 -59.5q57 -30 57 -84
q0 -40 -25 -66t-75 -26h-459zM55 1776q-68 50 -55.5 92.5t82.5 42.5h229q82 0 133 -62l160 -172q39 -43 32 -73.5t-56 -30.5h-183q-51 0 -90 26z" />
    <glyph glyph-name="Iacute" unicode="&#xcd;" horiz-adv-x="716" 
d="M129 0q-49 0 -73.5 26t-24.5 66q0 55 55 84q46 26 61 59t15 101v829q0 66 -16.5 100t-61.5 60q-55 32 -55 86q0 39 25 64.5t73 25.5h463q49 0 73.5 -26t24.5 -66q0 -53 -57 -86q-45 -24 -60.5 -57.5t-13.5 -100.5v-829q-2 -67 13.5 -100.5t60.5 -59.5q57 -30 57 -84
q0 -40 -25 -66t-75 -26h-459zM170 1686l160 172q53 61 135 61h227q46 0 70 -20t14.5 -52.5t-55.5 -64.5l-252 -172q-39 -29 -96 -29h-176q-49 0 -56.5 31t29.5 74z" />
    <glyph glyph-name="Icircumflex" unicode="&#xce;" horiz-adv-x="716" 
d="M129 0q-49 0 -73.5 26t-24.5 66q0 55 55 84q46 26 61 59t15 101v829q0 66 -16.5 100t-61.5 60q-55 32 -55 86q0 39 25 64.5t73 25.5h463q49 0 73.5 -26t24.5 -66q0 -53 -57 -86q-45 -24 -60.5 -57.5t-13.5 -100.5v-829q-2 -67 13.5 -100.5t60.5 -59.5q57 -30 57 -84
q0 -40 -25 -66t-75 -26h-459zM-63 1647l208 211q30 30 64.5 38.5t132.5 8.5q107 0 143.5 -8t65.5 -35l227 -213q32 -31 15 -55.5t-60 -24.5h-143q-56 0 -109 37l-135 88l-135 -92q-51 -33 -90 -33h-139q-43 0 -59.5 24.5t14.5 53.5z" />
    <glyph glyph-name="Idieresis" unicode="&#xcf;" horiz-adv-x="716" 
d="M129 0q-49 0 -73.5 26t-24.5 66q0 55 55 84q46 26 61 59t15 101v829q0 66 -16.5 100t-61.5 60q-55 32 -55 86q0 39 25 64.5t73 25.5h463q49 0 73.5 -26t24.5 -66q0 -53 -57 -86q-45 -24 -60.5 -57.5t-13.5 -100.5v-829q-2 -67 13.5 -100.5t60.5 -59.5q57 -30 57 -84
q0 -40 -25 -66t-75 -26h-459zM-92 1743q0 83 58.5 139.5t146.5 56.5q82 0 137 -53t55 -131q0 -83 -58.5 -138.5t-146.5 -55.5q-82 0 -137 52.5t-55 129.5zM391 1739q0 83 58.5 139.5t146.5 56.5q82 0 137 -53t55 -131q0 -83 -58 -139t-146 -56q-82 0 -137.5 53t-55.5 130z
" />
    <glyph glyph-name="Eth" unicode="&#xd0;" horiz-adv-x="1562" 
d="M135 0q-51 0 -75.5 26t-24.5 66q0 55 55 84q47 26 62.5 59t13.5 101v293h-70q-68 0 -88 21t-20 102q0 77 20.5 99.5t87.5 22.5h70v291q1 66 -15.5 100t-62.5 60q-55 32 -55 86q0 39 25 64.5t75 25.5h600q371 0 587 -197.5t216 -562.5q0 -176 -57.5 -316.5t-162 -233.5
t-250 -142t-321.5 -49h-610zM561 414q0 -103 41 -146t135 -43q177 0 274 122.5t97 346.5q0 157 -59 290.5t-162.5 211.5t-227.5 78h-30q-68 0 -68 -74v-326h221q64 0 84.5 -22.5t20.5 -99.5q0 -81 -20 -102t-85 -21h-221v-215z" />
    <glyph glyph-name="Ntilde" unicode="&#xd1;" horiz-adv-x="1521" 
d="M1198 -10q-95 0 -104 94q-8 90 -76 176l-535 647q-12 15 -24.5 12t-12.5 -22l-2 -561q-1 -66 19.5 -100t79.5 -62q72 -33 69 -86q0 -40 -32.5 -64.5t-96.5 -23.5h-354q-50 0 -75 26t-25 66q0 55 55 84q47 26 62.5 59.5t13.5 100.5v829q2 66 -14.5 100t-63.5 60
q-55 32 -55 86q2 40 26.5 65t73.5 25h311q65 0 106 -22.5t81 -71.5l413 -518q17 -20 29 -16.5t12 22.5v270q2 67 -16.5 100.5t-71.5 59.5q-63 32 -63 86q2 40 30 65.5t84 24.5h361q49 0 73.5 -26t24.5 -66q0 -54 -55 -86q-47 -24 -62.5 -57.5t-13.5 -100.5l2 -1028
q0 -147 -108 -147h-66zM360 1704q43 124 95.5 175.5t134.5 51.5q81 0 239 -69q152 -64 187 -64q24 0 42 14t46 50q21 33 45.5 40t56.5 -8q60 -23 15 -125q-41 -124 -88 -174.5t-127 -50.5q-34 0 -80.5 13.5t-73 24t-96.5 40.5q-133 57 -181 57q-24 0 -41 -13t-42 -50
q-20 -31 -42.5 -40.5t-56.5 -0.5q-41 12 -48 42t15 87z" />
    <glyph glyph-name="Ograve" unicode="&#xd2;" horiz-adv-x="1658" 
d="M844 -33q-174 0 -325.5 59.5t-259 163.5t-169 250.5t-61.5 313.5q0 214 103 391t282 279t395 102q234 0 421.5 -103.5t293.5 -288.5t106 -417q0 -155 -61.5 -294t-166 -239t-250.5 -158.5t-308 -58.5zM457 887q0 -167 59.5 -322.5t162 -252.5t218.5 -97q139 0 221 107.5
t82 291.5q0 166 -60 319t-163 248.5t-219 96.5q-137 0 -219 -105t-82 -286zM526 1788q-68 50 -55.5 92.5t82.5 42.5h229q83 0 133 -61l160 -172q39 -43 32 -74t-56 -31h-183q-50 0 -90 27z" />
    <glyph glyph-name="Oacute" unicode="&#xd3;" horiz-adv-x="1658" 
d="M844 -33q-174 0 -325.5 59.5t-259 163.5t-169 250.5t-61.5 313.5q0 214 103 391t282 279t395 102q234 0 421.5 -103.5t293.5 -288.5t106 -417q0 -155 -61.5 -294t-166 -239t-250.5 -158.5t-308 -58.5zM457 887q0 -167 59.5 -322.5t162 -252.5t218.5 -97q139 0 221 107.5
t82 291.5q0 166 -60 319t-163 248.5t-219 96.5q-137 0 -219 -105t-82 -286zM641 1696l160 172q53 61 135 61h227q46 0 70 -20t14.5 -52.5t-55.5 -64.5l-252 -172q-39 -29 -96 -29h-176q-49 0 -56.5 31t29.5 74z" />
    <glyph glyph-name="Ocircumflex" unicode="&#xd4;" horiz-adv-x="1658" 
d="M844 -33q-174 0 -325.5 59.5t-259 163.5t-169 250.5t-61.5 313.5q0 214 103 391t282 279t395 102q234 0 421.5 -103.5t293.5 -288.5t106 -417q0 -155 -61.5 -294t-166 -239t-250.5 -158.5t-308 -58.5zM408 1659l208 211q32 30 66 38.5t133 8.5q107 0 143.5 -8.5
t63.5 -36.5l227 -211q32 -32 16 -57t-59 -25h-145q-51 0 -109 37l-135 88l-135 -90q-51 -35 -90 -35h-139q-43 0 -59 24.5t14 55.5zM457 887q0 -167 59.5 -322.5t162 -252.5t218.5 -97q139 0 221 107.5t82 291.5q0 166 -60 319t-163 248.5t-219 96.5q-137 0 -219 -105
t-82 -286z" />
    <glyph glyph-name="Otilde" unicode="&#xd5;" horiz-adv-x="1658" 
d="M844 -33q-174 0 -325.5 59.5t-259 163.5t-169 250.5t-61.5 313.5q0 214 103 391t282 279t395 102q234 0 421.5 -103.5t293.5 -288.5t106 -417q0 -155 -61.5 -294t-166 -239t-250.5 -158.5t-308 -58.5zM430 1716q43 124 95 176t134 52q80 0 240 -70q150 -66 186 -66
q24 0 43 14.5t46 51.5q21 32 46 39t56 -6q60 -24 14 -125q-41 -124 -88 -175t-127 -51q-34 0 -80.5 13.5t-73 24t-96.5 40.5q-136 58 -180 58q-25 0 -42 -13.5t-42 -52.5q-21 -30 -42.5 -39t-55.5 0q-41 12 -48 42t15 87zM457 887q0 -167 59.5 -322.5t162 -252.5t218.5 -97
q139 0 221 107.5t82 291.5q0 166 -60 319t-163 248.5t-219 96.5q-137 0 -219 -105t-82 -286z" />
    <glyph glyph-name="Odieresis" unicode="&#xd6;" horiz-adv-x="1658" 
d="M844 -33q-174 0 -325.5 59.5t-259 163.5t-169 250.5t-61.5 313.5q0 214 103 391t282 279t395 102q234 0 421.5 -103.5t293.5 -288.5t106 -417q0 -155 -61.5 -294t-166 -239t-250.5 -158.5t-308 -58.5zM379 1755q0 84 59 140.5t146 56.5q82 0 137 -53.5t55 -131.5
q0 -83 -58.5 -138.5t-146.5 -55.5q-82 0 -137 52.5t-55 129.5zM457 887q0 -167 59.5 -322.5t162 -252.5t218.5 -97q139 0 221 107.5t82 291.5q0 166 -60 319t-163 248.5t-219 96.5q-137 0 -219 -105t-82 -286zM862 1751q0 84 59 140.5t146 56.5q82 0 137.5 -53.5
t55.5 -131.5q0 -83 -58.5 -138.5t-146.5 -55.5q-82 0 -137.5 52.5t-55.5 129.5z" />
    <glyph glyph-name="Oslash" unicode="&#xd8;" horiz-adv-x="1658" 
d="M844 -33q-115 0 -234 29l-43 -98q-22 -50 -44 -66.5t-70 2.5q-43 19 -51.5 43.5t10.5 71.5l45 104q-198 97 -313 282.5t-115 418.5q0 214 103 391t282 279t395 102q144 0 272 -41l37 86q20 46 40 58t67 -1q43 -14 54 -38.5t-9 -71.5l-41 -95q187 -103 294 -288t107 -418
q0 -155 -61.5 -294t-166 -239t-250.5 -158.5t-308 -58.5zM457 887q0 -134 40 -263.5t109 -226.5l350 801q-100 80 -198 80q-137 0 -219 -105t-82 -286zM729 272q82 -57 168 -57q139 0 221 107.5t82 291.5q0 121 -33.5 238t-93.5 211z" />
    <glyph glyph-name="Ugrave" unicode="&#xd9;" horiz-adv-x="1519" 
d="M766 -29q-132 0 -240.5 29.5t-192 88t-129.5 154t-46 220.5v702q2 66 -14.5 100t-63.5 60q-55 32 -55 86q2 40 26.5 65t73.5 25h485q62 0 92.5 -25.5t30.5 -64.5q0 -54 -69 -84q-60 -24 -79.5 -57t-17.5 -99v-688q0 -113 72 -173t186 -60q116 0 186.5 69t69.5 181v659
q2 68 -19 102t-81 60q-39 20 -54.5 40.5t-15.5 49.5q2 40 33.5 65.5t93.5 24.5h369q48 0 72 -26t24 -66q0 -54 -55 -86q-46 -24 -61 -57t-13 -101l2 -612q0 -125 -34 -227.5t-104.5 -183.5t-190.5 -126t-281 -45zM510 1776q-68 50 -55.5 92.5t82.5 42.5h229q82 0 133 -62
l160 -172q25 -28 31 -52t-9 -38t-47 -14h-182q-51 0 -90 26z" />
    <glyph glyph-name="Uacute" unicode="&#xda;" horiz-adv-x="1519" 
d="M766 -29q-132 0 -240.5 29.5t-192 88t-129.5 154t-46 220.5v702q2 66 -14.5 100t-63.5 60q-55 32 -55 86q2 40 26.5 65t73.5 25h485q62 0 92.5 -25.5t30.5 -64.5q0 -54 -69 -84q-60 -24 -79.5 -57t-17.5 -99v-688q0 -113 72 -173t186 -60q116 0 186.5 69t69.5 181v659
q2 68 -19 102t-81 60q-39 20 -54.5 40.5t-15.5 49.5q2 40 33.5 65.5t93.5 24.5h369q48 0 72 -26t24 -66q0 -54 -55 -86q-46 -24 -61 -57t-13 -101l2 -612q0 -125 -34 -227.5t-104.5 -183.5t-190.5 -126t-281 -45zM625 1686l159 172q53 61 136 61h227q46 0 70 -20t14.5 -52.5
t-55.5 -64.5l-252 -172q-39 -29 -97 -29h-176q-49 0 -56 31t30 74z" />
    <glyph glyph-name="Ucircumflex" unicode="&#xdb;" horiz-adv-x="1519" 
d="M766 -29q-132 0 -240.5 29.5t-192 88t-129.5 154t-46 220.5v702q2 66 -14.5 100t-63.5 60q-55 32 -55 86q2 40 26.5 65t73.5 25h485q62 0 92.5 -25.5t30.5 -64.5q0 -54 -69 -84q-60 -24 -79.5 -57t-17.5 -99v-688q0 -113 72 -173t186 -60q116 0 186.5 69t69.5 181v659
q2 68 -19 102t-81 60q-39 20 -54.5 40.5t-15.5 49.5q2 40 33.5 65.5t93.5 24.5h369q48 0 72 -26t24 -66q0 -54 -55 -86q-46 -24 -61 -57t-13 -101l2 -612q0 -125 -34 -227.5t-104.5 -183.5t-190.5 -126t-281 -45zM391 1647l209 211q30 30 64.5 38.5t132.5 8.5
q107 0 143.5 -8t65.5 -35l227 -213q32 -31 15 -55.5t-60 -24.5h-144q-55 0 -108 37l-135 88l-135 -92q-51 -33 -91 -33h-139q-43 0 -59.5 24.5t14.5 53.5z" />
    <glyph glyph-name="Udieresis" unicode="&#xdc;" horiz-adv-x="1519" 
d="M766 -29q-132 0 -240.5 29.5t-192 88t-129.5 154t-46 220.5v702q2 66 -14.5 100t-63.5 60q-55 32 -55 86q2 40 26.5 65t73.5 25h485q62 0 92.5 -25.5t30.5 -64.5q0 -54 -69 -84q-60 -24 -79.5 -57t-17.5 -99v-688q0 -113 72 -173t186 -60q116 0 186.5 69t69.5 181v659
q2 68 -19 102t-81 60q-39 20 -54.5 40.5t-15.5 49.5q2 40 33.5 65.5t93.5 24.5h369q48 0 72 -26t24 -66q0 -54 -55 -86q-46 -24 -61 -57t-13 -101l2 -612q0 -125 -34 -227.5t-104.5 -183.5t-190.5 -126t-281 -45zM362 1743q0 83 58.5 139.5t146.5 56.5q82 0 137.5 -53
t55.5 -131q0 -83 -58.5 -138.5t-146.5 -55.5q-82 0 -137.5 52.5t-55.5 129.5zM846 1739q0 83 58.5 139.5t146.5 56.5q82 0 137 -53t55 -131q0 -83 -58.5 -139t-146.5 -56q-81 0 -136.5 53t-55.5 130z" />
    <glyph glyph-name="Yacute" unicode="&#xdd;" horiz-adv-x="1415" 
d="M485 0q-62 0 -93.5 26t-31.5 66q0 54 70 84q58 26 77 59t17 101v131q0 66 -32 121q-174 281 -342 612q-21 42 -41.5 68.5t-53.5 50.5q-28 21 -41.5 42t-13.5 52q0 40 26 64t70 24h471q109 0 109 -92q0 -32 -13.5 -51t-41.5 -35q-46 -22 -46 -59q0 -26 21 -68
q93 -202 166 -305q18 -29 33 -30t36 30q87 136 162 309q19 48 19 66q0 33 -43 55q-34 19 -50 37t-16 47q0 96 107 96h309q46 0 71 -25.5t25 -66.5q0 -54 -51 -94q-46 -33 -84 -111q-104 -215 -319 -596q-25 -44 -33 -72t-8 -69v-131q-2 -66 19 -100t79 -62q70 -33 67 -86
q0 -39 -32 -64t-95 -24h-473zM524 1686l160 172q53 61 135 61h228q34 0 56.5 -12.5t28.5 -31.5t-8 -44t-49 -49l-252 -172q-39 -29 -96 -29h-176q-49 0 -56.5 31t29.5 74z" />
    <glyph glyph-name="Thorn" unicode="&#xde;" horiz-adv-x="1329" 
d="M129 0q-49 0 -73.5 26t-24.5 66q0 55 55 84q46 26 61 59t15 101v829q0 66 -16.5 100t-61.5 60q-55 32 -55 86q0 39 25 64.5t73 25.5h461q49 0 73.5 -26t24.5 -66q0 -54 -55 -86q-24 -12 -39 -27h219q120 0 218.5 -36t162.5 -98t98.5 -143.5t34.5 -174.5
q0 -164 -111 -278.5t-309 -166.5q-44 -12 -96 -23t-111.5 -22.5t-85.5 -17.5q-27 -6 -39.5 -16t-15.5 -31q4 -41 25 -67t65 -48q68 -31 68 -86q-2 -40 -32.5 -64.5t-90.5 -23.5h-463zM555 313v23v-23zM555 1165v29v-29zM557 608q0 -43 41 -43q105 0 170 47q127 76 127 228
q0 100 -70.5 172.5t-173.5 72.5h-39q-32 -1 -43.5 -15.5t-11.5 -49.5v-412z" />
    <glyph glyph-name="germandbls" unicode="&#xdf;" horiz-adv-x="1269" 
d="M817 -27q-180 0 -297 129q-17 17 -31.5 14t-17.5 -24l-2 -16q-5 -33 -26.5 -54.5t-53.5 -21.5h-280q-49 0 -74 26t-25 64q0 49 60 88q36 23 48.5 55.5t12.5 100.5v805q0 178 151.5 288.5t399.5 110.5q235 0 376.5 -105.5t141.5 -277.5q0 -83 -51 -158t-139 -125
q-13 -7 -13 -17t11 -15q111 -44 178 -145t67 -238q0 -209 -122 -346.5t-314 -137.5zM494 449q0 -203 194 -203q85 0 137 59t52 150q0 101 -60.5 165t-157.5 64h-38q-48 0 -48 47v154q0 47 45 47h39q81 0 126.5 50.5t45.5 135.5q0 83 -47.5 136t-122.5 53q-73 0 -119 -50
t-46 -131v-677z" />
    <glyph glyph-name="agrave" unicode="&#xe0;" horiz-adv-x="1220" 
d="M399 -25q-74 0 -143 26t-123.5 74t-87.5 123.5t-33 166.5t39 168t102 126.5t140 77t156 27.5q51 0 114.5 -8t71.5 -8q31 0 31 32q0 63 -45.5 110.5t-120.5 47.5q-18 0 -38 -4t-36.5 -8.5t-40.5 -15.5t-36.5 -17t-39 -22t-35 -21.5t-37 -24t-32.5 -20.5q-82 -50 -125 47
q-42 102 -35 157.5t68 82.5q52 24 160 40.5t210 16.5q261 0 397.5 -94t163.5 -310l43 -360q21 -143 93 -209q41 -38 41 -84q0 -48 -56 -80.5t-135 -29.5q-135 0 -231 86q-23 18 -37 18t-37 -16q-139 -95 -326 -95zM219 1487q-60 54 -45.5 93.5t86.5 39.5h199q84 0 131 -61
l178 -236q29 -38 19 -67t-54 -29h-139q-42 0 -68 7t-53 30zM387 408q0 -79 48.5 -141t131.5 -62q82 0 127 42t35 109l-18 123q-9 53 -39.5 76t-104.5 23q-86 0 -133 -51t-47 -119z" />
    <glyph glyph-name="aacute" unicode="&#xe1;" horiz-adv-x="1220" 
d="M399 -25q-74 0 -143 26t-123.5 74t-87.5 123.5t-33 166.5t39 168t102 126.5t140 77t156 27.5q51 0 114.5 -8t71.5 -8q31 0 31 32q0 63 -45.5 110.5t-120.5 47.5q-18 0 -38 -4t-36.5 -8.5t-40.5 -15.5t-36.5 -17t-39 -22t-35 -21.5t-37 -24t-32.5 -20.5q-82 -50 -125 47
q-42 102 -35 157.5t68 82.5q52 24 160 40.5t210 16.5q261 0 397.5 -94t163.5 -310l43 -360q21 -143 93 -209q41 -38 41 -84q0 -48 -56 -80.5t-135 -29.5q-135 0 -231 86q-23 18 -37 18t-37 -16q-139 -95 -326 -95zM371 1327l180 236q47 61 131 61h188q72 0 86 -39.5
t-45 -93.5l-256 -223q-26 -23 -51.5 -30t-68.5 -7h-127q-44 0 -54.5 29t17.5 67zM387 408q0 -79 48.5 -141t131.5 -62q82 0 127 42t35 109l-18 123q-9 53 -39.5 76t-104.5 23q-86 0 -133 -51t-47 -119z" />
    <glyph glyph-name="acircumflex" unicode="&#xe2;" horiz-adv-x="1220" 
d="M399 -25q-74 0 -143 26t-123.5 74t-87.5 123.5t-33 166.5t39 168t102 126.5t140 77t156 27.5q51 0 114.5 -8t71.5 -8q31 0 31 32q0 63 -45.5 110.5t-120.5 47.5q-18 0 -38 -4t-36.5 -8.5t-40.5 -15.5t-36.5 -17t-39 -22t-35 -21.5t-37 -24t-32.5 -20.5q-82 -50 -125 47
q-42 102 -35 157.5t68 82.5q52 24 160 40.5t210 16.5q261 0 397.5 -94t163.5 -310l43 -360q21 -143 93 -209q41 -38 41 -84q0 -48 -56 -80.5t-135 -29.5q-135 0 -231 86q-23 18 -37 18t-37 -16q-139 -95 -326 -95zM143 1317l205 235q30 33 65 43.5t130 10.5
q103 0 139.5 -9.5t65.5 -40.5l223 -237q30 -37 14 -64.5t-59 -27.5h-142q-54 0 -106 41l-133 98l-131 -102q-50 -37 -88 -37h-138q-43 0 -58.5 27.5t13.5 62.5zM387 408q0 -79 48.5 -141t131.5 -62q82 0 127 42t35 109l-18 123q-9 53 -39.5 76t-104.5 23q-86 0 -133 -51
t-47 -119z" />
    <glyph glyph-name="atilde" unicode="&#xe3;" horiz-adv-x="1220" 
d="M399 -25q-74 0 -143 26t-123.5 74t-87.5 123.5t-33 166.5t39 168t102 126.5t140 77t156 27.5q51 0 114.5 -8t71.5 -8q31 0 31 32q0 63 -45.5 110.5t-120.5 47.5q-18 0 -38 -4t-36.5 -8.5t-40.5 -15.5t-36.5 -17t-39 -22t-35 -21.5t-37 -24t-32.5 -20.5q-82 -50 -125 47
q-42 102 -35 157.5t68 82.5q52 24 160 40.5t210 16.5q261 0 397.5 -94t163.5 -310l43 -360q21 -143 93 -209q41 -38 41 -84q0 -48 -56 -80.5t-135 -29.5q-135 0 -231 86q-23 18 -37 18t-37 -16q-139 -95 -326 -95zM135 1399q43 138 95.5 196t134.5 58q76 0 239 -78
q150 -72 187 -72q24 0 42 15.5t46 56.5q21 36 45.5 44t56.5 -7q60 -26 14 -139q-41 -138 -88 -194t-127 -56q-32 0 -73 12t-71.5 25.5t-86.5 39.5q-13 6 -19 9q-134 63 -180 63q-24 0 -41.5 -15t-42.5 -57q-21 -34 -43 -44.5t-55 -0.5q-41 13 -48 47t15 97zM387 408
q0 -79 48.5 -141t131.5 -62q82 0 127 42t35 109l-18 123q-9 53 -39.5 76t-104.5 23q-86 0 -133 -51t-47 -119z" />
    <glyph glyph-name="adieresis" unicode="&#xe4;" horiz-adv-x="1220" 
d="M399 -25q-74 0 -143 26t-123.5 74t-87.5 123.5t-33 166.5t39 168t102 126.5t140 77t156 27.5q51 0 114.5 -8t71.5 -8q31 0 31 32q0 63 -45.5 110.5t-120.5 47.5q-18 0 -38 -4t-36.5 -8.5t-40.5 -15.5t-36.5 -17t-39 -22t-35 -21.5t-37 -24t-32.5 -20.5q-82 -50 -125 47
q-42 102 -35 157.5t68 82.5q52 24 160 40.5t210 16.5q261 0 397.5 -94t163.5 -310l43 -360q21 -143 93 -209q41 -38 41 -84q0 -48 -56 -80.5t-135 -29.5q-135 0 -231 86q-23 18 -37 18t-37 -16q-139 -95 -326 -95zM109 1417q0 88 60.5 149.5t145.5 61.5q80 0 136.5 -57.5
t56.5 -140.5q0 -88 -61.5 -149.5t-147.5 -61.5q-78 0 -134 57.5t-56 140.5zM387 408q0 -79 48.5 -141t131.5 -62q82 0 127 42t35 109l-18 123q-9 53 -39.5 76t-104.5 23q-86 0 -133 -51t-47 -119zM604 1417q0 87 60.5 149t144.5 62q82 0 139.5 -57.5t57.5 -140.5
q0 -88 -61.5 -149.5t-147.5 -61.5q-80 0 -136.5 57.5t-56.5 140.5z" />
    <glyph glyph-name="aring" unicode="&#xe5;" horiz-adv-x="1220" 
d="M399 -25q-74 0 -143 26t-123.5 74t-87.5 123.5t-33 166.5t39 168t102 126.5t140 77t156 27.5q51 0 114.5 -8t71.5 -8q31 0 31 32q0 63 -45.5 110.5t-120.5 47.5q-18 0 -38 -4t-36.5 -8.5t-40.5 -15.5t-36.5 -17t-39 -22t-35 -21.5t-37 -24t-32.5 -20.5q-82 -50 -125 47
q-42 102 -35 157.5t68 82.5q52 24 160 40.5t210 16.5q261 0 397.5 -94t163.5 -310l43 -360q21 -143 93 -209q41 -38 41 -84q0 -48 -56 -80.5t-135 -29.5q-135 0 -231 86q-23 18 -37 18t-37 -16q-139 -95 -326 -95zM301 1475q0 98 74 168.5t178 70.5q106 0 179 -70t73 -171
q0 -100 -73.5 -172t-176.5 -72q-105 0 -179.5 72t-74.5 174zM387 408q0 -79 48.5 -141t131.5 -62q82 0 127 42t35 109l-18 123q-9 53 -39.5 76t-104.5 23q-86 0 -133 -51t-47 -119zM446 1473q0 -46 32 -80.5t77 -34.5q43 0 75 34.5t32 80.5t-32.5 79t-76.5 33t-75.5 -33
t-31.5 -79z" />
    <glyph glyph-name="ae" unicode="&#xe6;" horiz-adv-x="1894" 
d="M457 -23q-121 0 -220.5 43.5t-162 133.5t-62.5 211q0 91 39 168t102 126.5t140 77t156 27.5q51 0 114.5 -8t71.5 -8q31 0 31 32q0 63 -45.5 110.5t-120.5 47.5q-18 0 -38 -4t-36.5 -8.5t-40.5 -15.5t-36.5 -17t-39 -22t-35 -21.5t-37 -24t-32.5 -20.5q-83 -49 -117 35
q-51 110 -44.5 166.5t71.5 85.5q50 24 158 40.5t210 16.5q299 0 422 -137q80 71 181 109t208 38q147 0 273 -62.5t199 -168t73 -226.5q0 -132 -153 -170q-52 -13 -232 -49q-162 -37 -219 -80q-29 -18 -29 -34q0 -32 49 -64q64 -49 166 -49q145 0 293 115q37 26 64.5 22
t56.5 -39q29 -34 28.5 -65t-28.5 -70q-82 -113 -225 -181.5t-297 -68.5q-231 0 -406 148q-23 9 -57 -15q-178 -125 -393 -125zM389 408q0 -78 49.5 -140.5t130.5 -62.5q84 0 130 42t34 109l-8 52q-12 47 -18 98q-11 38 -41.5 55t-94.5 17q-86 0 -134 -51t-48 -119zM1055 713
q0 -59 15 -107.5t42 -48.5q4 0 11 4t18.5 12t19.5 13q82 63 211 116q37 14 54.5 27.5t17.5 36.5q0 53 -63 107.5t-138 54.5q-79 0 -133.5 -59t-54.5 -156z" />
    <glyph glyph-name="ccedilla" unicode="&#xe7;" horiz-adv-x="1144" 
d="M553 -526q-97 0 -160 49q-26 18 -35 45t7 57q13 23 38.5 29.5t49.5 -4.5q34 -19 69 -19q66 0 66 72q0 32 -17 49t-57 23q-37 3 -48 31.5t11 66.5l58 100q-103 15 -195.5 64.5t-162.5 126.5t-111 184.5t-41 229.5q0 165 83 300t221.5 210t301.5 75q118 0 233 -43t187 -110
q51 -45 61.5 -85.5t-10 -77t-74.5 -89.5q-97 -90 -151 -90q-46 0 -82 65q-57 98 -108.5 146.5t-117.5 48.5q-72 0 -119 -65.5t-47 -166.5q0 -179 97.5 -306.5t238.5 -127.5q118 0 252 98q29 23 54.5 18t56.5 -40q27 -30 26 -63t-34 -76q-141 -182 -371 -224l-53 -84
q93 -22 146.5 -72.5t53.5 -117.5q0 -95 -91 -161t-226 -66z" />
    <glyph glyph-name="egrave" unicode="&#xe8;" horiz-adv-x="1202" 
d="M633 -31q-123 0 -234.5 45t-193 122.5t-130.5 186.5t-50 232q-2 171 80.5 311t218 216.5t290.5 76.5q147 0 273 -62.5t199 -168t73 -226.5q0 -132 -153 -170q-52 -13 -232 -49q-162 -37 -219 -80q-29 -18 -29 -34q0 -32 49 -64q64 -49 166 -49q145 0 293 115
q37 26 64.5 22t56.5 -39q29 -34 28.5 -65t-28.5 -70q-82 -113 -225 -181.5t-297 -68.5zM287 1501q-60 54 -45.5 93.5t86.5 39.5h198q84 0 131 -61l179 -236q29 -38 19 -67t-54 -29h-139q-42 0 -68 7t-53 30zM375 713q0 -59 15 -107.5t42 -48.5q4 0 11 4t18.5 12t19.5 13
q82 63 211 116q37 14 54.5 27.5t17.5 36.5q0 53 -63 107.5t-138 54.5q-79 0 -133.5 -59t-54.5 -156z" />
    <glyph glyph-name="eacute" unicode="&#xe9;" horiz-adv-x="1202" 
d="M633 -31q-123 0 -234.5 45t-193 122.5t-130.5 186.5t-50 232q-2 171 80.5 311t218 216.5t290.5 76.5q147 0 273 -62.5t199 -168t73 -226.5q0 -132 -153 -170q-52 -13 -232 -49q-162 -37 -219 -80q-29 -18 -29 -34q0 -32 49 -64q64 -49 166 -49q145 0 293 115
q37 26 64.5 22t56.5 -39q29 -34 28.5 -65t-28.5 -70q-82 -113 -225 -181.5t-297 -68.5zM375 713q0 -59 15 -107.5t42 -48.5q4 0 11 4t18.5 12t19.5 13q82 63 211 116q37 14 54.5 27.5t17.5 36.5q0 53 -63 107.5t-138 54.5q-79 0 -133.5 -59t-54.5 -156zM438 1341l180 236
q47 61 132 61h188q72 0 86 -39.5t-45 -93.5l-256 -223q-26 -23 -52 -30t-69 -7h-127q-44 0 -54.5 29t17.5 67z" />
    <glyph glyph-name="ecircumflex" unicode="&#xea;" horiz-adv-x="1202" 
d="M633 -31q-123 0 -234.5 45t-193 122.5t-130.5 186.5t-50 232q-2 171 80.5 311t218 216.5t290.5 76.5q147 0 273 -62.5t199 -168t73 -226.5q0 -132 -153 -170q-52 -13 -232 -49q-162 -37 -219 -80q-29 -18 -29 -34q0 -32 49 -64q64 -49 166 -49q145 0 293 115
q37 26 64.5 22t56.5 -39q29 -34 28.5 -65t-28.5 -70q-82 -113 -225 -181.5t-297 -68.5zM213 1329l203 238q32 33 65.5 43t128.5 10q104 0 141 -9.5t64 -39.5l223 -240q30 -35 14 -62.5t-59 -27.5h-141q-52 0 -107 41l-131 98l-133 -102q-47 -37 -88 -37h-137q-43 0 -58.5 27
t15.5 61zM375 713q0 -59 15 -107.5t42 -48.5q4 0 11 4t18.5 12t19.5 13q82 63 211 116q37 14 54.5 27.5t17.5 36.5q0 53 -63 107.5t-138 54.5q-79 0 -133.5 -59t-54.5 -156z" />
    <glyph glyph-name="edieresis" unicode="&#xeb;" horiz-adv-x="1202" 
d="M633 -31q-123 0 -234.5 45t-193 122.5t-130.5 186.5t-50 232q-2 171 80.5 311t218 216.5t290.5 76.5q147 0 273 -62.5t199 -168t73 -226.5q0 -132 -153 -170q-52 -13 -232 -49q-162 -37 -219 -80q-29 -18 -29 -34q0 -32 49 -64q64 -49 166 -49q145 0 293 115
q37 26 64.5 22t56.5 -39q29 -34 28.5 -65t-28.5 -70q-82 -113 -225 -181.5t-297 -68.5zM176 1432q0 87 61 148.5t146 61.5q80 0 136 -57.5t56 -140.5q0 -88 -61 -149.5t-147 -61.5q-78 0 -134.5 58t-56.5 141zM375 713q0 -59 15 -107.5t42 -48.5q4 0 11 4t18.5 12t19.5 13
q82 63 211 116q37 14 54.5 27.5t17.5 36.5q0 53 -63 107.5t-138 54.5q-79 0 -133.5 -59t-54.5 -156zM672 1432q0 87 60.5 148.5t144.5 61.5q82 0 139 -57.5t57 -140.5q0 -88 -61.5 -149.5t-147.5 -61.5q-80 0 -136 58t-56 141z" />
    <glyph glyph-name="igrave" unicode="&#xec;" horiz-adv-x="632" 
d="M117 0q-48 0 -71 24.5t-23 63.5q0 48 57 84q35 23 47 54.5t12 97.5v481q0 66 -14.5 98t-54.5 55q-52 36 -52 84q0 38 24.5 63t72.5 25l28 -2h248q59 0 84 -29.5t25 -99.5v-673q0 -67 12.5 -99t48.5 -53q33 -21 46.5 -41t13.5 -45q0 -38 -24.5 -63t-74.5 -25h-405z
M-27 1487q-60 54 -45.5 93.5t86.5 39.5h199q84 0 131 -61l178 -236q29 -38 19 -67t-54 -29h-139q-42 0 -68 7t-53 30z" />
    <glyph glyph-name="iacute" unicode="&#xed;" horiz-adv-x="632" 
d="M117 0q-48 0 -71 24.5t-23 63.5q0 48 57 84q35 23 47 54.5t12 97.5v481q0 66 -14.5 98t-54.5 55q-52 36 -52 84q0 38 24.5 63t72.5 25l28 -2h248q59 0 84 -29.5t25 -99.5v-673q0 -67 12.5 -99t48.5 -53q33 -21 46.5 -41t13.5 -45q0 -38 -24.5 -63t-74.5 -25h-405z
M125 1329l180 236q47 61 131 61h189q72 0 86 -39.5t-45 -93.5l-256 -223q-26 -23 -52 -30t-69 -7h-127q-44 0 -54.5 29t17.5 67z" />
    <glyph glyph-name="icircumflex" unicode="&#xee;" horiz-adv-x="632" 
d="M117 0q-48 0 -71 24.5t-23 63.5q0 48 57 84q35 23 47 54.5t12 97.5v481q0 66 -14.5 98t-54.5 55q-52 36 -52 84q0 38 24.5 63t72.5 25l28 -2h248q59 0 84 -29.5t25 -99.5v-673q0 -67 12.5 -99t48.5 -53q33 -21 46.5 -41t13.5 -45q0 -38 -24.5 -63t-74.5 -25h-405z
M-100 1317l204 235q30 35 65 45.5t130 10.5q103 0 139.5 -10t65.5 -42l223 -237q30 -35 14 -63.5t-59 -28.5h-141q-56 0 -107 43l-133 98l-131 -102q-48 -39 -88 -39h-137q-43 0 -58.5 28t13.5 62z" />
    <glyph glyph-name="idieresis" unicode="&#xef;" horiz-adv-x="632" 
d="M117 0q-48 0 -71 24.5t-23 63.5q0 48 57 84q35 23 47 54.5t12 97.5v481q0 66 -14.5 98t-54.5 55q-52 36 -52 84q0 38 24.5 63t72.5 25l28 -2h248q59 0 84 -29.5t25 -99.5v-673q0 -67 12.5 -99t48.5 -53q33 -21 46.5 -41t13.5 -45q0 -38 -24.5 -63t-74.5 -25h-405z
M-137 1417q0 87 61 149t146 62q80 0 136 -57.5t56 -140.5q0 -88 -61.5 -149.5t-147.5 -61.5q-78 0 -134 57.5t-56 140.5zM358 1417q0 87 60.5 149t144.5 62q82 0 139.5 -57.5t57.5 -140.5q0 -88 -61.5 -149.5t-147.5 -61.5q-80 0 -136.5 57.5t-56.5 140.5z" />
    <glyph glyph-name="eth" unicode="&#xf0;" horiz-adv-x="1282" 
d="M639 -27q-180 0 -319 68t-219.5 203.5t-80.5 320.5q0 247 141 392.5t386 156.5q26 0 26 21q0 6 -3 10.5t-6.5 7.5t-14.5 12l-53 41l-271 -73q-38 -11 -54.5 1t-16.5 52v43q0 55 49 69l131 37l-115 90q-43 35 -30.5 65t69.5 30h277q62 0 98.5 -11t73.5 -43q8 -6 24 -22
l227 63q37 12 55.5 0.5t18.5 -51.5v-47q0 -57 -49 -68l-113 -30q16 -18 45 -47q347 -334 347 -707q0 -272 -168 -428t-455 -156zM406 670q0 -106 38 -214.5t105 -182.5t141 -74q81 0 131.5 60t50.5 161q0 111 -38 223t-104.5 186t-139.5 74q-82 0 -133 -63.5t-51 -169.5z
" />
    <glyph glyph-name="ntilde" unicode="&#xf1;" horiz-adv-x="1355" 
d="M117 0q-48 0 -71 24.5t-23 63.5q0 48 57 84q35 23 47 54.5t12 97.5v481q0 66 -14.5 98t-54.5 55q-52 36 -52 84q0 38 24.5 63t72.5 25l28 -2h240q45 0 67.5 -24t36.5 -82q6 -21 20.5 -23t29.5 19q44 62 116.5 99.5t157.5 37.5q285 0 336 -324l74 -481q18 -118 75 -166
q60 -42 60 -100q0 -37 -22.5 -60.5t-65.5 -23.5h-178q-111 0 -165.5 47.5t-66.5 159.5l-57 481q-17 166 -160 166q-62 0 -100.5 -33.5t-38.5 -87.5v-403q-2 -66 11.5 -98.5t53.5 -55.5q64 -37 64 -86q0 -39 -26.5 -64.5t-80.5 -25.5h-407zM262 1399q43 138 95.5 196
t134.5 58q76 0 239 -78q150 -72 187 -72q24 0 42 15.5t46 56.5q21 36 45.5 44t56.5 -7q60 -26 14 -139q-41 -138 -88 -194t-127 -56q-32 0 -73 12t-71.5 25.5t-86.5 39.5q-13 6 -19 9q-134 63 -180 63q-24 0 -41.5 -15t-42.5 -57q-21 -34 -43 -44.5t-55 -0.5q-41 13 -48 47
t15 97z" />
    <glyph glyph-name="ograve" unicode="&#xf2;" horiz-adv-x="1261" 
d="M629 -33q-125 0 -237.5 46t-192.5 124.5t-127 188t-47 231.5q0 172 80.5 310.5t222.5 217t319 78.5q124 0 233.5 -47.5t187 -128.5t122.5 -192.5t45 -235.5q0 -167 -79.5 -303t-218 -212.5t-308.5 -76.5zM297 1487q-60 54 -45.5 93.5t86.5 39.5h199q84 0 131 -61
l178 -236q29 -38 19 -67t-54 -29h-139q-42 0 -68 7t-53 30zM395 690q0 -110 39 -222t107 -187.5t143 -75.5q79 0 129.5 60.5t50.5 160.5q0 115 -39 230t-107 191.5t-143 76.5q-79 0 -129.5 -64t-50.5 -170z" />
    <glyph glyph-name="oacute" unicode="&#xf3;" horiz-adv-x="1261" 
d="M629 -33q-125 0 -237.5 46t-192.5 124.5t-127 188t-47 231.5q0 172 80.5 310.5t222.5 217t319 78.5q124 0 233.5 -47.5t187 -128.5t122.5 -192.5t45 -235.5q0 -167 -79.5 -303t-218 -212.5t-308.5 -76.5zM395 690q0 -110 39 -222t107 -187.5t143 -75.5q79 0 129.5 60.5
t50.5 160.5q0 115 -39 230t-107 191.5t-143 76.5q-79 0 -129.5 -64t-50.5 -170zM449 1327l180 236q47 61 131 61h188q72 0 86 -39.5t-45 -93.5l-256 -223q-26 -23 -52 -30t-69 -7h-127q-44 0 -54 29t18 67z" />
    <glyph glyph-name="ocircumflex" unicode="&#xf4;" horiz-adv-x="1261" 
d="M629 -33q-125 0 -237.5 46t-192.5 124.5t-127 188t-47 231.5q0 172 80.5 310.5t222.5 217t319 78.5q124 0 233.5 -47.5t187 -128.5t122.5 -192.5t45 -235.5q0 -167 -79.5 -303t-218 -212.5t-308.5 -76.5zM223 1317l205 235q31 34 64.5 44t128.5 10q104 0 140 -9.5
t64 -40.5l224 -237q31 -37 15 -64.5t-58 -27.5h-144q-52 0 -104 41l-133 98l-133 -102q-47 -37 -89 -37h-137q-42 0 -57.5 27.5t14.5 62.5zM395 690q0 -110 39 -222t107 -187.5t143 -75.5q79 0 129.5 60.5t50.5 160.5q0 115 -39 230t-107 191.5t-143 76.5q-79 0 -129.5 -64
t-50.5 -170z" />
    <glyph glyph-name="otilde" unicode="&#xf5;" horiz-adv-x="1261" 
d="M629 -33q-125 0 -237.5 46t-192.5 124.5t-127 188t-47 231.5q0 172 80.5 310.5t222.5 217t319 78.5q124 0 233.5 -47.5t187 -128.5t122.5 -192.5t45 -235.5q0 -167 -79.5 -303t-218 -212.5t-308.5 -76.5zM215 1399q43 138 95 196t134 58q77 0 240 -78q150 -72 186 -72
q24 0 42 15.5t46 56.5q21 36 46 44t57 -7q60 -26 14 -139q-41 -138 -88 -194t-127 -56q-32 0 -73 12t-71.5 25.5t-86.5 39.5q-13 6 -19 9q-134 63 -180 63q-24 0 -41.5 -15t-42.5 -57q-21 -34 -43 -44.5t-55 -0.5q-41 13 -48 47t15 97zM395 690q0 -110 39 -222t107 -187.5
t143 -75.5q79 0 129.5 60.5t50.5 160.5q0 115 -39 230t-107 191.5t-143 76.5q-79 0 -129.5 -64t-50.5 -170z" />
    <glyph glyph-name="odieresis" unicode="&#xf6;" horiz-adv-x="1261" 
d="M629 -33q-125 0 -237.5 46t-192.5 124.5t-127 188t-47 231.5q0 172 80.5 310.5t222.5 217t319 78.5q124 0 233.5 -47.5t187 -128.5t122.5 -192.5t45 -235.5q0 -167 -79.5 -303t-218 -212.5t-308.5 -76.5zM186 1417q0 87 61 149t146 62q80 0 136.5 -57.5t56.5 -140.5
q0 -88 -61.5 -149.5t-147.5 -61.5q-79 0 -135 57.5t-56 140.5zM395 690q0 -110 39 -222t107 -187.5t143 -75.5q79 0 129.5 60.5t50.5 160.5q0 115 -39 230t-107 191.5t-143 76.5q-79 0 -129.5 -64t-50.5 -170zM682 1417q0 87 60.5 149t144.5 62q82 0 139 -57.5t57 -140.5
q0 -88 -61.5 -149.5t-147.5 -61.5q-80 0 -136 57.5t-56 140.5z" />
    <glyph glyph-name="oslash" unicode="&#xf8;" horiz-adv-x="1261" 
d="M629 -33q-111 0 -207 35l-57 -106q-42 -79 -109 -39q-46 25 -54.5 53.5t17.5 75.5l51 92q-114 81 -179.5 206.5t-65.5 272.5q0 172 80.5 310.5t222.5 217t319 78.5q98 0 199 -33l57 105q20 40 44.5 47.5t62.5 -12.5q43 -23 49 -53t-23 -84l-43 -80q113 -85 177.5 -214
t64.5 -280q0 -167 -79.5 -303t-218 -212.5t-308.5 -76.5zM395 690q0 -136 60 -272l245 448q-61 58 -125 58q-79 0 -129.5 -64t-50.5 -170zM561 260q61 -55 123 -55q79 0 129.5 60.5t50.5 160.5q0 144 -59 281z" />
    <glyph glyph-name="ugrave" unicode="&#xf9;" horiz-adv-x="1312" 
d="M496 -35q-172 2 -270.5 88t-98.5 266v486q0 66 -14.5 98t-55.5 55q-51 35 -51 84q0 38 24 63t72 25l29 -2h254q58 0 84 -26.5t25 -85.5l-5 -584q-2 -78 37.5 -121t114.5 -43q79 0 127.5 45.5t48.5 116.5v375q0 66 -16 98.5t-62 57.5q-58 34 -55 81q0 38 26.5 63t80.5 25
l30 -2h252q62 0 85.5 -27t23.5 -95l-2 -682q0 -68 11.5 -98.5t47.5 -53.5q57 -36 57 -84q0 -38 -24 -63t-72 -25h-278q-43 0 -63.5 19.5t-31.5 66.5q-6 26 -26 30t-37 -20q-43 -63 -114.5 -98t-153.5 -33zM297 1483q-60 54 -45.5 93.5t86.5 39.5h199q83 0 131 -62l178 -235
q29 -38 19 -67t-54 -29h-139q-42 0 -68 7t-53 30z" />
    <glyph glyph-name="uacute" unicode="&#xfa;" horiz-adv-x="1312" 
d="M496 -35q-172 2 -270.5 88t-98.5 266v486q0 66 -14.5 98t-55.5 55q-51 35 -51 84q0 38 24 63t72 25l29 -2h254q58 0 84 -26.5t25 -85.5l-5 -584q-2 -78 37.5 -121t114.5 -43q79 0 127.5 45.5t48.5 116.5v375q0 66 -16 98.5t-62 57.5q-58 34 -55 81q0 38 26.5 63t80.5 25
l30 -2h252q62 0 85.5 -27t23.5 -95l-2 -682q0 -68 11.5 -98.5t47.5 -53.5q57 -36 57 -84q0 -38 -24 -63t-72 -25h-278q-43 0 -63.5 19.5t-31.5 66.5q-6 26 -26 30t-37 -20q-43 -63 -114.5 -98t-153.5 -33zM449 1325l180 236q47 61 131 61h188q72 0 86 -39.5t-45 -93.5
l-256 -223q-26 -23 -52 -30t-69 -7h-127q-44 0 -54 29t18 67z" />
    <glyph glyph-name="ucircumflex" unicode="&#xfb;" horiz-adv-x="1312" 
d="M496 -35q-172 2 -270.5 88t-98.5 266v486q0 66 -14.5 98t-55.5 55q-51 35 -51 84q0 38 24 63t72 25l29 -2h254q58 0 84 -26.5t25 -85.5l-5 -584q-2 -78 37.5 -121t114.5 -43q79 0 127.5 45.5t48.5 116.5v375q0 66 -16 98.5t-62 57.5q-58 34 -55 81q0 38 26.5 63t80.5 25
l30 -2h252q62 0 85.5 -27t23.5 -95l-2 -682q0 -68 11.5 -98.5t47.5 -53.5q57 -36 57 -84q0 -38 -24 -63t-72 -25h-278q-43 0 -63.5 19.5t-31.5 66.5q-6 26 -26 30t-37 -20q-43 -63 -114.5 -98t-153.5 -33zM221 1313l205 235q30 35 65 45.5t130 10.5q103 0 139 -10t65 -42
l224 -237q30 -35 14 -63.5t-59 -28.5h-142q-55 0 -106 43l-133 98l-131 -102q-48 -39 -89 -39h-137q-43 0 -58.5 28t13.5 62z" />
    <glyph glyph-name="udieresis" unicode="&#xfc;" horiz-adv-x="1312" 
d="M496 -35q-172 2 -270.5 88t-98.5 266v486q0 66 -14.5 98t-55.5 55q-51 35 -51 84q0 38 24 63t72 25l29 -2h254q58 0 84 -26.5t25 -85.5l-5 -584q-2 -78 37.5 -121t114.5 -43q79 0 127.5 45.5t48.5 116.5v375q0 66 -16 98.5t-62 57.5q-58 34 -55 81q0 38 26.5 63t80.5 25
l30 -2h252q62 0 85.5 -27t23.5 -95l-2 -682q0 -68 11.5 -98.5t47.5 -53.5q57 -36 57 -84q0 -38 -24 -63t-72 -25h-278q-43 0 -63.5 19.5t-31.5 66.5q-6 26 -26 30t-37 -20q-43 -63 -114.5 -98t-153.5 -33zM186 1413q0 87 61 149t146 62q80 0 136.5 -58t56.5 -141
q0 -88 -61.5 -149.5t-147.5 -61.5q-78 0 -134.5 58t-56.5 141zM682 1413q0 87 60.5 149t144.5 62q82 0 139 -58t57 -141q0 -88 -61.5 -149.5t-147.5 -61.5q-80 0 -136 58t-56 141z" />
    <glyph glyph-name="yacute" unicode="&#xfd;" horiz-adv-x="1232" 
d="M252 -373q-36 0 -61 23.5t-25 52.5q0 38 41 74l221 186q27 23 30.5 47t-14.5 56q-183 388 -333 792q-22 57 -66 98q-45 33 -45 84q0 39 27 63.5t75 24.5h398q58 0 84 -20.5t26 -65.5q0 -27 -14 -44.5t-49 -36.5q-20 -13 -31.5 -26t-17 -23t-3.5 -28t4.5 -28t10.5 -36
q3 -9 4 -13q63 -207 156 -401q31 -63 55 0q95 228 141 401q16 46 9.5 78t-44.5 63q-55 51 -55 96q0 37 22.5 60.5t61.5 23.5h281q43 0 67.5 -23.5t24.5 -57.5q0 -48 -43 -86q-45 -42 -78 -146q-104 -331 -254 -698q-44 -103 -71 -163t-69.5 -137t-84.5 -134
q-39 -56 -109 -56h-272zM469 1327l180 236q47 61 131 61h189q72 0 86 -39.5t-45 -93.5l-256 -223q-26 -23 -52 -30t-69 -7h-127q-44 0 -54.5 29t17.5 67z" />
    <glyph glyph-name="thorn" unicode="&#xfe;" horiz-adv-x="1318" 
d="M115 -379q-48 0 -71.5 25t-23.5 63q0 48 58 84q35 23 47 54.5t12 97.5v1251q2 65 -13 98t-56 56q-52 36 -52 84q2 38 26 62.5t73 23.5h291q99 0 96 -113l-15 -365q-3 -38 21 -38q11 0 19 6t22 24q40 56 109.5 89.5t146.5 33.5q143 0 256 -74t173 -195t60 -265
q0 -189 -81.5 -337.5t-221.5 -229.5t-313 -81q-73 0 -117 19q-15 6 -31 6q-30 0 -30 -47v-12q-2 -65 11.5 -96t53.5 -54q66 -36 66 -82q0 -38 -27 -63t-82 -25h-407zM496 393q0 -99 49 -149.5t137 -48.5q101 1 168.5 87.5t67.5 206.5q0 89 -29.5 170.5t-90.5 136t-139 54.5
q-67 0 -113.5 -43.5t-47.5 -108.5z" />
    <glyph glyph-name="ydieresis" unicode="&#xff;" horiz-adv-x="1232" 
d="M252 -373q-36 0 -61 23.5t-25 52.5q0 38 41 74l221 186q27 23 30.5 47t-14.5 56q-183 388 -333 792q-22 57 -66 98q-45 33 -45 84q0 39 27 63.5t75 24.5h398q58 0 84 -20.5t26 -65.5q0 -27 -14 -44.5t-49 -36.5q-20 -13 -31.5 -26t-17 -23t-3.5 -28t4.5 -28t10.5 -36
q3 -9 4 -13q63 -207 156 -401q31 -63 55 0q95 228 141 401q16 46 9.5 78t-44.5 63q-55 51 -55 96q0 37 22.5 60.5t61.5 23.5h281q43 0 67.5 -23.5t24.5 -57.5q0 -48 -43 -86q-45 -42 -78 -146q-104 -331 -254 -698q-44 -103 -71 -163t-69.5 -137t-84.5 -134
q-39 -56 -109 -56h-272zM207 1417q0 87 61 149t146 62q80 0 136 -57.5t56 -140.5q0 -88 -61.5 -149.5t-147.5 -61.5q-78 0 -134 57.5t-56 140.5zM702 1417q0 87 60.5 149t144.5 62q82 0 139.5 -57.5t57.5 -140.5q0 -88 -61.5 -149.5t-147.5 -61.5q-80 0 -136.5 57.5
t-56.5 140.5z" />
    <glyph glyph-name="Amacron" unicode="&#x100;" horiz-adv-x="1601" 
d="M96 0q-43 0 -65.5 22.5t-22.5 63.5q0 57 55 100q29 25 44.5 49.5t29.5 67.5q141 436 189 565q118 312 239 539q33 61 61.5 83.5t75.5 22.5q15 0 44 -2t40 -2q14 0 45 2t48 2q39 0 62.5 -18t47.5 -57q81 -136 147.5 -287.5t153.5 -378.5q75 -190 176 -489q19 -52 80 -107
q47 -41 47 -90q0 -36 -21.5 -61t-64.5 -25h-508q-45 0 -70.5 24t-25.5 64q0 63 72 102q55 27 55 80q0 36 -18 95q-13 54 -70 51h-209h-221q-33 0 -49.5 -12t-24.5 -39q-16 -53 -16 -84q0 -43 59 -86q66 -50 66 -105q0 -37 -20 -63.5t-62 -26.5h-369zM369 1690v67q0 58 22 78
t84 20h655q61 0 83 -20t22 -78v-67q0 -58 -22 -78.5t-83 -20.5h-655q-62 0 -84 20.5t-22 78.5zM547 717q-10 -32 -0.5 -48t41.5 -16h270q32 0 38.5 15.5t-7.5 56.5q-22 71 -67.5 180t-84.5 182q-12 21 -25 21t-24 -21q-98 -208 -141 -370z" />
    <glyph glyph-name="amacron" unicode="&#x101;" horiz-adv-x="1220" 
d="M399 -25q-74 0 -143 26t-123.5 74t-87.5 123.5t-33 166.5t39 168t102 126.5t140 77t156 27.5q51 0 114.5 -8t71.5 -8q31 0 31 32q0 63 -45.5 110.5t-120.5 47.5q-18 0 -38 -4t-36.5 -8.5t-40.5 -15.5t-36.5 -17t-39 -22t-35 -21.5t-37 -24t-32.5 -20.5q-82 -50 -125 47
q-42 102 -35 157.5t68 82.5q52 24 160 40.5t210 16.5q261 0 397.5 -94t163.5 -310l43 -360q21 -143 93 -209q41 -38 41 -84q0 -48 -56 -80.5t-135 -29.5q-135 0 -231 86q-23 18 -37 18t-37 -16q-139 -95 -326 -95zM143 1370v68q0 58 24.5 78t94.5 20h576q69 0 93.5 -20
t24.5 -78v-68q0 -58 -24.5 -78t-93.5 -20h-576q-70 0 -94.5 20t-24.5 78zM387 408q0 -79 48.5 -141t131.5 -62q82 0 127 42t35 109l-18 123q-9 53 -39.5 76t-104.5 23q-86 0 -133 -51t-47 -119z" />
    <glyph glyph-name="Abreve" unicode="&#x102;" horiz-adv-x="1601" 
d="M96 0q-43 0 -65.5 22.5t-22.5 63.5q0 57 55 100q29 25 44.5 49.5t29.5 67.5q141 436 189 565q118 312 239 539q33 61 61.5 83.5t75.5 22.5q15 0 44 -2t40 -2q14 0 45 2t48 2q39 0 62.5 -18t47.5 -57q81 -136 147.5 -287.5t153.5 -378.5q75 -190 176 -489q19 -52 80 -107
q47 -41 47 -90q0 -36 -21.5 -61t-64.5 -25h-508q-45 0 -70.5 24t-25.5 64q0 63 72 102q55 27 55 80q0 36 -18 95q-13 54 -70 51h-209h-221q-33 0 -49.5 -12t-24.5 -39q-16 -53 -16 -84q0 -43 59 -86q66 -50 66 -105q0 -37 -20 -63.5t-62 -26.5h-369zM512 1878q62 88 154 39
q129 -66 221 -66q73 0 149 45q50 23 76 0q24 -23 18 -63t-36 -84q-43 -84 -122.5 -126t-183.5 -42q-144 0 -253 64q-125 77 -23 233zM547 717q-10 -32 -0.5 -48t41.5 -16h270q32 0 38.5 15.5t-7.5 56.5q-22 71 -67.5 180t-84.5 182q-12 21 -25 21t-24 -21
q-98 -208 -141 -370z" />
    <glyph glyph-name="abreve" unicode="&#x103;" horiz-adv-x="1220" 
d="M399 -25q-74 0 -143 26t-123.5 74t-87.5 123.5t-33 166.5t39 168t102 126.5t140 77t156 27.5q51 0 114.5 -8t71.5 -8q31 0 31 32q0 63 -45.5 110.5t-120.5 47.5q-18 0 -38 -4t-36.5 -8.5t-40.5 -15.5t-36.5 -17t-39 -22t-35 -21.5t-37 -24t-32.5 -20.5q-82 -50 -125 47
q-42 102 -35 157.5t68 82.5q52 24 160 40.5t210 16.5q261 0 397.5 -94t163.5 -310l43 -360q21 -143 93 -209q41 -38 41 -84q0 -48 -56 -80.5t-135 -29.5q-135 0 -231 86q-23 18 -37 18t-37 -16q-139 -95 -326 -95zM244 1556q62 87 153 39q127 -65 221 -65q74 0 150 45
q50 23 76 0q24 -23 17.5 -63.5t-36.5 -84.5q-86 -167 -305 -167q-146 0 -254 63q-64 39 -66.5 103t44.5 130zM387 408q0 -79 48.5 -141t131.5 -62q82 0 127 42t35 109l-18 123q-9 53 -39.5 76t-104.5 23q-86 0 -133 -51t-47 -119z" />
    <glyph glyph-name="Aogonek" unicode="&#x104;" horiz-adv-x="1601" 
d="M96 0q-43 0 -65.5 22.5t-22.5 63.5q0 57 55 100q29 25 44.5 49.5t29.5 67.5q141 436 189 565q118 312 239 539q33 61 61.5 83.5t75.5 22.5q15 0 44 -2t40 -2q14 0 45 2t48 2q39 0 62.5 -18t47.5 -57q81 -136 147.5 -287.5t153.5 -378.5q75 -190 176 -489q19 -52 80 -107
q47 -41 47 -90q0 -50 -34 -72q-8 -18 -27 -28q-43 -32 -43 -88q0 -32 19 -51t51 -19q22 0 67 25q38 13 55 -43q15 -44 -30 -89q-37 -42 -91.5 -67t-111.5 -25q-106 0 -168.5 53.5t-62.5 133.5q0 59 40.5 108t108.5 76h-367q-45 0 -70.5 24t-25.5 64q0 63 72 102q55 27 55 80
q0 36 -18 95q-13 54 -70 51h-209h-221q-33 0 -49.5 -12t-24.5 -39q-16 -53 -16 -84q0 -43 59 -86q66 -50 66 -105q0 -37 -20 -63.5t-62 -26.5h-369zM547 717q-10 -32 -0.5 -48t41.5 -16h270q32 0 38.5 15.5t-7.5 56.5q-22 71 -67.5 180t-84.5 182q-12 21 -25 21t-24 -21
q-98 -208 -141 -370z" />
    <glyph glyph-name="aogonek" unicode="&#x105;" horiz-adv-x="1220" 
d="M399 -25q-74 0 -143 26t-123.5 74t-87.5 123.5t-33 166.5t39 168t102 126.5t140 77t156 27.5q51 0 114.5 -8t71.5 -8q31 0 31 32q0 63 -45.5 110.5t-120.5 47.5q-18 0 -38 -4t-36.5 -8.5t-40.5 -15.5t-36.5 -17t-39 -22t-35 -21.5t-37 -24t-32.5 -20.5q-82 -50 -125 47
q-42 102 -35 157.5t68 82.5q52 24 160 40.5t210 16.5q261 0 397.5 -94t163.5 -310l43 -360q21 -143 93 -209q41 -38 41 -84q0 -50 -60 -82q-10 -13 -20 -18q-43 -32 -43 -88q0 -32 18.5 -51t50.5 -19q23 0 68 25q38 13 55 -43q15 -43 -30 -88q-38 -42 -92 -67.5t-111 -25.5
q-106 0 -169 53.5t-63 133.5q0 52 31 96t86 74q-79 18 -143 76q-23 18 -37 18t-37 -16q-139 -95 -326 -95zM387 408q0 -79 48.5 -141t131.5 -62q82 0 127 42t35 109l-18 123q-9 53 -39.5 76t-104.5 23q-86 0 -133 -51t-47 -119z" />
    <glyph glyph-name="Cacute" unicode="&#x106;" horiz-adv-x="1470" 
d="M821 -35q-174 0 -324 64t-251.5 172t-159 251.5t-57.5 301.5q0 166 63 311t169 244.5t248 157t298 57.5q331 0 563 -209q84 -75 61 -149.5t-165 -182.5q-137 -100 -207 35q-77 146 -153 209t-169 63q-127 0 -203.5 -104t-76.5 -266q0 -169 63.5 -312.5t175 -228
t244.5 -84.5q100 0 184.5 34t171.5 103q28 24 56.5 21.5t62.5 -35.5q37 -36 37.5 -72t-37.5 -92q-91 -129 -252 -209t-342 -80zM649 1712l160 172q54 62 135 62h227q46 0 70 -20.5t14.5 -53t-55.5 -64.5l-252 -172q-38 -28 -96 -28h-176q-49 0 -56.5 30.5t29.5 73.5z" />
    <glyph glyph-name="cacute" unicode="&#x107;" horiz-adv-x="1144" 
d="M616 -33q-154 0 -288.5 75t-218.5 216.5t-84 319.5q0 165 83 300t221.5 210t301.5 75q118 0 233 -43t187 -110q51 -45 61.5 -85.5t-10 -77t-74.5 -89.5q-97 -90 -151 -90q-46 0 -82 65q-57 98 -108.5 146.5t-117.5 48.5q-72 0 -119 -65.5t-47 -166.5q0 -179 97.5 -306.5
t238.5 -127.5q118 0 252 98q29 23 54.5 18t56.5 -40q27 -30 26 -63t-34 -76q-82 -106 -206 -169t-272 -63zM471 1346l180 235q47 61 131 61h189q72 0 86 -39.5t-45 -93.5l-256 -223q-26 -23 -52 -30t-69 -7h-127q-44 0 -54.5 29.5t17.5 67.5z" />
    <glyph glyph-name="Cdotaccent" unicode="&#x10a;" horiz-adv-x="1470" 
d="M821 -35q-174 0 -324 64t-251.5 172t-159 251.5t-57.5 301.5q0 166 63 311t169 244.5t248 157t298 57.5q331 0 563 -209q84 -75 61 -149.5t-165 -182.5q-137 -100 -207 35q-77 146 -153 209t-169 63q-127 0 -203.5 -104t-76.5 -266q0 -169 63.5 -312.5t175 -228
t244.5 -84.5q100 0 184.5 34t171.5 103q28 24 56.5 21.5t62.5 -35.5q37 -36 37.5 -72t-37.5 -92q-91 -129 -252 -209t-342 -80zM633 1792q0 84 59 140.5t146 56.5q82 0 137 -53.5t55 -131.5q0 -83 -58.5 -138.5t-146.5 -55.5q-82 0 -137 52.5t-55 129.5z" />
    <glyph glyph-name="cdotaccent" unicode="&#x10b;" horiz-adv-x="1144" 
d="M616 -33q-154 0 -288.5 75t-218.5 216.5t-84 319.5q0 165 83 300t221.5 210t301.5 75q118 0 233 -43t187 -110q51 -45 61.5 -85.5t-10 -77t-74.5 -89.5q-97 -90 -151 -90q-46 0 -82 65q-57 98 -108.5 146.5t-117.5 48.5q-72 0 -119 -65.5t-47 -166.5q0 -179 97.5 -306.5
t238.5 -127.5q118 0 252 98q29 23 54.5 18t56.5 -40q27 -30 26 -63t-34 -76q-82 -106 -206 -169t-272 -63zM432 1458q0 89 67 155t158 66q83 0 144 -58t61 -138q0 -89 -67.5 -154t-159.5 -65q-82 0 -142.5 58t-60.5 136z" />
    <glyph glyph-name="Ccaron" unicode="&#x10c;" horiz-adv-x="1470" 
d="M821 -35q-174 0 -324 64t-251.5 172t-159 251.5t-57.5 301.5q0 166 63 311t169 244.5t248 157t298 57.5q331 0 563 -209q84 -75 61 -149.5t-165 -182.5q-137 -100 -207 35q-77 146 -153 209t-169 63q-127 0 -203.5 -104t-76.5 -266q0 -169 63.5 -312.5t175 -228
t244.5 -84.5q100 0 184.5 34t171.5 103q28 24 56.5 21.5t62.5 -35.5q37 -36 37.5 -72t-37.5 -92q-91 -129 -252 -209t-342 -80zM453 1845q-29 31 -15 55.5t54 24.5h147q42 0 86 -35l127 -90l129 88q51 37 102 37h117q41 0 54 -24t-15 -56l-197 -209q-25 -28 -58.5 -35.5
t-135.5 -7.5q-96 0 -129.5 8.5t-61.5 38.5z" />
    <glyph glyph-name="ccaron" unicode="&#x10d;" horiz-adv-x="1144" 
d="M616 -33q-154 0 -288.5 75t-218.5 216.5t-84 319.5q0 165 83 300t221.5 210t301.5 75q118 0 233 -43t187 -110q51 -45 61.5 -85.5t-10 -77t-74.5 -89.5q-97 -90 -151 -90q-46 0 -82 65q-57 98 -108.5 146.5t-117.5 48.5q-72 0 -119 -65.5t-47 -166.5q0 -179 97.5 -306.5
t238.5 -127.5q118 0 252 98q29 23 54.5 18t56.5 -40q27 -30 26 -63t-34 -76q-82 -106 -206 -169t-272 -63zM260 1538q-29 34 -15 61t54 27h147q43 0 86 -37l127 -100l129 98q50 39 103 39h117q41 0 54 -26.5t-15 -61.5l-197 -231q-25 -31 -59.5 -40.5t-135.5 -9.5
q-95 0 -128 10t-62 44z" />
    <glyph glyph-name="Dcaron" unicode="&#x10e;" horiz-adv-x="1562" 
d="M135 0q-51 0 -75.5 26t-24.5 66q0 55 55 84q47 26 62.5 59t13.5 101v829q1 66 -15.5 100t-62.5 60q-55 32 -55 86q0 39 25 64.5t75 25.5h600q371 0 587 -197.5t216 -562.5q0 -176 -57.5 -316.5t-162 -233.5t-250 -142t-321.5 -49h-610zM391 1819q-29 31 -15 55t54 24h148
q46 0 86 -32l127 -90l129 88q47 34 102 34h117q41 0 54 -23.5t-15 -55.5l-197 -207q-25 -28 -59.5 -36.5t-135.5 -8.5q-95 0 -128 9t-62 40zM561 414q0 -103 41 -146t135 -43q177 0 274 122.5t97 346.5q0 157 -59 290.5t-162.5 211.5t-227.5 78h-30q-68 0 -68 -74v-786z" />
    <glyph glyph-name="dcaron" unicode="&#x10f;" horiz-adv-x="1312" 
d="M502 -27q-205 0 -341 154.5t-136 386.5q0 177 73.5 322t207 230t300.5 85q58 0 135 -14q36 -9 47 -9q29 0 29 43v27q1 66 -15.5 99.5t-62.5 56.5q-57 36 -57 86q0 38 27 63t82 25h280q60 0 84.5 -27.5t24.5 -95.5v-1081q0 -66 12 -97.5t47 -54.5q57 -36 57 -84
q0 -39 -23 -63.5t-71 -24.5h-276q-83 0 -95 82q-6 30 -24.5 34t-38.5 -20q-96 -123 -266 -123zM399 637q0 -147 70.5 -260t179.5 -113q74 0 121 49t47 133l2 244q0 121 -53 183.5t-145 60.5q-98 -1 -160 -85t-62 -212zM1260 1110l137 334q33 80 116 80h179q69 0 82.5 -37.5
t-25.5 -97.5l-209 -342q-17 -27 -40.5 -33t-72.5 -6h-127q-84 0 -40 102z" />
    <glyph glyph-name="Dcroat" unicode="&#x110;" horiz-adv-x="1562" 
d="M135 0q-51 0 -75.5 26t-24.5 66q0 55 55 84q47 26 62.5 59t13.5 101v293h-70q-68 0 -88 21t-20 102q0 77 20.5 99.5t87.5 22.5h70v291q1 66 -15.5 100t-62.5 60q-55 32 -55 86q0 39 25 64.5t75 25.5h600q371 0 587 -197.5t216 -562.5q0 -176 -57.5 -316.5t-162 -233.5
t-250 -142t-321.5 -49h-610zM561 414q0 -103 41 -146t135 -43q177 0 274 122.5t97 346.5q0 157 -59 290.5t-162.5 211.5t-227.5 78h-30q-68 0 -68 -74v-326h221q64 0 84.5 -22.5t20.5 -99.5q0 -81 -20 -102t-85 -21h-221v-215z" />
    <glyph glyph-name="dcroat" unicode="&#x111;" horiz-adv-x="1312" 
d="M502 -27q-205 0 -341 154.5t-136 386.5q0 177 73.5 322t207 230t300.5 85q58 0 135 -14q36 -9 47 -9q29 0 29 43v27v10h-166q-45 0 -61.5 19t-16.5 69q0 46 16.5 63t61.5 17h58q-27 30 -27 64q0 38 27 63t82 25h280q60 0 84.5 -27.5t24.5 -95.5v-29h6q39 0 51 -16.5
t12 -63.5q0 -51 -12 -69.5t-51 -18.5h-6v-884q0 -66 12 -97.5t47 -54.5q57 -36 57 -84q0 -39 -23 -63.5t-71 -24.5h-276q-83 0 -95 82q-6 30 -24.5 34t-38.5 -20q-96 -123 -266 -123zM399 637q0 -147 70.5 -260t179.5 -113q74 0 121 49t47 133l2 244q0 121 -53 183.5
t-145 60.5q-98 -1 -160 -85t-62 -212z" />
    <glyph glyph-name="Emacron" unicode="&#x112;" horiz-adv-x="1320" 
d="M129 0q-50 0 -75 26t-25 66q0 55 55 84q47 26 62.5 59.5t13.5 100.5v829q2 66 -14.5 100t-63.5 60q-55 32 -55 86q2 40 26.5 65t73.5 25h944q51 0 79.5 -18.5t43.5 -61.5q2 -8 18 -61t24.5 -83.5t17 -74t8.5 -69.5q0 -36 -17.5 -57t-46.5 -21q-27 0 -72.5 23t-71.5 41
t-87 61q-78 58 -136.5 83t-125.5 25q-78 0 -114 -48t-36 -148v-97q0 -48 16.5 -64t65.5 -16h354q37 0 58.5 -18.5t21.5 -54.5q0 -40 -21 -88t-51 -86q-26 -31 -45 -44.5t-49 -13.5q-39 0 -130 36t-124 36q-46 2 -70 -33t-24 -106v-187q0 -76 40 -109.5t126 -31.5
q104 0 289 121q26 18 74 52t67.5 46.5t47.5 24.5t52 12q34 0 51 -20t17 -54q0 -72 -57 -223q-32 -100 -60.5 -137t-89.5 -37h-985zM248 1698v67q0 58 22 78.5t84 20.5h656q60 0 82 -20.5t22 -78.5v-67q0 -58 -22 -78.5t-82 -20.5h-656q-62 0 -84 20.5t-22 78.5z" />
    <glyph glyph-name="emacron" unicode="&#x113;" horiz-adv-x="1202" 
d="M633 -31q-123 0 -234.5 45t-193 122.5t-130.5 186.5t-50 232q-2 171 80.5 311t218 216.5t290.5 76.5q147 0 273 -62.5t199 -168t73 -226.5q0 -132 -153 -170q-52 -13 -232 -49q-162 -37 -219 -80q-29 -18 -29 -34q0 -32 49 -64q64 -49 166 -49q145 0 293 115
q37 26 64.5 22t56.5 -39q29 -34 28.5 -65t-28.5 -70q-82 -113 -225 -181.5t-297 -68.5zM213 1382v68q0 58 24.5 78t94.5 20h575q70 0 94.5 -20t24.5 -78v-68q0 -58 -24.5 -78t-94.5 -20h-575q-70 0 -94.5 20t-24.5 78zM375 713q0 -59 15 -107.5t42 -48.5q4 0 11 4t18.5 12
t19.5 13q82 63 211 116q37 14 54.5 27.5t17.5 36.5q0 53 -63 107.5t-138 54.5q-79 0 -133.5 -59t-54.5 -156z" />
    <glyph glyph-name="Edotaccent" unicode="&#x116;" horiz-adv-x="1320" 
d="M129 0q-50 0 -75 26t-25 66q0 55 55 84q47 26 62.5 59.5t13.5 100.5v829q2 66 -14.5 100t-63.5 60q-55 32 -55 86q2 40 26.5 65t73.5 25h944q51 0 79.5 -18.5t43.5 -61.5q2 -8 18 -61t24.5 -83.5t17 -74t8.5 -69.5q0 -36 -17.5 -57t-46.5 -21q-27 0 -72.5 23t-71.5 41
t-87 61q-78 58 -136.5 83t-125.5 25q-78 0 -114 -48t-36 -148v-97q0 -48 16.5 -64t65.5 -16h354q37 0 58.5 -18.5t21.5 -54.5q0 -40 -21 -88t-51 -86q-26 -31 -45 -44.5t-49 -13.5q-39 0 -130 36t-124 36q-46 2 -70 -33t-24 -106v-187q0 -76 40 -109.5t126 -31.5
q104 0 289 121q26 18 74 52t67.5 46.5t47.5 24.5t52 12q34 0 51 -20t17 -54q0 -72 -57 -223q-32 -100 -60.5 -137t-89.5 -37h-985zM477 1774q0 83 58.5 139.5t146.5 56.5q82 0 137 -53t55 -131q0 -83 -58 -139t-146 -56q-82 0 -137.5 53t-55.5 130z" />
    <glyph glyph-name="edotaccent" unicode="&#x117;" horiz-adv-x="1202" 
d="M633 -31q-123 0 -234.5 45t-193 122.5t-130.5 186.5t-50 232q-2 171 80.5 311t218 216.5t290.5 76.5q147 0 273 -62.5t199 -168t73 -226.5q0 -132 -153 -170q-52 -13 -232 -49q-162 -37 -219 -80q-29 -18 -29 -34q0 -32 49 -64q64 -49 166 -49q145 0 293 115
q37 26 64.5 22t56.5 -39q29 -34 28.5 -65t-28.5 -70q-82 -113 -225 -181.5t-297 -68.5zM375 713q0 -59 15 -107.5t42 -48.5q4 0 11 4t18.5 12t19.5 13q82 63 211 116q37 14 54.5 27.5t17.5 36.5q0 53 -63 107.5t-138 54.5q-79 0 -133.5 -59t-54.5 -156zM401 1454
q0 89 67.5 155t158.5 66q83 0 143.5 -58t60.5 -138q0 -89 -67.5 -154t-159.5 -65q-82 0 -142.5 58t-60.5 136z" />
    <glyph glyph-name="Eogonek" unicode="&#x118;" horiz-adv-x="1320" 
d="M129 0q-50 0 -75 26t-25 66q0 55 55 84q47 26 62.5 59.5t13.5 100.5v829q2 66 -14.5 100t-63.5 60q-55 32 -55 86q2 40 26.5 65t73.5 25h944q51 0 79.5 -18.5t43.5 -61.5q2 -8 18 -61t24.5 -83.5t17 -74t8.5 -69.5q0 -36 -17.5 -57t-46.5 -21q-27 0 -72.5 23t-71.5 41
t-87 61q-78 58 -136.5 83t-125.5 25q-78 0 -114 -48t-36 -148v-97q0 -48 16.5 -64t65.5 -16h354q37 0 58.5 -18.5t21.5 -54.5q0 -40 -21 -88t-51 -86q-26 -31 -45 -44.5t-49 -13.5q-39 0 -130 36t-124 36q-46 2 -70 -33t-24 -106v-187q0 -76 40 -109.5t126 -31.5
q104 0 289 121q26 18 74 52t67.5 46.5t47.5 24.5t52 12q34 0 51 -20t17 -54q0 -72 -57 -223q-21 -65 -37 -98.5t-37 -50.5q-8 -20 -27 -29q-43 -32 -43 -88q0 -32 19 -51t51 -19q22 0 67 25q39 13 56 -43q15 -42 -31 -88q-37 -42 -91.5 -67t-111.5 -25q-106 0 -168.5 53
t-62.5 133q0 54 34 100t93 74h-846z" />
    <glyph glyph-name="eogonek" unicode="&#x119;" horiz-adv-x="1202" 
d="M633 -31q-123 0 -234.5 45t-193 122.5t-130.5 186.5t-50 232q-2 171 80.5 311t218 216.5t290.5 76.5q147 0 273 -62.5t199 -168t73 -226.5q0 -132 -153 -170q-52 -13 -232 -49q-162 -37 -219 -80q-29 -18 -29 -34q0 -32 49 -64q64 -49 166 -49q145 0 293 115
q37 26 64.5 22t56.5 -39q29 -34 28.5 -65t-28.5 -70q-90 -122 -248 -190q-8 -15 -24 -25q-43 -32 -43 -88q0 -32 18.5 -51t50.5 -19q23 0 68 25q38 13 55 -43q15 -42 -31 -88q-38 -42 -91.5 -67t-110.5 -25q-106 0 -169 53t-63 133q0 75 66 135zM375 713q0 -59 15 -107.5
t42 -48.5q4 0 11 4t18.5 12t19.5 13q82 63 211 116q37 14 54.5 27.5t17.5 36.5q0 53 -63 107.5t-138 54.5q-79 0 -133.5 -59t-54.5 -156z" />
    <glyph glyph-name="Ecaron" unicode="&#x11a;" horiz-adv-x="1320" 
d="M129 0q-50 0 -75 26t-25 66q0 55 55 84q47 26 62.5 59.5t13.5 100.5v829q2 66 -14.5 100t-63.5 60q-55 32 -55 86q2 40 26.5 65t73.5 25h944q51 0 79.5 -18.5t43.5 -61.5q2 -8 18 -61t24.5 -83.5t17 -74t8.5 -69.5q0 -36 -17.5 -57t-46.5 -21q-27 0 -72.5 23t-71.5 41
t-87 61q-78 58 -136.5 83t-125.5 25q-78 0 -114 -48t-36 -148v-97q0 -48 16.5 -64t65.5 -16h354q37 0 58.5 -18.5t21.5 -54.5q0 -40 -21 -88t-51 -86q-26 -31 -45 -44.5t-49 -13.5q-39 0 -130 36t-124 36q-46 2 -70 -33t-24 -106v-187q0 -76 40 -109.5t126 -31.5
q104 0 289 121q26 18 74 52t67.5 46.5t47.5 24.5t52 12q34 0 51 -20t17 -54q0 -72 -57 -223q-32 -100 -60.5 -137t-89.5 -37h-985zM297 1825q-29 31 -15 55.5t54 24.5h147q44 0 86 -33l127 -90l129 88q48 35 103 35h116q41 0 54 -24t-15 -56l-196 -207q-25 -28 -59.5 -36.5
t-135.5 -8.5q-95 0 -128 9t-62 40z" />
    <glyph glyph-name="ecaron" unicode="&#x11b;" horiz-adv-x="1202" 
d="M633 -31q-123 0 -234.5 45t-193 122.5t-130.5 186.5t-50 232q-2 171 80.5 311t218 216.5t290.5 76.5q147 0 273 -62.5t199 -168t73 -226.5q0 -132 -153 -170q-52 -13 -232 -49q-162 -37 -219 -80q-29 -18 -29 -34q0 -32 49 -64q64 -49 166 -49q145 0 293 115
q37 26 64.5 22t56.5 -39q29 -34 28.5 -65t-28.5 -70q-82 -113 -225 -181.5t-297 -68.5zM227 1534q-29 34 -15 61t54 27h148q43 0 86 -37l127 -100l129 98q50 39 102 39h117q41 0 54 -26.5t-15 -61.5l-197 -231q-25 -32 -59.5 -41t-134.5 -9q-95 0 -128.5 10t-62.5 44z
M375 713q0 -59 15 -107.5t42 -48.5q4 0 11 4t18.5 12t19.5 13q82 63 211 116q37 14 54.5 27.5t17.5 36.5q0 53 -63 107.5t-138 54.5q-79 0 -133.5 -59t-54.5 -156z" />
    <glyph glyph-name="Gbreve" unicode="&#x11e;" horiz-adv-x="1533" 
d="M836 -27q-182 0 -335 63t-255 171t-158.5 252t-56.5 305q0 160 63 303t170 245.5t256.5 162t315.5 59.5q180 0 346.5 -69t255.5 -173q50 -60 34 -111.5t-104 -117.5q-127 -94 -174 -94t-92 69q-91 141 -168 201.5t-172 60.5q-132 0 -217.5 -115t-85.5 -292
q0 -165 65 -311.5t183.5 -238t261.5 -91.5q77 0 107 21t30 69v121q0 70 -19.5 104t-76.5 60q-66 32 -66 88q0 40 30.5 66t90.5 26l43 -2h285q110 0 110 -107l-2 -391q0 -77 -31 -128t-104 -85q-112 -56 -252 -88.5t-278 -32.5zM520 1894q62 88 154 39q127 -65 221 -65
q73 0 149 45q50 23 76 0q24 -23 18 -63.5t-36 -84.5q-86 -168 -305 -168q-145 0 -254 64q-125 77 -23 233z" />
    <glyph glyph-name="gbreve" unicode="&#x11f;" horiz-adv-x="1296" 
d="M623 -422q-116 0 -241.5 17t-211.5 43q-70 20 -80 67.5t33 159.5q26 66 59 78t97 -19q12 -5 63 -27.5t67.5 -29.5t58 -23t64 -21.5t54 -11.5t57.5 -6q167 0 164 199v66q0 28 -19.5 35.5t-42.5 -15.5q-107 -104 -253 -104q-212 0 -339.5 145.5t-127.5 374.5
q0 180 80.5 325.5t223 227.5t320.5 82q41 0 148 -10.5t180 -10.5q38 0 99 4t91 4h29q48 1 72 -24t24 -64q0 -48 -53 -82q-40 -24 -54.5 -56t-13.5 -97l-2 -488q0 -85 9 -213q8 -118 8 -137q0 -103 -40.5 -179t-117 -121.5t-177 -67t-228.5 -21.5zM342 1554q62 88 154 39
q127 -65 221 -65q73 0 149 45q50 23 76 0q24 -23 18 -63.5t-36 -84.5q-43 -84 -122.5 -126t-183.5 -42q-144 0 -253 64q-125 77 -23 233zM401 604q0 -145 62 -231t168 -86q91 0 135 43t43 133v233q2 101 -44.5 154t-137.5 53q-92 0 -159 -83t-67 -216z" />
    <glyph glyph-name="Gdotaccent" unicode="&#x120;" horiz-adv-x="1533" 
d="M836 -27q-182 0 -335 63t-255 171t-158.5 252t-56.5 305q0 160 63 303t170 245.5t256.5 162t315.5 59.5q180 0 346.5 -69t255.5 -173q50 -60 34 -111.5t-104 -117.5q-127 -94 -174 -94t-92 69q-91 141 -168 201.5t-172 60.5q-132 0 -217.5 -115t-85.5 -292
q0 -165 65 -311.5t183.5 -238t261.5 -91.5q77 0 107 21t30 69v121q0 70 -19.5 104t-76.5 60q-66 32 -66 88q0 40 30.5 66t90.5 26l43 -2h285q110 0 110 -107l-2 -391q0 -77 -31 -128t-104 -85q-112 -56 -252 -88.5t-278 -32.5zM608 1782q0 83 58.5 139.5t146.5 56.5
q82 0 137.5 -53t55.5 -131q0 -83 -58.5 -139t-146.5 -56q-82 0 -137.5 53t-55.5 130z" />
    <glyph glyph-name="gdotaccent" unicode="&#x121;" horiz-adv-x="1296" 
d="M623 -422q-116 0 -241.5 17t-211.5 43q-70 20 -80 67.5t33 159.5q26 66 59 78t97 -19q12 -5 63 -27.5t67.5 -29.5t58 -23t64 -21.5t54 -11.5t57.5 -6q167 0 164 199v66q0 28 -19.5 35.5t-42.5 -15.5q-107 -104 -253 -104q-212 0 -339.5 145.5t-127.5 374.5
q0 180 80.5 325.5t223 227.5t320.5 82q41 0 148 -10.5t180 -10.5q38 0 99 4t91 4h29q48 1 72 -24t24 -64q0 -48 -53 -82q-40 -24 -54.5 -56t-13.5 -97l-2 -488q0 -85 9 -213q8 -118 8 -137q0 -103 -40.5 -179t-117 -121.5t-177 -67t-228.5 -21.5zM401 604q0 -145 62 -231
t168 -86q91 0 135 43t43 133v233q2 101 -44.5 154t-137.5 53q-92 0 -159 -83t-67 -216zM430 1442q0 89 67 155t158 66q83 0 144 -58.5t61 -138.5q0 -89 -67.5 -154t-159.5 -65q-82 0 -142.5 58.5t-60.5 136.5z" />
    <glyph glyph-name="uni0122" unicode="&#x122;" horiz-adv-x="1533" 
d="M836 -27q-182 0 -335 63t-255 171t-158.5 252t-56.5 305q0 160 63 303t170 245.5t256.5 162t315.5 59.5q180 0 346.5 -69t255.5 -173q50 -60 34 -111.5t-104 -117.5q-127 -94 -174 -94t-92 69q-91 141 -168 201.5t-172 60.5q-132 0 -217.5 -115t-85.5 -292
q0 -165 65 -311.5t183.5 -238t261.5 -91.5q77 0 107 21t30 69v121q0 70 -19.5 104t-76.5 60q-66 32 -66 88q0 40 30.5 66t90.5 26l43 -2h285q110 0 110 -107l-2 -391q0 -77 -31 -128t-104 -85q-112 -56 -252 -88.5t-278 -32.5zM584 -291q0 92 61.5 153.5t151.5 61.5
q103 0 162 -68.5t59 -187.5q0 -130 -76.5 -242.5t-189.5 -170.5q-65 -39 -115 26q-46 61 4 96q48 37 71 63.5t23 53.5q0 25 -30 35q-121 47 -121 180z" />
    <glyph glyph-name="uni0123" unicode="&#x123;" horiz-adv-x="1296" 
d="M623 -422q-116 0 -241.5 17t-211.5 43q-70 20 -80 67.5t33 159.5q26 66 59 78t97 -19q12 -5 63 -27.5t67.5 -29.5t58 -23t64 -21.5t54 -11.5t57.5 -6q167 0 164 199v66q0 28 -19.5 35.5t-42.5 -15.5q-107 -104 -253 -104q-212 0 -339.5 145.5t-127.5 374.5
q0 180 80.5 325.5t223 227.5t320.5 82q41 0 148 -10.5t180 -10.5q38 0 99 4t91 4h29q48 1 72 -24t24 -64q0 -48 -53 -82q-40 -24 -54.5 -56t-13.5 -97l-2 -488q0 -85 9 -213q8 -118 8 -137q0 -103 -40.5 -179t-117 -121.5t-177 -67t-228.5 -21.5zM401 604q0 -145 62 -231
t168 -86q91 0 135 43t43 133v233q2 101 -44.5 154t-137.5 53q-92 0 -159 -83t-67 -216zM428 1444q0 112 78.5 209t193.5 147q67 34 117 -22q50 -53 -4 -84q-34 -23 -51 -36t-31 -30t-14 -33q0 -21 31 -30q124 -43 124 -156q0 -79 -63 -131.5t-154 -52.5q-106 0 -166.5 59
t-60.5 160z" />
    <glyph glyph-name="Hbar" unicode="&#x126;" horiz-adv-x="1650" 
d="M129 0q-51 0 -75.5 26t-24.5 66q0 55 55 84q47 26 62.5 59.5t13.5 100.5v684h-45q-23 0 -33 0.5t-24.5 3t-19.5 8t-11 16t-7.5 26t-1.5 38.5q0 61 19 76.5t78 15.5h45q-3 46 -19.5 72.5t-56.5 46.5q-55 32 -55 86q0 40 24.5 66t75.5 26h461q57 0 84.5 -26t27.5 -66
q0 -54 -63 -86q-44 -20 -62.5 -46.5t-21.5 -72.5h541q-3 46 -21.5 72.5t-62.5 46.5q-64 33 -64 86q0 40 28 66t85 26h461q50 0 75 -26t25 -66q0 -28 -12.5 -48t-44.5 -38q-38 -20 -54.5 -46.5t-19.5 -72.5h53q58 0 75 -15t17 -77q0 -35 -3 -53t-16 -27t-26 -10.5t-47 -1.5
h-53v-684q-2 -66 14.5 -100t63.5 -60q56 -33 53 -86q0 -40 -25 -65.5t-75 -24.5h-463q-55 0 -84 26t-29 66q0 54 64 84q53 26 70.5 59.5t15.5 100.5v248q0 58 -16 74t-70 16l-389 2q-35 0 -49.5 -11t-14.5 -44l-2 -285q-2 -67 16.5 -101t71.5 -61q62 -33 62 -86
q-2 -40 -30 -64.5t-85 -23.5h-461zM553 999q0 -65 53 -65l418 -2q45 0 58.5 15.5t13.5 60.5v12h-543v-21z" />
    <glyph glyph-name="hbar" unicode="&#x127;" horiz-adv-x="1361" 
d="M123 0q-47 0 -70.5 25t-23.5 63q0 48 57 84q35 23 47 54.5t12 97.5v829h-61q-45 0 -61.5 19t-16.5 69q0 46 16.5 63t61.5 17h29q-18 18 -37 29q-51 33 -51 82q0 38 24 63t72 25h295q92 0 92 -90l-2 -109h112q39 0 51.5 -16.5t12.5 -63.5q0 -51 -12.5 -69.5t-51.5 -18.5
h-112l-2 -115q0 -27 17 -31.5t34 21.5q42 56 111 91.5t151 35.5q285 0 336 -326l74 -479q18 -117 78 -166q57 -42 57 -100q0 -37 -22 -60.5t-66 -23.5h-178q-110 0 -164.5 47t-67.5 160l-55 481q-9 84 -50.5 125t-109.5 41q-62 0 -101.5 -33.5t-39.5 -87.5v-403
q0 -67 13 -99t52 -55q64 -37 64 -86q0 -38 -26.5 -64t-78.5 -26h-409z" />
    <glyph glyph-name="Itilde" unicode="&#x128;" horiz-adv-x="716" 
d="M129 0q-49 0 -73.5 26t-24.5 66q0 55 55 84q46 26 61 59t15 101v829q0 66 -16.5 100t-61.5 60q-55 32 -55 86q0 39 25 64.5t73 25.5h463q49 0 73.5 -26t24.5 -66q0 -53 -57 -86q-45 -24 -60.5 -57.5t-13.5 -100.5v-829q-2 -67 13.5 -100.5t60.5 -59.5q57 -30 57 -84
q0 -40 -25 -66t-75 -26h-459zM-41 1704q43 124 95 175.5t134 51.5t240 -69q152 -64 186 -64q24 0 42 14t46 50q21 33 46 40t57 -8q59 -23 14 -125q-41 -124 -88 -174.5t-127 -50.5q-34 0 -80.5 13.5t-73 24t-96.5 40.5q-133 57 -180 57q-25 0 -42 -13t-42 -50
q-20 -31 -42.5 -40.5t-55.5 -0.5q-41 12 -48 42t15 87z" />
    <glyph glyph-name="itilde" unicode="&#x129;" horiz-adv-x="632" 
d="M117 0q-48 0 -71 24.5t-23 63.5q0 48 57 84q35 23 47 54.5t12 97.5v481q0 66 -14.5 98t-54.5 55q-52 36 -52 84q0 38 24.5 63t72.5 25l28 -2h248q59 0 84 -29.5t25 -99.5v-673q0 -67 12.5 -99t48.5 -53q33 -21 46.5 -41t13.5 -45q0 -38 -24.5 -63t-74.5 -25h-405z
M-109 1399q43 138 95.5 196t134.5 58q76 0 239 -78q150 -72 187 -72q24 0 42 15.5t46 56.5q21 36 45.5 44t56.5 -7q61 -27 15 -139q-41 -138 -88 -194t-127 -56q-32 0 -73 12t-71.5 25.5t-86.5 39.5q-13 6 -19 9q-134 63 -181 63q-24 0 -41 -15t-42 -57q-21 -34 -43.5 -44.5
t-55.5 -0.5q-41 13 -48 47t15 97z" />
    <glyph glyph-name="Imacron" unicode="&#x12a;" horiz-adv-x="716" 
d="M129 0q-49 0 -73.5 26t-24.5 66q0 55 55 84q46 26 61 59t15 101v829q0 66 -16.5 100t-61.5 60q-55 32 -55 86q0 39 25 64.5t73 25.5h463q49 0 73.5 -26t24.5 -66q0 -53 -57 -86q-45 -24 -60.5 -57.5t-13.5 -100.5v-829q-2 -67 13.5 -100.5t60.5 -59.5q57 -30 57 -84
q0 -40 -25 -66t-75 -26h-459zM-37 1690v67q0 58 20 78t76 20h596q55 0 75 -20t20 -78v-67q0 -58 -20 -78.5t-75 -20.5h-596q-56 0 -76 20.5t-20 78.5z" />
    <glyph glyph-name="imacron" unicode="&#x12b;" horiz-adv-x="632" 
d="M117 0q-48 0 -71 24.5t-23 63.5q0 48 57 84q35 23 47 54.5t12 97.5v481q0 66 -14.5 98t-54.5 55q-52 36 -52 84q0 38 24.5 63t72.5 25l28 -2h248q59 0 84 -29.5t25 -99.5v-673q0 -67 12.5 -99t48.5 -53q33 -21 46.5 -41t13.5 -45q0 -38 -24.5 -63t-74.5 -25h-405z
M-18 1368v68q0 58 19 78t75 20h461q56 0 75 -20t19 -78v-68q0 -58 -19 -78t-75 -20h-461q-56 0 -75 20t-19 78z" />
    <glyph glyph-name="Iogonek" unicode="&#x12e;" horiz-adv-x="716" 
d="M129 0q-49 0 -73.5 26t-24.5 66q0 55 55 84q46 26 61 59t15 101v829q0 66 -16.5 100t-61.5 60q-55 32 -55 86q0 39 25 64.5t73 25.5h463q49 0 73.5 -26t24.5 -66q0 -53 -57 -86q-45 -24 -60.5 -57.5t-13.5 -100.5v-829q-2 -67 13.5 -100.5t60.5 -59.5q57 -30 57 -84
q0 -59 -47 -82q-12 -12 -20 -16q-43 -32 -43 -88q0 -32 18.5 -51t50.5 -19q23 0 68 25q38 13 55 -43q15 -42 -31 -88q-38 -42 -91.5 -67t-110.5 -25q-106 0 -169 53t-63 133q0 55 35 101.5t96 74.5h-307z" />
    <glyph glyph-name="iogonek" unicode="&#x12f;" horiz-adv-x="630" 
d="M152 1223q-44 0 -69.5 25.5t-25.5 72.5q0 90 64.5 152.5t159.5 62.5t161 -63t66 -152q0 -48 -25.5 -73t-70.5 -25h-260zM18 1042q0 38 24.5 63t72.5 25l28 -2h248q59 0 84 -29.5t25 -99.5v-673q0 -67 12.5 -99t48.5 -53q33 -21 46.5 -41t13.5 -45q0 -58 -48 -78
q-4 -4 -16 -12q-43 -32 -43 -88q0 -32 19 -51t51 -19q22 0 67 25q39 13 56 -43q15 -42 -31 -88q-37 -42 -91.5 -67t-111.5 -25q-106 0 -168.5 53t-62.5 133q0 54 32.5 99t90.5 73h-248q-48 0 -71 24.5t-23 63.5q0 48 57 84q35 23 47 54.5t12 97.5v481q0 66 -14.5 98
t-54.5 55q-52 36 -52 84z" />
    <glyph glyph-name="Idotaccent" unicode="&#x130;" horiz-adv-x="716" 
d="M129 0q-49 0 -73.5 26t-24.5 66q0 55 55 84q46 26 61 59t15 101v829q0 66 -16.5 100t-61.5 60q-55 32 -55 86q0 39 25 64.5t73 25.5h463q49 0 73.5 -26t24.5 -66q0 -53 -57 -86q-45 -24 -60.5 -57.5t-13.5 -100.5v-829q-2 -67 13.5 -100.5t60.5 -59.5q57 -30 57 -84
q0 -40 -25 -66t-75 -26h-459zM156 1765q0 84 58.5 140.5t145.5 56.5q82 0 137.5 -53t55.5 -131q0 -83 -58.5 -139t-146.5 -56q-82 0 -137 52.5t-55 129.5z" />
    <glyph glyph-name="dotlessi" unicode="&#x131;" horiz-adv-x="632" 
d="M117 0q-48 0 -71 24.5t-23 63.5q0 48 57 84q35 23 47 54.5t12 97.5v481q0 66 -14.5 98t-54.5 55q-52 36 -52 84q0 38 24.5 63t72.5 25l28 -2h248q59 0 84 -29.5t25 -99.5v-673q0 -67 12.5 -99t48.5 -53q33 -21 46.5 -41t13.5 -45q0 -38 -24.5 -63t-74.5 -25h-405z" />
    <glyph glyph-name="IJ" unicode="&#x132;" horiz-adv-x="1636" 
d="M129 0q-49 0 -73.5 26t-24.5 66q0 55 55 84q46 26 61 59t15 101v829q0 66 -16.5 100t-61.5 60q-55 32 -55 86q0 39 25 64.5t73 25.5h463q49 0 73.5 -26t24.5 -66q0 -53 -57 -86q-45 -24 -60.5 -57.5t-13.5 -100.5v-829q-2 -67 13.5 -100.5t60.5 -59.5q57 -30 57 -84
q0 -40 -25 -66t-75 -26h-459zM733 176q18 44 37 57.5t55 6.5q68 -11 115 -11q71 0 109 43.5t38 118.5v770q2 68 -16.5 102t-71.5 60q-66 34 -63 88q0 40 29 65.5t84 24.5h469q48 0 72 -26t24 -66q0 -54 -55 -86q-46 -24 -61 -57t-15 -101v-833q0 -172 -106 -265t-283 -96
q-93 -1 -181 21.5t-149 62.5q-36 21 -43 45t12 76z" />
    <glyph glyph-name="ij" unicode="&#x133;" horiz-adv-x="1224" 
d="M152 1223q-44 0 -69.5 25.5t-25.5 72.5q0 90 64.5 152.5t159.5 62.5t161 -63t66 -152q0 -48 -25.5 -73t-70.5 -25h-260zM18 1042q0 38 24.5 63t72.5 25l28 -2h248q59 0 84 -29.5t25 -99.5v-673q0 -67 12.5 -99t48.5 -53q33 -21 46.5 -41t13.5 -45q0 -38 -24.5 -63
t-74.5 -25h-405q-48 0 -71 24.5t-23 63.5q0 48 57 84q35 23 47 54.5t12 97.5v481q0 66 -14.5 98t-54.5 55q-52 36 -52 84zM526 -182q15 37 34 50.5t48 8.5q39 -8 88 -8q113 0 113 117v819q1 65 -13.5 97t-54.5 56q-54 37 -51 84q0 39 23.5 63.5t72.5 24.5l27 -2h248
q60 0 85 -29.5t25 -99.5l3 -1075q0 -140 -94 -220.5t-249 -80.5q-74 0 -149 19.5t-121 50.5q-39 25 -46.5 56.5t11.5 68.5zM717 1323q0 90 65 152.5t158 62.5q95 0 161 -63t66 -152q0 -98 -94 -98h-260q-44 0 -70 26t-26 72z" />
    <glyph glyph-name="uni0136" unicode="&#x136;" horiz-adv-x="1511" 
d="M129 0q-51 0 -75.5 26t-24.5 66q0 55 55 84q47 26 62.5 59.5t13.5 100.5v829q2 67 -14 100.5t-62 57.5q-55 32 -55 86q0 40 24.5 66t75.5 26h461q57 0 84.5 -26t27.5 -66q0 -54 -63 -86q-52 -24 -69 -57t-17 -101v-188q0 -25 17.5 -27.5t37.5 23.5q56 81 87.5 125
t84.5 106.5t107 112.5q93 87 193.5 138.5t174.5 49.5q42 -3 67.5 -31t43.5 -85q35 -119 35 -181q0 -57 -51 -63q-346 -66 -488 -195q-14 -13 -17.5 -26t5 -24t29.5 -17q146 -38 225 -123t153 -279l31 -82q37 -99 66 -138.5t84 -67.5q38 -21 54.5 -45t16.5 -60
q0 -43 -25.5 -65.5t-68.5 -22.5h-295q-81 0 -123.5 43.5t-72.5 140.5l-74 228q-40 126 -99 186.5t-143 60.5q-27 0 -39 -13.5t-12 -43.5l-2 -266q0 -67 18 -101t70 -61q65 -33 62 -86q0 -39 -29 -64t-86 -24h-461zM616 -242q0 92 61.5 153.5t151.5 61.5q103 0 162.5 -69
t59.5 -187q0 -129 -77 -241.5t-190 -171.5q-64 -39 -114 26q-47 62 4 97q48 38 71 63.5t23 52.5q0 24 -31 35q-121 47 -121 180z" />
    <glyph glyph-name="uni0137" unicode="&#x137;" horiz-adv-x="1224" 
d="M121 0q-48 0 -72 25t-24 63q0 48 57 84q36 23 47.5 53.5t11.5 98.5v870q0 67 -14 99t-55 57q-52 33 -52 82q2 39 25.5 63.5t71.5 24.5h297q92 0 92 -90l-2 -607q0 -15 7.5 -21.5t19 -2t22.5 17.5q82 100 139 152q90 82 187.5 129t175.5 47q95 0 110 -227q1 -38 -19 -56.5
t-65 -23.5q-147 -15 -260 -54q-26 -8 -29.5 -25.5t21.5 -29.5q78 -35 128.5 -96.5t88.5 -155.5l68 -164q31 -80 86 -120q53 -39 53 -99q0 -42 -24.5 -68t-65.5 -26h-232q-77 0 -115 46.5t-61 137.5l-47 158q-60 205 -149 205q-39 0 -39 -43v-174q0 -67 13 -99t52 -55
q62 -37 62 -86q0 -38 -26 -64t-77 -26h-407zM408 -291q0 92 61.5 153.5t151.5 61.5q103 0 162 -68.5t59 -187.5q0 -129 -77 -241.5t-190 -171.5q-64 -39 -114 26q-46 61 4 96q48 37 71 63.5t23 53.5q0 24 -31 35q-120 46 -120 180z" />
    <glyph glyph-name="Lacute" unicode="&#x139;" horiz-adv-x="1232" 
d="M129 0q-50 -1 -75 24.5t-25 65.5q0 54 55 86q45 26 61.5 60t16.5 100v829q0 68 -15 101t-61 57q-55 32 -55 86q0 40 24 66t72 26h473q64 1 96.5 -25t32.5 -67q3 -56 -70 -92q-61 -26 -82.5 -61t-19.5 -105v-729q0 -109 30.5 -156t110.5 -47q33 -1 68 9.5t56 19.5t63 40
t52 39t60 50q6 5 25.5 21.5t28.5 24t27.5 21t31 20t29 12t30.5 5.5q31 0 49.5 -21t18.5 -59q0 -51 -26.5 -150.5t-51.5 -170.5q-15 -43 -43 -61.5t-78 -18.5h-909zM319 1686l160 172q53 61 135 61h228q34 0 56.5 -12.5t28.5 -31.5t-8 -44t-49 -49l-252 -172q-39 -29 -96 -29
h-176q-49 0 -56.5 31t29.5 74z" />
    <glyph glyph-name="lacute" unicode="&#x13a;" horiz-adv-x="638" 
d="M121 0q-48 0 -72 25t-24 63q0 48 57 84q36 23 47.5 53.5t11.5 98.5v872q0 66 -14 98.5t-55 55.5q-52 33 -52 84q2 38 25.5 62.5t71.5 23.5h293q96 0 96 -107v-1087q-2 -67 10.5 -98.5t48.5 -53.5q33 -21 46.5 -41t13.5 -45q0 -38 -24.5 -63t-74.5 -25h-405zM131 1706
l160 172q53 61 135 61h227q46 0 70 -20t14.5 -52.5t-55.5 -64.5l-252 -172q-38 -28 -96 -28h-176q-49 0 -56.5 30.5t29.5 73.5z" />
    <glyph glyph-name="uni013B" unicode="&#x13b;" horiz-adv-x="1232" 
d="M129 0q-50 -1 -75 24.5t-25 65.5q0 54 55 86q45 26 61.5 60t16.5 100v829q0 68 -15 101t-61 57q-55 32 -55 86q0 40 24 66t72 26h473q64 1 96.5 -25t32.5 -67q3 -56 -70 -92q-61 -26 -82.5 -61t-19.5 -105v-729q0 -109 30.5 -156t110.5 -47q33 -1 68 9.5t56 19.5t63 40
t52 39t60 50q6 5 25.5 21.5t28.5 24t27.5 21t31 20t29 12t30.5 5.5q31 0 49.5 -21t18.5 -59q0 -51 -26.5 -150.5t-51.5 -170.5q-15 -43 -43 -61.5t-78 -18.5h-909zM412 -291q0 92 61.5 153.5t151.5 61.5q103 0 162 -68.5t59 -187.5q0 -130 -76.5 -242.5t-189.5 -170.5
q-65 -39 -115 26q-46 61 4 96q48 37 71 63.5t23 53.5q0 24 -31 35q-120 46 -120 180z" />
    <glyph glyph-name="uni013C" unicode="&#x13c;" horiz-adv-x="638" 
d="M121 0q-48 0 -72 25t-24 63q0 48 57 84q36 23 47.5 53.5t11.5 98.5v872q0 66 -14 98.5t-55 55.5q-52 33 -52 84q2 38 25.5 62.5t71.5 23.5h293q96 0 96 -107v-1087q-2 -67 10.5 -98.5t48.5 -53.5q33 -21 46.5 -41t13.5 -45q0 -38 -24.5 -63t-74.5 -25h-405zM121 -291
q0 92 61.5 153.5t151.5 61.5q103 0 162 -68.5t59 -187.5q0 -130 -76.5 -242.5t-189.5 -170.5q-65 -39 -115 26q-46 61 4 96q48 37 71 63.5t23 53.5q0 25 -30 35q-121 47 -121 180z" />
    <glyph glyph-name="Lcaron" unicode="&#x13d;" horiz-adv-x="1232" 
d="M129 0q-50 -1 -75 24.5t-25 65.5q0 54 55 86q45 26 61.5 60t16.5 100v829q0 68 -15 101t-61 57q-55 32 -55 86q0 40 24 66t72 26h473q64 1 96.5 -25t32.5 -67q3 -56 -70 -92q-61 -26 -82.5 -61t-19.5 -105v-729q0 -109 30.5 -156t110.5 -47q33 -1 68 9.5t56 19.5t63 40
t52 39t60 50q6 5 25.5 21.5t28.5 24t27.5 21t31 20t29 12t30.5 5.5q31 0 49.5 -21t18.5 -59q0 -51 -26.5 -150.5t-51.5 -170.5q-15 -43 -43 -61.5t-78 -18.5h-909zM750 1087l137 334q33 80 117 80h178q69 0 82.5 -37.5t-25.5 -97.5l-209 -342q-17 -27 -40 -33t-72 -6h-127
q-85 0 -41 102z" />
    <glyph glyph-name="lcaron" unicode="&#x13e;" horiz-adv-x="638" 
d="M121 0q-48 0 -72 25t-24 63q0 48 57 84q36 23 47.5 53.5t11.5 98.5v872q0 66 -14 98.5t-55 55.5q-52 33 -52 84q2 38 25.5 62.5t71.5 23.5h293q96 0 96 -107v-1087q-2 -67 10.5 -98.5t48.5 -53.5q33 -21 46.5 -41t13.5 -45q0 -38 -24.5 -63t-74.5 -25h-405zM580 1124
l137 320q33 76 117 76h178q68 0 82 -36t-25 -93l-209 -328q-17 -25 -40 -31t-72 -6h-127q-84 0 -41 98z" />
    <glyph glyph-name="Lslash" unicode="&#x141;" horiz-adv-x="1232" 
d="M129 0q-50 -1 -75 24.5t-25 65.5q0 54 55 86q45 26 61.5 60t16.5 100v194l-105 -30q-33 -9 -48 1.5t-15 45.5v123q0 54 19 81t73 42l76 22v350q0 68 -15 101t-61 57q-55 32 -55 86q0 40 24 66t72 26h473q64 1 96.5 -25t32.5 -67q3 -56 -70 -92q-61 -26 -82.5 -61
t-19.5 -105v-215l178 53q72 18 72 -55v-113q0 -59 -21 -87.5t-79 -45.5l-150 -43v-223q0 -109 30.5 -156t110.5 -47q33 -1 68 9.5t56 19.5t63 40t52 39t60 50q6 5 25.5 21.5t28.5 24t27.5 21t31 20t29 12t30.5 5.5q31 0 49.5 -21t18.5 -59q0 -51 -26.5 -150.5t-51.5 -170.5
q-15 -43 -43 -61.5t-78 -18.5h-909z" />
    <glyph glyph-name="lslash" unicode="&#x142;" horiz-adv-x="638" 
d="M121 0q-48 0 -72 25t-24 63q0 48 57 84q36 23 47.5 53.5t11.5 98.5v274l-80 -31q-26 -9 -37.5 1.5t-11.5 45.5v123q0 54 15 81t57 42l57 23v313q0 66 -14 98.5t-55 55.5q-52 33 -52 84q2 38 25.5 62.5t71.5 23.5h293q96 0 96 -107v-389l82 33q57 18 57 -56v-112
q0 -58 -17 -87t-61 -46l-61 -23v-407q-2 -67 10.5 -98.5t48.5 -53.5q33 -21 46.5 -41t13.5 -45q0 -38 -24.5 -63t-74.5 -25h-405z" />
    <glyph glyph-name="Nacute" unicode="&#x143;" horiz-adv-x="1521" 
d="M1198 -10q-95 0 -104 94q-8 90 -76 176l-535 647q-12 15 -24.5 12t-12.5 -22l-2 -561q-1 -66 19.5 -100t79.5 -62q72 -33 69 -86q0 -40 -32.5 -64.5t-96.5 -23.5h-354q-50 0 -75 26t-25 66q0 55 55 84q47 26 62.5 59.5t13.5 100.5v829q2 66 -14.5 100t-63.5 60
q-55 32 -55 86q2 40 26.5 65t73.5 25h311q65 0 106 -22.5t81 -71.5l413 -518q17 -20 29 -16.5t12 22.5v270q2 67 -16.5 100.5t-71.5 59.5q-63 32 -63 86q2 40 30 65.5t84 24.5h361q49 0 73.5 -26t24.5 -66q0 -54 -55 -86q-47 -24 -62.5 -57.5t-13.5 -100.5l2 -1028
q0 -147 -108 -147h-66zM571 1686l160 172q53 61 135 61h228q34 0 56.5 -12.5t28.5 -31.5t-8 -44t-49 -49l-252 -172q-39 -29 -96 -29h-176q-49 0 -56.5 31t29.5 74z" />
    <glyph glyph-name="nacute" unicode="&#x144;" horiz-adv-x="1355" 
d="M117 0q-48 0 -71 24.5t-23 63.5q0 48 57 84q35 23 47 54.5t12 97.5v481q0 66 -14.5 98t-54.5 55q-52 36 -52 84q0 38 24.5 63t72.5 25l28 -2h240q45 0 67.5 -24t36.5 -82q6 -21 20.5 -23t29.5 19q44 62 116.5 99.5t157.5 37.5q285 0 336 -324l74 -481q18 -118 75 -166
q60 -42 60 -100q0 -37 -22.5 -60.5t-65.5 -23.5h-178q-111 0 -165.5 47.5t-66.5 159.5l-57 481q-17 166 -160 166q-62 0 -100.5 -33.5t-38.5 -87.5v-403q-2 -66 11.5 -98.5t53.5 -55.5q64 -37 64 -86q0 -39 -26.5 -64.5t-80.5 -25.5h-407zM496 1329l180 236q47 61 131 61
h188q72 0 86 -39.5t-45 -93.5l-256 -223q-26 -23 -52 -30t-69 -7h-127q-44 0 -54 29t18 67z" />
    <glyph glyph-name="uni0145" unicode="&#x145;" horiz-adv-x="1521" 
d="M1198 -10q-95 0 -104 94q-8 90 -76 176l-535 647q-12 15 -24.5 12t-12.5 -22l-2 -561q-1 -66 19.5 -100t79.5 -62q72 -33 69 -86q0 -40 -32.5 -64.5t-96.5 -23.5h-354q-50 0 -75 26t-25 66q0 55 55 84q47 26 62.5 59.5t13.5 100.5v829q2 66 -14.5 100t-63.5 60
q-55 32 -55 86q2 40 26.5 65t73.5 25h311q65 0 106 -22.5t81 -71.5l413 -518q17 -20 29 -16.5t12 22.5v270q2 67 -16.5 100.5t-71.5 59.5q-63 32 -63 86q2 40 30 65.5t84 24.5h361q49 0 73.5 -26t24.5 -66q0 -54 -55 -86q-47 -24 -62.5 -57.5t-13.5 -100.5l2 -1028
q0 -147 -108 -147h-66zM625 -203q0 92 61.5 153.5t151.5 61.5q103 0 162 -68.5t59 -187.5q0 -130 -76.5 -242.5t-189.5 -170.5q-65 -39 -115 26q-46 61 4 96q48 37 71 63.5t23 53.5q0 24 -31 35q-120 46 -120 180z" />
    <glyph glyph-name="uni0146" unicode="&#x146;" horiz-adv-x="1355" 
d="M117 0q-48 0 -71 24.5t-23 63.5q0 48 57 84q35 23 47 54.5t12 97.5v481q0 66 -14.5 98t-54.5 55q-52 36 -52 84q0 38 24.5 63t72.5 25l28 -2h240q45 0 67.5 -24t36.5 -82q6 -21 20.5 -23t29.5 19q44 62 116.5 99.5t157.5 37.5q285 0 336 -324l74 -481q18 -118 75 -166
q60 -42 60 -100q0 -37 -22.5 -60.5t-65.5 -23.5h-178q-111 0 -165.5 47.5t-66.5 159.5l-57 481q-17 166 -160 166q-62 0 -100.5 -33.5t-38.5 -87.5v-403q-2 -66 11.5 -98.5t53.5 -55.5q64 -37 64 -86q0 -39 -26.5 -64.5t-80.5 -25.5h-407zM545 -291q0 92 61.5 153.5
t151.5 61.5q103 0 162 -68.5t59 -187.5q0 -130 -76.5 -242.5t-189.5 -170.5q-65 -39 -115 26q-46 61 4 96q48 37 71 63.5t23 53.5q0 25 -30 35q-121 47 -121 180z" />
    <glyph glyph-name="Ncaron" unicode="&#x147;" horiz-adv-x="1521" 
d="M1198 -10q-95 0 -104 94q-8 90 -76 176l-535 647q-12 15 -24.5 12t-12.5 -22l-2 -561q-1 -66 19.5 -100t79.5 -62q72 -33 69 -86q0 -40 -32.5 -64.5t-96.5 -23.5h-354q-50 0 -75 26t-25 66q0 55 55 84q47 26 62.5 59.5t13.5 100.5v829q2 66 -14.5 100t-63.5 60
q-55 32 -55 86q2 40 26.5 65t73.5 25h311q65 0 106 -22.5t81 -71.5l413 -518q17 -20 29 -16.5t12 22.5v270q2 67 -16.5 100.5t-71.5 59.5q-63 32 -63 86q2 40 30 65.5t84 24.5h361q49 0 73.5 -26t24.5 -66q0 -54 -55 -86q-47 -24 -62.5 -57.5t-13.5 -100.5l2 -1028
q0 -147 -108 -147h-66zM375 1819q-29 31 -15 55t54 24h147q46 0 86 -32l127 -90l129 88q47 34 103 34h116q41 0 54 -23.5t-15 -55.5l-196 -207q-25 -28 -59.5 -36.5t-135.5 -8.5q-95 0 -128 9t-62 40z" />
    <glyph glyph-name="ncaron" unicode="&#x148;" horiz-adv-x="1355" 
d="M117 0q-48 0 -71 24.5t-23 63.5q0 48 57 84q35 23 47 54.5t12 97.5v481q0 66 -14.5 98t-54.5 55q-52 36 -52 84q0 38 24.5 63t72.5 25l28 -2h240q45 0 67.5 -24t36.5 -82q6 -21 20.5 -23t29.5 19q44 62 116.5 99.5t157.5 37.5q285 0 336 -324l74 -481q18 -118 75 -166
q60 -42 60 -100q0 -37 -22.5 -60.5t-65.5 -23.5h-178q-111 0 -165.5 47.5t-66.5 159.5l-57 481q-17 166 -160 166q-62 0 -100.5 -33.5t-38.5 -87.5v-403q-2 -66 11.5 -98.5t53.5 -55.5q64 -37 64 -86q0 -39 -26.5 -64.5t-80.5 -25.5h-407zM287 1522q-29 34 -15 61t54 27h147
q43 0 86 -37l127 -100l129 98q50 39 103 39h116q41 0 54 -26.5t-15 -61.5l-196 -232q-25 -31 -59.5 -40t-135.5 -9q-95 0 -128 10t-62 43z" />
    <glyph glyph-name="Eng" unicode="&#x14a;" horiz-adv-x="1521" 
d="M1198 -10q-95 0 -104 94q-8 90 -76 176l-535 647q-12 15 -24.5 12t-12.5 -22l-2 -561q-1 -66 19.5 -100t79.5 -62q72 -33 69 -86q0 -40 -32.5 -64.5t-96.5 -23.5h-354q-50 0 -75 26t-25 66q0 55 55 84q47 26 62.5 59.5t13.5 100.5v829q2 66 -14.5 100t-63.5 60
q-55 32 -55 86q2 40 26.5 65t73.5 25h311q65 0 106 -22.5t81 -71.5l413 -518q17 -20 29 -16.5t12 22.5v270q2 67 -16.5 100.5t-71.5 59.5q-63 32 -63 86q2 40 30 65.5t84 24.5h361q49 0 73.5 -26t24.5 -66q0 -54 -55 -86q-47 -24 -62.5 -57.5t-13.5 -100.5l2 -1028
q0 -147 -108 -147h-66z" />
    <glyph glyph-name="eng" unicode="&#x14b;" horiz-adv-x="1249" 
d="M856 -365q-76 0 -148.5 19t-119.5 51q-40 27 -48.5 57t11.5 68q18 36 38 49t50 10q48 -10 82 -10q56 0 84.5 31t28.5 88v676q0 88 -42.5 131t-136.5 43q-78 0 -122 -47.5t-44 -132.5v-338q0 -67 13 -99t49 -55q61 -35 61 -86q0 -39 -24.5 -64.5t-75.5 -25.5h-406
q-48 0 -72 25t-24 63q0 48 58 84q36 23 47.5 53.5t11.5 98.5v481q1 65 -13.5 97.5t-56.5 55.5q-51 35 -51 84q2 39 25 63.5t71 24.5l29 -2h254q40 0 59.5 -20t32.5 -64q8 -40 29 -40q10 0 29 22q101 123 286 123q181 0 278 -90.5t97 -276.5v-848q0 -140 -92.5 -219.5
t-247.5 -79.5z" />
    <glyph glyph-name="Omacron" unicode="&#x14c;" horiz-adv-x="1658" 
d="M844 -33q-174 0 -325.5 59.5t-259 163.5t-169 250.5t-61.5 313.5q0 214 103 391t282 279t395 102q234 0 421.5 -103.5t293.5 -288.5t106 -417q0 -155 -61.5 -294t-166 -239t-250.5 -158.5t-308 -58.5zM395 1702v67q0 58 22.5 78.5t84.5 20.5h655q61 0 83 -20.5t22 -78.5
v-67q0 -58 -22 -78t-83 -20h-655q-62 0 -84.5 20t-22.5 78zM457 887q0 -167 59.5 -322.5t162 -252.5t218.5 -97q139 0 221 107.5t82 291.5q0 166 -60 319t-163 248.5t-219 96.5q-137 0 -219 -105t-82 -286z" />
    <glyph glyph-name="omacron" unicode="&#x14d;" horiz-adv-x="1261" 
d="M629 -33q-125 0 -237.5 46t-192.5 124.5t-127 188t-47 231.5q0 172 80.5 310.5t222.5 217t319 78.5q124 0 233.5 -47.5t187 -128.5t122.5 -192.5t45 -235.5q0 -167 -79.5 -303t-218 -212.5t-308.5 -76.5zM223 1370v68q0 58 24.5 78t94.5 20h576q69 0 93.5 -20t24.5 -78
v-68q0 -58 -24.5 -78t-93.5 -20h-576q-70 0 -94.5 20t-24.5 78zM395 690q0 -110 39 -222t107 -187.5t143 -75.5q79 0 129.5 60.5t50.5 160.5q0 115 -39 230t-107 191.5t-143 76.5q-79 0 -129.5 -64t-50.5 -170z" />
    <glyph glyph-name="Ohungarumlaut" unicode="&#x150;" horiz-adv-x="1658" 
d="M844 -33q-174 0 -325.5 59.5t-259 163.5t-169 250.5t-61.5 313.5q0 214 103 391t282 279t395 102q234 0 421.5 -103.5t293.5 -288.5t106 -417q0 -155 -61.5 -294t-166 -239t-250.5 -158.5t-308 -58.5zM369 1683l157 205q41 54 131 54h181q72 0 83 -33t-49 -86l-223 -191
q-38 -33 -119 -33h-127q-43 0 -52 24.5t18 59.5zM457 887q0 -167 59.5 -322.5t162 -252.5t218.5 -97q139 0 221 107.5t82 291.5q0 166 -60 319t-163 248.5t-219 96.5q-137 0 -219 -105t-82 -286zM879 1683l180 205q48 54 131 54h180q72 0 85 -35t-50 -84l-246 -191
q-43 -33 -119 -33h-127q-44 0 -54 25t20 59z" />
    <glyph glyph-name="ohungarumlaut" unicode="&#x151;" horiz-adv-x="1261" 
d="M629 -33q-125 0 -237.5 46t-192.5 124.5t-127 188t-47 231.5q0 172 80.5 310.5t222.5 217t319 78.5q124 0 233.5 -47.5t187 -128.5t122.5 -192.5t45 -235.5q0 -167 -79.5 -303t-218 -212.5t-308.5 -76.5zM156 1348l157 235q41 62 131 62h181q72 0 83 -39t-49 -99
l-223 -217q-39 -39 -119 -39h-127q-43 0 -52 28.5t18 68.5zM395 690q0 -110 39 -222t107 -187.5t143 -75.5q79 0 129.5 60.5t50.5 160.5q0 115 -39 230t-107 191.5t-143 76.5q-79 0 -129.5 -64t-50.5 -170zM666 1348l180 235q48 62 131 62h180q72 0 85 -40.5t-50 -97.5
l-246 -217q-44 -39 -119 -39h-127q-44 0 -54 29.5t20 67.5z" />
    <glyph glyph-name="OE" unicode="&#x152;" horiz-adv-x="2375" 
d="M844 -33q-174 0 -325.5 59.5t-259 163.5t-169 250.5t-61.5 313.5q0 214 103 391t282 279t395 102q162 0 299 -49q27 24 74 24h944q51 0 79.5 -18.5t43.5 -61.5q1 -2 18 -60t24 -85.5t16 -71.5t9 -71q0 -37 -17 -57.5t-46 -20.5q-27 0 -72.5 22.5t-73 41.5t-86.5 61
q-78 58 -136.5 83t-125.5 25q-77 0 -113 -48t-36 -148v-97q0 -48 16.5 -64t65.5 -16h354q37 0 58.5 -18.5t21.5 -54.5q0 -40 -21 -88t-51 -86q-26 -31 -45 -44.5t-49 -13.5q-39 0 -130 36t-124 36q-58 3 -82 -53q-3 -38 -12 -76v-10v-187q0 -76 40 -109.5t126 -31.5
q103 0 288 121q25 17 61.5 43t55.5 39t43.5 27.5t43.5 20t38 5.5q34 0 51 -20t17 -54q0 -70 -58 -223q-32 -101 -60 -137.5t-89 -36.5h-985q-36 0 -60 14q-133 -47 -280 -47zM457 887q0 -167 59.5 -322.5t162 -252.5t218.5 -97q139 0 221 107.5t82 291.5q0 166 -60 319
t-163 248.5t-219 96.5q-137 0 -219 -105t-82 -286z" />
    <glyph glyph-name="oe" unicode="&#x153;" horiz-adv-x="2062" 
d="M629 -33q-125 0 -237.5 46t-192.5 124.5t-127 188t-47 231.5q0 172 80.5 310.5t222.5 217t319 78.5q121 0 226.5 -44t185.5 -124q82 79 187 121.5t218 42.5q147 0 273 -62.5t199 -168t73 -226.5q0 -132 -154 -170q-56 -14 -231 -49q-162 -37 -219 -80q-29 -18 -29 -34
q0 -32 49 -64q64 -49 166 -49q145 0 293 115q37 26 64.5 22t56.5 -39q29 -34 28.5 -65t-28.5 -70q-82 -113 -225 -181.5t-297 -68.5q-121 0 -230 43t-194 121q-174 -166 -430 -166zM395 690q0 -110 39 -222t107 -187.5t143 -75.5q79 0 129.5 60.5t50.5 160.5q0 115 -39 230
t-107 191.5t-143 76.5q-79 0 -129.5 -64t-50.5 -170zM1225 713q0 -59 15 -107.5t42 -48.5q4 0 11 4t18.5 12t19.5 13q82 63 211 116q37 14 54.5 27.5t17.5 36.5q0 53 -63 107.5t-138 54.5q-79 0 -133.5 -59t-54.5 -156z" />
    <glyph glyph-name="Racute" unicode="&#x154;" horiz-adv-x="1531" 
d="M133 0q-50 0 -75 26t-25 66q0 54 57 84q45 26 60.5 59.5t15.5 100.5v829q0 67 -16.5 100.5t-63.5 59.5q-56 34 -53 86q0 40 24 65t74 25h760q209 0 341 -110.5t132 -303.5q0 -125 -71 -210.5t-201 -153.5q-14 -8 -15 -20t13 -21q56 -32 97 -79t79 -122l53 -100
q43 -82 74.5 -122t70.5 -64q32 -21 47 -44.5t15 -60.5q0 -90 -105 -90h-245q-88 0 -133.5 31t-81.5 114q-67 165 -95 220q-56 113 -114 163t-142 47q-26 -2 -38.5 -13t-12.5 -38v-188q0 -67 18.5 -101t71.5 -61q64 -30 64 -86q0 -40 -29.5 -64.5t-87.5 -23.5h-463zM532 1686
l160 172q53 61 135 61h228q34 0 56.5 -12.5t28.5 -31.5t-8 -44t-49 -49l-252 -172q-39 -29 -96 -29h-176q-49 0 -56.5 31t29.5 74zM559 1198l2 -330q0 -29 10 -40t35 -11h62q118 0 193 65t75 165q0 96 -61 158.5t-156 62.5h-92q-40 0 -54 -15.5t-14 -54.5z" />
    <glyph glyph-name="racute" unicode="&#x155;" horiz-adv-x="868" 
d="M117 0q-48 0 -71 24.5t-23 63.5q0 48 57 84q35 23 47 54.5t12 97.5v481q0 66 -14.5 98t-54.5 55q-52 36 -52 84q0 38 24.5 63t72.5 25l28 -2h258q68 0 88 -65l11 -37q5 -17 18.5 -18t24.5 16q45 67 90 95t102 28q131 0 131 -162q0 -65 -17.5 -132.5t-50.5 -115t-71 -47.5
q-35 0 -65 35q-20 23 -37.5 32t-42.5 9q-37 0 -58.5 -25.5t-21.5 -74.5v-338q-2 -67 12 -99t55 -55q66 -36 66 -84q0 -38 -27.5 -64t-81.5 -26h-409zM256 1329l180 236q47 61 131 61h189q72 0 86 -39.5t-45 -93.5l-256 -223q-26 -23 -52 -30t-69 -7h-127q-44 0 -54.5 29
t17.5 67z" />
    <glyph glyph-name="uni0156" unicode="&#x156;" horiz-adv-x="1531" 
d="M133 0q-50 0 -75 26t-25 66q0 54 57 84q45 26 60.5 59.5t15.5 100.5v829q0 67 -16.5 100.5t-63.5 59.5q-56 34 -53 86q0 40 24 65t74 25h760q209 0 341 -110.5t132 -303.5q0 -125 -71 -210.5t-201 -153.5q-14 -8 -15 -20t13 -21q56 -32 97 -79t79 -122l53 -100
q43 -82 74.5 -122t70.5 -64q32 -21 47 -44.5t15 -60.5q0 -90 -105 -90h-245q-88 0 -133.5 31t-81.5 114q-67 165 -95 220q-56 113 -114 163t-142 47q-26 -2 -38.5 -13t-12.5 -38v-188q0 -67 18.5 -101t71.5 -61q64 -30 64 -86q0 -40 -29.5 -64.5t-87.5 -23.5h-463zM559 1198
l2 -330q0 -29 10 -40t35 -11h62q118 0 193 65t75 165q0 96 -61 158.5t-156 62.5h-92q-40 0 -54 -15.5t-14 -54.5zM637 -250q0 92 61.5 153.5t151.5 61.5q103 0 162 -68.5t59 -187.5q0 -130 -76.5 -243t-189.5 -171q-65 -39 -115 27q-46 61 4 96q48 37 71 63.5t23 53.5
q0 25 -30 35q-121 47 -121 180z" />
    <glyph glyph-name="uni0157" unicode="&#x157;" horiz-adv-x="868" 
d="M117 0q-48 0 -71 24.5t-23 63.5q0 48 57 84q35 23 47 54.5t12 97.5v481q0 66 -14.5 98t-54.5 55q-52 36 -52 84q0 38 24.5 63t72.5 25l28 -2h258q68 0 88 -65l11 -37q5 -17 18.5 -18t24.5 16q45 67 90 95t102 28q131 0 131 -162q0 -65 -17.5 -132.5t-50.5 -115t-71 -47.5
q-35 0 -65 35q-20 23 -37.5 32t-42.5 9q-37 0 -58.5 -25.5t-21.5 -74.5v-338q-2 -67 12 -99t55 -55q66 -36 66 -84q0 -38 -27.5 -64t-81.5 -26h-409zM180 -291q0 92 61.5 153.5t151.5 61.5q103 0 162 -68.5t59 -187.5q0 -130 -76.5 -242.5t-189.5 -170.5q-65 -39 -115 26
q-46 61 5 96q48 37 71 63.5t23 53.5q0 24 -31 35q-121 47 -121 180z" />
    <glyph glyph-name="Rcaron" unicode="&#x158;" horiz-adv-x="1531" 
d="M133 0q-50 0 -75 26t-25 66q0 54 57 84q45 26 60.5 59.5t15.5 100.5v829q0 67 -16.5 100.5t-63.5 59.5q-56 34 -53 86q0 40 24 65t74 25h760q209 0 341 -110.5t132 -303.5q0 -125 -71 -210.5t-201 -153.5q-14 -8 -15 -20t13 -21q56 -32 97 -79t79 -122l53 -100
q43 -82 74.5 -122t70.5 -64q32 -21 47 -44.5t15 -60.5q0 -90 -105 -90h-245q-88 0 -133.5 31t-81.5 114q-67 165 -95 220q-56 113 -114 163t-142 47q-26 -2 -38.5 -13t-12.5 -38v-188q0 -67 18.5 -101t71.5 -61q64 -30 64 -86q0 -40 -29.5 -64.5t-87.5 -23.5h-463zM336 1819
q-29 31 -15 55t54 24h147q46 0 86 -32l127 -90l129 88q47 34 103 34h116q41 0 54 -23.5t-15 -55.5l-196 -207q-25 -28 -59.5 -36.5t-135.5 -8.5q-95 0 -128 9t-62 40zM559 1198l2 -330q0 -29 10 -40t35 -11h62q118 0 193 65t75 165q0 96 -61 158.5t-156 62.5h-92
q-40 0 -54 -15.5t-14 -54.5z" />
    <glyph glyph-name="rcaron" unicode="&#x159;" horiz-adv-x="868" 
d="M117 0q-48 0 -71 24.5t-23 63.5q0 48 57 84q35 23 47 54.5t12 97.5v481q0 66 -14.5 98t-54.5 55q-52 36 -52 84q0 38 24.5 63t72.5 25l28 -2h258q68 0 88 -65l11 -37q5 -17 18.5 -18t24.5 16q45 67 90 95t102 28q131 0 131 -162q0 -65 -17.5 -132.5t-50.5 -115t-71 -47.5
q-35 0 -65 35q-20 23 -37.5 32t-42.5 9q-37 0 -58.5 -25.5t-21.5 -74.5v-338q-2 -67 12 -99t55 -55q66 -36 66 -84q0 -38 -27.5 -64t-81.5 -26h-409zM45 1522q-29 34 -15 61t54 27h147q43 0 86 -37l127 -100l129 98q50 39 103 39h117q41 0 53.5 -26.5t-15.5 -61.5l-196 -232
q-25 -31 -59.5 -40t-135.5 -9q-95 0 -128 10t-62 43z" />
    <glyph glyph-name="Sacute" unicode="&#x15a;" horiz-adv-x="1325" 
d="M670 -29q-152 0 -312.5 43.5t-261.5 126.5q-34 29 -50.5 55t-19 48.5t12.5 50.5t34.5 52t55.5 61q32 34 49 50t42.5 32t45.5 16q23 0 44.5 -19.5t51.5 -62.5q168 -242 332 -242q90 0 146.5 50t56.5 128q0 85 -74 137t-245 87q-273 53 -397 161.5t-124 296.5
q0 109 49 200.5t133 152.5t197 95t240 34q138 0 276.5 -39t239.5 -113q58 -43 72 -83t-7.5 -78t-80.5 -91q-93 -84 -136 -84q-49 0 -98 70q-74 108 -143 158.5t-142 50.5q-82 0 -136 -47.5t-54 -118.5q0 -79 73.5 -129.5t235.5 -81.5q282 -53 406.5 -162t124.5 -305
q0 -115 -50.5 -210t-137 -158t-202.5 -97.5t-247 -34.5zM518 1702l160 172q53 61 135 61h227q46 0 70 -20t14.5 -52.5t-55.5 -64.5l-252 -172q-39 -29 -96 -29h-176q-49 0 -56.5 31t29.5 74z" />
    <glyph glyph-name="sacute" unicode="&#x15b;" horiz-adv-x="1007" 
d="M469 -31q-126 1 -232 28.5t-167 70.5q-59 41 -64.5 95.5t39.5 143.5q29 78 78 78q10 0 20.5 -3.5t18 -7.5t21 -14.5t21.5 -17.5t26.5 -24t29.5 -27q126 -123 229 -123q55 0 93.5 31t38.5 71q0 50 -55 88t-183 80q-192 60 -277.5 141.5t-85.5 208.5q0 166 143 271.5
t369 105.5q105 0 204.5 -28t154.5 -68q67 -44 74.5 -94.5t-37.5 -145.5q-23 -55 -66 -55q-20 0 -47.5 20t-85.5 72q-117 105 -213 105q-51 0 -86 -29t-35 -72q0 -47 53.5 -76.5t217.5 -82.5q175 -56 256.5 -141t81.5 -214q0 -174 -149.5 -280.5t-385.5 -106.5zM336 1339
l180 236q47 61 131 61h189q72 0 86 -39.5t-45 -93.5l-256 -223q-26 -23 -52 -30t-69 -7h-127q-44 0 -54.5 29t17.5 67z" />
    <glyph glyph-name="Scedilla" unicode="&#x15e;" horiz-adv-x="1325" 
d="M600 -510q-97 0 -160 49q-26 18 -35 45.5t7 57.5q13 23 38.5 29t49.5 -5q32 -18 69 -18q66 0 66 71q0 32 -17 49t-57 23q-37 3 -48 31.5t11 66.5l51 86q-136 11 -264 53.5t-215 112.5q-34 29 -50.5 55t-19 48.5t12.5 50.5t34.5 52t55.5 61q32 34 49 50t42.5 32t45.5 16
q23 0 44.5 -19.5t51.5 -62.5q168 -242 332 -242q90 0 146.5 50t56.5 128q0 85 -74 137t-245 87q-273 53 -397 161.5t-124 296.5q0 109 49 200.5t133 152.5t197 95t240 34q138 0 276.5 -39t239.5 -113q58 -43 72 -83t-7.5 -78t-80.5 -91q-93 -84 -136 -84q-49 0 -98 70
q-74 108 -143 158.5t-142 50.5q-82 0 -136 -47.5t-54 -118.5q0 -79 73.5 -129.5t235.5 -81.5q282 -53 406.5 -162t124.5 -305q0 -140 -73.5 -249t-196 -170.5t-277.5 -76.5l-43 -67q93 -22 147 -73t54 -118q0 -95 -91.5 -161t-226.5 -66z" />
    <glyph glyph-name="scedilla" unicode="&#x15f;" horiz-adv-x="1007" 
d="M428 -506q-97 0 -160 49q-26 18 -35 45.5t7 57.5q13 23 38.5 29t49.5 -5q32 -18 69 -18q66 0 66 72q0 32 -17 48.5t-57 22.5q-37 3 -48 32t11 67l45 77q-213 18 -327 97q-59 41 -64.5 95.5t39.5 143.5q29 78 78 78q10 0 20.5 -3.5t18 -7.5t21 -14.5t21.5 -17.5t26.5 -24
t29.5 -27q126 -123 229 -123q55 0 93.5 31t38.5 71q0 50 -55 88t-183 80q-192 60 -277.5 141.5t-85.5 208.5q0 166 143 271.5t369 105.5q105 0 204.5 -28t154.5 -68q67 -44 74.5 -94.5t-37.5 -145.5q-23 -55 -66 -55q-20 0 -47.5 20t-85.5 72q-117 105 -213 105
q-51 0 -86 -29t-35 -72q0 -47 53.5 -76.5t217.5 -82.5q175 -56 256.5 -141t81.5 -214q0 -151 -114 -252.5t-304 -126.5l-41 -65q93 -22 146.5 -73t53.5 -118q0 -95 -91 -161t-226 -66z" />
    <glyph glyph-name="Scaron" unicode="&#x160;" horiz-adv-x="1325" 
d="M670 -29q-152 0 -312.5 43.5t-261.5 126.5q-34 29 -50.5 55t-19 48.5t12.5 50.5t34.5 52t55.5 61q32 34 49 50t42.5 32t45.5 16q23 0 44.5 -19.5t51.5 -62.5q168 -242 332 -242q90 0 146.5 50t56.5 128q0 85 -74 137t-245 87q-273 53 -397 161.5t-124 296.5
q0 109 49 200.5t133 152.5t197 95t240 34q138 0 276.5 -39t239.5 -113q58 -43 72 -83t-7.5 -78t-80.5 -91q-93 -84 -136 -84q-49 0 -98 70q-74 108 -143 158.5t-142 50.5q-82 0 -136 -47.5t-54 -118.5q0 -79 73.5 -129.5t235.5 -81.5q282 -53 406.5 -162t124.5 -305
q0 -115 -50.5 -210t-137 -158t-202.5 -97.5t-247 -34.5zM319 1835q-29 31 -15 55.5t54 24.5h148q44 0 86 -33l127 -90l129 88q48 35 102 35h117q41 0 54 -24t-15 -56l-197 -207q-25 -28 -59 -36.5t-135 -8.5q-95 0 -128.5 9t-62.5 38z" />
    <glyph glyph-name="scaron" unicode="&#x161;" horiz-adv-x="1007" 
d="M469 -31q-126 1 -232 28.5t-167 70.5q-59 41 -64.5 95.5t39.5 143.5q29 78 78 78q10 0 20.5 -3.5t18 -7.5t21 -14.5t21.5 -17.5t26.5 -24t29.5 -27q126 -123 229 -123q55 0 93.5 31t38.5 71q0 50 -55 88t-183 80q-192 60 -277.5 141.5t-85.5 208.5q0 166 143 271.5
t369 105.5q105 0 204.5 -28t154.5 -68q67 -44 74.5 -94.5t-37.5 -145.5q-23 -55 -66 -55q-20 0 -47.5 20t-85.5 72q-117 105 -213 105q-51 0 -86 -29t-35 -72q0 -47 53.5 -76.5t217.5 -82.5q175 -56 256.5 -141t81.5 -214q0 -174 -149.5 -280.5t-385.5 -106.5zM127 1534
q-29 34 -15 61t54 27h147q43 0 86 -37l127 -100l129 98q50 39 103 39h116q41 0 54 -26.5t-15 -61.5l-196 -231q-25 -31 -59.5 -40.5t-135.5 -9.5q-95 0 -128 10t-62 44z" />
    <glyph glyph-name="uni0162" unicode="&#x162;" horiz-adv-x="1388" 
d="M459 0q-62 0 -93.5 26t-31.5 66q0 54 72 84q57 26 76.5 59.5t17.5 100.5v809q0 56 -16 82t-52 26q-71 0 -190 -131q-75 -86 -101 -107q-37 -30 -71 -30q-72 0 -72 105q0 67 11.5 150.5t29.5 137.5q19 66 51 94.5t90 28.5h1024q60 0 92 -24t50 -86q20 -63 33.5 -158.5
t13.5 -165.5q0 -38 -19.5 -60t-48.5 -22q-26 0 -57 20.5t-51.5 41t-65.5 69.5q-67 72 -113 104.5t-84 32.5q-69 0 -69 -108l2 -809q-2 -67 18.5 -101t79.5 -61q68 -30 68 -86q0 -39 -32 -64t-95 -24h-117l-59 -92q93 -22 146.5 -73t53.5 -118q0 -95 -91 -161t-226 -66
q-97 0 -160 49q-26 18 -35.5 45.5t6.5 57.5q13 23 38.5 29t49.5 -5q32 -18 70 -18q66 0 66 71q0 32 -17 49t-57 23q-37 3 -48 31.5t11 66.5l66 111h-164z" />
    <glyph glyph-name="uni0163" unicode="&#x163;" horiz-adv-x="686" 
d="M348 -508q-97 0 -160 49q-26 18 -35 45.5t7 57.5q13 23 38.5 29t49.5 -5q32 -18 69 -18q66 0 66 71q0 32 -17 49t-57 23q-37 3 -48 31.5t11 66.5l64 109q-126 4 -182 63t-56 185q0 91 35 338q35 236 35 286q0 42 -16 56.5t-78 17.5q-42 1 -58 22.5t-16 69.5q0 32 13.5 53
t47.5 39q101 53 146 103q46 46 110 149q39 54 93 54q76 0 73 -70l-2 -186q-2 -32 10.5 -42t55.5 -10h74q42 0 58 -21.5t15 -76.5q1 -58 -18 -82t-64 -24h-65q-44 0 -55 -13t-11 -67q-2 -182 -2 -543q0 -48 18 -68t83 -40q63 -19 85.5 -38t22.5 -67q0 -43 -22.5 -65.5
t-63.5 -22.5h-80l-57 -90q93 -22 147 -73t54 -118q0 -95 -91.5 -161t-226.5 -66z" />
    <glyph glyph-name="Tcaron" unicode="&#x164;" horiz-adv-x="1388" 
d="M459 0q-62 0 -93.5 26t-31.5 66q0 54 72 84q57 26 76.5 59.5t17.5 100.5v809q0 56 -16 82t-52 26q-71 0 -190 -131q-75 -86 -101 -107q-37 -30 -71 -30q-72 0 -72 105q0 67 11.5 150.5t29.5 137.5q19 66 51 94.5t90 28.5h1024q60 0 92 -24t50 -86q20 -63 33.5 -158.5
t13.5 -165.5q0 -38 -19.5 -60t-48.5 -22q-26 0 -57 20.5t-51.5 41t-65.5 69.5q-67 72 -113 104.5t-84 32.5q-69 0 -69 -108l2 -809q-2 -67 18.5 -101t79.5 -61q68 -30 68 -86q0 -39 -32 -64t-95 -24h-467zM311 1819q-29 31 -15 55t54 24h148q46 0 86 -32l127 -90l129 88
q47 34 102 34h117q41 0 54 -23.5t-15 -55.5l-197 -207q-25 -28 -59 -36.5t-135 -8.5q-95 0 -128.5 9.5t-62.5 39.5z" />
    <glyph glyph-name="tcaron" unicode="&#x165;" horiz-adv-x="686" 
d="M354 0q-136 1 -196 59t-60 189q0 91 35 338q35 236 35 286q0 42 -16 56.5t-78 17.5q-42 1 -58 22.5t-16 69.5q0 32 13.5 53t47.5 39q101 53 146 103q46 46 110 149q39 54 93 54q76 0 73 -70l-2 -186q-2 -32 10.5 -42t55.5 -10h74q42 0 58 -21.5t15 -76.5q1 -58 -18 -82
t-64 -24h-65q-44 0 -55 -13t-11 -67q-2 -182 -2 -543q0 -48 18 -68t83 -40q63 -19 85.5 -38t22.5 -67q0 -43 -22.5 -65.5t-63.5 -22.5h-248zM535 1284l137 334q33 80 116 80h179q69 0 82.5 -37.5t-25.5 -97.5l-209 -342q-12 -19 -30 -27.5t-33.5 -10t-49.5 -1.5h-127
q-84 0 -40 102z" />
    <glyph glyph-name="Tbar" unicode="&#x166;" horiz-adv-x="1388" 
d="M459 0q-62 0 -93.5 26t-31.5 66q0 54 72 84q57 26 76.5 59.5t17.5 100.5v293h-146q-68 0 -88 21t-20 102q0 77 20.5 99.5t87.5 22.5h146v271q0 56 -16 82t-52 26q-71 0 -190 -131q-75 -86 -101 -107q-37 -30 -71 -30q-72 0 -72 105q0 67 11.5 150.5t29.5 137.5
q19 66 51 94.5t90 28.5h1024q60 0 92 -24t50 -86q20 -63 33.5 -158.5t13.5 -165.5q0 -38 -19.5 -60t-48.5 -22q-26 0 -57 20.5t-51.5 41t-65.5 69.5q-67 72 -113 104.5t-84 32.5q-69 0 -69 -108v-271h155q64 0 84.5 -22.5t20.5 -99.5q0 -81 -20 -102t-85 -21h-153v-293
q-2 -67 18.5 -101t79.5 -61q68 -30 68 -86q0 -39 -32 -64t-95 -24h-467z" />
    <glyph glyph-name="tbar" unicode="&#x167;" horiz-adv-x="686" 
d="M354 0q-136 1 -196 59t-60 189q0 81 21 235h-37q-45 0 -61.5 19t-16.5 69q0 46 16.5 63t61.5 17h61q25 182 25 221q0 42 -16 56.5t-78 17.5q-42 1 -58 22.5t-16 69.5q0 32 13.5 53t47.5 39q101 53 146 103q46 46 110 149q39 54 93 54q76 0 73 -70l-2 -186
q-2 -32 10.5 -42t55.5 -10h74q42 0 58 -21.5t15 -76.5q1 -58 -18 -82t-64 -24h-65q-44 0 -55 -13t-11 -67q0 -32 -1 -97t-1 -96h137q39 0 51.5 -16.5t12.5 -63.5q0 -51 -12.5 -69.5t-51.5 -18.5h-137v-182q0 -48 18 -68t83 -40q63 -19 85.5 -38t22.5 -67q0 -43 -22.5 -65.5
t-63.5 -22.5h-248z" />
    <glyph glyph-name="Utilde" unicode="&#x168;" horiz-adv-x="1519" 
d="M766 -29q-132 0 -240.5 29.5t-192 88t-129.5 154t-46 220.5v702q2 66 -14.5 100t-63.5 60q-55 32 -55 86q2 40 26.5 65t73.5 25h485q62 0 92.5 -25.5t30.5 -64.5q0 -54 -69 -84q-60 -24 -79.5 -57t-17.5 -99v-688q0 -113 72 -173t186 -60q116 0 186.5 69t69.5 181v659
q2 68 -19 102t-81 60q-39 20 -54.5 40.5t-15.5 49.5q2 40 33.5 65.5t93.5 24.5h369q48 0 72 -26t24 -66q0 -54 -55 -86q-46 -24 -61 -57t-13 -101l2 -612q0 -125 -34 -227.5t-104.5 -183.5t-190.5 -126t-281 -45zM414 1704q43 124 95 175.5t134 51.5t240 -69
q152 -64 186 -64q24 0 42 14t46 50q21 33 46 40t57 -8q59 -23 14 -125q-41 -124 -88 -174.5t-127 -50.5q-34 0 -80.5 13.5t-73 24t-96.5 40.5q-133 57 -180 57q-25 0 -42 -13t-42 -50q-20 -31 -42.5 -40.5t-56.5 -0.5q-41 12 -47.5 42t15.5 87z" />
    <glyph glyph-name="utilde" unicode="&#x169;" horiz-adv-x="1312" 
d="M496 -35q-172 2 -270.5 88t-98.5 266v486q0 66 -14.5 98t-55.5 55q-51 35 -51 84q0 38 24 63t72 25l29 -2h254q58 0 84 -26.5t25 -85.5l-5 -584q-2 -78 37.5 -121t114.5 -43q79 0 127.5 45.5t48.5 116.5v375q0 66 -16 98.5t-62 57.5q-58 34 -55 81q0 38 26.5 63t80.5 25
l30 -2h252q62 0 85.5 -27t23.5 -95l-2 -682q0 -68 11.5 -98.5t47.5 -53.5q57 -36 57 -84q0 -38 -24 -63t-72 -25h-278q-43 0 -63.5 19.5t-31.5 66.5q-6 26 -26 30t-37 -20q-43 -63 -114.5 -98t-153.5 -33zM213 1395q43 138 95 196t134 58q77 0 240 -78q150 -72 186 -72
q24 0 42 15.5t46 56.5q21 36 46 44t57 -7q60 -26 14 -140q-40 -137 -87.5 -193t-127.5 -56q-32 0 -73 12t-71.5 25.5t-86.5 39.5q-13 6 -19 9q-134 63 -180 63q-24 0 -41.5 -15t-42.5 -57q-21 -34 -43 -44.5t-55 -0.5q-41 13 -48 47t15 97z" />
    <glyph glyph-name="Umacron" unicode="&#x16a;" horiz-adv-x="1519" 
d="M766 -29q-132 0 -240.5 29.5t-192 88t-129.5 154t-46 220.5v702q2 66 -14.5 100t-63.5 60q-55 32 -55 86q2 40 26.5 65t73.5 25h485q62 0 92.5 -25.5t30.5 -64.5q0 -54 -69 -84q-60 -24 -79.5 -57t-17.5 -99v-688q0 -113 72 -173t186 -60q116 0 186.5 69t69.5 181v659
q2 68 -19 102t-81 60q-39 20 -54.5 40.5t-15.5 49.5q2 40 33.5 65.5t93.5 24.5h369q48 0 72 -26t24 -66q0 -54 -55 -86q-46 -24 -61 -57t-13 -101l2 -612q0 -125 -34 -227.5t-104.5 -183.5t-190.5 -126t-281 -45zM379 1690v67q0 58 22 78t84 20h656q61 0 82.5 -20t21.5 -78
v-67q0 -58 -22 -78.5t-82 -20.5h-656q-62 0 -84 20.5t-22 78.5z" />
    <glyph glyph-name="umacron" unicode="&#x16b;" horiz-adv-x="1312" 
d="M496 -35q-172 2 -270.5 88t-98.5 266v486q0 66 -14.5 98t-55.5 55q-51 35 -51 84q0 38 24 63t72 25l29 -2h254q58 0 84 -26.5t25 -85.5l-5 -584q-2 -78 37.5 -121t114.5 -43q79 0 127.5 45.5t48.5 116.5v375q0 66 -16 98.5t-62 57.5q-58 34 -55 81q0 38 26.5 63t80.5 25
l30 -2h252q62 0 85.5 -27t23.5 -95l-2 -682q0 -68 11.5 -98.5t47.5 -53.5q57 -36 57 -84q0 -38 -24 -63t-72 -25h-278q-43 0 -63.5 19.5t-31.5 66.5q-6 26 -26 30t-37 -20q-43 -63 -114.5 -98t-153.5 -33zM223 1364v68q0 58 24.5 78t94.5 20h576q69 0 93.5 -20t24.5 -78v-68
q0 -58 -24.5 -78t-93.5 -20h-576q-70 0 -94.5 20t-24.5 78z" />
    <glyph glyph-name="Uring" unicode="&#x16e;" horiz-adv-x="1519" 
d="M766 -29q-132 0 -240.5 29.5t-192 88t-129.5 154t-46 220.5v702q2 66 -14.5 100t-63.5 60q-55 32 -55 86q2 40 26.5 65t73.5 25h485q62 0 92.5 -25.5t30.5 -64.5q0 -54 -69 -84q-60 -24 -79.5 -57t-17.5 -99v-688q0 -113 72 -173t186 -60q116 0 186.5 69t69.5 181v659
q2 68 -19 102t-81 60q-39 20 -54.5 40.5t-15.5 49.5q2 40 33.5 65.5t93.5 24.5h369q48 0 72 -26t24 -66q0 -54 -55 -86q-46 -24 -61 -57t-13 -101l2 -612q0 -125 -34 -227.5t-104.5 -183.5t-190.5 -126t-281 -45zM561 1790q0 97 73 166t177 69t177 -69t73 -166
q0 -100 -73 -170t-177 -70t-177 70t-73 170zM696 1790q0 -54 33 -88.5t84 -34.5q48 0 80.5 35t32.5 88q0 51 -32.5 84t-80.5 33q-51 0 -84 -33t-33 -84z" />
    <glyph glyph-name="uring" unicode="&#x16f;" horiz-adv-x="1312" 
d="M496 -35q-172 2 -270.5 88t-98.5 266v486q0 66 -14.5 98t-55.5 55q-51 35 -51 84q0 38 24 63t72 25l29 -2h254q58 0 84 -26.5t25 -85.5l-5 -584q-2 -78 37.5 -121t114.5 -43q79 0 127.5 45.5t48.5 116.5v375q0 66 -16 98.5t-62 57.5q-58 34 -55 81q0 38 26.5 63t80.5 25
l30 -2h252q62 0 85.5 -27t23.5 -95l-2 -682q0 -68 11.5 -98.5t47.5 -53.5q57 -36 57 -84q0 -38 -24 -63t-72 -25h-278q-43 0 -63.5 19.5t-31.5 66.5q-6 26 -26 30t-37 -20q-43 -63 -114.5 -98t-153.5 -33zM379 1470q0 98 74 169t178 71q106 0 179 -70.5t73 -171.5
q0 -100 -73.5 -171.5t-176.5 -71.5q-106 0 -180 72t-74 173zM524 1468q0 -46 32 -80t77 -34q43 0 74.5 34t31.5 80t-32 79.5t-76 33.5t-75.5 -33.5t-31.5 -79.5z" />
    <glyph glyph-name="Uhungarumlaut" unicode="&#x170;" horiz-adv-x="1519" 
d="M766 -29q-132 0 -240.5 29.5t-192 88t-129.5 154t-46 220.5v702q2 66 -14.5 100t-63.5 60q-55 32 -55 86q2 40 26.5 65t73.5 25h485q62 0 92.5 -25.5t30.5 -64.5q0 -54 -69 -84q-60 -24 -79.5 -57t-17.5 -99v-688q0 -113 72 -173t186 -60q116 0 186.5 69t69.5 181v659
q2 68 -19 102t-81 60q-39 20 -54.5 40.5t-15.5 49.5q2 40 33.5 65.5t93.5 24.5h369q48 0 72 -26t24 -66q0 -54 -55 -86q-46 -24 -61 -57t-13 -101l2 -612q0 -125 -34 -227.5t-104.5 -183.5t-190.5 -126t-281 -45zM350 1671l158 207q40 53 131 53h180q72 0 83.5 -34.5
t-48.5 -86.5l-223 -188q-40 -35 -119 -35h-127q-43 0 -52.5 25t17.5 59zM860 1671l180 207q48 53 131 53h181q72 0 84.5 -35t-50.5 -86l-245 -188q-45 -35 -119 -35h-127q-44 0 -54.5 26t19.5 58z" />
    <glyph glyph-name="uhungarumlaut" unicode="&#x171;" horiz-adv-x="1312" 
d="M496 -35q-172 2 -270.5 88t-98.5 266v486q0 66 -14.5 98t-55.5 55q-51 35 -51 84q0 38 24 63t72 25l29 -2h254q58 0 84 -26.5t25 -85.5l-5 -584q-2 -78 37.5 -121t114.5 -43q79 0 127.5 45.5t48.5 116.5v375q0 66 -16 98.5t-62 57.5q-58 34 -55 81q0 38 26.5 63t80.5 25
l30 -2h252q62 0 85.5 -27t23.5 -95l-2 -682q0 -68 11.5 -98.5t47.5 -53.5q57 -36 57 -84q0 -38 -24 -63t-72 -25h-278q-43 0 -63.5 19.5t-31.5 66.5q-6 26 -26 30t-37 -20q-43 -63 -114.5 -98t-153.5 -33zM154 1343l157 236q40 61 131 61h181q72 0 83 -38.5t-49 -98.5
l-223 -217q-39 -39 -119 -39h-127q-43 0 -52 28t18 68zM664 1343l180 236q47 61 131 61h180q72 0 85 -40t-50 -97l-246 -217q-44 -39 -119 -39h-127q-44 0 -54 29t20 67z" />
    <glyph glyph-name="Uogonek" unicode="&#x172;" horiz-adv-x="1519" 
d="M903 -369q-106 0 -168.5 53.5t-62.5 133.5q0 89 90 153q-131 1 -239 30.5t-190.5 88t-128.5 154t-46 219.5v702q2 66 -14.5 100t-63.5 60q-55 32 -55 86q2 40 26.5 65t73.5 25h485q62 0 92.5 -25.5t30.5 -64.5q0 -54 -69 -84q-60 -24 -79.5 -57t-17.5 -99v-688
q0 -113 72 -173t186 -60q116 0 186.5 69t69.5 181v659q2 68 -19 102t-81 60q-39 20 -54.5 40.5t-15.5 49.5q2 40 33.5 65.5t93.5 24.5h369q48 0 72 -26t24 -66q0 -54 -55 -86q-46 -24 -61 -57t-13 -101l2 -612q0 -203 -90.5 -348.5t-279.5 -202.5q-4 -7 -19 -14
q-43 -32 -43 -88q0 -32 19 -51t51 -19q22 0 67 25q39 13 56 -43q15 -42 -31 -88q-38 -42 -92 -67.5t-111 -25.5z" />
    <glyph glyph-name="uogonek" unicode="&#x173;" horiz-adv-x="1312" 
d="M496 -35q-172 2 -270.5 88t-98.5 266v486q0 66 -14.5 98t-55.5 55q-51 35 -51 84q0 38 24 63t72 25l29 -2h254q58 0 84 -26.5t25 -85.5l-5 -584q-2 -78 37.5 -121t114.5 -43q79 0 127.5 45.5t48.5 116.5v375q0 66 -16 98.5t-62 57.5q-58 34 -55 81q0 38 26.5 63t80.5 25
l30 -2h252q62 0 85.5 -27t23.5 -95l-2 -682q0 -68 11.5 -98.5t47.5 -53.5q57 -36 57 -84q0 -62 -53 -82q-12 -12 -20 -16q-43 -32 -43 -88q0 -32 18.5 -51t50.5 -19q23 0 68 25q38 13 55 -43q15 -42 -31 -88q-38 -42 -91.5 -67.5t-110.5 -25.5q-106 0 -169 53.5t-63 133.5
q0 56 38 104.5t102 75.5h-125q-43 0 -63.5 19.5t-31.5 66.5q-6 26 -26 30t-37 -20q-43 -63 -114.5 -98t-153.5 -33z" />
    <glyph glyph-name="Wcircumflex" unicode="&#x174;" horiz-adv-x="2209" 
d="M696 -14q-91 2 -127 24.5t-67 100.5q-143 352 -234 634q-22 68 -69 235.5t-60 209.5q-15 52 -31.5 79.5t-44.5 49.5q-30 22 -43.5 42.5t-13.5 51.5q0 39 27.5 63.5t75.5 24.5h483q44 0 69 -23t25 -63q0 -48 -59 -92q-64 -45 -64 -94q0 -96 82 -361q51 -166 94 -280
q12 -30 30.5 -28.5t27.5 28.5q54 142 98 307q61 215 61 334q0 32 -11.5 52t-43.5 40q-55 30 -55 92q0 36 23 62t67 26h481q49 0 75 -24.5t26 -63.5q0 -50 -66 -98q-51 -40 -51 -90q0 -89 67 -320q49 -170 109 -323q7 -16 16 -22t18 0t15 22q29 70 88 274q70 254 70 361
q0 62 -55 94q-66 40 -66 104q0 34 23.5 60t62.5 26h350q48 0 74.5 -23.5t26.5 -62.5q0 -55 -60 -98q-30 -22 -46 -48t-28 -71q-71 -294 -139 -518q-107 -352 -194 -559q-39 -89 -70 -110.5t-127 -22.5q-72 -1 -108 9t-56 33t-45 79q-87 201 -192 561q-7 29 -27 29t-29 -31
q-100 -358 -194 -570q-32 -76 -63.5 -94t-125.5 -18zM727 1649l209 209q30 30 65 39.5t132 9.5q106 0 142.5 -8.5t65.5 -36.5l228 -211q31 -32 15 -57t-60 -25h-144q-57 0 -108 37l-135 88l-136 -92q-51 -33 -90 -33h-139q-43 0 -59 24.5t14 55.5z" />
    <glyph glyph-name="wcircumflex" unicode="&#x175;" horiz-adv-x="1896" 
d="M584 -6q-106 0 -141 20.5t-74 110.5q-126 286 -265 721q-18 65 -61 102q-43 46 -43 92q0 44 27.5 66t72.5 22h406q97 0 100 -79q0 -58 -63 -103q-41 -24 -48.5 -54.5t7.5 -78.5q37 -150 127 -358q8 -20 18.5 -27.5t21 -1t17.5 24.5q95 244 119 358q11 49 2.5 81t-43.5 64
q-51 45 -51 95q0 79 98 79h432q40 0 61 -23t21 -58q0 -55 -53 -97q-38 -27 -47.5 -56t2.5 -73q57 -206 137 -377q11 -24 25.5 -24t25.5 24q91 208 125 375q11 50 -1 80t-56 57q-47 35 -47 82q-2 41 24 65.5t72 24.5h272q46 0 68 -24.5t22 -63.5q0 -48 -43 -94
q-38 -43 -69 -145q-130 -433 -248 -707q-21 -48 -38 -66t-50 -25t-109 -7q-105 -2 -141 12t-61 68q-89 183 -160 383q-9 23 -24.5 23t-24.5 -23q-93 -260 -140 -373q-26 -61 -61.5 -76.5t-140.5 -15.5zM586 1317l205 235q31 34 64 44t128 10q105 0 141 -9.5t64 -40.5
l223 -237q31 -37 15 -64.5t-58 -27.5h-143q-53 0 -105 41l-133 98l-133 -102q-47 -37 -88 -37h-137q-42 0 -57.5 27.5t14.5 62.5z" />
    <glyph glyph-name="Ycircumflex" unicode="&#x176;" horiz-adv-x="1415" 
d="M485 0q-62 0 -93.5 26t-31.5 66q0 54 70 84q58 26 77 59t17 101v131q0 66 -32 121q-174 281 -342 612q-21 42 -41.5 68.5t-53.5 50.5q-28 21 -41.5 42t-13.5 52q0 40 26 64t70 24h471q109 0 109 -92q0 -32 -13.5 -51t-41.5 -35q-46 -22 -46 -59q0 -26 21 -68
q93 -202 166 -305q18 -29 33 -30t36 30q87 136 162 309q19 48 19 66q0 33 -43 55q-34 19 -50 37t-16 47q0 96 107 96h309q46 0 71 -25.5t25 -66.5q0 -54 -51 -94q-46 -33 -84 -111q-104 -215 -319 -596q-25 -44 -33 -72t-8 -69v-131q-2 -66 19 -100t79 -62q70 -33 67 -86
q0 -39 -32 -64t-95 -24h-473zM291 1647l209 211q30 30 64 38.5t132 8.5q107 0 143.5 -8t65.5 -35l228 -213q31 -31 14.5 -55.5t-60.5 -24.5h-143q-55 0 -108 37l-136 88l-135 -92q-51 -33 -90 -33h-139q-43 0 -59.5 24.5t14.5 53.5z" />
    <glyph glyph-name="ycircumflex" unicode="&#x177;" horiz-adv-x="1232" 
d="M252 -373q-36 0 -61 23.5t-25 52.5q0 38 41 74l221 186q27 23 30.5 47t-14.5 56q-183 388 -333 792q-22 57 -66 98q-45 33 -45 84q0 39 27 63.5t75 24.5h398q58 0 84 -20.5t26 -65.5q0 -27 -14 -44.5t-49 -36.5q-20 -13 -31.5 -26t-17 -23t-3.5 -28t4.5 -28t10.5 -36
q3 -9 4 -13q63 -207 156 -401q31 -63 55 0q95 228 141 401q16 46 9.5 78t-44.5 63q-55 51 -55 96q0 37 22.5 60.5t61.5 23.5h281q43 0 67.5 -23.5t24.5 -57.5q0 -48 -43 -86q-45 -42 -78 -146q-104 -331 -254 -698q-44 -103 -71 -163t-69.5 -137t-84.5 -134
q-39 -56 -109 -56h-272zM242 1317l204 235q30 33 65 43.5t130 10.5q103 0 139.5 -9.5t65.5 -40.5l223 -237q30 -37 14 -64.5t-59 -27.5h-141q-55 0 -107 41l-133 98l-131 -102q-50 -37 -88 -37h-137q-43 0 -58.5 27.5t13.5 62.5z" />
    <glyph glyph-name="Ydieresis" unicode="&#x178;" horiz-adv-x="1415" 
d="M485 0q-62 0 -93.5 26t-31.5 66q0 54 70 84q58 26 77 59t17 101v131q0 66 -32 121q-174 281 -342 612q-21 42 -41.5 68.5t-53.5 50.5q-28 21 -41.5 42t-13.5 52q0 40 26 64t70 24h471q109 0 109 -92q0 -32 -13.5 -51t-41.5 -35q-46 -22 -46 -59q0 -26 21 -68
q93 -202 166 -305q18 -29 33 -30t36 30q87 136 162 309q19 48 19 66q0 33 -43 55q-34 19 -50 37t-16 47q0 96 107 96h309q46 0 71 -25.5t25 -66.5q0 -54 -51 -94q-46 -33 -84 -111q-104 -215 -319 -596q-25 -44 -33 -72t-8 -69v-131q-2 -66 19 -100t79 -62q70 -33 67 -86
q0 -39 -32 -64t-95 -24h-473zM260 1743q0 83 58.5 139.5t146.5 56.5q82 0 137 -53t55 -131q0 -83 -58 -138.5t-146 -55.5q-82 0 -137.5 52.5t-55.5 129.5zM743 1739q0 83 58.5 139.5t146.5 56.5q82 0 137.5 -53t55.5 -131q0 -83 -58.5 -139t-146.5 -56q-82 0 -137.5 53
t-55.5 130z" />
    <glyph glyph-name="Zacute" unicode="&#x179;" horiz-adv-x="1263" 
d="M135 0q-67 0 -98 27.5t-31 85.5q0 110 94 243l611 856q14 22 14 37t-20 21t-70 6q-109 0 -187 -32.5t-169 -108.5q-6 -5 -23.5 -20t-25.5 -22t-23.5 -19.5t-26 -18.5t-24.5 -13.5t-26 -10.5t-24 -3q-36 0 -54.5 32t-18.5 81q0 121 45 254q20 59 48.5 82.5t78.5 23.5h917
q58 0 84.5 -23.5t26.5 -76.5q0 -132 -105 -277l-598 -833q-18 -27 -18 -43q0 -13 16.5 -18t59.5 -5q130 0 218 32t171 105q23 20 54 48t48 43.5t37.5 31t37 22.5t32.5 7q36 0 56 -28t20 -76q0 -64 -13.5 -151t-29.5 -144q-20 -68 -54.5 -91.5t-103.5 -23.5h-926zM465 1690
l160 172q53 61 135 61h227q46 0 70 -20t14.5 -52.5t-55.5 -64.5l-252 -172q-39 -29 -96 -29h-176q-49 0 -56.5 31t29.5 74z" />
    <glyph glyph-name="zacute" unicode="&#x17a;" horiz-adv-x="1032" 
d="M123 0q-53 0 -80 29t-27 77q0 52 45 117l431 633q26 42 26 55t-11 20t-26 7q-60 0 -194 -80q-41 -25 -61.5 -36.5t-54.5 -25.5t-56 -14q-31 0 -52 19t-22 55q0 87 27 203q18 69 106 69h731q96 0 96 -92q0 -65 -38 -121l-451 -653q-18 -21 -18 -43t41 -22q32 1 106.5 26.5
t146.5 59.5q17 8 46.5 22.5t45 21.5t35 13t33.5 6q72 0 72 -104q0 -91 -23 -166q-11 -40 -39.5 -58t-83.5 -18h-751zM348 1327l180 236q47 61 131 61h189q72 0 86 -39.5t-45 -93.5l-256 -223q-26 -23 -52 -30t-69 -7h-127q-44 0 -54.5 29t17.5 67z" />
    <glyph glyph-name="Zdotaccent" unicode="&#x17b;" horiz-adv-x="1263" 
d="M135 0q-67 0 -98 27.5t-31 85.5q0 110 94 243l611 856q14 22 14 37t-20 21t-70 6q-109 0 -187 -32.5t-169 -108.5q-6 -5 -23.5 -20t-25.5 -22t-23.5 -19.5t-26 -18.5t-24.5 -13.5t-26 -10.5t-24 -3q-36 0 -54.5 32t-18.5 81q0 121 45 254q20 59 48.5 82.5t78.5 23.5h917
q58 0 84.5 -23.5t26.5 -76.5q0 -132 -105 -277l-598 -833q-18 -27 -18 -43q0 -13 16.5 -18t59.5 -5q130 0 218 32t171 105q23 20 54 48t48 43.5t37.5 31t37 22.5t32.5 7q36 0 56 -28t20 -76q0 -64 -13.5 -151t-29.5 -144q-20 -68 -54.5 -91.5t-103.5 -23.5h-926zM449 1772
q0 83 58.5 139.5t145.5 56.5q82 0 137.5 -53t55.5 -131q0 -83 -58.5 -139t-146.5 -56q-81 0 -136.5 53t-55.5 130z" />
    <glyph glyph-name="zdotaccent" unicode="&#x17c;" horiz-adv-x="1032" 
d="M123 0q-53 0 -80 29t-27 77q0 52 45 117l431 633q26 42 26 55t-11 20t-26 7q-60 0 -194 -80q-41 -25 -61.5 -36.5t-54.5 -25.5t-56 -14q-31 0 -52 19t-22 55q0 87 27 203q18 69 106 69h731q96 0 96 -92q0 -65 -38 -121l-451 -653q-18 -21 -18 -43t41 -22q32 1 106.5 26.5
t146.5 59.5q17 8 46.5 22.5t45 21.5t35 13t33.5 6q72 0 72 -104q0 -91 -23 -166q-11 -40 -39.5 -58t-83.5 -18h-751zM309 1442q0 89 67.5 155t158.5 66q83 0 143.5 -58.5t60.5 -138.5q0 -89 -67.5 -154t-159.5 -65q-82 0 -142.5 58.5t-60.5 136.5z" />
    <glyph glyph-name="Zcaron" unicode="&#x17d;" horiz-adv-x="1263" 
d="M135 0q-67 0 -98 27.5t-31 85.5q0 110 94 243l611 856q14 22 14 37t-20 21t-70 6q-109 0 -187 -32.5t-169 -108.5q-6 -5 -23.5 -20t-25.5 -22t-23.5 -19.5t-26 -18.5t-24.5 -13.5t-26 -10.5t-24 -3q-36 0 -54.5 32t-18.5 81q0 121 45 254q20 59 48.5 82.5t78.5 23.5h917
q58 0 84.5 -23.5t26.5 -76.5q0 -132 -105 -277l-598 -833q-18 -27 -18 -43q0 -13 16.5 -18t59.5 -5q130 0 218 32t171 105q23 20 54 48t48 43.5t37.5 31t37 22.5t32.5 7q36 0 56 -28t20 -76q0 -64 -13.5 -151t-29.5 -144q-20 -68 -54.5 -91.5t-103.5 -23.5h-926zM268 1825
q-29 29 -15 53.5t54 24.5h148q44 0 86 -33l127 -90l129 88q48 35 102 35h117q41 0 54 -23.5t-15 -54.5l-197 -209q-25 -28 -59 -36.5t-135 -8.5q-95 0 -128.5 9.5t-62.5 39.5z" />
    <glyph glyph-name="zcaron" unicode="&#x17e;" horiz-adv-x="1032" 
d="M123 0q-53 0 -80 29t-27 77q0 52 45 117l431 633q26 42 26 55t-11 20t-26 7q-60 0 -194 -80q-41 -25 -61.5 -36.5t-54.5 -25.5t-56 -14q-31 0 -52 19t-22 55q0 87 27 203q18 69 106 69h731q96 0 96 -92q0 -65 -38 -121l-451 -653q-18 -21 -18 -43t41 -22q32 1 106.5 26.5
t146.5 59.5q17 8 46.5 22.5t45 21.5t35 13t33.5 6q72 0 72 -104q0 -91 -23 -166q-11 -40 -39.5 -58t-83.5 -18h-751zM137 1522q-29 34 -15 61t54 27h148q43 0 86 -37l127 -100l129 98q50 39 102 39h117q41 0 54 -26.5t-15 -61.5l-197 -232q-25 -31 -59.5 -40t-135.5 -9
q-95 0 -128 10t-62 43z" />
    <glyph glyph-name="uni018F" unicode="&#x18f;" horiz-adv-x="1536" 
d="M700 -33q-181 0 -336.5 79.5t-245.5 212t-89 282.5q0 171 207 217q38 9 132.5 28.5t143.5 30.5q331 73 412 129q37 19 37 43q0 29 -25 60q-48 68 -136 106.5t-202 38.5q-91 0 -194 -38t-185 -101q-43 -32 -74.5 -27.5t-66.5 47.5q-33 39 -33 75.5t33 82.5
q94 130 270.5 212.5t362.5 82.5q179 0 330 -63t252 -171.5t157.5 -252.5t56.5 -306q0 -160 -63 -302.5t-171 -244.5t-257 -161.5t-316 -59.5zM453 446q0 -81 97 -165t214 -84q132 0 223.5 110.5t91.5 263.5q0 80 -20.5 139.5t-59.5 59.5q-5 0 -11.5 -2t-14.5 -7t-14 -9
t-17 -11.5t-18 -11.5q-55 -41 -158.5 -93t-204.5 -91q-108 -34 -108 -99z" />
    <glyph glyph-name="uni0218" unicode="&#x218;" horiz-adv-x="1325" 
d="M670 -29q-152 0 -312.5 43.5t-261.5 126.5q-34 29 -50.5 55t-19 48.5t12.5 50.5t34.5 52t55.5 61q32 34 49 50t42.5 32t45.5 16q23 0 44.5 -19.5t51.5 -62.5q168 -242 332 -242q90 0 146.5 50t56.5 128q0 85 -74 137t-245 87q-273 53 -397 161.5t-124 296.5
q0 109 49 200.5t133 152.5t197 95t240 34q138 0 276.5 -39t239.5 -113q58 -43 72 -83t-7.5 -78t-80.5 -91q-93 -84 -136 -84q-49 0 -98 70q-74 108 -143 158.5t-142 50.5q-82 0 -136 -47.5t-54 -118.5q0 -79 73.5 -129.5t235.5 -81.5q282 -53 406.5 -162t124.5 -305
q0 -115 -50.5 -210t-137 -158t-202.5 -97.5t-247 -34.5zM459 -291q0 92 61.5 153.5t151.5 61.5q103 0 162 -68.5t59 -187.5q0 -129 -77 -241.5t-189 -171.5q-65 -39 -115 26q-49 61 4 96q49 39 71.5 65t22.5 52q0 23 -30 35q-121 47 -121 180z" />
    <glyph glyph-name="uni0219" unicode="&#x219;" horiz-adv-x="1007" 
d="M469 -31q-126 1 -232 28.5t-167 70.5q-59 41 -64.5 95.5t39.5 143.5q29 78 78 78q10 0 20.5 -3.5t18 -7.5t21 -14.5t21.5 -17.5t26.5 -24t29.5 -27q126 -123 229 -123q55 0 93.5 31t38.5 71q0 50 -55 88t-183 80q-192 60 -277.5 141.5t-85.5 208.5q0 166 143 271.5
t369 105.5q105 0 204.5 -28t154.5 -68q67 -44 74.5 -94.5t-37.5 -145.5q-23 -55 -66 -55q-20 0 -47.5 20t-85.5 72q-117 105 -213 105q-51 0 -86 -29t-35 -72q0 -47 53.5 -76.5t217.5 -82.5q175 -56 256.5 -141t81.5 -214q0 -174 -149.5 -280.5t-385.5 -106.5zM299 -291
q0 92 61.5 153.5t151.5 61.5q103 0 162 -68.5t59 -187.5q0 -129 -77 -241.5t-189 -171.5q-65 -39 -115 26q-49 61 2 96q50 39 73.5 64.5t23.5 52.5q0 23 -31 35q-121 47 -121 180z" />
    <glyph glyph-name="uni021A" unicode="&#x21a;" horiz-adv-x="1388" 
d="M459 0q-62 0 -93.5 26t-31.5 66q0 54 72 84q57 26 76.5 59.5t17.5 100.5v809q0 56 -16 82t-52 26q-71 0 -190 -131q-75 -86 -101 -107q-37 -30 -71 -30q-72 0 -72 105q0 67 11.5 150.5t29.5 137.5q19 66 51 94.5t90 28.5h1024q60 0 92 -24t50 -86q20 -63 33.5 -158.5
t13.5 -165.5q0 -38 -19.5 -60t-48.5 -22q-26 0 -57 20.5t-51.5 41t-65.5 69.5q-67 72 -113 104.5t-84 32.5q-69 0 -69 -108l2 -809q-2 -67 18.5 -101t79.5 -61q68 -30 68 -86q0 -39 -32 -64t-95 -24h-467zM489 -291q0 92 61.5 153.5t151.5 61.5q103 0 162.5 -69t59.5 -187
q0 -129 -77 -241.5t-190 -171.5q-64 -39 -114 26q-46 61 4 96q48 37 71 63.5t23 53.5q0 24 -31 35q-121 47 -121 180z" />
    <glyph glyph-name="uni021B" unicode="&#x21b;" horiz-adv-x="686" 
d="M354 0q-136 1 -196 59t-60 189q0 91 35 338q35 236 35 286q0 42 -16 56.5t-78 17.5q-42 1 -58 22.5t-16 69.5q0 32 13.5 53t47.5 39q101 53 146 103q46 46 110 149q39 54 93 54q76 0 73 -70l-2 -186q-2 -32 10.5 -42t55.5 -10h74q42 0 58 -21.5t15 -76.5q1 -58 -18 -82
t-64 -24h-65q-44 0 -55 -13t-11 -67q-2 -182 -2 -543q0 -48 18 -68t83 -40q63 -19 85.5 -38t22.5 -67q0 -43 -22.5 -65.5t-63.5 -22.5h-248zM219 -293q0 92 61.5 153.5t151.5 61.5q103 0 162 -68.5t59 -187.5q0 -129 -77 -242t-189 -172q-65 -39 -115 27q-48 60 2 98
q49 37 73 62.5t24 52.5q0 23 -31 35q-55 21 -88 66.5t-33 113.5z" />
    <glyph glyph-name="uni0237" unicode="&#x237;" horiz-adv-x="538" 
d="M145 -377q-74 0 -149 19.5t-121 50.5q-39 25 -46.5 56.5t11.5 68.5q15 37 34 50.5t48 8.5q39 -8 88 -8q113 0 113 117v819q1 65 -13.5 97t-54.5 56q-54 37 -51 84q0 39 23.5 63.5t72.5 24.5l27 -2h248q60 0 85 -29.5t25 -99.5l2 -1075q0 -140 -93.5 -220.5t-248.5 -80.5z
" />
    <glyph glyph-name="uni0259" unicode="&#x259;" horiz-adv-x="1202" 
d="M569 1159q164 0 303 -76t221.5 -211t84.5 -299q2 -171 -81 -311t-218.5 -216.5t-290.5 -76.5q-147 0 -273 62.5t-199 168t-73 226.5q0 132 154 170q56 14 231 49q162 37 219 80q29 18 29 35q0 31 -49 63q-64 49 -166 49q-146 0 -293 -114q-37 -26 -64.5 -22.5t-56.5 38.5
q-29 34 -28.5 65t28.5 70q82 113 225 181.5t297 68.5zM438 362q0 -52 63 -106.5t138 -54.5q79 0 133.5 59t54.5 156q0 59 -15 107t-42 48q-5 0 -11 -3.5t-18.5 -12t-19.5 -12.5q-85 -65 -211 -117q-37 -14 -54.5 -27.5t-17.5 -36.5z" />
    <glyph glyph-name="circumflex" unicode="&#x2c6;" horiz-adv-x="876" 
d="M666 1157q-53 0 -105 41l-129 96l-131 -100q-47 -37 -86 -37h-135q-41 0 -56.5 27t13.5 61l201 232q30 33 63 43t127 10q102 0 138 -9.5t63 -39.5l219 -234q30 -35 14.5 -62.5t-57.5 -27.5h-139z" />
    <glyph glyph-name="caron" unicode="&#x2c7;" horiz-adv-x="825" 
d="M770 1526q41 0 54 -26.5t-15 -61.5l-197 -232q-25 -31 -59 -40t-135 -9q-96 0 -129 10t-62 43l-204 228q-29 34 -15.5 61t53.5 27h148q43 0 86 -37l127 -100l129 98q50 39 102 39h117z" />
    <glyph glyph-name="breve" unicode="&#x2d8;" horiz-adv-x="686" 
d="M334 1149q-146 0 -254 63q-64 39 -67 103.5t44 130.5q62 88 154 39q129 -66 221 -66q74 0 150 45q50 23 75 0q24 -23 18 -63t-36 -84q-86 -168 -305 -168z" />
    <glyph glyph-name="dotaccent" unicode="&#x2d9;" horiz-adv-x="409" 
d="M195 1155q-80 0 -136.5 63t-56.5 152q0 100 63 168t154 68q83 0 140 -61t57 -150q0 -100 -64.5 -170t-156.5 -70z" />
    <glyph glyph-name="ring" unicode="&#x2da;" horiz-adv-x="542" 
d="M281 1139q-106 0 -180 72t-74 173q0 98 74 169t178 71q106 0 178.5 -70.5t72.5 -171.5q0 -100 -73 -171.5t-176 -71.5zM172 1382q0 -46 32 -80t77 -34q43 0 74.5 34t31.5 80t-32 79.5t-76 33.5t-75.5 -33.5t-31.5 -79.5z" />
    <glyph glyph-name="ogonek" unicode="&#x2db;" horiz-adv-x="501" 
d="M240 -377q-106 0 -169 53.5t-63 133.5q0 86 80 146t199 60h67q-8 -23 -30 -36q-43 -32 -43 -89q0 -32 18.5 -50.5t50.5 -18.5q25 0 68 24q38 13 55 -43q15 -42 -31 -88q-38 -42 -91.5 -67t-110.5 -25z" />
    <glyph glyph-name="tilde" unicode="&#x2dc;" horiz-adv-x="897" 
d="M666 1139q-32 0 -73 12t-71.5 25.5t-86.5 39.5q-13 6 -19 9q-134 63 -180 63q-25 0 -42 -14.5t-42 -56.5q-21 -34 -43.5 -45t-55.5 -1q-41 13 -48 47t15 97q43 138 95.5 196t134.5 58q76 0 239 -78q150 -72 187 -72q24 0 42 15.5t46 56.5q21 36 45.5 44t56.5 -7
q61 -27 15 -139q-41 -138 -88 -194t-127 -56z" />
    <glyph glyph-name="hungarumlaut" unicode="&#x2dd;" horiz-adv-x="1079" 
d="M59 1151q-43 0 -52 28t18 68l157 236q40 61 131 61h181q72 0 83 -38.5t-49 -98.5l-223 -217q-39 -39 -119 -39h-127zM535 1247l180 236q47 61 131 61h180q72 0 85 -40t-50 -97l-246 -217q-44 -39 -119 -39h-127q-44 0 -54 29t20 67z" />
    <glyph glyph-name="gravecomb" unicode="&#x300;" 
d="M387 1151q-42 0 -68 7t-53 30l-254 223q-60 54 -45.5 93.5t86.5 39.5h199q84 0 131 -61l178 -236q29 -38 19 -67t-54 -29h-139z" />
    <glyph glyph-name="acutecomb" unicode="&#x301;" 
d="M35 1133q-44 0 -54.5 29t17.5 67l180 235q48 62 131 62h189q72 0 86 -39.5t-45 -93.5l-256 -224q-26 -23 -51.5 -29.5t-69.5 -6.5h-127z" />
    <glyph glyph-name="uni0302" unicode="&#x302;" 
d="M666 1206q-56 0 -107 43l-133 99l-131 -103q-48 -39 -88 -39h-137q-43 0 -58.5 28t13.5 62l204 236q30 35 64.5 45t130.5 10q104 0 140 -9.5t65 -41.5l223 -238q30 -35 14 -63.5t-59 -28.5h-141z" />
    <glyph glyph-name="tildecomb" unicode="&#x303;" 
d="M666 1139q-32 0 -73 12t-71.5 25.5t-86.5 39.5q-13 6 -19 9q-134 63 -180 63q-25 0 -42 -14.5t-42 -56.5q-21 -34 -43.5 -45t-55.5 -1q-41 13 -48 47t15 97q43 138 95.5 196t134.5 58q76 0 239 -78q150 -72 187 -72q24 0 42 15.5t46 56.5q21 36 45.5 44t56.5 -7
q61 -27 15 -139q-41 -138 -88 -194t-127 -56z" />
    <glyph glyph-name="uni0304" unicode="&#x304;" 
d="M129 1143q-70 0 -94.5 20t-24.5 78v68q0 58 24.5 78t94.5 20h576q69 0 93.5 -20t24.5 -78v-68q0 -58 -24.5 -78t-93.5 -20h-576z" />
    <glyph glyph-name="uni0306" unicode="&#x306;" 
d="M313 1104q-146 0 -254 63q-64 39 -66.5 103.5t44.5 130.5q62 87 153 39q129 -66 222 -66q73 0 149 45q50 23 76 0q24 -23 17.5 -63t-36.5 -84q-86 -168 -305 -168z" />
    <glyph glyph-name="uni0307" unicode="&#x307;" 
d="M209 1147q-82 0 -142.5 58t-60.5 136q0 89 67 155.5t158 66.5q83 0 144 -58.5t61 -138.5q0 -89 -67.5 -154t-159.5 -65z" />
    <glyph glyph-name="uni0308" unicode="&#x308;" 
d="M715 1163q-80 0 -136.5 58t-56.5 141q0 87 60.5 149t144.5 62q82 0 139.5 -58t57.5 -141q0 -88 -61.5 -149.5t-147.5 -61.5zM27 1362q0 88 60.5 149.5t145.5 61.5q80 0 136.5 -58t56.5 -141q0 -88 -61.5 -149.5t-147.5 -61.5q-78 0 -134 58t-56 141z" />
    <glyph glyph-name="uni030A" unicode="&#x30a;" 
d="M283 1145q-105 0 -179.5 72t-74.5 174q0 98 74 168.5t178 70.5q106 0 178.5 -70t72.5 -171q0 -100 -73 -172t-176 -72zM174 1389q0 -46 32 -80.5t77 -34.5q43 0 74.5 34.5t31.5 80.5t-32 79t-76 33t-75.5 -33t-31.5 -79z" />
    <glyph glyph-name="uni030B" unicode="&#x30b;" 
d="M59 1196q-43 0 -52 28t18 68l157 236q40 61 131 61h181q72 0 83 -38.5t-49 -98.5l-223 -217q-39 -39 -119 -39h-127zM535 1292l180 236q47 61 131 61h180q72 0 85 -40t-50 -97l-246 -217q-44 -39 -119 -39h-127q-44 0 -54 29t20 67z" />
    <glyph glyph-name="uni030C" unicode="&#x30c;" 
d="M770 1585q41 0 54 -26.5t-15 -61.5l-197 -231q-25 -31 -59 -40t-135 -9q-96 0 -129 10t-62 43l-204 227q-29 34 -15.5 61t53.5 27h148q43 0 86 -37l127 -100l129 98q50 39 102 39h117z" />
    <glyph glyph-name="uni0312" unicode="&#x312;" 
d="M395 1872q67 34 117 -27q50 -59 -4 -94q-35 -26 -51 -39.5t-30.5 -33t-14.5 -36.5q0 -22 30 -34q57 -20 91 -63.5t34 -108.5q0 -87 -63 -146t-154 -59q-106 0 -166.5 65t-60.5 179q0 123 78.5 231.5t193.5 165.5z" />
    <glyph glyph-name="uni0326" unicode="&#x326;" 
d="M260 -745q-65 -39 -115 26q-46 61 5 96q48 37 71 63.5t23 53.5q0 24 -31 35q-121 47 -121 180q0 92 61.5 153.5t151.5 61.5q103 0 162 -68.5t59 -187.5q0 -130 -76.5 -242.5t-189.5 -170.5z" />
    <glyph glyph-name="uni0327" unicode="&#x327;" 
d="M182 -506q-96 0 -159 49q-26 18 -35.5 45.5t6.5 57.5q13 23 38.5 29t49.5 -5q32 -18 70 -18q65 0 65 72q0 32 -17 48.5t-57 22.5q-37 3 -48 32t11 67l72 122l187 -2l-66 -102q93 -22 147 -73t54 -118q0 -95 -91.5 -161t-226.5 -66z" />
    <glyph glyph-name="uni0328" unicode="&#x328;" 
d="M240 -377q-106 0 -169 53.5t-63 133.5q0 86 80 146t199 60h67q-8 -23 -30 -36q-43 -32 -43 -89q0 -32 18.5 -50.5t50.5 -18.5q25 0 68 24q38 13 55 -43q15 -42 -31 -88q-38 -42 -91.5 -67t-110.5 -25z" />
    <glyph glyph-name="uni0335" unicode="&#x335;" 
d="M92 596q-45 0 -61.5 19t-16.5 69q0 46 16.5 63t61.5 17h535q39 0 51 -16.5t12 -63.5q0 -51 -12 -69.5t-51 -18.5h-535z" />
    <glyph glyph-name="uni0337" unicode="&#x337;" 
d="M76 590q-33 -9 -48.5 1.5t-15.5 45.5v123q0 54 19 81t73 42l650 196q71 17 71 -55v-113q0 -59 -21 -87.5t-79 -45.5z" />
    <glyph glyph-name="uni0338" unicode="&#x338;" 
d="M0 -150q-46 25 -54.5 54t17.5 76l684 1249q20 40 44.5 47.5t62.5 -12.5q43 -23 49 -53.5t-23 -84.5l-671 -1237q-42 -79 -109 -39z" />
    <glyph glyph-name="uni1E20" unicode="&#x1e20;" horiz-adv-x="1533" 
d="M836 -27q-182 0 -335 63t-255 171t-158.5 252t-56.5 305q0 160 63 303t170 245.5t256.5 162t315.5 59.5q180 0 346.5 -69t255.5 -173q50 -60 34 -111.5t-104 -117.5q-127 -94 -174 -94t-92 69q-91 141 -168 201.5t-172 60.5q-132 0 -217.5 -115t-85.5 -292
q0 -165 65 -311.5t183.5 -238t261.5 -91.5q77 0 107 21t30 69v121q0 70 -19.5 104t-76.5 60q-66 32 -66 88q0 40 30.5 66t90.5 26l43 -2h285q110 0 110 -107l-2 -391q0 -77 -31 -128t-104 -85q-112 -56 -252 -88.5t-278 -32.5zM377 1706v68q0 58 22 78t84 20h656
q61 0 82.5 -20t21.5 -78v-68q0 -58 -21.5 -78t-82.5 -20h-656q-62 0 -84 20t-22 78z" />
    <glyph glyph-name="uni1E21" unicode="&#x1e21;" horiz-adv-x="1296" 
d="M623 -422q-116 0 -241.5 17t-211.5 43q-70 20 -80 67.5t33 159.5q26 66 59 78t97 -19q12 -5 63 -27.5t67.5 -29.5t58 -23t64 -21.5t54 -11.5t57.5 -6q167 0 164 199v66q0 28 -19.5 35.5t-42.5 -15.5q-107 -104 -253 -104q-212 0 -339.5 145.5t-127.5 374.5
q0 180 80.5 325.5t223 227.5t320.5 82q41 0 148 -10.5t180 -10.5q38 0 99 4t91 4h29q48 1 72 -24t24 -64q0 -48 -53 -82q-40 -24 -54.5 -56t-13.5 -97l-2 -488q0 -85 9 -213q8 -118 8 -137q0 -103 -40.5 -179t-117 -121.5t-177 -67t-228.5 -21.5zM242 1368v68q0 58 24.5 78
t93.5 20h576q70 0 94.5 -20t24.5 -78v-68q0 -58 -24.5 -78t-94.5 -20h-576q-69 0 -93.5 20t-24.5 78zM401 604q0 -145 62 -231t168 -86q91 0 135 43t43 133v233q2 101 -44.5 154t-137.5 53q-92 0 -159 -83t-67 -216z" />
    <glyph glyph-name="Wgrave" unicode="&#x1e80;" horiz-adv-x="2209" 
d="M696 -14q-91 2 -127 24.5t-67 100.5q-143 352 -234 634q-22 68 -69 235.5t-60 209.5q-15 52 -31.5 79.5t-44.5 49.5q-30 22 -43.5 42.5t-13.5 51.5q0 39 27.5 63.5t75.5 24.5h483q44 0 69 -23t25 -63q0 -48 -59 -92q-64 -45 -64 -94q0 -96 82 -361q51 -166 94 -280
q12 -30 30.5 -28.5t27.5 28.5q54 142 98 307q61 215 61 334q0 32 -11.5 52t-43.5 40q-55 30 -55 92q0 36 23 62t67 26h481q49 0 75 -24.5t26 -63.5q0 -50 -66 -98q-51 -40 -51 -90q0 -89 67 -320q49 -170 109 -323q7 -16 16 -22t18 0t15 22q29 70 88 274q70 254 70 361
q0 62 -55 94q-66 40 -66 104q0 34 23.5 60t62.5 26h350q48 0 74.5 -23.5t26.5 -62.5q0 -55 -60 -98q-30 -22 -46 -48t-28 -71q-71 -294 -139 -518q-107 -352 -194 -559q-39 -89 -70 -110.5t-127 -22.5q-72 -1 -108 9t-56 33t-45 79q-87 201 -192 561q-7 29 -27 29t-29 -31
q-100 -358 -194 -570q-32 -76 -63.5 -94t-125.5 -18zM846 1776q-68 50 -56 92.5t82 42.5h230q82 0 133 -62l160 -172q25 -28 31 -52t-9 -38t-47 -14h-182q-51 0 -90 26z" />
    <glyph glyph-name="wgrave" unicode="&#x1e81;" horiz-adv-x="1896" 
d="M584 -6q-106 0 -141 20.5t-74 110.5q-126 286 -265 721q-18 65 -61 102q-43 46 -43 92q0 44 27.5 66t72.5 22h406q97 0 100 -79q0 -58 -63 -103q-41 -24 -48.5 -54.5t7.5 -78.5q37 -150 127 -358q8 -20 18.5 -27.5t21 -1t17.5 24.5q95 244 119 358q11 49 2.5 81t-43.5 64
q-51 45 -51 95q0 79 98 79h432q40 0 61 -23t21 -58q0 -55 -53 -97q-38 -27 -47.5 -56t2.5 -73q57 -206 137 -377q11 -24 25.5 -24t25.5 24q91 208 125 375q11 50 -1 80t-56 57q-47 35 -47 82q-2 41 24 65.5t72 24.5h272q46 0 68 -24.5t22 -63.5q0 -48 -43 -94
q-38 -43 -69 -145q-130 -433 -248 -707q-21 -48 -38 -66t-50 -25t-109 -7q-105 -2 -141 12t-61 68q-89 183 -160 383q-9 23 -24.5 23t-24.5 -23q-93 -260 -140 -373q-26 -61 -61.5 -76.5t-140.5 -15.5zM659 1487q-60 54 -45.5 93.5t86.5 39.5h199q84 0 131 -61l178 -236
q30 -38 20 -67t-54 -29h-140q-42 0 -68 7t-53 30z" />
    <glyph glyph-name="Wacute" unicode="&#x1e82;" horiz-adv-x="2209" 
d="M696 -14q-91 2 -127 24.5t-67 100.5q-143 352 -234 634q-22 68 -69 235.5t-60 209.5q-15 52 -31.5 79.5t-44.5 49.5q-30 22 -43.5 42.5t-13.5 51.5q0 39 27.5 63.5t75.5 24.5h483q44 0 69 -23t25 -63q0 -48 -59 -92q-64 -45 -64 -94q0 -96 82 -361q51 -166 94 -280
q12 -30 30.5 -28.5t27.5 28.5q54 142 98 307q61 215 61 334q0 32 -11.5 52t-43.5 40q-55 30 -55 92q0 36 23 62t67 26h481q49 0 75 -24.5t26 -63.5q0 -50 -66 -98q-51 -40 -51 -90q0 -89 67 -320q49 -170 109 -323q7 -16 16 -22t18 0t15 22q29 70 88 274q70 254 70 361
q0 62 -55 94q-66 40 -66 104q0 34 23.5 60t62.5 26h350q48 0 74.5 -23.5t26.5 -62.5q0 -55 -60 -98q-30 -22 -46 -48t-28 -71q-71 -294 -139 -518q-107 -352 -194 -559q-39 -89 -70 -110.5t-127 -22.5q-72 -1 -108 9t-56 33t-45 79q-87 201 -192 561q-7 29 -27 29t-29 -31
q-100 -358 -194 -570q-32 -76 -63.5 -94t-125.5 -18zM961 1686l159 172q53 61 135 61h228q34 0 56.5 -12.5t28.5 -31.5t-8 -44t-49 -49l-251 -172q-39 -29 -97 -29h-176q-49 0 -56 31t30 74z" />
    <glyph glyph-name="wacute" unicode="&#x1e83;" horiz-adv-x="1896" 
d="M584 -6q-106 0 -141 20.5t-74 110.5q-126 286 -265 721q-18 65 -61 102q-43 46 -43 92q0 44 27.5 66t72.5 22h406q97 0 100 -79q0 -58 -63 -103q-41 -24 -48.5 -54.5t7.5 -78.5q37 -150 127 -358q8 -20 18.5 -27.5t21 -1t17.5 24.5q95 244 119 358q11 49 2.5 81t-43.5 64
q-51 45 -51 95q0 79 98 79h432q40 0 61 -23t21 -58q0 -55 -53 -97q-38 -27 -47.5 -56t2.5 -73q57 -206 137 -377q11 -24 25.5 -24t25.5 24q91 208 125 375q11 50 -1 80t-56 57q-47 35 -47 82q-2 41 24 65.5t72 24.5h272q46 0 68 -24.5t22 -63.5q0 -48 -43 -94
q-38 -43 -69 -145q-130 -433 -248 -707q-21 -48 -38 -66t-50 -25t-109 -7q-105 -2 -141 12t-61 68q-89 183 -160 383q-9 23 -24.5 23t-24.5 -23q-93 -260 -140 -373q-26 -61 -61.5 -76.5t-140.5 -15.5zM811 1327l180 236q47 61 131 61h189q72 0 86 -39.5t-45 -93.5
l-256 -223q-26 -23 -52 -30t-69 -7h-127q-44 0 -54.5 29t17.5 67z" />
    <glyph glyph-name="Wdieresis" unicode="&#x1e84;" horiz-adv-x="2209" 
d="M696 -14q-91 2 -127 24.5t-67 100.5q-143 352 -234 634q-22 68 -69 235.5t-60 209.5q-15 52 -31.5 79.5t-44.5 49.5q-30 22 -43.5 42.5t-13.5 51.5q0 39 27.5 63.5t75.5 24.5h483q44 0 69 -23t25 -63q0 -48 -59 -92q-64 -45 -64 -94q0 -96 82 -361q51 -166 94 -280
q12 -30 30.5 -28.5t27.5 28.5q54 142 98 307q61 215 61 334q0 32 -11.5 52t-43.5 40q-55 30 -55 92q0 36 23 62t67 26h481q49 0 75 -24.5t26 -63.5q0 -50 -66 -98q-51 -40 -51 -90q0 -89 67 -320q49 -170 109 -323q7 -16 16 -22t18 0t15 22q29 70 88 274q70 254 70 361
q0 62 -55 94q-66 40 -66 104q0 34 23.5 60t62.5 26h350q48 0 74.5 -23.5t26.5 -62.5q0 -55 -60 -98q-30 -22 -46 -48t-28 -71q-71 -294 -139 -518q-107 -352 -194 -559q-39 -89 -70 -110.5t-127 -22.5q-72 -1 -108 9t-56 33t-45 79q-87 201 -192 561q-7 29 -27 29t-29 -31
q-100 -358 -194 -570q-32 -76 -63.5 -94t-125.5 -18zM698 1743q0 83 58.5 139.5t146.5 56.5q82 0 137.5 -53t55.5 -131q0 -83 -58.5 -138.5t-146.5 -55.5q-82 0 -137.5 52.5t-55.5 129.5zM1182 1739q0 83 58.5 139.5t145.5 56.5q82 0 137.5 -53t55.5 -131q0 -83 -58.5 -139
t-146.5 -56q-81 0 -136.5 53t-55.5 130z" />
    <glyph glyph-name="wdieresis" unicode="&#x1e85;" horiz-adv-x="1896" 
d="M584 -6q-106 0 -141 20.5t-74 110.5q-126 286 -265 721q-18 65 -61 102q-43 46 -43 92q0 44 27.5 66t72.5 22h406q97 0 100 -79q0 -58 -63 -103q-41 -24 -48.5 -54.5t7.5 -78.5q37 -150 127 -358q8 -20 18.5 -27.5t21 -1t17.5 24.5q95 244 119 358q11 49 2.5 81t-43.5 64
q-51 45 -51 95q0 79 98 79h432q40 0 61 -23t21 -58q0 -55 -53 -97q-38 -27 -47.5 -56t2.5 -73q57 -206 137 -377q11 -24 25.5 -24t25.5 24q91 208 125 375q11 50 -1 80t-56 57q-47 35 -47 82q-2 41 24 65.5t72 24.5h272q46 0 68 -24.5t22 -63.5q0 -48 -43 -94
q-38 -43 -69 -145q-130 -433 -248 -707q-21 -48 -38 -66t-50 -25t-109 -7q-105 -2 -141 12t-61 68q-89 183 -160 383q-9 23 -24.5 23t-24.5 -23q-93 -260 -140 -373q-26 -61 -61.5 -76.5t-140.5 -15.5zM549 1417q0 87 61 149t146 62q80 0 136 -57.5t56 -140.5
q0 -88 -61.5 -149.5t-147.5 -61.5q-78 0 -134 57.5t-56 140.5zM1044 1417q0 87 60.5 149t144.5 62q82 0 139.5 -57.5t57.5 -140.5q0 -88 -61.5 -149.5t-147.5 -61.5q-80 0 -136.5 57.5t-56.5 140.5z" />
    <glyph glyph-name="uni1E9E" unicode="&#x1e9e;" horiz-adv-x="2637" 
d="M670 -29q-152 0 -312.5 43.5t-261.5 126.5q-34 29 -50.5 55t-19 48.5t12.5 50.5t34.5 52t55.5 61q32 34 49 50t42.5 32t45.5 16q23 0 44.5 -19.5t51.5 -62.5q168 -242 332 -242q90 0 146.5 50t56.5 128q0 85 -74 137t-245 87q-273 53 -397 161.5t-124 296.5
q0 109 49 200.5t133 152.5t197 95t240 34q138 0 276.5 -39t239.5 -113q58 -43 72 -83t-7.5 -78t-80.5 -91q-93 -84 -136 -84q-49 0 -98 70q-74 108 -143 158.5t-142 50.5q-82 0 -136 -47.5t-54 -118.5q0 -79 73.5 -129.5t235.5 -81.5q282 -53 406.5 -162t124.5 -305
q0 -115 -50.5 -210t-137 -158t-202.5 -97.5t-247 -34.5zM1370 1042q0 109 49 200.5t133 152.5t197 95t240 34q138 0 276.5 -39t239.5 -113q58 -43 71.5 -83t-8 -78t-80.5 -91q-93 -84 -135 -84q-49 0 -98 70q-74 108 -143 158.5t-142 50.5q-82 0 -136 -47.5t-54 -118.5
q0 -79 73.5 -129.5t235.5 -81.5q282 -53 406 -162t124 -305q0 -115 -50.5 -210t-137 -158t-202.5 -97.5t-247 -34.5q-152 0 -312 43.5t-261 126.5q-34 29 -50.5 55t-19 48.5t12.5 50.5t34.5 52t55.5 61q32 34 49 50t42.5 32t45.5 16q23 0 44.5 -19.5t51.5 -62.5
q168 -242 332 -242q90 0 146.5 50t56.5 128q0 85 -74 137t-246 87q-272 53 -396 161.5t-124 296.5z" />
    <glyph glyph-name="uni1EBC" unicode="&#x1ebc;" horiz-adv-x="1320" 
d="M129 0q-50 0 -75 26t-25 66q0 55 55 84q47 26 62.5 59.5t13.5 100.5v829q2 66 -14.5 100t-63.5 60q-55 32 -55 86q2 40 26.5 65t73.5 25h944q51 0 79.5 -18.5t43.5 -61.5q2 -8 18 -61t24.5 -83.5t17 -74t8.5 -69.5q0 -36 -17.5 -57t-46.5 -21q-27 0 -72.5 23t-71.5 41
t-87 61q-78 58 -136.5 83t-125.5 25q-78 0 -114 -48t-36 -148v-97q0 -48 16.5 -64t65.5 -16h354q37 0 58.5 -18.5t21.5 -54.5q0 -40 -21 -88t-51 -86q-26 -31 -45 -44.5t-49 -13.5q-39 0 -130 36t-124 36q-46 2 -70 -33t-24 -106v-187q0 -76 40 -109.5t126 -31.5
q104 0 289 121q26 18 74 52t67.5 46.5t47.5 24.5t52 12q34 0 51 -20t17 -54q0 -72 -57 -223q-32 -100 -60.5 -137t-89.5 -37h-985zM283 1712q43 124 95 175.5t134 51.5t240 -69q152 -64 186 -64q24 0 42 14t46 50q38 60 102 33q60 -23 15 -125q-41 -124 -88 -175t-127 -51
q-34 0 -80.5 13.5t-73 24t-96.5 40.5q-136 58 -180 58q-24 0 -41.5 -13.5t-42.5 -50.5q-20 -31 -42.5 -40.5t-56.5 -0.5q-41 12 -47.5 42t15.5 87z" />
    <glyph glyph-name="uni1EBD" unicode="&#x1ebd;" horiz-adv-x="1202" 
d="M633 -31q-123 0 -234.5 45t-193 122.5t-130.5 186.5t-50 232q-2 171 80.5 311t218 216.5t290.5 76.5q147 0 273 -62.5t199 -168t73 -226.5q0 -132 -153 -170q-52 -13 -232 -49q-162 -37 -219 -80q-29 -18 -29 -34q0 -32 49 -64q64 -49 166 -49q145 0 293 115
q37 26 64.5 22t56.5 -39q29 -34 28.5 -65t-28.5 -70q-82 -113 -225 -181.5t-297 -68.5zM203 1413q43 138 95 196t134 58q77 0 240 -78q148 -71 186 -71q24 0 42 15.5t46 55.5q21 36 46 44t57 -7q60 -26 14 -139q-41 -138 -88 -194t-127 -56q-32 0 -73 12t-71.5 25.5
t-86.5 39.5q-13 6 -19 9q-134 63 -180 63q-25 0 -42 -14.5t-42 -56.5q-21 -34 -43 -44.5t-55 -0.5q-41 13 -48 46.5t15 96.5zM375 713q0 -59 15 -107.5t42 -48.5q4 0 11 4t18.5 12t19.5 13q82 63 211 116q37 14 54.5 27.5t17.5 36.5q0 53 -63 107.5t-138 54.5
q-79 0 -133.5 -59t-54.5 -156z" />
    <glyph glyph-name="Ygrave" unicode="&#x1ef2;" horiz-adv-x="1415" 
d="M485 0q-62 0 -93.5 26t-31.5 66q0 54 70 84q58 26 77 59t17 101v131q0 66 -32 121q-174 281 -342 612q-21 42 -41.5 68.5t-53.5 50.5q-28 21 -41.5 42t-13.5 52q0 40 26 64t70 24h471q109 0 109 -92q0 -32 -13.5 -51t-41.5 -35q-46 -22 -46 -59q0 -26 21 -68
q93 -202 166 -305q18 -29 33 -30t36 30q87 136 162 309q19 48 19 66q0 33 -43 55q-34 19 -50 37t-16 47q0 96 107 96h309q46 0 71 -25.5t25 -66.5q0 -54 -51 -94q-46 -33 -84 -111q-104 -215 -319 -596q-25 -44 -33 -72t-8 -69v-131q-2 -66 19 -100t79 -62q70 -33 67 -86
q0 -39 -32 -64t-95 -24h-473zM408 1776q-68 50 -56 92.5t82 42.5h230q82 0 133 -62l159 -172q39 -43 32 -73.5t-56 -30.5h-182q-52 0 -91 26z" />
    <glyph glyph-name="ygrave" unicode="&#x1ef3;" horiz-adv-x="1232" 
d="M252 -373q-36 0 -61 23.5t-25 52.5q0 38 41 74l221 186q27 23 30.5 47t-14.5 56q-183 388 -333 792q-22 57 -66 98q-45 33 -45 84q0 39 27 63.5t75 24.5h398q58 0 84 -20.5t26 -65.5q0 -27 -14 -44.5t-49 -36.5q-20 -13 -31.5 -26t-17 -23t-3.5 -28t4.5 -28t10.5 -36
q3 -9 4 -13q63 -207 156 -401q31 -63 55 0q95 228 141 401q16 46 9.5 78t-44.5 63q-55 51 -55 96q0 37 22.5 60.5t61.5 23.5h281q43 0 67.5 -23.5t24.5 -57.5q0 -48 -43 -86q-45 -42 -78 -146q-104 -331 -254 -698q-44 -103 -71 -163t-69.5 -137t-84.5 -134
q-39 -56 -109 -56h-272zM317 1487q-60 54 -45.5 93.5t86.5 39.5h199q84 0 131 -61l178 -236q29 -38 19 -67t-54 -29h-139q-42 0 -68 7t-53 30z" />
    <glyph glyph-name="uni1EF8" unicode="&#x1ef8;" horiz-adv-x="1415" 
d="M485 0q-62 0 -93.5 26t-31.5 66q0 54 70 84q58 26 77 59t17 101v131q0 66 -32 121q-174 281 -342 612q-21 42 -41.5 68.5t-53.5 50.5q-28 21 -41.5 42t-13.5 52q0 40 26 64t70 24h471q109 0 109 -92q0 -32 -13.5 -51t-41.5 -35q-46 -22 -46 -59q0 -26 21 -68
q93 -202 166 -305q18 -29 33 -30t36 30q87 136 162 309q19 48 19 66q0 33 -43 55q-34 19 -50 37t-16 47q0 96 107 96h309q46 0 71 -25.5t25 -66.5q0 -54 -51 -94q-46 -33 -84 -111q-104 -215 -319 -596q-25 -44 -33 -72t-8 -69v-131q-2 -66 19 -100t79 -62q70 -33 67 -86
q0 -39 -32 -64t-95 -24h-473zM313 1704q43 124 95.5 175.5t134.5 51.5q81 0 239 -69q152 -64 187 -64q24 0 42 14t46 50q21 33 45.5 40t56.5 -8q60 -23 15 -125q-40 -124 -88 -174.5t-128 -50.5q-31 0 -73.5 11.5t-69 22t-87.5 36.5q-12 5 -19 8q-133 57 -181 57
q-25 0 -42 -13t-42 -50q-20 -31 -42.5 -40.5t-55.5 -0.5q-41 12 -48 42t15 87z" />
    <glyph glyph-name="uni1EF9" unicode="&#x1ef9;" horiz-adv-x="1232" 
d="M252 -373q-36 0 -61 23.5t-25 52.5q0 38 41 74l221 186q27 23 30.5 47t-14.5 56q-183 388 -333 792q-22 57 -66 98q-45 33 -45 84q0 39 27 63.5t75 24.5h398q58 0 84 -20.5t26 -65.5q0 -27 -14 -44.5t-49 -36.5q-20 -13 -31.5 -26t-17 -23t-3.5 -28t4.5 -28t10.5 -36
q3 -9 4 -13q63 -207 156 -401q31 -63 55 0q95 228 141 401q16 46 9.5 78t-44.5 63q-55 51 -55 96q0 37 22.5 60.5t61.5 23.5h281q43 0 67.5 -23.5t24.5 -57.5q0 -48 -43 -86q-45 -42 -78 -146q-104 -331 -254 -698q-44 -103 -71 -163t-69.5 -137t-84.5 -134
q-39 -56 -109 -56h-272zM233 1399q43 138 95.5 196t134.5 58q76 0 239 -78q150 -72 187 -72q24 0 42 15.5t46 56.5q21 36 45.5 44t56.5 -7q61 -27 15 -139q-41 -138 -88 -194t-127 -56q-32 0 -73 12t-71.5 25.5t-86.5 39.5q-13 6 -19 9q-134 63 -180 63q-24 0 -41.5 -15
t-42.5 -57q-21 -34 -43.5 -44.5t-55.5 -0.5q-41 13 -48 47t15 97z" />
    <glyph glyph-name="uni2009" unicode="&#x2009;" horiz-adv-x="321" 
 />
    <glyph glyph-name="endash" unicode="&#x2013;" horiz-adv-x="843" 
d="M117 692q-59 0 -81 20t-22 76v70q0 56 22 76t81 20h610q59 0 80.5 -20t21.5 -76v-70q0 -56 -21.5 -76t-80.5 -20h-610z" />
    <glyph glyph-name="emdash" unicode="&#x2014;" horiz-adv-x="1474" 
d="M127 539q-66 0 -89.5 20.5t-23.5 81.5v57q0 61 24 83t89 22h1221q65 0 88.5 -22t23.5 -83v-57q0 -61 -23.5 -81.5t-88.5 -20.5h-1221z" />
    <glyph glyph-name="quoteleft" unicode="&#x2018;" horiz-adv-x="487" 
d="M297 1499q68 39 121 -29q49 -64 -4 -102q-36 -29 -53 -44t-32.5 -36.5t-15.5 -40.5q0 -26 33 -37q127 -50 127 -190q0 -96 -64.5 -160.5t-158.5 -64.5q-109 0 -171.5 71.5t-62.5 196.5q0 136 81 255t200 181z" />
    <glyph glyph-name="quoteright" unicode="&#x2019;" horiz-adv-x="487" 
d="M190 813q-67 -39 -120 29q-49 64 4 102q35 28 52.5 43.5t32.5 37t15 40.5q0 26 -33 37q-127 50 -127 190q0 96 65 161t159 65q109 0 171 -72t62 -197q0 -136 -81 -255t-200 -181z" />
    <glyph glyph-name="quotesinglbase" unicode="&#x201a;" horiz-adv-x="487" 
d="M190 -289q-67 -39 -120 29q-49 64 4 102q35 28 52.5 43.5t32.5 37t15 40.5q0 26 -33 37q-127 50 -127 190q0 96 65 161t159 65q109 0 171 -72t62 -197q0 -136 -81 -255t-200 -181z" />
    <glyph glyph-name="quotedblleft" unicode="&#x201c;" horiz-adv-x="944" 
d="M285 1501q64 39 116 -28q47 -65 -4 -103q-50 -41 -73 -67t-23 -54q0 -25 31 -37q123 -50 123 -190q0 -96 -62 -160.5t-153 -64.5q-104 0 -164 71.5t-60 196.5q0 136 77.5 255t191.5 181zM494 1065q0 136 78 255t192 181q66 39 115 -28q49 -64 -5 -103q-50 -41 -73 -67
t-23 -54q0 -26 33 -37q121 -50 121 -190q0 -96 -61.5 -160.5t-151.5 -64.5q-105 0 -165 71.5t-60 196.5z" />
    <glyph glyph-name="quotedblright" unicode="&#x201d;" horiz-adv-x="944" 
d="M662 813q-66 -40 -117 29q-46 64 4 102q50 41 73 67t23 54q0 25 -31 37q-122 49 -122 190q0 96 62 161t153 65q103 0 163 -72.5t60 -196.5q0 -136 -78 -255t-190 -181zM14 1292q0 96 61.5 161t151.5 65q104 0 164 -72t60 -197q0 -136 -77.5 -255t-191.5 -181
q-64 -39 -114 29q-49 64 2 102q50 41 73 67t23 54q0 26 -31 37q-121 50 -121 190z" />
    <glyph glyph-name="ellipsis" unicode="&#x2026;" horiz-adv-x="1558" 
d="M242 -33q-91 0 -159.5 66.5t-68.5 156.5q0 96 69 165t163 69q95 0 161 -66t66 -159q0 -95 -67.5 -163.5t-161.5 -68.5h-2zM551 190q0 96 68.5 165t162.5 69q95 0 161.5 -66t66.5 -159q0 -95 -68 -163.5t-162 -68.5h-2q-91 0 -159 66.5t-68 156.5zM1085 190q0 96 69 165
t163 69q95 0 161 -66t66 -159q0 -95 -67.5 -163.5t-161.5 -68.5h-2q-91 0 -159.5 66.5t-68.5 156.5z" />
    <glyph glyph-name="guilsinglleft" unicode="&#x2039;" horiz-adv-x="679" 
d="M340 0q-31 0 -51 12t-39 41l-193 318q-5 7 -16.5 25.5t-14 24t-8 18t-7 22.5t-1.5 24q0 21 6.5 39t14 30t28.5 40l224 328q27 41 77 41h263q36 0 45.5 -29.5t-17.5 -67.5l-258 -352q-3 -5 -7 -10.5t-6 -8t-3.5 -7t-1.5 -9.5q0 -13 16 -35l232 -346q27 -37 18 -67.5
t-47 -30.5h-254z" />
    <glyph glyph-name="guilsinglright" unicode="&#x203a;" horiz-adv-x="679" 
d="M340 963q31 0 51 -12.5t39 -41.5l193 -317q5 -8 14 -22.5t12 -20t8.5 -16t7.5 -17.5t3.5 -17t1.5 -22q0 -21 -6.5 -39t-14 -29t-28.5 -40l-224 -328q-27 -41 -78 -41h-262q-36 0 -45.5 29t17.5 67l258 353q3 5 7 10t6 8t3.5 7t1.5 9q0 13 -16 35l-232 346q-27 37 -18 68
t47 31h254z" />
    <glyph glyph-name="fraction" unicode="&#x2044;" horiz-adv-x="325" 
d="M-301 0q-35 0 -48 18.5t5 55.5l418 710l364 662q27 55 82 55h117q34 0 47.5 -19.5t-6.5 -54.5l-424 -733l-356 -639q-16 -29 -34 -42t-48 -13h-117z" />
    <glyph glyph-name="Euro" unicode="&#x20ac;" horiz-adv-x="1617" 
d="M971 -35q-280 0 -482.5 154.5t-275.5 398.5l-141 -2q-39 0 -54.5 15.5t-15.5 54.5v59q0 40 15.5 55t54.5 15h106v39q0 33 2 47h-108q-39 0 -54.5 14t-15.5 53v62q0 39 15.5 54t54.5 15l143 -2q78 238 282 382.5t459 144.5q332 0 564 -209q84 -75 60.5 -149.5
t-165.5 -182.5q-137 -100 -207 35q-77 146 -152.5 209t-168.5 63q-112 0 -185 -80.5t-92 -214.5l457 4q40 0 56 -15t16 -54v-62q0 -39 -15.5 -53t-56.5 -14l-453 4q5 -38 19 -94l512 4q40 0 56 -14.5t16 -55.5v-59q0 -39 -16 -54.5t-56 -15.5l-428 2q68 -104 165 -163.5
t208 -59.5q100 0 184.5 34t171.5 103q28 24 56.5 21.5t62.5 -35.5q37 -36 37.5 -72t-37.5 -92q-91 -129 -252 -209t-342 -80z" />
    <glyph glyph-name="trademark" unicode="&#x2122;" horiz-adv-x="1058" 
d="M510 893q-262 0 -382 72.5t-120 236.5t120 237.5t382 73.5h41q260 0 380 -73.5t120 -237.5t-119.5 -236.5t-380.5 -72.5h-41zM88 1204q0 -133 96 -190.5t326 -57.5h41q229 0 325.5 57.5t96.5 190.5q0 131 -96.5 188.5t-325.5 57.5h-41q-230 0 -326 -57t-96 -189z
M182 1329v17q0 24 27 24h225q25 0 25 -24v-17q0 -24 -25 -24h-61q-17 0 -17 -17v-229q0 -25 -24 -25h-23q-24 0 -24 25v229q0 17 -17 17h-59q-27 0 -27 24zM500 1059v287q0 14 5.5 19t20.5 5h52q19 0 24 -18l66 -174q9 -27 18 0l64 174q8 18 26 18h47q25 0 25 -24v-287
q0 -25 -25 -25h-22q-25 0 -25 25l2 141q0 7 -2.5 10t-6 1t-5.5 -9l-55 -149q-5 -19 -25 -19h-12q-24 0 -29 19l-55 153q-4 10 -9.5 9.5t-5.5 -11.5v-145q0 -25 -24 -25h-23q-15 0 -20.5 5.5t-5.5 19.5z" />
    <glyph glyph-name="uni2150" unicode="&#x2150;" horiz-adv-x="1456" 
d="M82 700q-37 0 -56.5 16.5t-19.5 45.5q0 37 39 55q36 16 46.5 35t10.5 55v350q0 27 -12 38t-49 20q-43 13 -43 49q0 29 27 51t108 51q64 24 97 31.5t75 7.5q57 0 57 -45v-553q0 -34 10.5 -53.5t41.5 -36.5q30 -20 30 -57q0 -28 -17 -44t-46 -16h-299zM139 74l418 710
l365 662q27 55 82 55h116q34 0 47.5 -19.5t-6.5 -54.5l-424 -733l-356 -639q-16 -29 -34 -42t-48 -13h-117q-35 0 -48 18.5t5 55.5zM809 580q0 113 25 180q13 39 59 39h491q42 0 54 -11.5t12 -46.5q0 -68 -35 -159l-205 -545q-8 -21 -21 -29t-40 -8h-209q-57 0 -31 57
l250 541q12 30 12 37q0 27 -43 27q-39 0 -75.5 -19t-83.5 -61q-45 -40 -70.5 -57t-46.5 -17q-43 0 -43 72z" />
    <glyph glyph-name="uni2151" unicode="&#x2151;" horiz-adv-x="1587" 
d="M82 700q-37 0 -56.5 16.5t-19.5 45.5q0 37 39 55q36 16 46.5 35t10.5 55v350q0 27 -12 38t-49 20q-43 13 -43 49q0 29 27 51t108 51q64 24 97 31.5t75 7.5q57 0 57 -45v-553q0 -34 10.5 -53.5t41.5 -36.5q30 -20 30 -57q0 -28 -17 -44t-46 -16h-299zM139 74l418 710
l365 662q27 55 82 55h116q34 0 47.5 -19.5t-6.5 -54.5l-424 -733l-356 -639q-16 -29 -34 -42t-48 -13h-117q-35 0 -48 18.5t5 55.5zM819 489q0 135 108 224.5t275 89.5q174 0 274.5 -86.5t100.5 -241.5q0 -97 -40 -180t-136 -178q-8 -7 -43 -43.5t-55 -53.5q-36 -28 -93 -28
h-223q-23 0 -27.5 16.5t13.5 28.5l180 145q9 6 6 14.5t-12 8.5h-6q-148 0 -235 77t-87 207zM1100 522q0 -78 34.5 -126t88.5 -48q41 0 68.5 36t27.5 87q0 77 -35.5 125.5t-87.5 48.5q-41 0 -68.5 -35t-27.5 -88z" />
    <glyph glyph-name="uni2152" unicode="&#x2152;" horiz-adv-x="2121" 
d="M82 700q-37 0 -56.5 16.5t-19.5 45.5q0 37 39 55q36 16 46.5 35t10.5 55v350q0 27 -12 38t-49 20q-43 13 -43 49q0 29 27 51t108 51q64 24 97 31.5t75 7.5q57 0 57 -45v-553q0 -34 10.5 -53.5t41.5 -36.5q30 -20 30 -57q0 -28 -17 -44t-46 -16h-299zM139 74l418 710
l365 662q27 55 82 55h116q34 0 47.5 -19.5t-6.5 -54.5l-424 -733l-356 -639q-16 -29 -34 -42t-48 -13h-117q-35 0 -48 18.5t5 55.5zM807 664q0 29 27 51t108 51q64 24 97 31.5t75 7.5q57 0 57 -45v-553q0 -34 10.5 -53.5t41.5 -36.5q30 -20 30 -58q0 -28 -17 -43.5
t-46 -15.5h-299q-37 0 -56.5 16.5t-19.5 44.5q0 38 39 56q36 16 46.5 35t10.5 55v350q0 27 -11.5 37.5t-49.5 19.5q-43 13 -43 50zM1249 403q0 119 59 214.5t157 147.5t214 52q185 -2 307.5 -126.5t122.5 -311.5q0 -117 -60 -209t-156 -140t-207 -48q-193 0 -315 116.5
t-122 304.5zM1534 500q0 -136 55 -249.5t129 -113.5q49 0 77 44.5t28 117.5q0 91 -24.5 173.5t-66.5 133.5t-90 51q-49 0 -78.5 -43t-29.5 -114z" />
    <glyph glyph-name="uni2153" unicode="&#x2153;" horiz-adv-x="1529" 
d="M82 700q-37 0 -56.5 16.5t-19.5 45.5q0 37 39 55q36 16 46.5 35t10.5 55v350q0 27 -12 38t-49 20q-43 13 -43 49q0 29 27 51t108 51q64 24 97 31.5t75 7.5q57 0 57 -45v-553q0 -34 10.5 -53.5t41.5 -36.5q30 -20 30 -57q0 -28 -17 -44t-46 -16h-299zM139 74l418 710
l365 662q27 55 82 55h116q34 0 47.5 -19.5t-6.5 -54.5l-424 -733l-356 -639q-16 -29 -34 -42t-48 -13h-117q-35 0 -48 18.5t5 55.5zM840 678q54 63 143.5 99t196.5 36q139 0 228 -59t89 -148q0 -88 -129 -131q-14 -5 -14.5 -15t12.5 -16q156 -61 156 -194q0 -114 -103 -188
t-260 -74q-202 0 -317 100q-49 37 -26 74.5t136 93.5q41 22 63.5 20t35.5 -32q28 -60 54 -87.5t62 -27.5q34 0 55 23.5t21 60.5q0 66 -39 96.5t-119 32.5q-30 0 -39.5 11.5t-9.5 41.5q0 47 13 67.5t49 24.5q65 8 94 28t29 67q0 34 -20 59t-50 25q-31 0 -52 -23.5t-42 -77.5
q-11 -29 -33.5 -34t-73.5 14q-94 37 -118 66t8 67z" />
    </font>
</defs>
</svg>
