<?xml version="1.0" standalone="no"?>
<!DOCTYPE svg PUBLIC "-//W3C//DTD SVG 1.1//EN" "http://www.w3.org/Graphics/SVG/1.1/DTD/svg11.dtd" >
<svg xmlns="http://www.w3.org/2000/svg" xmlns:xlink="http://www.w3.org/1999/xlink" version="1.1">
<metadata>
Created by FontForge 20201107 at Sun Sep 14 15:44:27 2025
 By 
copyright missing
</metadata>
<defs>
<font id="VCHenrietta-Bold" horiz-adv-x="0" >
  <font-face 
    font-family="VC Henrietta Trial"
    font-weight="700"
    font-stretch="normal"
    units-per-em="2048"
    panose-1="0 0 0 0 0 0 0 0 0 0"
    ascent="1638"
    descent="-410"
    x-height="1149"
    cap-height="1509"
    bbox="-343.765 -740.918 2685 2042"
    underline-thickness="102"
    underline-position="-255"
    unicode-range="U+0020-A78C"
  />
<missing-glyph horiz-adv-x="917" 
d="M922 1520v-1520h-926v1520h926zM41 106l391 652l-391 651v-1303zM57 1475l402 -670l403 670h-805zM59 45h803l-401 668zM487 758l392 -656v1313z" />
    <glyph glyph-name=".notdef" horiz-adv-x="917" 
d="M922 1520v-1520h-926v1520h926zM41 106l391 652l-391 651v-1303zM57 1475l402 -670l403 670h-805zM59 45h803l-401 668zM487 758l392 -656v1313z" />
    <glyph glyph-name=".null" 
 />
    <glyph glyph-name="nonmarkingreturn" horiz-adv-x="682" 
 />
    <glyph glyph-name="space" unicode=" " horiz-adv-x="368" 
 />
    <glyph glyph-name="exclam" unicode="!" horiz-adv-x="530" 
d="M274 504q-135 -6 -155 102q-32 157 -60 350q-44 294 -39 430q3 72 57 99.5t193 30.5q137 3 190 -25.5t52 -104.5q-4 -110 -63 -448q-5 -29 -15 -96.5t-20 -125.5t-21 -110q-17 -99 -119 -102zM18 205q0 98 74 168.5t174 70.5t172 -70.5t72 -168.5q0 -97 -72.5 -169.5
t-171.5 -72.5q-100 0 -174 72.5t-74 169.5z" />
    <glyph glyph-name="quotedbl" unicode="&#x22;" horiz-adv-x="624" 
d="M150 911q-43 0 -64 16t-31 60q-20 88 -35 213t-14 195q-2 63 33 94.5t108 32.5q78 2 114.5 -28.5t33.5 -94.5q-11 -260 -47 -410q-12 -43 -34.5 -60.5t-63.5 -17.5zM330 1395q-2 63 33 94.5t108 32.5q78 2 114 -28.5t33 -94.5q-11 -260 -47 -410q-12 -43 -34.5 -60.5
t-63.5 -17.5q-43 0 -63.5 15.5t-30.5 60.5q-20 88 -35 213t-14 195z" />
    <glyph glyph-name="numbersign" unicode="#" horiz-adv-x="1511" 
d="M729 0q-52 0 -67 31t0 80l59 227h-143l-62 -234q-17 -61 -46.5 -82.5t-84.5 -21.5h-209q-95 0 -67 111l59 227h-43q-67 0 -91 22t-24 86v103q0 64 24 86t91 22h127l43 162h-88q-67 0 -91 22.5t-24 86.5v102q0 64 24 86.5t91 22.5h172l72 270q16 58 45.5 79t78.5 21h213
q57 0 71.5 -25t2.5 -73l-71 -272h141l72 270q17 59 49 79.5t96 20.5h192q57 0 71.5 -25t2.5 -73l-72 -272h46q65 0 88.5 -22.5t23.5 -86.5v-102q0 -64 -23.5 -86.5t-88.5 -22.5h-132l-40 -162h90q65 0 88.5 -22t23.5 -86v-103q0 -64 -23.5 -86t-88.5 -22h-177l-61 -234
q-17 -61 -46.5 -82.5t-84.5 -21.5h-209zM664 657h141l43 162h-143z" />
    <glyph glyph-name="dollar" unicode="$" horiz-adv-x="1355" 
d="M680 -131q-75 0 -108 24t-29 76l4 41q-138 12 -255 51t-190 97q-45 36 -63 68t-7.5 66.5t33.5 64.5t70 77q8 7 28.5 28t29.5 29t26.5 23t28.5 21.5t25.5 12t27.5 5.5q28 0 52.5 -23.5t56.5 -72.5q70 -110 139 -172t143 -62q72 0 117 42t45 108q0 71 -68.5 118.5
t-218.5 79.5q-270 54 -395 163t-125 294q0 134 69 237.5t183.5 163t263.5 78.5l-6 58q-5 52 32.5 74t133.5 22q77 0 108.5 -24t22.5 -78l-8 -54q236 -28 373 -127q50 -34 70.5 -66t12.5 -66t-34 -67t-76 -77q-103 -92 -150 -92q-56 0 -102 77q-70 113 -128 162t-124 49
q-58 0 -101.5 -39t-43.5 -96q0 -67 68.5 -113t215.5 -75q275 -51 399 -162.5t124 -308.5q0 -204 -141.5 -332t-377.5 -160l3 -47q3 -51 -33.5 -73.5t-120.5 -22.5z" />
    <glyph glyph-name="percent" unicode="%" horiz-adv-x="1712" 
d="M299 0q-51 0 -59 27t24 71l494 713l426 647q34 51 104 51h127q60 0 73 -27t-20 -73l-481 -690l-438 -668q-34 -51 -105 -51h-145zM12 1139q0 158 125 274.5t295 116.5q174 0 293 -109.5t119 -269.5q0 -161 -127.5 -279t-300.5 -118q-171 0 -287.5 110.5t-116.5 274.5z
M330 1169q0 -94 34.5 -161.5t81.5 -67.5q33 0 56.5 44t23.5 120q0 97 -33 168t-79 71q-84 0 -84 -174zM870 344q0 104 57.5 193.5t155 142.5t209.5 53q172 0 290 -108t118 -269t-127 -280t-299 -119t-288 111.5t-116 275.5zM1186 377q0 -93 36 -162.5t83 -69.5
q34 0 55.5 42.5t21.5 117.5q0 99 -33 171.5t-79 72.5q-39 0 -61.5 -44.5t-22.5 -127.5z" />
    <glyph glyph-name="ampersand" unicode="&#x26;" horiz-adv-x="1613" 
d="M524 -27q-225 0 -374.5 133.5t-149.5 329.5q0 126 79.5 224t203.5 157q23 10 25 29t-13 33q-123 134 -123 251q0 186 162.5 295t449.5 109q178 0 327.5 -73t236.5 -187q35 -46 34 -78.5t-31 -60t-104 -70.5q-113 -66 -176 -66q-28 0 -44 8.5t-28 30.5q-75 138 -123.5 193
t-105.5 55q-44 0 -73 -23.5t-29 -60.5q0 -58 75 -121q234 -200 410 -381q142 -142 334 -407q10 -13 21 -24t18 -16t22.5 -15t22.5 -15q59 -45 59 -117q0 -56 -28 -81t-93 -25h-338q-66 0 -112 55q-6 8 -18 22.5t-16.5 20t-13 14t-13.5 10t-13 2.5t-15.5 -3t-17.5 -12
q-82 -61 -194.5 -98.5t-233.5 -37.5zM481 512q0 -103 64 -179.5t153 -76.5q28 0 63.5 12.5t55.5 28.5q21 17 21.5 34t-15.5 38q-49 65 -134 150t-138 122q-28 21 -43 0q-27 -41 -27 -129z" />
    <glyph glyph-name="quotesingle" unicode="'" horiz-adv-x="301" 
d="M150 911q-43 0 -64 16t-31 60q-20 88 -35 213t-14 195q-2 63 33 94.5t108 32.5q78 2 114.5 -28.5t33.5 -94.5q-11 -260 -47 -410q-12 -43 -34.5 -60.5t-63.5 -17.5z" />
    <glyph glyph-name="parenleft" unicode="(" horiz-adv-x="751" 
d="M670 -293q-64 0 -185 78q-216 141 -344.5 368.5t-128.5 469.5t128 469t345 368q121 78 185 78q32 0 51.5 -19.5t21.5 -50.5q0 -43 -38 -104q-81 -130 -125.5 -320.5t-44.5 -422.5q0 -230 44.5 -420t125.5 -320q38 -61 38 -104q-2 -31 -21.5 -50.5t-51.5 -19.5z" />
    <glyph glyph-name="parenright" unicode=")" horiz-adv-x="751" 
d="M82 1536q63 0 184 -78q217 -141 345 -368t128 -469t-128.5 -469.5t-344.5 -368.5q-121 -78 -184 -78q-32 0 -52 19.5t-22 50.5q0 41 39 104q81 130 125.5 321t44.5 423q0 230 -44.5 419.5t-125.5 319.5q-39 63 -39 104q2 31 22 50.5t52 19.5z" />
    <glyph glyph-name="asterisk" unicode="*" horiz-adv-x="843" 
d="M176 762q-94 67 -101 119.5t70 85.5l183 82q17 8 12.5 23.5t-23.5 12.5l-194 -38q-85 -19 -109 27t11 155q73 219 188 92l133 -145q12 -12 24.5 -2.5t2.5 24.5l-97 174q-83 148 146 148q228 0 145 -148l-96 -174q-10 -15 2.5 -24.5t24.5 2.5l133 145q115 127 188 -92
q35 -109 11 -155t-109 -27l-195 38q-20 3 -24.5 -12.5t14.5 -23.5l182 -82q78 -33 71 -85.5t-101 -119.5q-186 -134 -207 37l-23 194q-2 11 -9 15.5t-14 0t-9 -15.5l-23 -194q-21 -171 -207 -37z" />
    <glyph glyph-name="plus" unicode="+" horiz-adv-x="907" 
d="M381 324q-63 0 -84 22.5t-21 87.5v168h-155q-65 0 -88 21.5t-23 83.5v141q0 62 23 83t88 21h155v172q0 62 21.5 84.5t83.5 22.5h145q62 0 83.5 -22.5t21.5 -84.5v-172h160q62 0 84 -21t22 -83v-141q0 -62 -22 -83.5t-84 -21.5h-160v-168q0 -65 -21 -87.5t-84 -22.5h-145z
" />
    <glyph glyph-name="comma" unicode="," horiz-adv-x="552" 
d="M217 -295q-68 -39 -127 35q-61 76 -6 119q5 4 17 13.5t17 13t15 11.5t14.5 12.5t12 11.5t10.5 12t7 11.5t5.5 12.5t1.5 12q0 23 -30 35q-146 68 -146 227q0 115 74.5 190t187.5 75q128 0 201.5 -82.5t73.5 -218.5q0 -148 -91.5 -282.5t-236.5 -207.5z" />
    <glyph glyph-name="hyphen" unicode="-" horiz-adv-x="681" 
d="M131 520q-71 0 -96 22.5t-25 86.5v92q0 64 25 86t96 22h420q71 0 96 -22t25 -86v-92q0 -64 -25 -86.5t-96 -22.5h-420z" />
    <glyph glyph-name="period" unicode="." horiz-adv-x="555" 
d="M276 -37q-107 0 -187.5 82t-80.5 191q0 110 81 189t190 79q110 0 189 -79t79 -189t-79.5 -191.5t-188.5 -81.5h-3z" />
    <glyph glyph-name="slash" unicode="/" horiz-adv-x="841" 
d="M-70 -342q-35 0 -47 21.5t2 62.5l613 1708q20 59 92 59h219q35 0 47 -21t-2 -61l-612 -1710q-20 -59 -92 -59h-220z" />
    <glyph glyph-name="zero" unicode="0" horiz-adv-x="1544" 
d="M780 -35q-170 0 -313.5 58.5t-243 163.5t-155.5 254t-56 325q0 162 58 306.5t158.5 248t242 164t301.5 59.5q217 -1 391 -109t271.5 -299.5t97.5 -430.5q0 -156 -60 -294t-161.5 -235.5t-239.5 -154t-291 -56.5zM524 952q0 -172 44 -336t120.5 -269t161.5 -105
q79 0 124.5 84t45.5 237q0 175 -44.5 337.5t-118.5 263t-155 102.5q-83 1 -130.5 -83t-47.5 -231z" />
    <glyph glyph-name="one" unicode="1" horiz-adv-x="790" 
d="M178 0q-75 0 -108 30.5t-33 73.5q0 56 65 93q48 28 64.5 62.5t15.5 102.5v717q0 40 -18.5 61t-67.5 34q-76 20 -76 81q0 57 52 100t194 99q98 39 157 53.5t132 14.5q52 0 74 -17t22 -61l2 -1082q-1 -67 13.5 -102t54.5 -65q51 -36 51 -93q-2 -43 -29 -73t-86 -29h-479z
" />
    <glyph glyph-name="two" unicode="2" horiz-adv-x="1306" 
d="M156 0q-52 0 -75.5 30.5t-23.5 94.5q0 98 30.5 174t94.5 154q62 78 197 186q202 162 294 272t91 213q0 75 -33 118.5t-84 43.5q-66 0 -100 -70.5t-80 -261.5q-12 -49 -48 -59.5t-118 8.5q-192 43 -253 98.5t-23 151.5q80 183 250 282t407 99q166 0 301.5 -60.5t214 -171
t78.5 -249.5q0 -59 -13 -114t-40.5 -104t-55.5 -88.5t-73 -83.5t-78 -72.5t-84 -70.5q-53 -43 -102.5 -80t-95 -68.5t-64.5 -45.5q-24 -17 -33.5 -28.5t-9.5 -27.5q0 -14 18.5 -18t71.5 -4q89 0 172 47t215 158q28 24 43 35.5t36.5 21.5t41.5 10q75 0 75 -102
q0 -93 -51 -287q-17 -67 -46 -99t-95 -32h-952z" />
    <glyph glyph-name="three" unicode="3" horiz-adv-x="1273" 
d="M629 -25q-163 0 -313 44t-248 122q-66 54 -67.5 103t60 103.5t199.5 127.5q78 43 116 38t60 -60q48 -121 90.5 -174.5t106.5 -53.5q57 0 91 43t34 119q0 128 -62.5 187t-210.5 69q-51 4 -70.5 29.5t-19.5 81.5q0 92 18.5 127.5t78.5 44.5q62 9 101.5 20.5t70 32.5
t44 53.5t13.5 81.5q0 74 -33.5 122t-83.5 48q-58 0 -91 -47.5t-79 -187.5q-12 -35 -33.5 -49.5t-57.5 -11t-95 25.5q-172 63 -216 118.5t15 137.5q89 123 255 193.5t366 70.5q249 0 407 -113.5t158 -292.5q0 -147 -225 -237q-21 -8 -23.5 -25.5t21.5 -29.5
q264 -123 264 -375q0 -136 -83 -247.5t-230 -175t-328 -63.5z" />
    <glyph glyph-name="four" unicode="4" horiz-adv-x="1267" 
d="M651 0q-67 0 -98 30.5t-31 73.5q0 55 62 93q38 26 54 54t17 79q-2 17 -8.5 24.5t-21.5 7.5l-469 3q-100 0 -130 29.5t-30 119.5q0 100 15.5 153t66.5 136q165 268 395 538q79 92 109 116q55 45 144 51q20 1 44 1h277q33 0 52 -19.5t19 -49.5v-680q0 -23 13 -33t47 -10
q53 0 71.5 -15t18.5 -59v-203q0 -35 -24 -50t-91 -28q-31 -10 -33 -38q3 -48 19 -75.5t51 -53.5q53 -37 53 -93q-2 -44 -29.5 -73.5t-89.5 -28.5h-473zM326 776q-15 -19 -9.5 -43t37.5 -24h238q35 0 45 11.5t10 51.5v350q0 28 -16 32t-35 -17q-145 -157 -270 -361zM655 336
v26v-26zM1120 338v24v-24z" />
    <glyph glyph-name="five" unicode="5" horiz-adv-x="1275" 
d="M584 -27q-164 0 -301.5 50t-219.5 139q-39 43 -46 78t22 73t86 76.5t160 93.5q67 38 104 29.5t57 -70.5q66 -213 172 -213q66 0 102 67.5t36 160.5q0 135 -44.5 210.5t-123.5 75.5q-57 0 -127 -61q-57 -51 -127 -53q-133 -5 -199 30.5t-59 110.5l59 653q9 86 101 86h776
q55 0 82.5 -33t40.5 -102q28 -176 28 -200q0 -45 -21 -72t-57 -27q-58 0 -174 78q-143 98 -262 98q-38 0 -49.5 -13t-13.5 -42l-15 -205q-3 -41 43 -24q92 37 166 37q219 0 353.5 -130.5t134.5 -343.5q0 -252 -189 -404.5t-495 -152.5z" />
    <glyph glyph-name="six" unicode="6" horiz-adv-x="1394" 
d="M692 -23q-318 0 -499 163t-181 456q0 183 66 332.5t223 322.5q138 147 197 205q33 30 67.5 41.5t98.5 11.5h411q41 0 49.5 -30.5t-20.5 -53.5l-324 -284q-11 -11 -8.5 -22t12.5 -11h27q263 0 417 -143.5t154 -389.5q0 -171 -87 -307.5t-245 -213.5t-358 -77zM487 604
q0 -147 62.5 -236t157.5 -89q67 0 113 66t46 163q0 151 -61 238.5t-160 87.5q-66 0 -112 -66.5t-46 -163.5z" />
    <glyph glyph-name="seven" unicode="7" horiz-adv-x="1142" 
d="M229 0q-106 0 -59 109l444 1034q15 38 19 69q1 23 -16.5 36.5t-47.5 13.5q-74 0 -138.5 -33.5t-143.5 -104.5q-57 -52 -83 -73.5t-63 -40.5t-71 -19q-40 0 -59 38.5t-19 98.5q0 70 13 170t34 154q13 31 37 44t65 13h875q58 0 83.5 -9t34 -29t9.5 -66q1 -79 -12.5 -139.5
t-51.5 -169.5l-362 -1033q-12 -37 -34 -50t-77 -13h-377z" />
    <glyph glyph-name="eight" unicode="8" horiz-adv-x="1409" 
d="M729 -37q-319 0 -519 131t-202 336q3 228 271 377q17 9 16.5 20t-14.5 19q-211 105 -211 291q0 182 171 290.5t457 108.5q300 0 478 -113t178 -303q0 -188 -217 -297q-12 -6 -12 -15.5t12 -12.5q117 -42 190.5 -139.5t73.5 -237.5q1 -198 -190.5 -326.5t-481.5 -128.5z
M524 457q0 -107 53 -173t136 -63q81 1 127.5 66.5t46.5 169.5q0 92 -51 151.5t-129 59.5q-81 0 -132 -59t-51 -152zM573 1092q0 -78 39 -133.5t93 -55.5q62 0 101.5 52t41.5 130q-2 89 -41 144t-102 55q-56 0 -94 -53t-38 -139z" />
    <glyph glyph-name="nine" unicode="9" horiz-adv-x="1394" 
d="M702 1532q318 0 499 -163t181 -456q0 -183 -65.5 -332.5t-222.5 -322.5q-138 -147 -197 -205q-33 -30 -67.5 -41.5t-98.5 -11.5h-412q-41 0 -49 30.5t21 53.5l323 285q11 11 8.5 21.5t-12.5 10.5h-26q-263 0 -417.5 143.5t-154.5 389.5q0 171 87 307.5t245 213.5t358 77z
M528 1001q0 -150 61 -237.5t161 -87.5q66 0 111.5 66t45.5 163q0 147 -62 236.5t-157 89.5q-67 0 -113.5 -66.5t-46.5 -163.5z" />
    <glyph glyph-name="colon" unicode=":" horiz-adv-x="571" 
d="M285 -37q-107 0 -188 82t-81 191q0 110 81 189t190 79q110 0 189 -79t79 -189t-79.5 -191.5t-188.5 -81.5h-2zM16 842q0 110 81 189t190 79q110 0 189 -79t79 -189t-79.5 -191.5t-188.5 -81.5h-2q-107 0 -188 82t-81 191z" />
    <glyph glyph-name="semicolon" unicode=";" horiz-adv-x="571" 
d="M225 -295q-68 -39 -127 35q-61 76 -6 119q6 5 17.5 13.5t17 13t15 12t14.5 12t12 11.5t10.5 12.5t7.5 11.5t5.5 12t1.5 12q0 23 -31 35q-146 68 -146 227q0 115 75 190t188 75q128 0 201 -82.5t73 -218.5q0 -148 -91.5 -282.5t-236.5 -207.5zM16 842q0 110 81 189t190 79
q110 0 189 -79t79 -189t-79.5 -191.5t-188.5 -81.5h-2q-107 0 -188 82t-81 191z" />
    <glyph glyph-name="question" unicode="?" horiz-adv-x="1251" 
d="M582 502q-82 0 -111.5 28.5t-40.5 108.5q-18 124 25.5 218t169.5 185q61 47 85.5 76.5t24.5 61.5q0 46 -30.5 75t-73.5 29q-52 0 -96 -56t-89 -175q-14 -36 -41 -42t-81 19q-204 101 -256.5 188.5t41.5 170.5q166 147 534 147q169 0 309 -60t219.5 -163.5t79.5 -227.5
q0 -115 -68.5 -194t-215.5 -158q-94 -50 -135 -82t-80 -82q-29 -39 -62 -53t-108 -14zM358 205q0 98 73 168.5t173 70.5t172 -70.5t72 -168.5q0 -97 -72.5 -169.5t-171.5 -72.5t-172.5 72.5t-73.5 169.5z" />
    <glyph glyph-name="at" unicode="@" horiz-adv-x="2109" 
d="M930 -401q-192 -1 -359.5 62.5t-286.5 174t-187 267t-68 335.5q0 239 84 446.5t229.5 352.5t347.5 228t432 83q205 0 383 -69t303 -187.5t197 -284t72 -352.5q0 -209 -70 -374t-197 -258t-290 -93q-252 0 -367 121q-33 29 -70 2q-121 -96 -274 -96q-179 0 -283 130.5
t-104 354.5q0 150 48 286.5t129 234.5t190 157t227 62q103 3 221 -47q86 -35 162 -35q17 0 66 9t81 9q45 0 65.5 -27t14.5 -69q-4 -27 -19 -89t-20 -102l-67 -516q-18 -145 79 -145q55 0 103 62t76 167t28 226q0 315 -184.5 501.5t-511.5 186.5q-181 0 -332.5 -61.5
t-256.5 -172.5t-163.5 -270t-58.5 -348q0 -292 173 -460.5t484 -168.5q115 0 351 45q84 15 114 -57q17 -42 6 -71t-51 -56q-66 -42 -185 -68t-261 -26zM893 453q0 -78 25 -116t61 -38q74 0 84 74l63 403q8 54 -11 83.5t-62 29.5q-44 0 -81.5 -68t-58 -167.5t-20.5 -200.5z
" />
    <glyph glyph-name="A" unicode="A" horiz-adv-x="1587" 
d="M90 0q-94 0 -94 100q0 61 47 105q42 39 61 100q120 389 193 580q131 337 229 518q35 65 66.5 90t77.5 25q16 0 54 -3.5t52 -3.5q21 0 58.5 3.5t56.5 3.5q38 0 62 -18.5t46 -53.5q75 -118 136.5 -252.5t158.5 -376.5q87 -220 191 -526q3 -10 9 -21t10 -17.5t14.5 -19.5
t13 -15.5t16.5 -17.5t15 -16q28 -36 28 -86q0 -39 -20 -68.5t-66 -29.5h-555q-48 0 -74 28.5t-26 71.5q0 66 63 113q19 14 29 30t12 28t2 30q0 32 -6 59q-11 48 -61 48q-68 2 -207 2q-29 0 -91 -1t-93 -1q-53 0 -66 -37q-12 -36 -12 -62q0 -40 55 -98q51 -53 51 -109
q0 -102 -82 -102h-354zM545 731q-16 -65 45 -65h209q25 0 31.5 16.5t-3.5 48.5q-40 131 -125 293q-11 18 -23.5 17t-21.5 -19q-34 -66 -66.5 -149.5t-45.5 -141.5z" />
    <glyph glyph-name="B" unicode="B" horiz-adv-x="1499" 
d="M139 0q-59 0 -85.5 30.5t-26.5 73.5q0 57 53 93q38 28 51 62t12 103v785q2 69 -11.5 103.5t-51.5 60.5q-53 38 -53 94q0 43 25 73.5t83 30.5h772q267 0 390.5 -83t123.5 -265q0 -79 -46.5 -146t-155.5 -143q-19 -12 -19 -27t19 -24q140 -70 205 -167t65 -230
q0 -182 -121.5 -303t-318.5 -121h-910zM616 430q0 -211 179 -211q87 0 145.5 62t58.5 143q0 132 -88 205q-61 49 -123 49q-52 0 -124 -37q-48 -26 -48 -76v-135zM616 911q0 -24 17 -31.5t37 3.5q17 9 82 40t96 52q80 54 80 147q0 76 -54 118t-161 42h-27q-70 0 -70 -63v-308
z" />
    <glyph glyph-name="C" unicode="C" horiz-adv-x="1468" 
d="M821 -39q-178 0 -332 68t-256 179t-159.5 250.5t-57.5 284.5q0 175 66 324.5t176 249t253 155.5t298 56q166 0 299.5 -42.5t255.5 -139.5q101 -81 70 -167.5t-207 -211.5q-48 -34 -92 -44t-81.5 9t-60.5 69q-67 145 -129 206t-139 61q-91 0 -142 -84t-51 -215
q0 -165 58 -308t160.5 -228t224.5 -85q86 0 159.5 30t159.5 89q29 24 59.5 20t71.5 -43q39 -35 39 -80.5t-45 -109.5q-92 -128 -255.5 -210.5t-342.5 -82.5z" />
    <glyph glyph-name="D" unicode="D" horiz-adv-x="1579" 
d="M141 0q-59 0 -85.5 30.5t-26.5 73.5q0 57 53 93q38 28 51 62t12 103v785q1 68 -13.5 103t-53.5 63q-51 39 -51 94q2 44 27.5 73.5t82.5 28.5h635q376 0 585.5 -192t209.5 -576q0 -188 -61 -331t-174.5 -232t-268 -133.5t-348.5 -44.5h-574zM616 426q0 -89 42 -136.5
t118 -47.5q134 0 206.5 116t72.5 332q0 153 -51 286t-139 211.5t-191 78.5q-58 0 -58 -56v-784z" />
    <glyph glyph-name="E" unicode="E" horiz-adv-x="1366" 
d="M141 0q-59 0 -85.5 30.5t-26.5 73.5q0 57 53 93q38 28 51 62t12 103v785q1 68 -13.5 103t-53.5 63q-51 39 -51 94q0 43 26 73t84 29h987q50 0 76 -17t41 -62q74 -230 74 -306q0 -43 -18 -66.5t-52 -23.5q-31 0 -82.5 25.5t-92.5 53t-105 73.5q-72 52 -119 74t-92 22
q-69 0 -103.5 -46t-34.5 -126v-86q0 -55 18 -74.5t71 -19.5h356q34 0 54 -20t20 -52q0 -89 -68 -184q-27 -36 -50 -52t-61 -16q-37 0 -117.5 33.5t-105.5 34.5q-117 3 -117 -191v-104q0 -75 34 -114t98 -38q17 0 37 5t44 15.5t42.5 19t46 24.5t39 23t37 23t26.5 17
q43 28 97 64.5t74.5 49.5t47.5 23.5t53 10.5q74 0 74 -82q0 -46 -43 -199q-38 -133 -68.5 -177t-101.5 -44h-1012z" />
    <glyph glyph-name="F" unicode="F" horiz-adv-x="1318" 
d="M141 0q-59 0 -85.5 30.5t-26.5 73.5q0 57 53 93q38 28 51 62t12 103v785q1 68 -13.5 103t-53.5 63q-51 39 -51 94q0 43 26 73t84 29h987q50 0 76 -17t41 -62q78 -243 78 -328q0 -44 -18.5 -67t-51.5 -23q-15 0 -34 6t-43 19.5t-42 24t-46.5 32t-39.5 29.5t-39 31l-28 22
q-126 106 -215 106q-146 0 -146 -201v-57q0 -71 18 -94t71 -23h356q34 0 54 -19.5t20 -51.5q0 -47 -24.5 -110.5t-57.5 -102.5q-31 -39 -90 -39q-35 0 -124.5 33.5t-123.5 33.5q-45 0 -71 -37.5t-26 -101.5v-135q-1 -70 18.5 -106t70.5 -68q68 -40 65 -99q0 -44 -35.5 -74.5
t-113.5 -29.5h-482z" />
    <glyph glyph-name="G" unicode="G" horiz-adv-x="1550" 
d="M829 -25q-176 0 -327 58.5t-258 161.5t-167.5 249.5t-60.5 317.5q0 161 65.5 305t178 247t269 163.5t331.5 60.5q178 0 343 -66.5t251 -166.5q56 -65 35 -123t-123 -123q-90 -58 -141 -85.5t-80 -27.5q-46 0 -90 72q-87 142 -150 201t-143 59q-101 0 -166.5 -100.5
t-65.5 -257.5q0 -163 62 -306t169.5 -229t231.5 -86q34 0 48 19t14 61v86q1 67 -17 102t-65 64q-36 22 -50 44t-14 52q0 42 32.5 71.5t102.5 28.5h353q62 0 95.5 -30.5t33.5 -89.5v-359q0 -101 -33 -162t-119 -102q-223 -109 -545 -109z" />
    <glyph glyph-name="H" unicode="H" horiz-adv-x="1689" 
d="M139 0q-59 0 -85.5 30.5t-26.5 73.5q0 57 53 93q38 28 51 62t12 103v785q2 69 -11.5 103.5t-51.5 62.5q-53 36 -53 92q0 43 26.5 73.5t85.5 30.5h477q69 0 100.5 -30.5t31.5 -73.5q0 -54 -62 -92q-44 -28 -59.5 -62.5t-14.5 -103.5v-125q0 -59 37 -59l348 -5
q50 0 63 14.5t13 65.5v109q1 69 -14.5 103.5t-59.5 62.5q-61 38 -61 92q0 43 31 73.5t100 30.5h479q59 0 86 -30.5t27 -73.5q0 -56 -53 -92q-38 -28 -51.5 -62.5t-12.5 -103.5v-785q-1 -67 13.5 -102t54.5 -65q51 -36 51 -93q0 -43 -28 -73t-87 -29h-479q-69 0 -100 30.5
t-31 73.5q0 55 61 93q44 28 59.5 62t14.5 103v244q0 47 -20.5 59.5t-73.5 12.5h-317q-21 0 -33.5 -11.5t-12.5 -31.5l-2 -273q-1 -67 15.5 -102t60.5 -65q60 -37 60 -95q-2 -43 -33.5 -72t-100.5 -28h-477z" />
    <glyph glyph-name="I" unicode="I" horiz-adv-x="759" 
d="M141 0q-59 0 -85.5 30.5t-26.5 73.5q0 57 53 93q38 28 51 62t12 103v785q1 68 -13.5 103t-53.5 63q-51 39 -51 94q0 43 26 73t84 29h488q58 0 83 -30.5t25 -73.5q0 -56 -53 -94q-38 -26 -51.5 -60.5t-12.5 -103.5v-785q-1 -68 12 -102.5t52 -62.5q53 -36 53 -93
q0 -43 -26.5 -73.5t-85.5 -30.5h-480z" />
    <glyph glyph-name="J" unicode="J" horiz-adv-x="923" 
d="M391 -25q-198 -6 -330 50q-48 20 -60 43.5t3 87.5q14 54 32 75t52 21q17 0 47.5 -1t50.5 -1q56 0 91.5 33t35.5 88v772q1 69 -15.5 104.5t-61.5 63.5q-34 22 -47 44.5t-13 51.5q2 44 32 73.5t97 28.5h488q58 0 83 -30.5t25 -73.5q0 -56 -53 -94q-38 -26 -51.5 -60.5
t-12.5 -103.5v-848q0 -143 -105.5 -231.5t-287.5 -92.5z" />
    <glyph glyph-name="K" unicode="K" horiz-adv-x="1556" 
d="M139 0q-59 0 -85.5 30.5t-26.5 73.5q0 57 53 93q38 28 51 62t12 103v785q2 69 -11.5 103.5t-51.5 62.5q-53 36 -53 92q0 43 26.5 73.5t85.5 30.5h477q69 0 100.5 -30.5t31.5 -73.5q0 -54 -62 -92q-44 -28 -59.5 -62.5t-14.5 -103.5v-150q0 -23 16.5 -26t33.5 22
q149 226 264 334q99 91 198.5 139t180.5 45q43 -3 70 -33t48 -94q43 -128 43 -227q0 -26 -14.5 -44t-42.5 -21q-343 -33 -461 -121q-24 -17 -20.5 -40.5t39.5 -33.5q148 -39 224.5 -123t145.5 -274l35 -97q51 -143 121 -190q36 -25 51 -51.5t15 -65.5q0 -48 -31 -72t-82 -24
h-313q-79 0 -125 42.5t-74 127.5l-94 281q-63 190 -178 190q-46 0 -46 -55l-2 -224q-1 -67 15.5 -102t60.5 -65q60 -40 60 -95q-2 -43 -33.5 -72t-100.5 -28h-477z" />
    <glyph glyph-name="L" unicode="L" horiz-adv-x="1261" 
d="M141 0q-59 -1 -86.5 29t-27.5 73q0 57 51 93q39 30 53.5 65t13.5 102v785q2 69 -11.5 103.5t-51.5 60.5q-53 38 -53 94q0 43 25 73.5t83 30.5h492q76 1 109.5 -29t33.5 -75q0 -31 -14 -54t-53 -46q-51 -30 -69.5 -66t-17.5 -106l-2 -705q0 -97 27 -142.5t100 -45.5
q11 0 23.5 2.5t23 6t25 12t24.5 14t26.5 18t25.5 19.5t28 23.5t27.5 24t29.5 26t30 26.5q40 36 59.5 52t56 36t64.5 20q76 0 76 -90q0 -53 -27 -163.5t-53 -186.5q-17 -45 -42.5 -62.5t-74.5 -17.5h-924z" />
    <glyph glyph-name="M" unicode="M" horiz-adv-x="1781" 
d="M141 0q-59 0 -85.5 30.5t-26.5 73.5q0 57 53 93q38 28 51 62t12 103v785q1 68 -13.5 103t-53.5 63q-51 39 -51 94q0 43 26 73t84 29h371q101 0 149 -94l201 -393q8 -16 17.5 -21t18.5 1.5t17 23.5l185 354q42 82 92 105.5t153 23.5h304q58 0 83 -30.5t25 -73.5
q0 -56 -53 -94q-38 -26 -51.5 -60.5t-12.5 -103.5v-785q-1 -67 13.5 -102t54.5 -65q51 -36 51 -93q0 -43 -28 -73t-87 -29h-464q-72 0 -105 30.5t-33 73.5q0 55 64 93q46 28 62.5 62.5t15.5 102.5l-2 422q0 32 -19.5 36t-34.5 -21l-196 -332q-47 -76 -125 -76
q-51 0 -86.5 30.5t-75.5 102.5l-154 283q-11 20 -27 17t-16 -25l2 -437q-1 -67 17 -102t65 -65q62 -37 62 -93q0 -43 -33 -73t-104 -29h-312z" />
    <glyph glyph-name="N" unicode="N" horiz-adv-x="1531" 
d="M1196 -4q-49 0 -79.5 27.5t-35.5 74.5q-9 83 -63 142l-520 559q-9 11 -20 7.5t-11 -18.5l-4 -426q-1 -67 17 -102t67 -65q66 -40 63 -95q0 -43 -34.5 -73t-110.5 -27h-324q-59 0 -85.5 30.5t-26.5 73.5q0 57 53 93q38 28 51 62t12 103v785q1 68 -13.5 103t-53.5 63
q-51 39 -51 94q0 43 26 73t84 29h303q77 0 116.5 -21t88.5 -75l391 -436q15 -18 26 -15t11 21v164q1 67 -15.5 102t-60.5 64q-59 39 -59 94q2 43 31.5 73t95.5 29h342q58 0 83.5 -30.5t25.5 -73.5q0 -55 -54 -94q-38 -26 -51.5 -60.5t-11.5 -103.5l2 -1004q0 -147 -107 -147
h-98z" />
    <glyph glyph-name="O" unicode="O" horiz-adv-x="1650" 
d="M852 -35q-243 0 -433.5 101.5t-296.5 284t-106 415.5q0 159 61.5 301t166.5 243.5t251 161t308 58.5q180 0 334.5 -62t263 -171.5t170 -264.5t61.5 -336q0 -202 -103.5 -370t-282.5 -264.5t-394 -96.5zM530 940q0 -164 51.5 -325.5t141 -267t188.5 -105.5
q100 0 153.5 87.5t53.5 248.5q0 163 -52.5 318.5t-142 255t-188.5 101.5q-98 2 -151.5 -79.5t-53.5 -233.5z" />
    <glyph glyph-name="P" unicode="P" horiz-adv-x="1380" 
d="M141 0q-59 0 -85.5 30.5t-26.5 73.5q0 57 53 93q38 28 51 62t12 103v785q1 68 -13.5 103t-53.5 63q-51 39 -51 94q0 43 26 73t84 29h670q264 0 416.5 -133t152.5 -358q0 -154 -111.5 -276.5t-293.5 -182.5q-286 -96 -301 -102q-30 -10 -42 -29.5t-12 -52.5v-13
q-1 -67 16.5 -102t63.5 -65q65 -39 62 -95q0 -43 -32.5 -72t-104.5 -28h-480zM616 764q0 -31 29 -31q18 0 64 27q89 56 121 109t32 135q0 100 -56 174.5t-132 74.5h-10q-26 0 -37 -12.5t-11 -40.5v-436z" />
    <glyph glyph-name="Q" unicode="Q" horiz-adv-x="1689" 
d="M1577 -248q-7 0 -14 1t-16 4t-16.5 6t-19 9t-20 10t-23.5 13t-24.5 14.5l-28.5 16.5t-31 18q-126 74 -189.5 96.5t-111.5 22.5q-36 0 -106 -4q-15 0 -52.5 -1t-62.5 -1q-162 0 -299 41.5t-236.5 115.5t-169.5 175t-104.5 221.5t-34.5 253.5q0 214 105.5 392t288 279.5
t401.5 100.5q242 0 434 -110.5t298 -303t106 -430.5q0 -290 -269 -559q-13 -11 -12 -24t19 -13q81 0 227 19q71 7 103 -10.5t32 -61.5q0 -86 -88 -225q-37 -66 -86 -66zM537 975q0 -188 53 -363t144 -284t194 -109q100 0 152.5 82t52.5 238q0 188 -54.5 357.5t-147.5 272.5
t-198 105q-94 0 -145 -77t-51 -222z" />
    <glyph glyph-name="R" unicode="R" horiz-adv-x="1572" 
d="M141 0q-59 0 -85.5 30.5t-26.5 73.5q0 57 53 93q38 28 51 62t12 103v785q1 68 -13.5 103t-53.5 63q-51 39 -51 94q0 43 26 73t84 29h801q206 0 334.5 -111.5t128.5 -287.5q0 -125 -55 -207t-181 -160q-18 -11 -19.5 -24t15.5 -21q109 -54 185 -204l51 -99
q66 -127 121 -176q30 -27 41.5 -51t11.5 -66q0 -54 -29.5 -78t-95.5 -24h-232q-116 0 -168 34t-96 132q-62 138 -92 192q-51 97 -93 142t-95 45q-54 0 -54 -51v-132q-1 -67 15.5 -102t62.5 -65q60 -37 60 -95q-2 -42 -33.5 -71.5t-99.5 -28.5h-480zM616 870q0 -22 9.5 -31.5
t31.5 -11.5h13q97 0 158 61t61 156q0 92 -57 150.5t-148 58.5h-4q-36 0 -50 -14t-14 -47v-322z" />
    <glyph glyph-name="S" unicode="S" horiz-adv-x="1355" 
d="M682 -23q-151 0 -313 37t-267 121q-45 38 -63 70.5t-8 68t33.5 67t70.5 79.5q7 7 28 28.5t30 30t26.5 24t28.5 22t25.5 12.5t27.5 6q27 0 52 -24.5t57 -76.5q70 -113 139 -176t143 -63q72 0 117 42.5t45 110.5q0 74 -68 122.5t-219 82.5q-270 56 -395 167t-125 302
q0 118 51.5 214t140 158t204 95t247.5 33q142 0 287 -35t242 -106q40 -29 60.5 -56.5t24.5 -53t-10 -54.5t-38 -57t-64 -64q-105 -94 -150 -94q-55 0 -102 80q-70 116 -128 166.5t-124 50.5q-58 0 -101.5 -40.5t-43.5 -99.5q0 -69 68.5 -116t215.5 -76q275 -53 399 -167
t124 -316q0 -161 -87.5 -279t-237.5 -177t-343 -59z" />
    <glyph glyph-name="T" unicode="T" horiz-adv-x="1480" 
d="M504 0q-75 0 -108.5 30.5t-33.5 73.5q0 55 66 93q48 28 64.5 62.5t15.5 102.5l2 721q0 138 -74 138q-29 0 -66 -28.5t-96 -96.5l-15 -18q-41 -49 -62.5 -72.5t-54 -45.5t-62.5 -22q-46 0 -65 34t-19 81q0 77 12 169t31 150q23 77 59 107t103 30h1087q110 0 144 -110
q23 -69 38 -178.5t15 -198.5q0 -37 -21 -60.5t-53 -23.5q-43 0 -85 33t-109 112q-69 78 -105 108t-70 30q-77 0 -77 -138l2 -721q-1 -67 17 -102t67 -65q66 -38 63 -95q0 -43 -34 -72t-109 -28h-467z" />
    <glyph glyph-name="U" unicode="U" horiz-adv-x="1550" 
d="M786 -27q-312 0 -479.5 125t-167.5 385v664q1 68 -13.5 103t-53.5 63q-52 39 -52 94q0 43 26.5 73t84.5 29h504q73 0 105 -30.5t32 -73.5q0 -28 -14 -50t-51 -44q-49 -26 -66.5 -60.5t-15.5 -103.5v-645q0 -96 63 -148.5t174 -52.5q93 0 152 54.5t59 140.5l2 651
q1 67 -18 102t-68 64q-37 24 -51 46.5t-12 49.5q0 43 33 72t106 28h356q58 0 83.5 -30.5t25.5 -73.5q0 -56 -53 -94q-38 -26 -51 -60t-13 -104l2 -608q0 -88 -17.5 -165.5t-62 -152.5t-114 -128.5t-181 -86.5t-254.5 -33z" />
    <glyph glyph-name="V" unicode="V" horiz-adv-x="1540" 
d="M670 0q-54 0 -91 32.5t-75 108.5q-117 232 -228.5 528t-169.5 525q-21 71 -67 111q-43 40 -43 96q0 108 121 108h497q107 0 107 -104q0 -66 -55 -105q-40 -29 -46.5 -53.5t5.5 -75.5q31 -152 76 -285.5t122 -314.5q15 -34 39 -31.5t39 35.5q53 120 111.5 291.5
t77.5 272.5q14 41 9 78.5t-40 68.5q-18 17 -28 28t-20 32t-10 45q0 118 129 118h291q63 0 93 -25t30 -77q0 -60 -47 -104q-30 -26 -48 -59t-38 -101q-154 -518 -234 -735q-63 -173 -116 -275q-39 -77 -74.5 -105t-101.5 -28l-115 2q-16 0 -49 -1t-51 -1z" />
    <glyph glyph-name="W" unicode="W" horiz-adv-x="2189" 
d="M684 -14q-68 1 -103.5 12t-60.5 42t-51 97q-145 361 -227 625q-35 114 -111 393q-17 63 -33.5 96.5t-44.5 59.5q-29 27 -42 48.5t-13 53.5q0 40 27 68t73 28h533q44 0 69 -25t25 -71t-51 -106q-39 -48 -39 -97q0 -106 57 -297q24 -89 74 -211q9 -23 22.5 -29.5t25 2
t17.5 27.5q40 131 58 211q35 155 35 295q0 36 -11 59t-39 48q-38 35 -38 94q0 40 24 70t74 30h510q50 0 79 -29.5t29 -72.5t-55 -104q-37 -46 -37 -101q0 -76 53 -272q30 -120 80 -236q11 -25 26 -25t26 25q13 29 23.5 59.5t15.5 48.5t13.5 53t12.5 48q47 169 47 287
q0 68 -45 110q-49 49 -49 111q0 38 25 68t69 30h322q53 0 82.5 -27t29.5 -71q0 -57 -57 -106q-25 -22 -40.5 -50.5t-27.5 -76.5q-64 -267 -139 -510q-128 -416 -186 -541q-15 -36 -24.5 -55.5t-23.5 -37t-24 -24.5t-33 -12.5t-44 -7t-62 -2.5q-84 -2 -126 10t-63.5 38
t-50.5 91q-92 199 -164 489q-4 18 -15.5 25t-23.5 -1.5t-18 -29.5q-21 -80 -75 -246.5t-87 -246.5q-14 -34 -24.5 -55t-26 -36.5t-27.5 -23t-36.5 -12t-46 -5t-62.5 0.5z" />
    <glyph glyph-name="X" unicode="X" horiz-adv-x="1488" 
d="M102 0q-47 0 -74.5 27.5t-27.5 74.5q0 61 63 103q89 59 146 153q44 73 119.5 203.5t103.5 177.5q17 35 16.5 56.5t-22.5 54.5q-16 25 -106 161.5t-107 162.5q-54 83 -111 118q-46 28 -62.5 52.5t-16.5 62.5q0 47 31 74.5t85 27.5h568q50 0 84 -31.5t34 -76.5
q0 -57 -61 -96q-31 -20 -33.5 -42.5t14.5 -48.5q40 -72 84 -139q20 -32 36 -32.5t38 28.5q59 85 90 148q19 32 18 57t-30 47q-53 39 -53 88q0 98 114 98h347q46 0 73 -25.5t27 -68.5q0 -62 -70 -108q-31 -20 -50.5 -43t-53.5 -78q-39 -62 -114 -187.5t-111 -181.5
q-19 -34 -17.5 -53t21.5 -53q48 -79 122.5 -217.5t102.5 -184.5q35 -56 100 -98q70 -46 70 -113q0 -47 -27.5 -72.5t-79.5 -25.5h-518q-151 0 -151 104q0 33 10 53t37 42q47 38 20 96q-34 74 -104 178q-31 52 -66 2q-24 -35 -94 -164q-23 -42 -18.5 -68t32.5 -59
q43 -49 43 -88q0 -96 -86 -96h-385z" />
    <glyph glyph-name="Y" unicode="Y" horiz-adv-x="1437" 
d="M500 0q-75 0 -108.5 30.5t-33.5 73.5q0 55 66 93q48 28 64.5 62.5t15.5 102.5v111q0 28 -4.5 50t-10 34t-16.5 33q-201 324 -344 610q-31 67 -78 111q-27 23 -40 45.5t-13 56.5q0 46 27 71t77 25h500q61 0 90 -24.5t29 -75.5q0 -54 -45 -90q-35 -28 -35 -64q0 -20 23 -73
q55 -120 135 -238q42 -65 80 0q78 133 120 244q19 43 19 67q0 32 -33 58q-27 23 -39 42.5t-12 49.5q0 104 121 104h282q50 0 76.5 -28t26.5 -72q0 -58 -45 -100q-39 -37 -66 -95q-74 -151 -313 -593q-26 -48 -33.5 -77t-7.5 -71v-111q-1 -67 17 -102t67 -65q66 -38 63 -95
q0 -43 -34 -72t-109 -28h-479z" />
    <glyph glyph-name="Z" unicode="Z" horiz-adv-x="1271" 
d="M135 0q-71 0 -103 29.5t-32 95.5q0 137 96 278l545 793q14 20 14 37q0 13 -15 18.5t-52 5.5q-67 0 -131 -28t-146 -90q-11 -9 -46.5 -39.5t-55.5 -46t-51 -30.5t-56 -15q-43 0 -65.5 40t-22.5 93q0 126 37 245q19 67 47.5 95t79.5 28h952q60 0 86.5 -23t26.5 -79
q0 -80 -22 -153t-84 -162l-537 -770q-20 -30 -20 -48q0 -22 61 -22q142 0 313 117q38 26 95 69.5t85.5 59.5t55.5 16q40 0 61 -32.5t21 -92.5q0 -169 -31 -287q-19 -66 -55 -84t-111 -18h-940z" />
    <glyph glyph-name="bracketleft" unicode="[" horiz-adv-x="677" 
d="M182 -236q-69 0 -91.5 16t-22.5 68v1567q0 58 23 76t91 18h365q63 0 91 -32.5t28 -79.5q0 -60 -58 -103q-42 -29 -56 -66t-13 -112l-4 -958q0 -74 15.5 -112t57.5 -71q56 -39 56 -100q0 -46 -30 -79t-95 -32h-357z" />
    <glyph glyph-name="bracketright" unicode="]" horiz-adv-x="677" 
d="M496 1505q69 0 91.5 -16t22.5 -68v-1566q0 -58 -23 -76.5t-91 -18.5h-365q-63 0 -91 33t-28 80q0 59 58 102q41 29 55.5 66.5t13.5 112.5l4 958q0 74 -15.5 111.5t-57.5 70.5q-56 39 -56 101q0 46 30 78.5t95 31.5h357z" />
    <glyph glyph-name="asciicircum" unicode="^" horiz-adv-x="991" 
d="M772 1024q-71 0 -139 51l-135 99l-125 -101q-61 -49 -119 -49h-158q-58 0 -79 39t16 88l235 293q37 46 79 59t151 13q104 0 144.5 -12.5t74.5 -55.5l239 -295q39 -51 19 -90t-80 -39h-123z" />
    <glyph glyph-name="underscore" unicode="_" horiz-adv-x="774" 
d="M115 -311q-67 0 -91 22t-24 86v92q0 64 24 86.5t91 22.5h547q65 0 88.5 -22.5t23.5 -86.5v-92q0 -64 -23.5 -86t-88.5 -22h-547z" />
    <glyph glyph-name="grave" unicode="`" horiz-adv-x="677" 
d="M422 1124q-48 0 -74 7.5t-55 33.5l-240 207q-75 68 -58 115t103 47h267q99 0 149 -72l152 -223q31 -44 18.5 -79.5t-61.5 -35.5h-201z" />
    <glyph glyph-name="a" unicode="a" horiz-adv-x="1241" 
d="M385 -27q-65 0 -130 24.5t-121.5 71t-92 125.5t-35.5 177q0 79 27 147.5t71 116t100.5 81.5t116 50t117.5 16q49 0 107.5 -6t64.5 -6q33 0 33 35q0 57 -39.5 96t-99.5 39q-33 0 -76.5 -16.5t-73.5 -33.5t-77.5 -48t-61.5 -39q-89 -54 -131 51q-47 118 -39.5 178t78.5 90
q42 17 150.5 31t209.5 14q286 0 432.5 -90t167.5 -307l37 -391q12 -119 72 -176q45 -45 45 -92q0 -57 -69.5 -98.5t-161.5 -37.5q-130 0 -246 86q-31 22 -62 0q-125 -88 -313 -88zM449 434q0 -77 39 -139t108 -62q54 0 80 37t18 101l-16 129q-6 45 -30.5 64.5t-76.5 19.5
q-54 0 -88 -45.5t-34 -104.5z" />
    <glyph glyph-name="b" unicode="b" horiz-adv-x="1343" 
d="M627 -31q-167 0 -322 30.5t-235 72.5q-36 21 -51 44t-15 62q0 57 37 82q45 37 60.5 67.5t15.5 94.5v790q1 67 -13 101t-51 61q-47 42 -47 92q2 43 28.5 73.5t84.5 29.5h270q77 0 118 -36.5t40 -102.5l-12 -369q0 -22 12 -23.5t24 13.5q60 64 118.5 94.5t135.5 30.5
q120 0 217.5 -45.5t158.5 -122t93.5 -172t32.5 -199.5q0 -145 -49 -268.5t-138.5 -211.5t-221.5 -138t-291 -50zM545 360q0 -75 41 -119t102 -44q85 0 133.5 75t48.5 183q0 152 -64 255t-157 103q-46 0 -75 -26.5t-29 -71.5v-355z" />
    <glyph glyph-name="c" unicode="c" horiz-adv-x="1163" 
d="M606 -35q-110 0 -215.5 43t-189.5 120.5t-135.5 197.5t-51.5 262q0 164 82.5 301t226.5 216t316 79q116 0 235.5 -42t184.5 -98q48 -41 66.5 -75t7.5 -71.5t-37.5 -70.5t-81.5 -86q-82 -79 -158 -79q-54 0 -98 81q-25 44 -39.5 67t-38.5 52.5t-48.5 42.5t-53.5 13
q-53 0 -84 -50t-31 -135q0 -113 38.5 -209.5t110 -155.5t160.5 -59q124 0 248 90q47 35 104 -28q34 -35 32.5 -75t-42.5 -91q-201 -240 -508 -240z" />
    <glyph glyph-name="d" unicode="d" horiz-adv-x="1343" 
d="M479 -27q-129 0 -236.5 73.5t-169 200.5t-61.5 279q0 172 70 317.5t204 235.5t306 90q36 0 108 -10q46 -8 56 -8q32 0 32 33v26q0 66 -14.5 99.5t-52.5 60.5q-51 43 -51 90q0 42 27.5 72.5t90.5 30.5h297q73 0 103.5 -31.5t30.5 -106.5v-1069q0 -69 10 -101t41 -58
q55 -40 55 -93q0 -42 -25.5 -73t-82.5 -31h-299q-56 0 -82 22t-31 72q-3 31 -22 35t-38 -20q-52 -69 -115.5 -102.5t-150.5 -33.5zM459 688q0 -147 62.5 -262t150.5 -115q114 0 114 164v203q0 120 -48.5 187t-116.5 67q-76 0 -119 -67.5t-43 -176.5z" />
    <glyph glyph-name="e" unicode="e" horiz-adv-x="1220" 
d="M635 -35q-172 0 -315 80.5t-224.5 219t-81.5 304.5q0 171 80 312.5t218.5 222t305.5 80.5q117 0 223.5 -38.5t183 -103t122 -153t45.5 -184.5q0 -71 -44 -114t-136 -65q-115 -26 -207 -43q-177 -42 -201 -53q-24 -7 -24 -27q0 -33 61 -71q64 -33 135 -33q137 0 275 102
q40 26 69 19t64 -51q29 -38 27.5 -69.5t-29.5 -72.5q-85 -118 -234.5 -190t-312.5 -72zM426 766q0 -57 15.5 -109.5t43.5 -52.5q5 0 13 5t21 14.5t22 15.5q38 32 131 84q3 2 17.5 9t18.5 10.5t9.5 11.5t5.5 18q0 44 -53.5 97t-112.5 53q-57 0 -94 -40.5t-37 -115.5z" />
    <glyph glyph-name="f" unicode="f" horiz-adv-x="706" 
d="M135 0q-57 0 -82.5 31t-25.5 73q0 53 55 93q31 26 41 58t10 101v469q0 55 -11 74.5t-54 28.5q-39 8 -53.5 31.5t-14.5 80.5q0 42 22.5 64.5t81.5 32.5q29 6 32 24.5t-19 38.5q-72 69 -72 137q0 106 102.5 178t253.5 72q135 0 238 -35q39 -13 60 -31.5t27 -46.5t-1.5 -64
t-28.5 -87q-34 -90 -73 -90q-14 0 -68 20q-77 31 -113 31q-26 0 -41.5 -13t-15.5 -36q0 -39 52.5 -62.5t150.5 -23.5q66 0 85 -18t19 -76q0 -76 -13 -100t-56 -27q-38 -3 -49 -19.5t-11 -68.5v-484q0 -68 11 -100.5t44 -58.5q58 -42 58 -93q0 -42 -27.5 -73t-87.5 -31h-426z
" />
    <glyph glyph-name="g" unicode="g" horiz-adv-x="1327" 
d="M623 -428q-119 0 -249.5 15t-217.5 40q-65 19 -71.5 73.5t42.5 182.5q27 71 67 84t109 -24q230 -121 326 -121q75 0 109 51t34 164v18q0 28 -19.5 37t-45.5 -14q-99 -92 -230 -92q-139 0 -245.5 70t-162 187.5t-55.5 262.5q0 136 48.5 257.5t132.5 208.5t201 138t249 51
q35 0 155 -11t216 -11q43 0 102 5t88 5h2q59 0 85 -31t26 -74q0 -48 -47 -90q-36 -27 -49.5 -60.5t-12.5 -100.5l-2 -428q0 -136 11 -248q10 -123 10 -150q0 -201 -148.5 -298t-457.5 -97zM461 641q0 -142 54.5 -228.5t146.5 -86.5q61 0 89.5 30.5t28.5 96.5l2 239
q1 94 -38 145.5t-111 51.5q-75 0 -123.5 -69.5t-48.5 -178.5z" />
    <glyph glyph-name="h" unicode="h" horiz-adv-x="1386" 
d="M129 0q-57 0 -83 31t-26 73q0 53 56 93q31 26 41 58t10 101v834q1 67 -13 101t-51 61q-47 42 -47 92q2 43 28 73t85 29h317q54 0 80.5 -24t26.5 -82l-2 -391q0 -30 19 -33.5t38 26.5q30 51 97.5 90t152.5 39q143 0 225.5 -82.5t108.5 -259.5l65 -444q19 -122 82 -180
q47 -47 47 -103q0 -43 -25.5 -72.5t-74.5 -29.5h-158q-138 0 -211 39.5t-86 150.5l-57 492q-7 69 -39.5 103t-83.5 34q-43 0 -67.5 -19t-24.5 -55v-389q0 -68 11 -100.5t44 -58.5q56 -40 56 -93q0 -42 -26.5 -73t-86.5 -31h-428z" />
    <glyph glyph-name="i" unicode="i" horiz-adv-x="671" 
d="M158 1231q-52 0 -82.5 31t-30.5 86q0 101 75 170t183 69t184 -70t76 -169q0 -56 -29.5 -86.5t-82.5 -30.5h-293zM16 1047q2 43 28 73t85 29h295q74 0 103.5 -33.5t29.5 -114.5v-645q0 -69 10 -101t41 -58q56 -40 56 -93q0 -42 -26 -73t-83 -31h-426q-57 0 -83 31t-26 73
q0 53 56 93q31 26 41 58t10 101v437q1 66 -13 100t-51 61q-47 42 -47 93z" />
    <glyph glyph-name="j" unicode="j" horiz-adv-x="616" 
d="M205 -373q-89 0 -171.5 18.5t-129.5 49.5q-48 30 -55 69.5t16 81.5q17 38 35.5 51.5t46.5 10.5q37 -6 76 -6q50 0 74 28.5t24 75.5v787q1 66 -13 100t-51 61q-47 42 -47 93q2 43 28 73t85 29h297q74 0 103.5 -33.5t29.5 -114.5v-1081q0 -131 -99 -212t-249 -81zM35 1348
q0 101 75 170t181 69q108 0 185 -69.5t77 -169.5q0 -56 -30 -86.5t-83 -30.5h-293q-52 0 -82 31t-30 86z" />
    <glyph glyph-name="k" unicode="k" horiz-adv-x="1269" 
d="M129 0q-57 0 -83 31t-26 73q0 53 56 93q31 26 41 58t10 101v834q1 67 -13 101t-51 61q-47 42 -47 92q2 43 28 73t85 29h322q53 0 79.5 -24t26.5 -82v-606q0 -25 17 -28.5t36 19.5q5 6 48.5 60.5t74.5 85.5q95 92 191.5 142t179.5 50q55 0 88 -69.5t33 -184.5
q0 -47 -21 -70t-67 -24q-139 -5 -193 -10q-33 -3 -39 -26t27 -40q129 -68 190 -245l52 -156q28 -89 67 -123q47 -41 47 -100q0 -53 -29 -84t-77 -31h-224q-100 0 -149.5 58t-73.5 171l-26 123q-22 98 -48 143.5t-61 45.5q-43 0 -43 -45v-140q0 -68 11 -100t42 -59
q56 -40 56 -93q0 -42 -26 -73t-83 -31h-428z" />
    <glyph glyph-name="l" unicode="l" horiz-adv-x="679" 
d="M129 0q-57 0 -83 31t-26 73q0 53 56 93q31 26 41 58t10 101v834q1 67 -13 101t-51 61q-47 42 -47 92q2 43 28 73t85 29h324q53 0 79.5 -24t26.5 -82v-1084q0 -69 10 -101t41 -58q56 -40 56 -93q0 -42 -26 -73t-83 -31h-428z" />
    <glyph glyph-name="m" unicode="m" horiz-adv-x="2033" 
d="M129 0q-57 0 -83 31t-26 73q0 53 56 93q31 26 41 58t10 101v437q1 66 -13 100t-51 61q-47 42 -47 93q2 43 28 73t85 29h285q52 0 79.5 -26.5t49.5 -96.5q4 -18 19.5 -19t25.5 15q49 72 123 110.5t161 38.5q174 0 254 -151q2 -3 5.5 -9.5t6 -10t6 -7.5t7 -6t8.5 -2
q14 0 37 35q104 151 297 151q141 0 223 -84t111 -258l76 -444q19 -125 82 -182q49 -42 49 -101q0 -42 -27 -72t-76 -30h-172q-137 0 -207.5 40t-83.5 150l-57 492q-17 141 -121 141q-87 0 -84 -80l8 -409q2 -50 14 -77t50 -52q30 -22 42.5 -33t23 -31.5t10.5 -48.5
q0 -92 -109 -92h-284q-92 0 -134.5 37t-44.5 117v77v62l-4 354q-1 87 -32.5 131.5t-86.5 44.5q-100 0 -100 -80v-387q0 -68 11 -100.5t44 -58.5q56 -40 56 -93q0 -42 -26.5 -73t-86.5 -31h-428z" />
    <glyph glyph-name="n" unicode="n" horiz-adv-x="1386" 
d="M129 0q-57 0 -83 31t-26 73q0 53 56 93q31 26 41 58t10 101v437q1 66 -13 100t-51 61q-47 42 -47 93q2 43 28 73t85 29h283q56 0 84 -26.5t45 -96.5q4 -15 11.5 -21t17.5 -1.5t20 20.5q40 63 111.5 105t158.5 42q142 0 223.5 -81.5t108.5 -258.5l68 -446q19 -126 79 -180
q47 -44 47 -103q0 -43 -26 -72.5t-74 -29.5h-158q-137 0 -210.5 40t-86.5 150l-57 492q-7 69 -39.5 103t-83.5 34q-43 0 -67.5 -19t-24.5 -55v-389q0 -68 11 -100.5t44 -58.5q56 -40 56 -93q0 -42 -26.5 -73t-86.5 -31h-428z" />
    <glyph glyph-name="o" unicode="o" horiz-adv-x="1282" 
d="M629 -35q-170 0 -311.5 79.5t-222.5 218t-81 304.5q0 129 49.5 243.5t135 196.5t204.5 129.5t254 47.5q172 0 312.5 -83t219.5 -225t79 -311q0 -166 -84 -304t-231 -217t-324 -79zM455 727q0 -102 32.5 -216.5t91 -197t121.5 -82.5q57 0 92 43t35 123q0 111 -33.5 231.5
t-91.5 205t-120 84.5q-58 0 -92.5 -50t-34.5 -141z" />
    <glyph glyph-name="p" unicode="p" horiz-adv-x="1349" 
d="M125 -381q-57 0 -83 31.5t-26 73.5q0 52 56 92q31 26 41 58t10 101v818q1 66 -13 100t-51 61q-47 42 -47 93q2 43 28 73t85 29h301q50 0 71.5 -25t37.5 -92q4 -15 13.5 -22t21 -2t20.5 22q38 69 107.5 108.5t148.5 39.5q90 0 169 -30t136.5 -82t99 -121t62 -147.5
t20.5 -160.5q0 -143 -48.5 -266t-131 -208t-196 -133t-240.5 -48q-49 0 -103 12l-30 6q-29 0 -29 -41v-2q0 -65 11.5 -96t45.5 -56q58 -40 58 -88q0 -40 -27 -69t-90 -29h-428zM555 393q0 -75 39.5 -117.5t101.5 -42.5q82 0 134.5 67t52.5 173q0 141 -66.5 240.5
t-161.5 99.5q-46 0 -73 -26t-27 -72v-322z" />
    <glyph glyph-name="q" unicode="q" horiz-adv-x="1320" 
d="M776 -381q-59 0 -84.5 30t-25.5 72q0 51 55 95q34 26 48 58t15 97l2 88q0 29 -18 29q-8 0 -14.5 -4t-16.5 -14t-16 -15q-103 -80 -217 -80q-117 0 -212.5 46t-155 122.5t-91 171.5t-31.5 197q0 290 171.5 470.5t457.5 180.5q64 0 173 -21.5t171 -21.5q33 0 94 23
q54 20 84 20q37 0 60.5 -23.5t23.5 -58.5q0 -33 -16 -73q-29 -83 -29 -174v-863q0 -66 10.5 -98t40.5 -59q50 -42 50 -93q0 -42 -24 -72t-79 -30h-426zM465 643q0 -131 61 -224t150 -93q45 0 72.5 26.5t27.5 71.5v319q0 75 -39.5 119.5t-97.5 44.5q-81 0 -127.5 -76.5
t-46.5 -187.5z" />
    <glyph glyph-name="r" unicode="r" horiz-adv-x="913" 
d="M129 0q-57 0 -83 31t-26 73q0 53 56 93q31 26 41 58t10 101v437q1 66 -13 100t-51 61q-47 42 -47 93q2 43 28 73t85 29h311q77 0 97 -68l12 -45q6 -19 21 -20t24 18q37 75 79.5 107.5t104.5 32.5q135 0 135 -162q0 -69 -21.5 -149t-61.5 -140.5t-85 -60.5q-30 0 -63 22
q-31 16 -64 16q-59 0 -59 -75v-269q0 -68 11 -100.5t44 -58.5q60 -41 60 -93q0 -42 -27.5 -73t-89.5 -31h-428z" />
    <glyph glyph-name="s" unicode="s" horiz-adv-x="1054" 
d="M483 -31q-268 0 -397 76q-63 37 -75 93t22 153q31 110 94 110q13 0 25 -3.5t28.5 -15t26.5 -19.5t36 -30t40 -34q120 -106 204 -106q37 0 65 23.5t28 55.5q0 43 -49.5 79t-151.5 75q-192 66 -278.5 153.5t-86.5 215.5q0 178 152.5 285.5t398.5 107.5q102 0 195.5 -22
t150.5 -54q83 -46 98 -95.5t-22 -160.5q-26 -76 -76 -76q-39 0 -151 94q-115 97 -195 97q-39 0 -64.5 -23t-25.5 -57q-1 -42 47.5 -69.5t208.5 -86.5q318 -115 318 -352q0 -189 -154 -301.5t-412 -112.5z" />
    <glyph glyph-name="t" unicode="t" horiz-adv-x="712" 
d="M375 0q-162 0 -231.5 60t-69.5 200q0 110 37 338q36 218 36 274q0 23 -1.5 33.5t-9 22t-23.5 17t-45 9.5q-37 5 -52.5 28t-15.5 77q0 72 74 108q104 51 155 107q26 27 46 52t42 56.5t27 38.5q49 62 105 62q83 0 83 -76v-207q0 -30 10 -40.5t46 -10.5h65q43 0 61 -22.5
t17 -77.5q2 -65 -16.5 -94t-61.5 -29h-55q-44 0 -56 -14t-12 -68v-522q0 -48 12.5 -67t63.5 -40q58 -21 80.5 -43.5t22.5 -71.5q0 -47 -23 -73.5t-63 -26.5h-248z" />
    <glyph glyph-name="u" unicode="u" horiz-adv-x="1341" 
d="M487 -33q-188 3 -278 92.5t-90 282.5v451q1 66 -13 100t-51 61q-47 42 -47 93q2 43 28 73t85 29h319q120 0 117 -121l-8 -551q-2 -67 31 -106t92 -39q112 0 112 119v342q0 67 -14.5 100.5t-52.5 60.5q-49 43 -49 93q0 42 27 72t89 30h299q77 0 106.5 -33.5t29.5 -120.5
l-2 -639q0 -69 10 -101t41 -58q55 -40 55 -93q0 -42 -26 -73t-83 -31h-313q-48 0 -69 21t-29 69q-5 29 -27 35t-43 -23q-86 -138 -246 -135z" />
    <glyph glyph-name="v" unicode="v" horiz-adv-x="1236" 
d="M594 -6h-92q-104 0 -152 108q-174 397 -248 705q-22 87 -67 149q-33 49 -33 93q0 41 26.5 70.5t65.5 29.5h455q38 0 63 -25t25 -65q0 -38 -11.5 -62t-37.5 -47q-35 -30 -42.5 -62t5.5 -87q45 -183 123 -363q14 -32 33.5 -31t33.5 35q78 193 111 346q14 51 9.5 95.5
t-40.5 77.5q-43 38 -43 94q0 37 23.5 65.5t64.5 28.5h283q43 0 65.5 -27.5t22.5 -70.5q0 -41 -31 -86q-30 -46 -53 -134q-126 -454 -250 -725q-30 -64 -60.5 -91t-76.5 -27q-22 0 -80.5 3t-91.5 3z" />
    <glyph glyph-name="w" unicode="w" horiz-adv-x="1937" 
d="M596 -2q-59 0 -88 2.5t-59 10t-47.5 27.5t-35 49t-38.5 81q-133 314 -238 668q-20 64 -53 106q-37 53 -37 105q0 51 33.5 76.5t83.5 25.5h415q109 0 109 -92q0 -57 -57 -111q-31 -25 -37.5 -57.5t8.5 -77.5q41 -159 104 -307q9 -22 21.5 -30t24 -1t18.5 27q84 240 94 295
q11 56 4 92t-37 69q-43 53 -43 101q0 46 28 69t77 23h459q42 0 64 -27.5t22 -62.5q0 -58 -58 -113q-46 -46 -26 -127q55 -193 116 -321q12 -26 29 -26t29 26q75 160 104 327q17 81 -39 129q-25 23 -38 44t-13 51q0 44 29 72t78 28h231q53 0 77.5 -29t24.5 -69
q0 -56 -32 -105q-35 -53 -62 -153q-44 -154 -67.5 -231.5t-69.5 -206.5t-100 -251q-18 -39 -29.5 -56.5t-37.5 -30.5t-60 -15.5t-103 -3.5q-118 -2 -160.5 12t-66.5 66q-81 166 -148 348q-9 23 -24.5 23t-24.5 -23q-96 -253 -129 -330q-27 -63 -69 -79.5t-156 -16.5z" />
    <glyph glyph-name="x" unicode="x" horiz-adv-x="1271" 
d="M113 0q-55 0 -84 26t-29 72q0 57 53 101q61 51 92 106q83 145 185 277q17 22 19.5 40t-5.5 33t-29 39q-63 76 -141 185q-36 49 -90 77q-66 35 -66 103q0 35 26.5 62.5t72.5 27.5h526q53 0 84 -25.5t31 -70.5q0 -55 -47 -86q-27 -19 -31.5 -36.5t10.5 -45.5q24 -43 55 -82
q18 -23 28.5 -24t29.5 20q32 38 59 84q18 27 16 43t-26 37q-43 37 -43 88q0 43 30 70.5t79 27.5h239q49 0 73.5 -26.5t24.5 -63.5q0 -47 -43 -82q-3 -2 -12.5 -10.5t-12.5 -11t-11 -10.5t-13 -14t-12 -16t-14 -22q-88 -149 -183 -275q-19 -26 -18.5 -44.5t22.5 -43.5
q116 -139 199 -270q16 -26 68 -78q1 -1 8 -8.5t8.5 -9t7.5 -8.5t7 -9.5t5.5 -9t5.5 -10.5t3.5 -10.5t3 -13t0.5 -13.5q0 -36 -22.5 -63t-59.5 -27h-537q-44 0 -68 26.5t-24 67.5q0 51 43 94q24 24 25 42t-21 59q-32 57 -67 94q-18 18 -29 18.5t-25 -16.5q-42 -52 -63 -98
q-15 -32 -12 -50t26 -44q37 -43 37 -93q0 -40 -21 -70t-67 -30h-276z" />
    <glyph glyph-name="y" unicode="y" horiz-adv-x="1234" 
d="M289 -369q-45 0 -78 30.5t-33 68.5q0 47 45 86l183 159q43 37 18 88q-194 406 -328 805q-17 51 -55 97q-41 41 -41 94q0 44 29 67t82 23h407q70 0 97.5 -21.5t27.5 -72.5q0 -45 -45 -78q-50 -40 -54.5 -71t17.5 -91q55 -194 129 -350q14 -29 32 -29t30 29q79 195 120 358
q12 38 6.5 71t-34.5 64q-2 2 -9 11t-10.5 13t-10 13t-9.5 15.5t-7 15.5t-5.5 17.5t-1.5 17.5q0 37 21 62.5t60 25.5h265q46 0 71 -27.5t27 -62.5q0 -46 -37 -86q-29 -33 -61 -137q-109 -368 -246 -713q-46 -115 -71 -173t-66.5 -137t-81.5 -130q-40 -52 -109 -52h-274z" />
    <glyph glyph-name="z" unicode="z" horiz-adv-x="1058" 
d="M111 0q-49 0 -73 34t-24 89q0 66 64 158l391 571q25 40 25 53q0 29 -31 29q-35 0 -162 -84q-41 -26 -58 -37t-52.5 -26t-59.5 -15q-79 0 -82 78q-2 91 8 213q10 86 109 86h772q104 0 104 -117q0 -88 -53 -164l-411 -585q-15 -21 -15 -37q3 -21 29 -21q24 0 104 30t146 62
q87 41 125 41q44 0 63 -28.5t19 -89.5q0 -95 -13 -158q-15 -82 -123 -82h-802z" />
    <glyph glyph-name="braceleft" unicode="{" horiz-adv-x="819" 
d="M668 -287q-279 0 -398.5 141.5t-119.5 454.5q0 119 -14.5 153t-59.5 34q-36 0 -52 24.5t-16 79.5q0 56 15 81.5t49 25.5q42 0 52.5 29.5t10.5 146.5q0 340 128 488.5t429 148.5q55 0 88 -24t33 -64q0 -26 -12.5 -45t-24 -26.5t-37.5 -21.5q-28 -15 -42 -26t-28 -38.5
t-14 -66.5v-245q0 -131 -38.5 -213t-143.5 -125q-20 -8 -21 -23t23 -24q122 -45 171.5 -137t51.5 -242l2 -150q0 -86 48 -127q5 -4 19 -15.5t19 -17t13 -15.5t11 -21.5t3 -26.5q0 -49 -38.5 -81t-106.5 -32z" />
    <glyph glyph-name="bar" unicode="|" horiz-adv-x="493" 
d="M201 -346q-70 0 -94.5 27.5t-24.5 105.5v1706q0 78 24.5 105.5t94.5 27.5h92q70 0 94.5 -27.5t24.5 -105.5v-1706q0 -78 -24.5 -105.5t-94.5 -27.5h-92z" />
    <glyph glyph-name="braceright" unicode="}" horiz-adv-x="839" 
d="M172 1520q279 0 398.5 -141.5t119.5 -454.5q0 -119 14.5 -153t59.5 -34q35 0 51 -24.5t16 -79.5q0 -56 -15 -81.5t-48 -25.5q-42 0 -52.5 -29.5t-10.5 -146.5q0 -340 -128.5 -488.5t-429.5 -148.5q-55 0 -87.5 24t-32.5 64q0 26 12.5 45t23.5 26.5t37 21.5q28 15 42 26
t28 38.5t14 66.5v245q0 131 39 213t144 125q20 8 21 23t-23 24q-122 45 -172 137.5t-52 241.5l-2 150q0 86 -47 127q-5 4 -19 15.5t-19 17t-13 15.5t-11 21.5t-3 26.5q0 49 38.5 81t106.5 32z" />
    <glyph glyph-name="asciitilde" unicode="~" horiz-adv-x="1118" 
d="M817 473q-96 0 -307 92q-155 66 -211 66t-94 -66q-43 -72 -117 -53q-105 28 -70 164q43 208 115 291.5t189 83.5q101 0 284 -82q185 -80 228 -80q29 0 49.5 14.5t40.5 48.5q48 81 127 49q73 -29 51 -151q-42 -216 -103.5 -296.5t-181.5 -80.5z" />
    <glyph glyph-name="uni00A0" unicode="&#xa0;" horiz-adv-x="604" 
 />
    <glyph glyph-name="sterling" unicode="&#xa3;" horiz-adv-x="1325" 
d="M143 0q-59 -1 -86.5 29t-27.5 73q0 57 51 93q39 30 53.5 65t13.5 102v199h-14q-68 -2 -93.5 23.5t-25.5 95.5v43q0 70 25.5 95.5t93.5 23.5h14v209q0 114 45.5 206.5t123.5 152t180.5 91t218.5 31.5q312 0 520 -193q28 -26 44 -49t24.5 -41.5t4 -38.5t-12 -35t-29.5 -37
t-41.5 -38.5t-55.5 -44.5q-109 -86 -157 -86q-55 0 -92 86q-46 113 -93.5 165t-107.5 52q-44 0 -72.5 -30.5t-28.5 -80.5v-313l275 2q68 0 93.5 -24.5t25.5 -94.5v-43q0 -70 -25.5 -94.5t-93.5 -24.5l-275 2v-172q0 -104 25 -148t96 -44q54 0 110.5 30t131.5 87
q34 26 82.5 66.5t72.5 59.5t54.5 34.5t56.5 15.5q35 0 54.5 -22.5t19.5 -63.5q0 -71 -86 -334q-15 -44 -40.5 -62t-74.5 -18h-977z" />
    <glyph glyph-name="yen" unicode="&#xa5;" horiz-adv-x="1437" 
d="M500 0q-75 0 -108.5 30.5t-33.5 73.5q0 55 66 93q40 24 58 50.5t22 71.5l-277 -2q-43 0 -60 16t-17 60v56q0 44 17 59.5t60 15.5l273 -2q-3 23 -27 68q0 2 -2 2l-244 -2q-43 0 -60 16t-17 60v55q0 44 17 60t60 16h123q-104 177 -221 403q-31 67 -78 111q-27 23 -40 45.5
t-13 56.5q0 46 27 71t77 25h500q61 0 90 -24.5t29 -75.5q0 -54 -45 -90q-35 -28 -35 -64q0 -20 23 -73q55 -120 135 -238q42 -65 80 0q78 133 120 244q19 43 19 67q0 32 -33 58q-27 23 -39 42.5t-12 49.5q0 104 121 104h282q50 0 76.5 -28t26.5 -72q0 -58 -45 -100
q-39 -37 -66 -95q-102 -202 -219 -417h100q45 0 62.5 -16t17.5 -60v-55q0 -44 -17.5 -60t-62.5 -16l-209 2q-18 -34 -24 -70l233 2q45 0 62.5 -15.5t17.5 -59.5v-56q0 -44 -17.5 -60t-62.5 -16l-233 2q3 -44 21.5 -71t60.5 -53q66 -38 63 -95q0 -43 -34 -72t-109 -28h-479z
" />
    <glyph glyph-name="dieresis" unicode="&#xa8;" horiz-adv-x="1161" 
d="M840 1116q-95 0 -164.5 70.5t-69.5 167.5q0 98 71.5 169.5t168.5 71.5t167 -70t70 -165q0 -98 -72.5 -171t-170.5 -73zM70 1354q0 98 71.5 169.5t169.5 71.5q95 0 164.5 -70t69.5 -165q0 -98 -73 -171t-171 -73q-94 0 -162.5 70.5t-68.5 167.5z" />
    <glyph glyph-name="copyright" unicode="&#xa9;" horiz-adv-x="1626" 
d="M813 -39q-217 0 -402.5 106.5t-294 289.5t-108.5 397q0 159 64 305t172 251.5t257 168.5t312 63t312 -63t257 -168.5t172 -251.5t64 -305q0 -214 -108.5 -397t-294 -289.5t-402.5 -106.5zM121 754q0 -141 54.5 -269.5t147 -222t221 -148.5t269.5 -55q140 0 268.5 55
t221 148.5t147.5 222t55 269.5q0 139 -55 266.5t-147.5 220.5t-221 148t-268.5 55q-188 0 -347.5 -93.5t-252 -252t-92.5 -344.5zM270 754q0 143 73 261.5t199 186.5t277 68q155 0 286.5 -73.5t199.5 -178.5q29 -48 -27 -74l-156 -74q-52 -24 -75 29q-51 115 -103.5 163
t-124.5 48q-112 0 -183 -99.5t-71 -256.5q0 -159 71 -260t183 -101q85 0 142.5 51t99.5 158q20 51 72 27l147 -70q56 -26 29 -72q-74 -113 -208.5 -183.5t-281.5 -70.5q-113 0 -215 40.5t-175 110t-116 166t-43 204.5z" />
    <glyph glyph-name="guillemotleft" unicode="&#xab;" horiz-adv-x="1220" 
d="M324 0q-61 0 -93 57l-174 312q-28 50 -36.5 73t-8.5 60q0 35 9.5 58.5t37.5 68.5l207 332q25 43 78 43h289q38 0 47.5 -34t-18.5 -77l-236 -358q-3 -5 -7 -11t-6.5 -9.5t-4.5 -9t-2 -11.5q0 -13 16 -39l211 -340q28 -44 18.5 -79.5t-49.5 -35.5h-278zM541 502
q0 35 9.5 58.5t37.5 68.5l207 332q25 43 77 43h289q38 0 47.5 -34t-18.5 -77l-236 -358q-3 -5 -7 -11t-6.5 -9.5t-4.5 -9t-2 -11.5q0 -13 16 -39l211 -340q28 -44 18.5 -79.5t-49.5 -35.5h-278q-60 0 -92 57l-174 312q-28 50 -36.5 73t-8.5 60z" />
    <glyph glyph-name="uni00AD" unicode="&#xad;" 
 />
    <glyph glyph-name="registered" unicode="&#xae;" horiz-adv-x="679" 
d="M340 877q-142 0 -238 93.5t-96 227.5t96 228t238 94t238 -94t96 -228t-96 -227.5t-238 -93.5zM94 1198q0 -106 71 -179t175 -73t175 73t71 179t-71.5 179t-174.5 73q-104 0 -175 -73t-71 -179zM205 1055v288q0 29 28 29h136q53 0 86.5 -30.5t33.5 -81.5
q0 -34 -14.5 -61.5t-40.5 -39.5q-18 -8 -6 -22l74 -80q9 -11 7 -21t-15 -10h-43q-24 0 -35 14l-76 84q-19 21 -37 21h-2q-16 0 -16 -15v-75q0 -16 -6 -22.5t-23 -6.5h-23q-17 0 -22.5 6.5t-5.5 22.5zM285 1233q0 -16 16 -16h61q21 0 33.5 11t12.5 29q0 19 -13 30t-33 11h-65
q-12 0 -12 -14v-51z" />
    <glyph glyph-name="macron" unicode="&#xaf;" horiz-adv-x="862" 
d="M139 1149q-83 0 -111 21.5t-28 86.5v93q0 65 28 86.5t111 21.5h584q83 0 111 -21.5t28 -86.5v-93q0 -65 -28 -86.5t-111 -21.5h-584z" />
    <glyph glyph-name="acute" unicode="&#xb4;" horiz-adv-x="677" 
d="M66 1124q-49 0 -61.5 35.5t18.5 79.5l151 223q50 72 150 72h247q86 0 103 -47t-58 -115l-239 -207q-29 -26 -55 -33.5t-74 -7.5h-182z" />
    <glyph glyph-name="cedilla" unicode="&#xb8;" horiz-adv-x="559" 
d="M219 -463q-51 0 -98 16t-76 44q-47 44 -12 96q13 20 38.5 25.5t49.5 -3.5q23 -10 55 -10q47 0 47 72q0 33 -12 48t-45 19q-34 3 -44 31t13 68l72 112l205 -2l-64 -90q111 -26 170.5 -78t59.5 -118q0 -97 -103 -163.5t-256 -66.5z" />
    <glyph glyph-name="guillemotright" unicode="&#xbb;" horiz-adv-x="1204" 
d="M602 0q-40 0 -49.5 35.5t18.5 79.5l211 340q17 27 17 39q0 8 -3 14t-9 13.5t-9 13.5l-235 358q-29 43 -19 77t47 34h289q53 0 78 -43l207 -332q22 -35 29 -47.5t13.5 -34t6.5 -45.5q0 -20 -1.5 -33t-10.5 -33t-12.5 -27t-22.5 -40l-174 -312q-32 -57 -92 -57h-279z
M14 893q-28 43 -18.5 77t47.5 34h289q53 0 78 -43l206 -332q38 -62 45 -84q5 -19 5 -43q0 -9 -0.5 -16.5t-2 -15.5t-2.5 -13t-4.5 -13.5t-5 -12t-6.5 -13.5t-7.5 -14t-9.5 -17t-10 -18l-174 -312q-32 -57 -92 -57h-278q-40 0 -49.5 35.5t18.5 79.5l211 340q16 26 16 39
q0 8 -2.5 13.5t-8.5 13.5t-9 14z" />
    <glyph glyph-name="onequarter" unicode="&#xbc;" horiz-adv-x="1607" 
d="M96 696q-42 0 -63 19.5t-21 54.5q0 40 39 66q32 19 41.5 39.5t9.5 56.5v307q0 25 -11.5 36.5t-45.5 20.5q-45 12 -45 54q0 36 32 63.5t124 59.5q73 25 109 32.5t87 7.5q60 0 60 -45v-536q0 -33 9.5 -55.5t37.5 -42.5q30 -22 30 -66q0 -34 -19.5 -53t-51.5 -19h-322z
M184 84l410 729l326 637q29 59 92 59h137q36 0 50 -21t-5 -61l-387 -706l-348 -662q-18 -32 -38.5 -45.5t-53.5 -13.5h-138q-37 0 -51 21.5t6 62.5zM860 293q0 74 7.5 105t37.5 77q63 97 205 246q54 55 84.5 71.5t89.5 16.5h199q18 0 29.5 -11.5t11.5 -27.5v-315
q0 -25 30 -25q31 0 42.5 -8.5t11.5 -30.5v-135q0 -28 -62 -41q-14 -5 -18 -10t-4 -21q0 -32 35 -55q30 -23 30 -63q-2 -30 -21 -48t-52 -18h-283q-36 0 -56 18.5t-20 49.5q0 37 33 63q21 18 28.5 30t6.5 29q0 23 -17 23h-247q-63 0 -82 17t-19 63zM1065 455
q-11 -12 -6.5 -28.5t24.5 -16.5h109q18 0 23.5 8t5.5 33v133q0 18 -9.5 22.5t-23.5 -6.5q-47 -38 -123 -145z" />
    <glyph glyph-name="onehalf" unicode="&#xbd;" horiz-adv-x="1644" 
d="M96 696q-42 0 -63 19.5t-21 54.5q0 40 39 66q32 19 41.5 39.5t9.5 56.5v307q0 25 -11.5 36.5t-45.5 20.5q-45 12 -45 54q0 36 32 63.5t124 59.5q73 25 109 32.5t87 7.5q60 0 60 -45v-536q0 -33 9.5 -55.5t37.5 -42.5q30 -22 30 -66q0 -34 -19.5 -53t-51.5 -19h-322z
M184 84l410 729l326 637q29 59 92 59h137q36 0 50 -21t-5 -61l-387 -706l-348 -662q-18 -32 -38.5 -45.5t-53.5 -13.5h-138q-37 0 -51 21.5t6 62.5zM874 627q43 92 144.5 145t255.5 53q153 0 254.5 -75t101.5 -191q0 -23 -3.5 -43.5t-13 -40t-17 -34.5t-24 -32.5t-26 -27.5
t-31 -26.5t-29.5 -22.5t-32 -22.5t-29 -20.5q-29 -21 -54.5 -36.5t-46.5 -27t-26 -14.5q-2 -1 -6 -4l-6 -4.5t-5 -4t-4.5 -4t-3.5 -4.5t-2.5 -6t-0.5 -6q0 -16 37 -16q34 0 76.5 19.5t146.5 80.5q5 3 17 10t17.5 10t15 6t17.5 3q43 0 43 -60q0 -70 -28 -168q-5 -19 -11 -31
t-23 -22t-44 -10h-584q-55 0 -55 76q0 95 59 170q25 33 46 52t61 48q115 81 176 143t61 111q0 28 -14 45t-37 17q-10 0 -18.5 -3.5t-14.5 -11.5t-11 -16t-9.5 -23t-8 -26.5t-9 -32.5t-9.5 -35q-8 -28 -30 -34.5t-76 3.5q-131 26 -172 58t-15 86z" />
    <glyph glyph-name="threequarters" unicode="&#xbe;" horiz-adv-x="1845" 
d="M365 684q-201 0 -322 80q-31 20 -39 39.5t7.5 43t56 50t110.5 61.5q44 24 69 22t38 -34q24 -54 42 -77t48 -23q23 0 37 18.5t14 46.5q0 65 -34 92t-109 29q-29 1 -39.5 15.5t-10.5 48.5q0 52 13 73t49 27q32 5 48.5 9.5t34.5 14t25 25t7 39.5q0 27 -15 48.5t-37 21.5
q-25 0 -39 -18.5t-32 -63.5q-15 -33 -39 -40.5t-84 11.5q-113 41 -142.5 72t5.5 71q56 63 153 99.5t215 36.5q151 0 245.5 -59.5t94.5 -149.5q0 -82 -139 -121q-16 -5 -17.5 -18t15.5 -19q79 -32 118.5 -79t39.5 -118q0 -121 -108 -197.5t-279 -76.5zM422 84l409 729
l326 637q29 59 92 59h137q36 0 50.5 -21t-4.5 -61l-388 -706l-348 -662q-18 -32 -38.5 -45.5t-53.5 -13.5h-137q-37 0 -51 21.5t6 62.5zM1098 293q0 74 7.5 105t37.5 77q63 97 205 246q54 55 84.5 71.5t89.5 16.5h198q18 0 29.5 -11.5t11.5 -27.5v-315q0 -25 31 -25
q30 0 41.5 -8.5t11.5 -30.5v-135q0 -28 -61 -41q-15 -5 -19 -10t-4 -21q0 -32 35 -55q31 -24 31 -63q-2 -30 -21.5 -48t-52.5 -18h-283q-36 0 -55.5 18.5t-19.5 49.5q0 22 6.5 35t25.5 28q21 18 28.5 30t6.5 29q0 23 -16 23h-248q-63 0 -81.5 17t-18.5 63zM1303 455
q-11 -12 -6.5 -28.5t24.5 -16.5h109q18 0 23 7.5t5 33.5v133q0 18 -10 22.5t-23 -6.5q-45 -36 -122 -145z" />
    <glyph glyph-name="Agrave" unicode="&#xc0;" horiz-adv-x="1587" 
d="M90 0q-94 0 -94 100q0 61 47 105q42 39 61 100q120 389 193 580q131 337 229 518q35 65 66.5 90t77.5 25q16 0 54 -3.5t52 -3.5q21 0 58.5 3.5t56.5 3.5q38 0 62 -18.5t46 -53.5q75 -118 136.5 -252.5t158.5 -376.5q87 -220 191 -526q3 -10 9 -21t10 -17.5t14.5 -19.5
t13 -15.5t16.5 -17.5t15 -16q28 -36 28 -86q0 -39 -20 -68.5t-66 -29.5h-555q-48 0 -74 28.5t-26 71.5q0 66 63 113q19 14 29 30t12 28t2 30q0 32 -6 59q-11 48 -61 48q-68 2 -207 2q-29 0 -91 -1t-93 -1q-53 0 -66 -37q-12 -36 -12 -62q0 -40 55 -98q51 -53 51 -109
q0 -102 -82 -102h-354zM444 1755q-56 38 -67 76.5t19 62t85 23.5h330q96 0 152 -72l114 -145q42 -52 32 -91.5t-67 -39.5h-270q-51 0 -90 26zM545 731q-16 -65 45 -65h209q25 0 31.5 16.5t-3.5 48.5q-40 131 -125 293q-11 18 -23.5 17t-21.5 -19q-34 -66 -66.5 -149.5
t-45.5 -141.5z" />
    <glyph glyph-name="Aacute" unicode="&#xc1;" horiz-adv-x="1587" 
d="M90 0q-94 0 -94 100q0 61 47 105q42 39 61 100q120 389 193 580q131 337 229 518q35 65 66.5 90t77.5 25q16 0 54 -3.5t52 -3.5q21 0 58.5 3.5t56.5 3.5q38 0 62 -18.5t46 -53.5q75 -118 136.5 -252.5t158.5 -376.5q87 -220 191 -526q3 -10 9 -21t10 -17.5t14.5 -19.5
t13 -15.5t16.5 -17.5t15 -16q28 -36 28 -86q0 -39 -20 -68.5t-66 -29.5h-555q-48 0 -74 28.5t-26 71.5q0 66 63 113q19 14 29 30t12 28t2 30q0 32 -6 59q-11 48 -61 48q-68 2 -207 2q-29 0 -91 -1t-93 -1q-53 0 -66 -37q-12 -36 -12 -62q0 -40 55 -98q51 -53 51 -109
q0 -102 -82 -102h-354zM545 731q-16 -65 45 -65h209q25 0 31.5 16.5t-3.5 48.5q-40 131 -125 293q-11 18 -23.5 17t-21.5 -19q-34 -66 -66.5 -149.5t-45.5 -141.5zM561 1708l115 145q56 72 151 72h330q55 0 86 -24t20 -62.5t-69 -75.5l-238 -155q-44 -31 -100 -31h-260
q-57 0 -67 39.5t32 91.5z" />
    <glyph glyph-name="Acircumflex" unicode="&#xc2;" horiz-adv-x="1587" 
d="M90 0q-94 0 -94 100q0 61 47 105q42 39 61 100q120 389 193 580q131 337 229 518q35 65 66.5 90t77.5 25q16 0 54 -3.5t52 -3.5q21 0 58.5 3.5t56.5 3.5q38 0 62 -18.5t46 -53.5q75 -118 136.5 -252.5t158.5 -376.5q87 -220 191 -526q3 -10 9 -21t10 -17.5t14.5 -19.5
t13 -15.5t16.5 -17.5t15 -16q28 -36 28 -86q0 -39 -20 -68.5t-66 -29.5h-555q-48 0 -74 28.5t-26 71.5q0 66 63 113q19 14 29 30t12 28t2 30q0 32 -6 59q-11 48 -61 48q-68 2 -207 2q-29 0 -91 -1t-93 -1q-53 0 -66 -37q-12 -36 -12 -62q0 -40 55 -98q51 -53 51 -109
q0 -102 -82 -102h-354zM334 1655l207 209q35 32 76 41.5t161 9.5q130 0 173.5 -9.5t74.5 -39.5l227 -209q38 -37 19 -65.5t-72 -28.5h-196q-58 0 -119 39l-105 63l-104 -66q-58 -36 -98 -36h-191q-51 0 -69.5 28.5t16.5 63.5zM545 731q-16 -65 45 -65h209q25 0 31.5 16.5
t-3.5 48.5q-40 131 -125 293q-11 18 -23.5 17t-21.5 -19q-34 -66 -66.5 -149.5t-45.5 -141.5z" />
    <glyph glyph-name="Atilde" unicode="&#xc3;" horiz-adv-x="1587" 
d="M90 0q-94 0 -94 100q0 61 47 105q42 39 61 100q120 389 193 580q131 337 229 518q35 65 66.5 90t77.5 25q16 0 54 -3.5t52 -3.5q21 0 58.5 3.5t56.5 3.5q38 0 62 -18.5t46 -53.5q75 -118 136.5 -252.5t158.5 -376.5q87 -220 191 -526q3 -10 9 -21t10 -17.5t14.5 -19.5
t13 -15.5t16.5 -17.5t15 -16q28 -36 28 -86q0 -39 -20 -68.5t-66 -29.5h-555q-48 0 -74 28.5t-26 71.5q0 66 63 113q19 14 29 30t12 28t2 30q0 32 -6 59q-11 48 -61 48q-68 2 -207 2q-29 0 -91 -1t-93 -1q-53 0 -66 -37q-12 -36 -12 -62q0 -40 55 -98q51 -53 51 -109
q0 -102 -82 -102h-354zM358 1700q36 149 95.5 211.5t154.5 62.5q71 0 240 -59q157 -55 184 -55q42 0 74 51q38 66 104 41q64 -24 41 -125q-34 -156 -84.5 -216.5t-148.5 -60.5q-29 0 -71 9.5t-76 20.5t-103 34q-137 49 -178 49q-46 0 -78 -55q-36 -58 -96 -43
q-85 22 -58 135zM545 731q-16 -65 45 -65h209q25 0 31.5 16.5t-3.5 48.5q-40 131 -125 293q-11 18 -23.5 17t-21.5 -19q-34 -66 -66.5 -149.5t-45.5 -141.5z" />
    <glyph glyph-name="Adieresis" unicode="&#xc4;" horiz-adv-x="1587" 
d="M90 0q-94 0 -94 100q0 61 47 105q42 39 61 100q120 389 193 580q131 337 229 518q35 65 66.5 90t77.5 25q16 0 54 -3.5t52 -3.5q21 0 58.5 3.5t56.5 3.5q38 0 62 -18.5t46 -53.5q75 -118 136.5 -252.5t158.5 -376.5q87 -220 191 -526q3 -10 9 -21t10 -17.5t14.5 -19.5
t13 -15.5t16.5 -17.5t15 -16q28 -36 28 -86q0 -39 -20 -68.5t-66 -29.5h-555q-48 0 -74 28.5t-26 71.5q0 66 63 113q19 14 29 30t12 28t2 30q0 32 -6 59q-11 48 -61 48q-68 2 -207 2q-29 0 -91 -1t-93 -1q-53 0 -66 -37q-12 -36 -12 -62q0 -40 55 -98q51 -53 51 -109
q0 -102 -82 -102h-354zM281 1774q0 98 70.5 164.5t174.5 66.5q100 0 168 -62.5t68 -154.5q0 -98 -72 -166t-178 -68q-98 0 -164.5 63.5t-66.5 156.5zM545 731q-16 -65 45 -65h209q25 0 31.5 16.5t-3.5 48.5q-40 131 -125 293q-11 18 -23.5 17t-21.5 -19
q-34 -66 -66.5 -149.5t-45.5 -141.5zM813 1769q0 98 71 165t175 67q100 0 167.5 -62.5t67.5 -154.5q0 -98 -72 -166t-178 -68q-98 0 -164.5 63.5t-66.5 155.5z" />
    <glyph glyph-name="Aring" unicode="&#xc5;" horiz-adv-x="1587" 
d="M90 0q-94 0 -94 100q0 61 47 105q42 39 61 100q120 389 193 580q131 337 229 518q35 65 66.5 90t77.5 25q16 0 54 -3.5t52 -3.5q21 0 58.5 3.5t56.5 3.5q38 0 62 -18.5t46 -53.5q75 -118 136.5 -252.5t158.5 -376.5q87 -220 191 -526q3 -10 9 -21t10 -17.5t14.5 -19.5
t13 -15.5t16.5 -17.5t15 -16q28 -36 28 -86q0 -39 -20 -68.5t-66 -29.5h-555q-48 0 -74 28.5t-26 71.5q0 66 63 113q19 14 29 30t12 28t2 30q0 32 -6 59q-11 48 -61 48q-68 2 -207 2q-29 0 -91 -1t-93 -1q-53 0 -66 -37q-12 -36 -12 -62q0 -40 55 -98q51 -53 51 -109
q0 -102 -82 -102h-354zM526 1796q0 101 78 173.5t187 72.5t186.5 -72.5t77.5 -173.5t-77.5 -174.5t-186.5 -73.5t-187 73.5t-78 174.5zM545 731q-16 -65 45 -65h209q25 0 31.5 16.5t-3.5 48.5q-40 131 -125 293q-11 18 -23.5 17t-21.5 -19q-34 -66 -66.5 -149.5
t-45.5 -141.5zM682 1796q0 -52 30.5 -84.5t80.5 -32.5q46 0 76 32.5t30 84.5q0 50 -30 81.5t-76 31.5q-50 0 -80.5 -31t-30.5 -82z" />
    <glyph glyph-name="Ccedilla" unicode="&#xc7;" horiz-adv-x="1468" 
d="M762 -526q-112 0 -174 59q-48 44 -13 96q13 20 39 26t50 -3q23 -10 55 -10q24 0 35.5 16t11.5 55q0 33 -12 48.5t-45 19.5q-34 3 -44 30.5t13 67.5l55 86q-129 13 -243.5 63.5t-199.5 126.5t-147.5 171.5t-94.5 202t-32 214.5q0 175 66 324.5t176 249t253 155.5t298 56
q166 0 299.5 -42.5t255.5 -139.5q101 -81 70 -167.5t-207 -211.5q-48 -34 -92 -44t-81.5 9t-60.5 69q-67 145 -129 206t-139 61q-91 0 -142 -84t-51 -215q0 -165 58 -308t160.5 -228t224.5 -85q86 0 159.5 30t159.5 89q29 24 59.5 20t71.5 -43q39 -35 39 -80.5t-45 -109.5
q-74 -106 -202 -182.5t-275 -100.5l-51 -71q110 -26 169.5 -78.5t59.5 -118.5q0 -97 -102.5 -163t-255.5 -66z" />
    <glyph glyph-name="Egrave" unicode="&#xc8;" horiz-adv-x="1366" 
d="M141 0q-59 0 -85.5 30.5t-26.5 73.5q0 57 53 93q38 28 51 62t12 103v785q1 68 -13.5 103t-53.5 63q-51 39 -51 94q0 43 26 73t84 29h987q50 0 76 -17t41 -62q74 -230 74 -306q0 -43 -18 -66.5t-52 -23.5q-31 0 -82.5 25.5t-92.5 53t-105 73.5q-72 52 -119 74t-92 22
q-69 0 -103.5 -46t-34.5 -126v-86q0 -55 18 -74.5t71 -19.5h356q34 0 54 -20t20 -52q0 -89 -68 -184q-27 -36 -50 -52t-61 -16q-37 0 -117.5 33.5t-105.5 34.5q-117 3 -117 -191v-104q0 -75 34 -114t98 -38q17 0 37 5t44 15.5t42.5 19t46 24.5t39 23t37 23t26.5 17
q43 28 97 64.5t74.5 49.5t47.5 23.5t53 10.5q74 0 74 -82q0 -46 -43 -199q-38 -133 -68.5 -177t-101.5 -44h-1012zM354 1765q-56 38 -67 76.5t19 62t85 23.5h330q95 0 151 -72l115 -145q42 -52 32 -91.5t-67 -39.5h-270q-50 0 -90 27z" />
    <glyph glyph-name="Eacute" unicode="&#xc9;" horiz-adv-x="1366" 
d="M141 0q-59 0 -85.5 30.5t-26.5 73.5q0 57 53 93q38 28 51 62t12 103v785q1 68 -13.5 103t-53.5 63q-51 39 -51 94q0 43 26 73t84 29h987q50 0 76 -17t41 -62q74 -230 74 -306q0 -43 -18 -66.5t-52 -23.5q-31 0 -82.5 25.5t-92.5 53t-105 73.5q-72 52 -119 74t-92 22
q-69 0 -103.5 -46t-34.5 -126v-86q0 -55 18 -74.5t71 -19.5h356q34 0 54 -20t20 -52q0 -89 -68 -184q-27 -36 -50 -52t-61 -16q-37 0 -117.5 33.5t-105.5 34.5q-117 3 -117 -191v-104q0 -75 34 -114t98 -38q17 0 37 5t44 15.5t42.5 19t46 24.5t39 23t37 23t26.5 17
q43 28 97 64.5t74.5 49.5t47.5 23.5t53 10.5q74 0 74 -82q0 -46 -43 -199q-38 -133 -68.5 -177t-101.5 -44h-1012zM471 1718l115 146q55 71 151 71h330q55 0 86 -23.5t20 -62t-69 -75.5l-238 -156q-44 -31 -100 -31h-260q-57 0 -67 39.5t32 91.5z" />
    <glyph glyph-name="Ecircumflex" unicode="&#xca;" horiz-adv-x="1366" 
d="M141 0q-59 0 -85.5 30.5t-26.5 73.5q0 57 53 93q38 28 51 62t12 103v785q1 68 -13.5 103t-53.5 63q-51 39 -51 94q0 43 26 73t84 29h987q50 0 76 -17t41 -62q74 -230 74 -306q0 -43 -18 -66.5t-52 -23.5q-31 0 -82.5 25.5t-92.5 53t-105 73.5q-72 52 -119 74t-92 22
q-69 0 -103.5 -46t-34.5 -126v-86q0 -55 18 -74.5t71 -19.5h356q34 0 54 -20t20 -52q0 -89 -68 -184q-27 -36 -50 -52t-61 -16q-37 0 -117.5 33.5t-105.5 34.5q-117 3 -117 -191v-104q0 -75 34 -114t98 -38q17 0 37 5t44 15.5t42.5 19t46 24.5t39 23t37 23t26.5 17
q43 28 97 64.5t74.5 49.5t47.5 23.5t53 10.5q74 0 74 -82q0 -46 -43 -199q-38 -133 -68.5 -177t-101.5 -44h-1012zM244 1665l207 209q35 32 76 41.5t161 9.5q130 0 173.5 -9.5t74.5 -39.5l227 -209q38 -37 19 -65.5t-72 -28.5h-197q-57 0 -118 39l-105 63l-104 -65
q-60 -37 -99 -37h-190q-51 0 -69.5 28.5t16.5 63.5z" />
    <glyph glyph-name="Edieresis" unicode="&#xcb;" horiz-adv-x="1366" 
d="M141 0q-59 0 -85.5 30.5t-26.5 73.5q0 57 53 93q38 28 51 62t12 103v785q1 68 -13.5 103t-53.5 63q-51 39 -51 94q0 43 26 73t84 29h987q50 0 76 -17t41 -62q74 -230 74 -306q0 -43 -18 -66.5t-52 -23.5q-31 0 -82.5 25.5t-92.5 53t-105 73.5q-72 52 -119 74t-92 22
q-69 0 -103.5 -46t-34.5 -126v-86q0 -55 18 -74.5t71 -19.5h356q34 0 54 -20t20 -52q0 -89 -68 -184q-27 -36 -50 -52t-61 -16q-37 0 -117.5 33.5t-105.5 34.5q-117 3 -117 -191v-104q0 -75 34 -114t98 -38q17 0 37 5t44 15.5t42.5 19t46 24.5t39 23t37 23t26.5 17
q43 28 97 64.5t74.5 49.5t47.5 23.5t53 10.5q74 0 74 -82q0 -46 -43 -199q-38 -133 -68.5 -177t-101.5 -44h-1012zM190 1784q0 98 71 164.5t175 66.5q100 0 168 -62.5t68 -154.5q0 -98 -72 -165.5t-178 -67.5q-98 0 -165 63.5t-67 155.5zM723 1780q0 98 71 164.5t175 66.5
q100 0 167.5 -62.5t67.5 -154.5q0 -98 -72 -165.5t-178 -67.5q-98 0 -164.5 63.5t-66.5 155.5z" />
    <glyph glyph-name="Igrave" unicode="&#xcc;" horiz-adv-x="759" 
d="M141 0q-59 0 -85.5 30.5t-26.5 73.5q0 57 53 93q38 28 51 62t12 103v785q1 68 -13.5 103t-53.5 63q-51 39 -51 94q0 43 26 73t84 29h488q58 0 83 -30.5t25 -73.5q0 -56 -53 -94q-38 -26 -51.5 -60.5t-12.5 -103.5v-785q-1 -68 12 -102.5t52 -62.5q53 -36 53 -93
q0 -43 -26.5 -73.5t-85.5 -30.5h-480zM31 1755q-56 38 -67 76.5t19 62t85 23.5h329q96 0 152 -72l115 -145q42 -52 32 -91.5t-67 -39.5h-271q-51 0 -90 26z" />
    <glyph glyph-name="Iacute" unicode="&#xcd;" horiz-adv-x="759" 
d="M141 0q-59 0 -85.5 30.5t-26.5 73.5q0 57 53 93q38 28 51 62t12 103v785q1 68 -13.5 103t-53.5 63q-51 39 -51 94q0 43 26 73t84 29h488q58 0 83 -30.5t25 -73.5q0 -56 -53 -94q-38 -26 -51.5 -60.5t-12.5 -103.5v-785q-1 -68 12 -102.5t52 -62.5q53 -36 53 -93
q0 -43 -26.5 -73.5t-85.5 -30.5h-480zM147 1708l115 145q56 72 152 72h329q55 0 86 -24t20 -62.5t-69 -75.5l-237 -155q-44 -31 -101 -31h-260q-57 0 -67 39.5t32 91.5z" />
    <glyph glyph-name="Icircumflex" unicode="&#xce;" horiz-adv-x="759" 
d="M141 0q-59 0 -85.5 30.5t-26.5 73.5q0 57 53 93q38 28 51 62t12 103v785q1 68 -13.5 103t-53.5 63q-51 39 -51 94q0 43 26 73t84 29h488q58 0 83 -30.5t25 -73.5q0 -56 -53 -94q-38 -26 -51.5 -60.5t-12.5 -103.5v-785q-1 -68 12 -102.5t52 -62.5q53 -36 53 -93
q0 -43 -26.5 -73.5t-85.5 -30.5h-480zM-80 1655l207 209q35 32 76.5 41.5t161.5 9.5q130 0 173 -9.5t74 -39.5l228 -209q38 -37 18.5 -65.5t-72.5 -28.5h-196q-58 0 -119 39l-104 63l-105 -66q-58 -36 -98 -36h-191q-51 0 -69.5 28.5t16.5 63.5z" />
    <glyph glyph-name="Idieresis" unicode="&#xcf;" horiz-adv-x="759" 
d="M141 0q-59 0 -85.5 30.5t-26.5 73.5q0 57 53 93q38 28 51 62t12 103v785q1 68 -13.5 103t-53.5 63q-51 39 -51 94q0 43 26 73t84 29h488q58 0 83 -30.5t25 -73.5q0 -56 -53 -94q-38 -26 -51.5 -60.5t-12.5 -103.5v-785q-1 -68 12 -102.5t52 -62.5q53 -36 53 -93
q0 -43 -26.5 -73.5t-85.5 -30.5h-480zM-133 1774q0 98 71 164.5t175 66.5q100 0 167.5 -62.5t67.5 -154.5q0 -98 -72 -166t-178 -68q-98 0 -164.5 63.5t-66.5 156.5zM399 1769q0 98 71 165t175 67q100 0 168 -62.5t68 -154.5q0 -98 -72 -166t-178 -68q-98 0 -165 63.5
t-67 155.5z" />
    <glyph glyph-name="Eth" unicode="&#xd0;" horiz-adv-x="1579" 
d="M141 0q-59 0 -85.5 30.5t-26.5 73.5q0 57 53 93q38 28 51 62t12 103v240h-61q-59 0 -85 10t-38 41.5t-12 102.5q0 98 26 126.5t109 28.5h61v236q1 68 -13.5 103t-53.5 63q-51 39 -51 94q2 44 27.5 73.5t82.5 28.5h635q376 0 585.5 -192t209.5 -576q0 -188 -61 -331
t-174.5 -232t-268 -133.5t-348.5 -44.5h-574zM616 426q0 -89 42 -136.5t118 -47.5q134 0 206.5 116t72.5 332q0 153 -51 286t-139 211.5t-191 78.5q-58 0 -58 -56v-299h136q81 0 106 -28.5t25 -126.5q0 -71 -11.5 -102.5t-37 -41.5t-82.5 -10h-136v-176z" />
    <glyph glyph-name="Ntilde" unicode="&#xd1;" horiz-adv-x="1531" 
d="M1196 -4q-49 0 -79.5 27.5t-35.5 74.5q-9 83 -63 142l-520 559q-9 11 -20 7.5t-11 -18.5l-4 -426q-1 -67 17 -102t67 -65q66 -40 63 -95q0 -43 -34.5 -73t-110.5 -27h-324q-59 0 -85.5 30.5t-26.5 73.5q0 57 53 93q38 28 51 62t12 103v785q1 68 -13.5 103t-53.5 63
q-51 39 -51 94q0 43 26 73t84 29h303q77 0 116.5 -21t88.5 -75l391 -436q15 -18 26 -15t11 21v164q1 67 -15.5 102t-60.5 64q-59 39 -59 94q2 43 31.5 73t95.5 29h342q58 0 83.5 -30.5t25.5 -73.5q0 -55 -54 -94q-38 -26 -51.5 -60.5t-11.5 -103.5l2 -1004q0 -147 -107 -147
h-98zM330 1700q36 149 95.5 211.5t154.5 62.5q70 0 239 -59q157 -55 185 -55q23 0 39.5 11.5t33.5 39.5q38 66 105 41q64 -24 41 -125q-34 -156 -85 -216.5t-149 -60.5q-29 0 -71 9.5t-76 20.5t-103 34q-137 49 -178 49q-46 0 -78 -55q-36 -58 -96 -43q-45 12 -58.5 46
t1.5 89z" />
    <glyph glyph-name="Ograve" unicode="&#xd2;" horiz-adv-x="1650" 
d="M852 -35q-243 0 -433.5 101.5t-296.5 284t-106 415.5q0 159 61.5 301t166.5 243.5t251 161t308 58.5q180 0 334.5 -62t263 -171.5t170 -264.5t61.5 -336q0 -202 -103.5 -370t-282.5 -264.5t-394 -96.5zM475 1765q-56 38 -67 76.5t19 62t85 23.5h330q95 0 151 -72
l115 -145q42 -52 32 -91.5t-67 -39.5h-270q-49 0 -90 27zM530 940q0 -164 51.5 -325.5t141 -267t188.5 -105.5q100 0 153.5 87.5t53.5 248.5q0 163 -52.5 318.5t-142 255t-188.5 101.5q-98 2 -151.5 -79.5t-53.5 -233.5z" />
    <glyph glyph-name="Oacute" unicode="&#xd3;" horiz-adv-x="1650" 
d="M852 -35q-243 0 -433.5 101.5t-296.5 284t-106 415.5q0 159 61.5 301t166.5 243.5t251 161t308 58.5q180 0 334.5 -62t263 -171.5t170 -264.5t61.5 -336q0 -202 -103.5 -370t-282.5 -264.5t-394 -96.5zM530 940q0 -164 51.5 -325.5t141 -267t188.5 -105.5
q100 0 153.5 87.5t53.5 248.5q0 163 -52.5 318.5t-142 255t-188.5 101.5q-98 2 -151.5 -79.5t-53.5 -233.5zM592 1718l115 146q55 71 151 71h330q55 0 86 -23.5t20 -62t-69 -75.5l-238 -156q-44 -31 -100 -31h-260q-57 0 -67 39.5t32 91.5z" />
    <glyph glyph-name="Ocircumflex" unicode="&#xd4;" horiz-adv-x="1650" 
d="M852 -35q-243 0 -433.5 101.5t-296.5 284t-106 415.5q0 159 61.5 301t166.5 243.5t251 161t308 58.5q180 0 334.5 -62t263 -171.5t170 -264.5t61.5 -336q0 -202 -103.5 -370t-282.5 -264.5t-394 -96.5zM365 1665l206 209q35 32 76.5 41.5t161.5 9.5q130 0 173.5 -9.5
t74.5 -39.5l227 -209q38 -37 19 -65.5t-72 -28.5h-197q-58 0 -119 39l-104 63l-104 -65q-60 -37 -99 -37h-190q-51 0 -69.5 28.5t16.5 63.5zM530 940q0 -164 51.5 -325.5t141 -267t188.5 -105.5q100 0 153.5 87.5t53.5 248.5q0 163 -52.5 318.5t-142 255t-188.5 101.5
q-98 2 -151.5 -79.5t-53.5 -233.5z" />
    <glyph glyph-name="Otilde" unicode="&#xd5;" horiz-adv-x="1650" 
d="M852 -35q-243 0 -433.5 101.5t-296.5 284t-106 415.5q0 159 61.5 301t166.5 243.5t251 161t308 58.5q180 0 334.5 -62t263 -171.5t170 -264.5t61.5 -336q0 -202 -103.5 -370t-282.5 -264.5t-394 -96.5zM389 1710q36 149 95.5 212t154.5 63q68 0 240 -60q157 -55 184 -55
q42 0 74 51q38 66 104 41q64 -24 41 -125q-34 -156 -84.5 -216t-148.5 -60q-64 0 -250 63q-137 49 -178 49q-46 0 -78 -55q-36 -59 -97 -43q-45 12 -58.5 46t1.5 89zM530 940q0 -164 51.5 -325.5t141 -267t188.5 -105.5q100 0 153.5 87.5t53.5 248.5q0 163 -52.5 318.5
t-142 255t-188.5 101.5q-98 2 -151.5 -79.5t-53.5 -233.5z" />
    <glyph glyph-name="Odieresis" unicode="&#xd6;" horiz-adv-x="1650" 
d="M852 -35q-243 0 -433.5 101.5t-296.5 284t-106 415.5q0 159 61.5 301t166.5 243.5t251 161t308 58.5q180 0 334.5 -62t263 -171.5t170 -264.5t61.5 -336q0 -202 -103.5 -370t-282.5 -264.5t-394 -96.5zM311 1784q0 98 71 164.5t175 66.5q100 0 168 -62.5t68 -154.5
q0 -98 -72 -165.5t-178 -67.5q-98 0 -165 63.5t-67 155.5zM530 940q0 -164 51.5 -325.5t141 -267t188.5 -105.5q100 0 153.5 87.5t53.5 248.5q0 163 -52.5 318.5t-142 255t-188.5 101.5q-98 2 -151.5 -79.5t-53.5 -233.5zM844 1780q0 98 71 164.5t175 66.5
q100 0 167.5 -62.5t67.5 -154.5q0 -98 -72 -165.5t-178 -67.5q-98 0 -164.5 63.5t-66.5 155.5z" />
    <glyph glyph-name="Oslash" unicode="&#xd8;" horiz-adv-x="1650" 
d="M852 -35q-103 0 -215 23l-39 -101q-8 -22 -12 -31.5t-13 -22.5t-19.5 -17t-28 -4.5t-40.5 6.5q-41 12 -50.5 34t7.5 68l43 115q-218 92 -343.5 284.5t-125.5 446.5q0 159 61.5 301t166.5 243.5t251 161t308 58.5q126 0 244 -31l22 57q19 48 37.5 62t69.5 6
q46 -8 57.5 -29t-6.5 -65l-33 -86q205 -99 321.5 -296t116.5 -452q0 -202 -103.5 -370t-282.5 -264.5t-394 -96.5zM530 940q0 -125 31.5 -252t87.5 -229l269 700q-88 91 -183 94q-98 2 -151.5 -79.5t-53.5 -233.5zM760 309q73 -67 151 -67q100 0 153.5 87.5t53.5 248.5
q0 219 -94 419z" />
    <glyph glyph-name="Ugrave" unicode="&#xd9;" horiz-adv-x="1550" 
d="M786 -27q-312 0 -479.5 125t-167.5 385v664q1 68 -13.5 103t-53.5 63q-52 39 -52 94q0 43 26.5 73t84.5 29h504q73 0 105 -30.5t32 -73.5q0 -28 -14 -50t-51 -44q-49 -26 -66.5 -60.5t-15.5 -103.5v-645q0 -96 63 -148.5t174 -52.5q93 0 152 54.5t59 140.5l2 651
q1 67 -18 102t-68 64q-37 24 -51 46.5t-12 49.5q0 43 33 72t106 28h356q58 0 83.5 -30.5t25.5 -73.5q0 -56 -53 -94q-38 -26 -51 -60t-13 -104l2 -608q0 -88 -17.5 -165.5t-62 -152.5t-114 -128.5t-181 -86.5t-254.5 -33zM487 1755q-56 38 -67 76.5t19 62t85 23.5h330
q96 0 152 -72l114 -145q42 -52 32 -91.5t-67 -39.5h-270q-51 0 -90 26z" />
    <glyph glyph-name="Uacute" unicode="&#xda;" horiz-adv-x="1550" 
d="M786 -27q-312 0 -479.5 125t-167.5 385v664q1 68 -13.5 103t-53.5 63q-52 39 -52 94q0 43 26.5 73t84.5 29h504q73 0 105 -30.5t32 -73.5q0 -28 -14 -50t-51 -44q-49 -26 -66.5 -60.5t-15.5 -103.5v-645q0 -96 63 -148.5t174 -52.5q93 0 152 54.5t59 140.5l2 651
q1 67 -18 102t-68 64q-37 24 -51 46.5t-12 49.5q0 43 33 72t106 28h356q58 0 83.5 -30.5t25.5 -73.5q0 -56 -53 -94q-38 -26 -51 -60t-13 -104l2 -608q0 -88 -17.5 -165.5t-62 -152.5t-114 -128.5t-181 -86.5t-254.5 -33zM604 1708l115 145q56 72 151 72h330q55 0 86 -24
t20 -62.5t-69 -75.5l-238 -155q-44 -31 -100 -31h-260q-57 0 -67 39.5t32 91.5z" />
    <glyph glyph-name="Ucircumflex" unicode="&#xdb;" horiz-adv-x="1550" 
d="M786 -27q-312 0 -479.5 125t-167.5 385v664q1 68 -13.5 103t-53.5 63q-52 39 -52 94q0 43 26.5 73t84.5 29h504q73 0 105 -30.5t32 -73.5q0 -28 -14 -50t-51 -44q-49 -26 -66.5 -60.5t-15.5 -103.5v-645q0 -96 63 -148.5t174 -52.5q93 0 152 54.5t59 140.5l2 651
q1 67 -18 102t-68 64q-37 24 -51 46.5t-12 49.5q0 43 33 72t106 28h356q58 0 83.5 -30.5t25.5 -73.5q0 -56 -53 -94q-38 -26 -51 -60t-13 -104l2 -608q0 -88 -17.5 -165.5t-62 -152.5t-114 -128.5t-181 -86.5t-254.5 -33zM377 1655l207 209q35 32 76 41.5t161 9.5
q130 0 173.5 -9.5t74.5 -39.5l227 -209q38 -37 19 -65.5t-72 -28.5h-196q-58 0 -119 39l-105 63l-104 -66q-58 -36 -98 -36h-191q-51 0 -69.5 28.5t16.5 63.5z" />
    <glyph glyph-name="Udieresis" unicode="&#xdc;" horiz-adv-x="1550" 
d="M786 -27q-312 0 -479.5 125t-167.5 385v664q1 68 -13.5 103t-53.5 63q-52 39 -52 94q0 43 26.5 73t84.5 29h504q73 0 105 -30.5t32 -73.5q0 -28 -14 -50t-51 -44q-49 -26 -66.5 -60.5t-15.5 -103.5v-645q0 -96 63 -148.5t174 -52.5q93 0 152 54.5t59 140.5l2 651
q1 67 -18 102t-68 64q-37 24 -51 46.5t-12 49.5q0 43 33 72t106 28h356q58 0 83.5 -30.5t25.5 -73.5q0 -56 -53 -94q-38 -26 -51 -60t-13 -104l2 -608q0 -88 -17.5 -165.5t-62 -152.5t-114 -128.5t-181 -86.5t-254.5 -33zM324 1774q0 98 70.5 164.5t174.5 66.5
q100 0 168 -62.5t68 -154.5q0 -98 -72 -166t-178 -68q-98 0 -164.5 63.5t-66.5 156.5zM856 1769q0 98 71 165t175 67q100 0 167.5 -62.5t67.5 -154.5q0 -98 -72 -166t-178 -68q-98 0 -164.5 63.5t-66.5 155.5z" />
    <glyph glyph-name="Yacute" unicode="&#xdd;" horiz-adv-x="1437" 
d="M500 0q-75 0 -108.5 30.5t-33.5 73.5q0 55 66 93q48 28 64.5 62.5t15.5 102.5v111q0 28 -4.5 50t-10 34t-16.5 33q-201 324 -344 610q-31 67 -78 111q-27 23 -40 45.5t-13 56.5q0 46 27 71t77 25h500q61 0 90 -24.5t29 -75.5q0 -54 -45 -90q-35 -28 -35 -64q0 -20 23 -73
q55 -120 135 -238q42 -65 80 0q78 133 120 244q19 43 19 67q0 32 -33 58q-27 23 -39 42.5t-12 49.5q0 104 121 104h282q50 0 76.5 -28t26.5 -72q0 -58 -45 -100q-39 -37 -66 -95q-74 -151 -313 -593q-26 -48 -33.5 -77t-7.5 -71v-111q-1 -67 17 -102t67 -65q66 -38 63 -95
q0 -43 -34 -72t-109 -28h-479zM485 1708l115 145q56 72 152 72h329q55 0 86 -24t20 -62.5t-69 -75.5l-237 -155q-44 -31 -101 -31h-260q-57 0 -67 39.5t32 91.5z" />
    <glyph glyph-name="Thorn" unicode="&#xde;" horiz-adv-x="1380" 
d="M141 0q-59 0 -85.5 30.5t-26.5 73.5q0 57 53 93q38 28 51 62t12 103v785q1 68 -13.5 103t-53.5 63q-51 39 -51 94q0 43 26 73t84 29h488q58 0 83 -30.5t25 -73.5q0 -53 -45 -88h168q242 0 383 -121t141 -326q0 -155 -102.5 -262.5t-300.5 -163.5q-152 -40 -307 -88
q-43 -11 -52 -49q6 -38 24 -62.5t54 -49.5q65 -39 62 -95q0 -43 -32.5 -72t-104.5 -28h-480zM616 340v22v-22zM616 641q0 -33 29 -33q17 0 66 27q79 42 115 101.5t36 144.5q0 86 -55.5 150.5t-130.5 64.5h-10q-27 0 -38.5 -14t-11.5 -44v-397zM616 1147v31v-31z" />
    <glyph glyph-name="germandbls" unicode="&#xdf;" horiz-adv-x="1296" 
d="M850 -27q-92 0 -161.5 31.5t-129.5 99.5q-17 18 -33 14.5t-18 -24.5l-2 -18q-3 -31 -26.5 -53.5t-53.5 -22.5h-317q-57 0 -82 30t-25 72q0 52 53 95q31 25 41 56t10 99v819q0 184 159 294t433 110q251 0 401 -106t150 -277q0 -86 -48 -160.5t-136 -128.5
q-14 -9 -13 -21.5t13 -17.5q98 -39 164.5 -140.5t66.5 -240.5q0 -232 -119.5 -371t-326.5 -139zM539 461q0 -168 149 -168q73 0 116.5 54t43.5 138q0 87 -47 144t-129 57h-21q-43 0 -43 43v199q0 19 10.5 31t28.5 12h21q65 0 104 47t39 121q0 78 -38 126t-101 48
q-59 0 -96 -40t-37 -106v-706z" />
    <glyph glyph-name="agrave" unicode="&#xe0;" horiz-adv-x="1241" 
d="M385 -27q-65 0 -130 24.5t-121.5 71t-92 125.5t-35.5 177q0 79 27 147.5t71 116t100.5 81.5t116 50t117.5 16q49 0 107.5 -6t64.5 -6q33 0 33 35q0 57 -39.5 96t-99.5 39q-33 0 -76.5 -16.5t-73.5 -33.5t-77.5 -48t-61.5 -39q-89 -54 -131 51q-47 118 -39.5 178t78.5 90
q42 17 150.5 31t209.5 14q286 0 432.5 -90t167.5 -307l37 -391q12 -119 72 -176q45 -45 45 -92q0 -57 -69.5 -98.5t-161.5 -37.5q-130 0 -246 86q-31 22 -62 0q-125 -88 -313 -88zM221 1462q-75 68 -58 115t103 47h266q100 0 150 -72l152 -223q31 -44 18.5 -79.5
t-61.5 -35.5h-201q-48 0 -74 7.5t-55 33.5zM449 434q0 -77 39 -139t108 -62q54 0 80 37t18 101l-16 129q-6 45 -30.5 64.5t-76.5 19.5q-54 0 -88 -45.5t-34 -104.5z" />
    <glyph glyph-name="aacute" unicode="&#xe1;" horiz-adv-x="1241" 
d="M385 -27q-65 0 -130 24.5t-121.5 71t-92 125.5t-35.5 177q0 79 27 147.5t71 116t100.5 81.5t116 50t117.5 16q49 0 107.5 -6t64.5 -6q33 0 33 35q0 57 -39.5 96t-99.5 39q-33 0 -76.5 -16.5t-73.5 -33.5t-77.5 -48t-61.5 -39q-89 -54 -131 51q-47 118 -39.5 178t78.5 90
q42 17 150.5 31t209.5 14q286 0 432.5 -90t167.5 -307l37 -391q12 -119 72 -176q45 -45 45 -92q0 -57 -69.5 -98.5t-161.5 -37.5q-130 0 -246 86q-31 22 -62 0q-125 -88 -313 -88zM367 1331l151 223q50 72 150 72h247q86 0 103.5 -47t-57.5 -115l-240 -207
q-29 -26 -54.5 -33t-74.5 -7h-182q-49 0 -61.5 35t18.5 79zM449 434q0 -77 39 -139t108 -62q54 0 80 37t18 101l-16 129q-6 45 -30.5 64.5t-76.5 19.5q-54 0 -88 -45.5t-34 -104.5z" />
    <glyph glyph-name="acircumflex" unicode="&#xe2;" horiz-adv-x="1241" 
d="M385 -27q-65 0 -130 24.5t-121.5 71t-92 125.5t-35.5 177q0 79 27 147.5t71 116t100.5 81.5t116 50t117.5 16q49 0 107.5 -6t64.5 -6q33 0 33 35q0 57 -39.5 96t-99.5 39q-33 0 -76.5 -16.5t-73.5 -33.5t-77.5 -48t-61.5 -39q-89 -54 -131 51q-47 118 -39.5 178t78.5 90
q42 17 150.5 31t209.5 14q286 0 432.5 -90t167.5 -307l37 -391q12 -119 72 -176q45 -45 45 -92q0 -57 -69.5 -98.5t-161.5 -37.5q-130 0 -246 86q-31 22 -62 0q-125 -88 -313 -88zM127 1315l199 231q34 37 72.5 47.5t154.5 10.5q125 0 167 -10.5t73 -43.5l217 -233
q36 -40 17.5 -72.5t-69.5 -32.5h-188q-55 0 -115 43l-100 72l-100 -74q-57 -41 -95 -41h-182q-49 0 -67 32.5t16 70.5zM449 434q0 -77 39 -139t108 -62q54 0 80 37t18 101l-16 129q-6 45 -30.5 64.5t-76.5 19.5q-54 0 -88 -45.5t-34 -104.5z" />
    <glyph glyph-name="atilde" unicode="&#xe3;" horiz-adv-x="1241" 
d="M385 -27q-65 0 -130 24.5t-121.5 71t-92 125.5t-35.5 177q0 79 27 147.5t71 116t100.5 81.5t116 50t117.5 16q49 0 107.5 -6t64.5 -6q33 0 33 35q0 57 -39.5 96t-99.5 39q-33 0 -76.5 -16.5t-73.5 -33.5t-77.5 -48t-61.5 -39q-89 -54 -131 51q-47 118 -39.5 178t78.5 90
q42 17 150.5 31t209.5 14q286 0 432.5 -90t167.5 -307l37 -391q12 -119 72 -176q45 -45 45 -92q0 -57 -69.5 -98.5t-161.5 -37.5q-130 0 -246 86q-31 22 -62 0q-125 -88 -313 -88zM119 1370q36 165 95.5 235t154.5 70q71 0 239 -65q159 -62 185 -62q23 0 39 13.5t34 44.5
q39 74 105 45q63 -26 41 -140q-34 -172 -85 -239.5t-149 -67.5q-29 0 -72 11.5t-73.5 22t-104.5 38.5q-139 53 -178 53q-45 0 -78 -61q-36 -65 -96 -47q-45 13 -58 50.5t1 98.5zM449 434q0 -77 39 -139t108 -62q54 0 80 37t18 101l-16 129q-6 45 -30.5 64.5t-76.5 19.5
q-54 0 -88 -45.5t-34 -104.5z" />
    <glyph glyph-name="adieresis" unicode="&#xe4;" horiz-adv-x="1241" 
d="M385 -27q-65 0 -130 24.5t-121.5 71t-92 125.5t-35.5 177q0 79 27 147.5t71 116t100.5 81.5t116 50t117.5 16q49 0 107.5 -6t64.5 -6q33 0 33 35q0 57 -39.5 96t-99.5 39q-33 0 -76.5 -16.5t-73.5 -33.5t-77.5 -48t-61.5 -39q-89 -54 -131 51q-47 118 -39.5 178t78.5 90
q42 17 150.5 31t209.5 14q286 0 432.5 -90t167.5 -307l37 -391q12 -119 72 -176q45 -45 45 -92q0 -57 -69.5 -98.5t-161.5 -37.5q-130 0 -246 86q-31 22 -62 0q-125 -88 -313 -88zM66 1423q0 98 71.5 170t169.5 72q95 0 164.5 -70t69.5 -165q0 -98 -73 -171t-171 -73
q-94 0 -162.5 70t-68.5 167zM449 434q0 -77 39 -139t108 -62q54 0 80 37t18 101l-16 129q-6 45 -30.5 64.5t-76.5 19.5q-54 0 -88 -45.5t-34 -104.5zM602 1423q0 98 71.5 170t168.5 72t167 -70t70 -165q0 -98 -72.5 -171t-170.5 -73q-95 0 -164.5 70t-69.5 167z" />
    <glyph glyph-name="aring" unicode="&#xe5;" horiz-adv-x="1241" 
d="M385 -27q-65 0 -130 24.5t-121.5 71t-92 125.5t-35.5 177q0 79 27 147.5t71 116t100.5 81.5t116 50t117.5 16q49 0 107.5 -6t64.5 -6q33 0 33 35q0 57 -39.5 96t-99.5 39q-33 0 -76.5 -16.5t-73.5 -33.5t-77.5 -48t-61.5 -39q-89 -54 -131 51q-47 118 -39.5 178t78.5 90
q42 17 150.5 31t209.5 14q286 0 432.5 -90t167.5 -307l37 -391q12 -119 72 -176q45 -45 45 -92q0 -57 -69.5 -98.5t-161.5 -37.5q-130 0 -246 86q-31 22 -62 0q-125 -88 -313 -88zM297 1473q0 106 81 182t193 76q113 0 192 -76t79 -182q0 -108 -79 -186.5t-192 -78.5
q-112 0 -193 78.5t-81 186.5zM449 434q0 -77 39 -139t108 -62q54 0 80 37t18 101l-16 129q-6 45 -30.5 64.5t-76.5 19.5q-54 0 -88 -45.5t-34 -104.5zM469 1470q0 -43 30 -74.5t72 -31.5q41 0 72 31.5t31 74.5t-31 75t-72 32q-42 0 -72 -32t-30 -75z" />
    <glyph glyph-name="ae" unicode="&#xe6;" horiz-adv-x="1894" 
d="M446 -23q-80 0 -156 24t-140.5 70t-104 124t-39.5 176q0 79 27 147.5t71 116t100.5 81.5t116 50t117.5 16q49 0 107.5 -6t64.5 -6q33 0 33 35q0 57 -39.5 96t-99.5 39q-33 0 -76.5 -16.5t-73.5 -33.5t-77.5 -48t-61.5 -39q-52 -27 -81 -14.5t-44 55.5
q-51 126 -43.5 186.5t78.5 91.5q40 17 148 31t210 14q293 0 420 -116q161 133 379 133q155 0 287.5 -65t209 -175.5t76.5 -238.5q0 -71 -44 -114t-136 -65q-115 -26 -207 -43q-175 -42 -200 -53q-25 -7 -25 -27q0 -32 62 -71q64 -33 135 -33q136 0 274 102q40 26 69 19
t64 -51q29 -38 27.5 -69.5t-29.5 -72.5q-85 -118 -234.5 -190t-312.5 -72q-232 0 -399 139q-21 8 -49 -6q-180 -121 -404 -121zM455 434q0 -77 39 -139t108 -62q54 0 81.5 37.5t18.5 100.5l-8 59q-11 39 -14 90q-9 34 -32.5 49t-69.5 15q-54 0 -88.5 -45.5t-34.5 -104.5z
M1090 766q0 -57 15.5 -109.5t43.5 -52.5q5 0 13 5t20.5 14.5t21.5 15.5q38 32 131 84q3 2 17.5 9t18.5 10.5t9.5 11.5t5.5 18q0 44 -53 97t-112 53q-57 0 -94 -40.5t-37 -115.5z" />
    <glyph glyph-name="ccedilla" unicode="&#xe7;" horiz-adv-x="1163" 
d="M565 -524q-112 0 -174 59q-47 44 -12 96q13 20 38 26t50 -3q23 -10 55 -10q24 0 35.5 16t11.5 55q0 33 -12 48.5t-45 19.5q-34 3 -44 30.5t13 67.5l56 88q-101 13 -194 60.5t-167 124.5t-118 190t-44 244q0 164 82.5 301t226.5 216t316 79q116 0 235.5 -42t184.5 -98
q48 -41 66.5 -75t7.5 -71.5t-37.5 -70.5t-81.5 -86q-82 -79 -158 -79q-54 0 -98 81q-25 44 -39.5 67t-38.5 52.5t-48.5 42.5t-53.5 13q-53 0 -84 -50t-31 -135q0 -113 38.5 -209.5t110 -155.5t160.5 -59q124 0 248 90q47 35 104 -28q34 -35 32.5 -75t-42.5 -91
q-149 -180 -364 -225l-56 -78q110 -26 170 -78.5t60 -118.5q0 -97 -103 -163t-256 -66z" />
    <glyph glyph-name="egrave" unicode="&#xe8;" horiz-adv-x="1220" 
d="M635 -35q-172 0 -315 80.5t-224.5 219t-81.5 304.5q0 171 80 312.5t218.5 222t305.5 80.5q117 0 223.5 -38.5t183 -103t122 -153t45.5 -184.5q0 -71 -44 -114t-136 -65q-115 -26 -207 -43q-177 -42 -201 -53q-24 -7 -24 -27q0 -33 61 -71q64 -33 135 -33q137 0 275 102
q40 26 69 19t64 -51q29 -38 27.5 -69.5t-29.5 -72.5q-85 -118 -234.5 -190t-312.5 -72zM279 1479q-75 67 -58 114t103 47h266q99 0 149 -71l152 -223q31 -44 18.5 -79.5t-61.5 -35.5h-201q-48 0 -74 7.5t-55 33.5zM426 766q0 -57 15.5 -109.5t43.5 -52.5q5 0 13 5t21 14.5
t22 15.5q38 32 131 84q3 2 17.5 9t18.5 10.5t9.5 11.5t5.5 18q0 44 -53.5 97t-112.5 53q-57 0 -94 -40.5t-37 -115.5z" />
    <glyph glyph-name="eacute" unicode="&#xe9;" horiz-adv-x="1220" 
d="M635 -35q-172 0 -315 80.5t-224.5 219t-81.5 304.5q0 171 80 312.5t218.5 222t305.5 80.5q117 0 223.5 -38.5t183 -103t122 -153t45.5 -184.5q0 -71 -44 -114t-136 -65q-115 -26 -207 -43q-177 -42 -201 -53q-24 -7 -24 -27q0 -33 61 -71q64 -33 135 -33q137 0 275 102
q40 26 69 19t64 -51q29 -38 27.5 -69.5t-29.5 -72.5q-85 -118 -234.5 -190t-312.5 -72zM424 1348l151 223q50 71 150 71h248q86 0 103 -47t-58 -114l-240 -207q-29 -26 -55 -33.5t-74 -7.5h-182q-49 0 -61.5 35.5t18.5 79.5zM426 766q0 -57 15.5 -109.5t43.5 -52.5q5 0 13 5
t21 14.5t22 15.5q38 32 131 84q3 2 17.5 9t18.5 10.5t9.5 11.5t5.5 18q0 44 -53.5 97t-112.5 53q-57 0 -94 -40.5t-37 -115.5z" />
    <glyph glyph-name="ecircumflex" unicode="&#xea;" horiz-adv-x="1220" 
d="M635 -35q-172 0 -315 80.5t-224.5 219t-81.5 304.5q0 171 80 312.5t218.5 222t305.5 80.5q117 0 223.5 -38.5t183 -103t122 -153t45.5 -184.5q0 -71 -44 -114t-136 -65q-115 -26 -207 -43q-177 -42 -201 -53q-24 -7 -24 -27q0 -33 61 -71q64 -33 135 -33q137 0 275 102
q40 26 69 19t64 -51q29 -38 27.5 -69.5t-29.5 -72.5q-85 -118 -234.5 -190t-312.5 -72zM184 1331l199 232q33 36 71.5 46.5t155.5 10.5q126 0 167.5 -10t72.5 -43l217 -234q36 -40 18 -72t-69 -32h-189q-54 0 -114 43l-101 71l-100 -73q-57 -41 -94 -41h-182q-49 0 -67.5 32
t15.5 70zM426 766q0 -57 15.5 -109.5t43.5 -52.5q5 0 13 5t21 14.5t22 15.5q38 32 131 84q3 2 17.5 9t18.5 10.5t9.5 11.5t5.5 18q0 44 -53.5 97t-112.5 53q-57 0 -94 -40.5t-37 -115.5z" />
    <glyph glyph-name="edieresis" unicode="&#xeb;" horiz-adv-x="1220" 
d="M635 -35q-172 0 -315 80.5t-224.5 219t-81.5 304.5q0 171 80 312.5t218.5 222t305.5 80.5q117 0 223.5 -38.5t183 -103t122 -153t45.5 -184.5q0 -71 -44 -114t-136 -65q-115 -26 -207 -43q-177 -42 -201 -53q-24 -7 -24 -27q0 -33 61 -71q64 -33 135 -33q137 0 275 102
q40 26 69 19t64 -51q29 -38 27.5 -69.5t-29.5 -72.5q-85 -118 -234.5 -190t-312.5 -72zM123 1440q0 98 72 169.5t170 71.5q95 0 164 -70t69 -165q0 -98 -73 -171t-171 -73q-94 0 -162.5 70.5t-68.5 167.5zM426 766q0 -57 15.5 -109.5t43.5 -52.5q5 0 13 5t21 14.5t22 15.5
q38 32 131 84q3 2 17.5 9t18.5 10.5t9.5 11.5t5.5 18q0 44 -53.5 97t-112.5 53q-57 0 -94 -40.5t-37 -115.5zM659 1440q0 98 71.5 169.5t168.5 71.5t167.5 -70t70.5 -165q0 -98 -73 -171t-171 -73q-95 0 -164.5 70.5t-69.5 167.5z" />
    <glyph glyph-name="igrave" unicode="&#xec;" horiz-adv-x="675" 
d="M129 0q-57 0 -83 31t-26 73q0 53 56 93q31 26 41 58t10 101v437q1 66 -13 100t-51 61q-47 42 -47 93q2 43 28 73t85 29h295q74 0 103.5 -33.5t29.5 -114.5v-645q0 -69 10 -101t41 -58q56 -40 56 -93q0 -42 -26 -73t-83 -31h-426zM-27 1462q-75 68 -58 115t103 47h267
q99 0 149 -72l152 -223q31 -44 18.5 -79.5t-61.5 -35.5h-201q-48 0 -74 7.5t-55 33.5z" />
    <glyph glyph-name="iacute" unicode="&#xed;" horiz-adv-x="675" 
d="M129 0q-57 0 -83 31t-26 73q0 53 56 93q31 26 41 58t10 101v437q1 66 -13 100t-51 61q-47 42 -47 93q2 43 28 73t85 29h295q74 0 103.5 -33.5t29.5 -114.5v-645q0 -69 10 -101t41 -58q56 -40 56 -93q0 -42 -26 -73t-83 -31h-426zM119 1331l151 223q50 72 150 72h248
q86 0 103 -47t-58 -115l-240 -207q-29 -26 -54.5 -33t-74.5 -7h-182q-49 0 -61.5 35t18.5 79z" />
    <glyph glyph-name="icircumflex" unicode="&#xee;" horiz-adv-x="675" 
d="M129 0q-57 0 -83 31t-26 73q0 53 56 93q31 26 41 58t10 101v437q1 66 -13 100t-51 61q-47 42 -47 93q2 43 28 73t85 29h295q74 0 103.5 -33.5t29.5 -114.5v-645q0 -69 10 -101t41 -58q56 -40 56 -93q0 -42 -26 -73t-83 -31h-426zM-121 1315l199 231q34 37 72.5 47.5
t154.5 10.5q125 0 167 -10.5t73 -43.5l217 -233q36 -40 18 -72.5t-69 -32.5h-189q-54 0 -114 43l-101 72l-100 -74q-57 -41 -94 -41h-183q-49 0 -67 32.5t16 70.5z" />
    <glyph glyph-name="idieresis" unicode="&#xef;" horiz-adv-x="675" 
d="M129 0q-57 0 -83 31t-26 73q0 53 56 93q31 26 41 58t10 101v437q1 66 -13 100t-51 61q-47 42 -47 93q2 43 28 73t85 29h295q74 0 103.5 -33.5t29.5 -114.5v-645q0 -69 10 -101t41 -58q56 -40 56 -93q0 -42 -26 -73t-83 -31h-426zM-182 1423q0 98 71.5 170t169.5 72
q95 0 164.5 -70t69.5 -165q0 -98 -73 -171t-171 -73q-94 0 -162.5 70t-68.5 167zM354 1423q0 98 71.5 170t168.5 72t167 -70t70 -165q0 -98 -72.5 -171t-170.5 -73q-95 0 -164.5 70t-69.5 167z" />
    <glyph glyph-name="eth" unicode="&#xf0;" horiz-adv-x="1302" 
d="M643 -23q-141 0 -256 38.5t-198.5 113t-129 191.5t-45.5 268q0 249 132.5 383.5t369.5 152.5q23 3 23 19q0 10 -19 26l-39 31l-288 -67q-37 -9 -52.5 3.5t-15.5 53.5v49q0 59 49 70l133 30l-104 84q-47 37 -34 68t79 31h350q61 0 98.5 -9.5t75.5 -42.5q1 -1 21 -16
l208 49q39 9 55.5 -2t16.5 -51v-57q0 -55 -49 -66l-78 -18q15 -15 55 -60q138 -153 212.5 -318t74.5 -364q0 -277 -174 -433.5t-471 -156.5zM463 717q0 -102 33 -216.5t91.5 -197t121.5 -82.5q57 0 92 43t35 123q0 111 -34 231.5t-92 204.5t-120 84q-58 0 -92.5 -49.5
t-34.5 -140.5z" />
    <glyph glyph-name="ntilde" unicode="&#xf1;" horiz-adv-x="1386" 
d="M129 0q-57 0 -83 31t-26 73q0 53 56 93q31 26 41 58t10 101v437q1 66 -13 100t-51 61q-47 42 -47 93q2 43 28 73t85 29h283q56 0 84 -26.5t45 -96.5q4 -15 11.5 -21t17.5 -1.5t20 20.5q40 63 111.5 105t158.5 42q142 0 223.5 -81.5t108.5 -258.5l68 -446q19 -126 79 -180
q47 -44 47 -103q0 -43 -26 -72.5t-74 -29.5h-158q-137 0 -210.5 40t-86.5 150l-57 492q-7 69 -39.5 103t-83.5 34q-43 0 -67.5 -19t-24.5 -55v-389q0 -68 11 -100.5t44 -58.5q56 -40 56 -93q0 -42 -26.5 -73t-86.5 -31h-428zM244 1370q36 165 95.5 235t154.5 70
q71 0 239 -65q159 -62 185 -62q23 0 39 13.5t34 44.5q39 74 105 45q63 -26 41 -140q-34 -172 -85 -239.5t-149 -67.5q-29 0 -72 11.5t-73.5 22t-104.5 38.5q-139 53 -178 53q-45 0 -78 -61q-36 -65 -96 -47q-45 13 -58 50.5t1 98.5z" />
    <glyph glyph-name="ograve" unicode="&#xf2;" horiz-adv-x="1282" 
d="M629 -35q-170 0 -311.5 79.5t-222.5 218t-81 304.5q0 129 49.5 243.5t135 196.5t204.5 129.5t254 47.5q172 0 312.5 -83t219.5 -225t79 -311q0 -166 -84 -304t-231 -217t-324 -79zM293 1462q-75 68 -58 115t103 47h266q100 0 150 -72l151 -223q31 -44 18.5 -79.5
t-61.5 -35.5h-200q-48 0 -74.5 7.5t-55.5 33.5zM455 727q0 -102 32.5 -216.5t91 -197t121.5 -82.5q57 0 92 43t35 123q0 111 -33.5 231.5t-91.5 205t-120 84.5q-58 0 -92.5 -50t-34.5 -141z" />
    <glyph glyph-name="oacute" unicode="&#xf3;" horiz-adv-x="1282" 
d="M629 -35q-170 0 -311.5 79.5t-222.5 218t-81 304.5q0 129 49.5 243.5t135 196.5t204.5 129.5t254 47.5q172 0 312.5 -83t219.5 -225t79 -311q0 -166 -84 -304t-231 -217t-324 -79zM438 1331l152 223q50 72 149 72h248q86 0 103 -47t-58 -115l-239 -207q-29 -26 -54.5 -33
t-74.5 -7h-183q-49 0 -61.5 35t18.5 79zM455 727q0 -102 32.5 -216.5t91 -197t121.5 -82.5q57 0 92 43t35 123q0 111 -33.5 231.5t-91.5 205t-120 84.5q-58 0 -92.5 -50t-34.5 -141z" />
    <glyph glyph-name="ocircumflex" unicode="&#xf4;" horiz-adv-x="1282" 
d="M629 -35q-170 0 -311.5 79.5t-222.5 218t-81 304.5q0 129 49.5 243.5t135 196.5t204.5 129.5t254 47.5q172 0 312.5 -83t219.5 -225t79 -311q0 -166 -84 -304t-231 -217t-324 -79zM199 1315l198 231q34 37 73 47.5t155 10.5q125 0 166.5 -10.5t72.5 -43.5l217 -233
q36 -40 18 -72.5t-69 -32.5h-188q-55 0 -115 43l-100 72l-101 -74q-57 -41 -94 -41h-182q-49 0 -67 32.5t16 70.5zM455 727q0 -102 32.5 -216.5t91 -197t121.5 -82.5q57 0 92 43t35 123q0 111 -33.5 231.5t-91.5 205t-120 84.5q-58 0 -92.5 -50t-34.5 -141z" />
    <glyph glyph-name="otilde" unicode="&#xf5;" horiz-adv-x="1282" 
d="M629 -35q-170 0 -311.5 79.5t-222.5 218t-81 304.5q0 129 49.5 243.5t135 196.5t204.5 129.5t254 47.5q172 0 312.5 -83t219.5 -225t79 -311q0 -166 -84 -304t-231 -217t-324 -79zM190 1370q36 165 95.5 235t154.5 70q72 0 240 -65q159 -62 184 -62q23 0 39.5 13.5
t34.5 44.5q39 73 104 45q63 -26 41 -140q-34 -173 -84.5 -240t-148.5 -67q-29 0 -72 11.5t-73.5 22t-104.5 38.5q-139 53 -178 53q-45 0 -78 -61q-36 -65 -96 -47q-85 25 -58 149zM455 727q0 -102 32.5 -216.5t91 -197t121.5 -82.5q57 0 92 43t35 123q0 111 -33.5 231.5
t-91.5 205t-120 84.5q-58 0 -92.5 -50t-34.5 -141z" />
    <glyph glyph-name="odieresis" unicode="&#xf6;" horiz-adv-x="1282" 
d="M629 -35q-170 0 -311.5 79.5t-222.5 218t-81 304.5q0 129 49.5 243.5t135 196.5t204.5 129.5t254 47.5q172 0 312.5 -83t219.5 -225t79 -311q0 -166 -84 -304t-231 -217t-324 -79zM137 1423q0 98 72 170t170 72q95 0 164 -70t69 -165q0 -98 -72.5 -171t-170.5 -73
q-94 0 -163 70t-69 167zM455 727q0 -102 32.5 -216.5t91 -197t121.5 -82.5q57 0 92 43t35 123q0 111 -33.5 231.5t-91.5 205t-120 84.5q-58 0 -92.5 -50t-34.5 -141zM674 1423q0 98 71 170t168 72t167.5 -70t70.5 -165q0 -98 -73 -171t-171 -73q-95 0 -164 70t-69 167z" />
    <glyph glyph-name="oslash" unicode="&#xf8;" horiz-adv-x="1282" 
d="M629 -35q-102 0 -197 31l-53 -107q-17 -33 -39 -40t-59 8q-51 20 -60.5 48t15.5 77l45 86q-124 84 -195.5 214t-71.5 285q0 129 49.5 243.5t135 196.5t204.5 129.5t254 47.5q89 0 185 -27l55 109q19 37 41 44t59 -10q47 -23 53.5 -53t-22.5 -88l-37 -72
q129 -84 203 -221.5t74 -300.5q0 -166 -84 -304t-231 -217t-324 -79zM455 727q0 -119 41 -240l190 367q-54 64 -104 64q-58 0 -92.5 -50t-34.5 -141zM590 301q54 -70 110 -70q57 0 92 43t35 123q0 136 -49 275z" />
    <glyph glyph-name="ugrave" unicode="&#xf9;" horiz-adv-x="1341" 
d="M487 -33q-188 3 -278 92.5t-90 282.5v451q1 66 -13 100t-51 61q-47 42 -47 93q2 43 28 73t85 29h319q120 0 117 -121l-8 -551q-2 -67 31 -106t92 -39q112 0 112 119v342q0 67 -14.5 100.5t-52.5 60.5q-49 43 -49 93q0 42 27 72t89 30h299q77 0 106.5 -33.5t29.5 -120.5
l-2 -639q0 -69 10 -101t41 -58q55 -40 55 -93q0 -42 -26 -73t-83 -31h-313q-48 0 -69 21t-29 69q-5 29 -27 35t-43 -23q-86 -138 -246 -135zM299 1462q-75 68 -58 115t103 47h266q100 0 150 -72l151 -223q31 -44 18.5 -79.5t-61.5 -35.5h-200q-48 0 -74 7.5t-55 33.5z" />
    <glyph glyph-name="uacute" unicode="&#xfa;" horiz-adv-x="1341" 
d="M487 -33q-188 3 -278 92.5t-90 282.5v451q1 66 -13 100t-51 61q-47 42 -47 93q2 43 28 73t85 29h319q120 0 117 -121l-8 -551q-2 -67 31 -106t92 -39q112 0 112 119v342q0 67 -14.5 100.5t-52.5 60.5q-49 43 -49 93q0 42 27 72t89 30h299q77 0 106.5 -33.5t29.5 -120.5
l-2 -639q0 -69 10 -101t41 -58q55 -40 55 -93q0 -42 -26 -73t-83 -31h-313q-48 0 -69 21t-29 69q-5 29 -27 35t-43 -23q-86 -138 -246 -135zM444 1331l152 223q50 72 149 72h248q86 0 103 -47t-58 -115l-239 -207q-29 -26 -54.5 -33t-74.5 -7h-183q-49 0 -61.5 35t18.5 79z
" />
    <glyph glyph-name="ucircumflex" unicode="&#xfb;" horiz-adv-x="1341" 
d="M487 -33q-188 3 -278 92.5t-90 282.5v451q1 66 -13 100t-51 61q-47 42 -47 93q2 43 28 73t85 29h319q120 0 117 -121l-8 -551q-2 -67 31 -106t92 -39q112 0 112 119v342q0 67 -14.5 100.5t-52.5 60.5q-49 43 -49 93q0 42 27 72t89 30h299q77 0 106.5 -33.5t29.5 -120.5
l-2 -639q0 -69 10 -101t41 -58q55 -40 55 -93q0 -42 -26 -73t-83 -31h-313q-48 0 -69 21t-29 69q-5 29 -27 35t-43 -23q-86 -138 -246 -135zM205 1315l198 231q34 37 73 47.5t155 10.5q125 0 166.5 -10.5t72.5 -43.5l217 -233q36 -40 18 -72.5t-69 -32.5h-188q-55 0 -115 43
l-100 72l-101 -74q-57 -41 -94 -41h-182q-49 0 -67 32.5t16 70.5z" />
    <glyph glyph-name="udieresis" unicode="&#xfc;" horiz-adv-x="1341" 
d="M487 -33q-188 3 -278 92.5t-90 282.5v451q1 66 -13 100t-51 61q-47 42 -47 93q2 43 28 73t85 29h319q120 0 117 -121l-8 -551q-2 -67 31 -106t92 -39q112 0 112 119v342q0 67 -14.5 100.5t-52.5 60.5q-49 43 -49 93q0 42 27 72t89 30h299q77 0 106.5 -33.5t29.5 -120.5
l-2 -639q0 -69 10 -101t41 -58q55 -40 55 -93q0 -42 -26 -73t-83 -31h-313q-48 0 -69 21t-29 69q-5 29 -27 35t-43 -23q-86 -138 -246 -135zM143 1423q0 98 72 170t170 72q95 0 164 -70t69 -165q0 -98 -72.5 -171t-170.5 -73q-94 0 -163 70t-69 167zM680 1423q0 98 71.5 170
t168.5 72t167 -70t70 -165q0 -98 -73 -171t-171 -73q-95 0 -164 70t-69 167z" />
    <glyph glyph-name="yacute" unicode="&#xfd;" horiz-adv-x="1234" 
d="M289 -369q-45 0 -78 30.5t-33 68.5q0 47 45 86l183 159q43 37 18 88q-194 406 -328 805q-17 51 -55 97q-41 41 -41 94q0 44 29 67t82 23h407q70 0 97.5 -21.5t27.5 -72.5q0 -45 -45 -78q-50 -40 -54.5 -71t17.5 -91q55 -194 129 -350q14 -29 32 -29t30 29q79 195 120 358
q12 38 6.5 71t-34.5 64q-2 2 -9 11t-10.5 13t-10 13t-9.5 15.5t-7 15.5t-5.5 17.5t-1.5 17.5q0 37 21 62.5t60 25.5h265q46 0 71 -27.5t27 -62.5q0 -46 -37 -86q-29 -33 -61 -137q-109 -368 -246 -713q-46 -115 -71 -173t-66.5 -137t-81.5 -130q-40 -52 -109 -52h-274z
M457 1331l151 223q50 72 150 72h248q86 0 103 -47t-58 -115l-240 -207q-29 -26 -54.5 -33t-74.5 -7h-182q-49 0 -61.5 35t18.5 79z" />
    <glyph glyph-name="thorn" unicode="&#xfe;" horiz-adv-x="1343" 
d="M125 -381q-57 0 -83 31.5t-26 73.5q0 52 56 92q31 26 41 58t10 101l2 1215q0 67 -14 101t-50 61q-47 42 -47 92q2 43 28 73t85 29h324q55 0 82 -26t24 -90l-20 -379q-3 -41 22 -41q11 0 17.5 6.5t21.5 30.5q37 59 103 95t143 36q111 0 204 -46t153 -122.5t93 -173
t33 -199.5q0 -143 -48 -266t-130.5 -208t-195 -133t-238.5 -48q-65 0 -101 12q-15 6 -30 6q-29 0 -29 -41v-2q0 -65 11.5 -96t45.5 -56q58 -40 58 -88q0 -40 -27 -69t-90 -29h-428zM555 379q0 -74 39.5 -117t99.5 -43q84 0 135.5 73.5t51.5 170.5q0 86 -25.5 164.5
t-78.5 132t-122 53.5q-46 0 -73 -26t-27 -72v-336z" />
    <glyph glyph-name="ydieresis" unicode="&#xff;" horiz-adv-x="1234" 
d="M289 -369q-45 0 -78 30.5t-33 68.5q0 47 45 86l183 159q43 37 18 88q-194 406 -328 805q-17 51 -55 97q-41 41 -41 94q0 44 29 67t82 23h407q70 0 97.5 -21.5t27.5 -72.5q0 -45 -45 -78q-50 -40 -54.5 -71t17.5 -91q55 -194 129 -350q14 -29 32 -29t30 29q79 195 120 358
q12 38 6.5 71t-34.5 64q-2 2 -9 11t-10.5 13t-10 13t-9.5 15.5t-7 15.5t-5.5 17.5t-1.5 17.5q0 37 21 62.5t60 25.5h265q46 0 71 -27.5t27 -62.5q0 -46 -37 -86q-29 -33 -61 -137q-109 -368 -246 -713q-46 -115 -71 -173t-66.5 -137t-81.5 -130q-40 -52 -109 -52h-274z
M156 1423q0 98 71.5 170t169.5 72q95 0 164.5 -70t69.5 -165q0 -98 -73 -171t-171 -73q-94 0 -162.5 70t-68.5 167zM692 1423q0 98 71.5 170t168.5 72t167 -70t70 -165q0 -98 -72.5 -171t-170.5 -73q-95 0 -164.5 70t-69.5 167z" />
    <glyph glyph-name="Amacron" unicode="&#x100;" horiz-adv-x="1587" 
d="M90 0q-94 0 -94 100q0 61 47 105q42 39 61 100q120 389 193 580q131 337 229 518q35 65 66.5 90t77.5 25q16 0 54 -3.5t52 -3.5q21 0 58.5 3.5t56.5 3.5q38 0 62 -18.5t46 -53.5q75 -118 136.5 -252.5t158.5 -376.5q87 -220 191 -526q3 -10 9 -21t10 -17.5t14.5 -19.5
t13 -15.5t16.5 -17.5t15 -16q28 -36 28 -86q0 -39 -20 -68.5t-66 -29.5h-555q-48 0 -74 28.5t-26 71.5q0 66 63 113q19 14 29 30t12 28t2 30q0 32 -6 59q-11 48 -61 48q-68 2 -207 2q-29 0 -91 -1t-93 -1q-53 0 -66 -37q-12 -36 -12 -62q0 -40 55 -98q51 -53 51 -109
q0 -102 -82 -102h-354zM360 1688v92q0 64 25 86t96 22h625q71 0 96 -22t25 -86v-92q0 -64 -25 -86.5t-96 -22.5h-625q-71 0 -96 22.5t-25 86.5zM545 731q-16 -65 45 -65h209q25 0 31.5 16.5t-3.5 48.5q-40 131 -125 293q-11 18 -23.5 17t-21.5 -19q-34 -66 -66.5 -149.5
t-45.5 -141.5z" />
    <glyph glyph-name="amacron" unicode="&#x101;" horiz-adv-x="1241" 
d="M385 -27q-65 0 -130 24.5t-121.5 71t-92 125.5t-35.5 177q0 79 27 147.5t71 116t100.5 81.5t116 50t117.5 16q49 0 107.5 -6t64.5 -6q33 0 33 35q0 57 -39.5 96t-99.5 39q-33 0 -76.5 -16.5t-73.5 -33.5t-77.5 -48t-61.5 -39q-89 -54 -131 51q-47 118 -39.5 178t78.5 90
q42 17 150.5 31t209.5 14q286 0 432.5 -90t167.5 -307l37 -391q12 -119 72 -176q45 -45 45 -92q0 -57 -69.5 -98.5t-161.5 -37.5q-130 0 -246 86q-31 22 -62 0q-125 -88 -313 -88zM137 1352v92q0 65 28 86.5t111 21.5h584q83 0 111 -21.5t28 -86.5v-92q0 -65 -28 -87
t-111 -22h-584q-83 0 -111 22t-28 87zM449 434q0 -77 39 -139t108 -62q54 0 80 37t18 101l-16 129q-6 45 -30.5 64.5t-76.5 19.5q-54 0 -88 -45.5t-34 -104.5z" />
    <glyph glyph-name="Abreve" unicode="&#x102;" horiz-adv-x="1587" 
d="M90 0q-94 0 -94 100q0 61 47 105q42 39 61 100q120 389 193 580q131 337 229 518q35 65 66.5 90t77.5 25q16 0 54 -3.5t52 -3.5q21 0 58.5 3.5t56.5 3.5q38 0 62 -18.5t46 -53.5q75 -118 136.5 -252.5t158.5 -376.5q87 -220 191 -526q3 -10 9 -21t10 -17.5t14.5 -19.5
t13 -15.5t16.5 -17.5t15 -16q28 -36 28 -86q0 -39 -20 -68.5t-66 -29.5h-555q-48 0 -74 28.5t-26 71.5q0 66 63 113q19 14 29 30t12 28t2 30q0 32 -6 59q-11 48 -61 48q-68 2 -207 2q-29 0 -91 -1t-93 -1q-53 0 -66 -37q-12 -36 -12 -62q0 -40 55 -98q51 -53 51 -109
q0 -102 -82 -102h-354zM506 1909q66 101 176 53q119 -49 213 -49q66 0 129 29q59 24 88 -5q41 -39 -4 -151q-45 -115 -124.5 -167t-199.5 -52q-158 0 -260 57q-71 40 -74 117.5t56 167.5zM545 731q-16 -65 45 -65h209q25 0 31.5 16.5t-3.5 48.5q-40 131 -125 293
q-11 18 -23.5 17t-21.5 -19q-34 -66 -66.5 -149.5t-45.5 -141.5z" />
    <glyph glyph-name="abreve" unicode="&#x103;" horiz-adv-x="1241" 
d="M385 -27q-65 0 -130 24.5t-121.5 71t-92 125.5t-35.5 177q0 79 27 147.5t71 116t100.5 81.5t116 50t117.5 16q49 0 107.5 -6t64.5 -6q33 0 33 35q0 57 -39.5 96t-99.5 39q-33 0 -76.5 -16.5t-73.5 -33.5t-77.5 -48t-61.5 -39q-89 -54 -131 51q-47 118 -39.5 178t78.5 90
q42 17 150.5 31t209.5 14q286 0 432.5 -90t167.5 -307l37 -391q12 -119 72 -176q45 -45 45 -92q0 -57 -69.5 -98.5t-161.5 -37.5q-130 0 -246 86q-31 22 -62 0q-125 -88 -313 -88zM244 1581q66 101 176 53q119 -49 213 -49q66 0 129 29q59 25 88 -4q42 -39 -4 -152
q-45 -115 -124.5 -167t-199.5 -52q-158 0 -260 57q-71 40 -74 117.5t56 167.5zM449 434q0 -77 39 -139t108 -62q54 0 80 37t18 101l-16 129q-6 45 -30.5 64.5t-76.5 19.5q-54 0 -88 -45.5t-34 -104.5z" />
    <glyph glyph-name="Aogonek" unicode="&#x104;" horiz-adv-x="1587" 
d="M90 0q-94 0 -94 100q0 61 47 105q42 39 61 100q120 389 193 580q131 337 229 518q35 65 66.5 90t77.5 25q16 0 54 -3.5t52 -3.5q21 0 58.5 3.5t56.5 3.5q38 0 62 -18.5t46 -53.5q75 -118 136.5 -252.5t158.5 -376.5q87 -220 191 -526q3 -10 9 -21t10 -17.5t14.5 -19.5
t13 -15.5t16.5 -17.5t15 -16q28 -36 28 -86q0 -76 -57 -94h10q-8 -6 -20 -22q-27 -34 -27 -76q0 -26 14 -41t39 -15q3 0 18.5 2.5t24.5 2.5q19 0 33 -16.5t14 -47.5q0 -49 -49 -94q-35 -33 -86.5 -52.5t-103.5 -19.5q-111 0 -169 49t-58 127q0 68 66.5 126t168.5 73h-459
q-48 0 -74 28.5t-26 71.5q0 66 63 113q19 14 29 30t12 28t2 30q0 32 -6 59q-11 48 -61 48q-68 2 -207 2q-29 0 -91 -1t-93 -1q-53 0 -66 -37q-12 -36 -12 -62q0 -40 55 -98q51 -53 51 -109q0 -102 -82 -102h-354zM545 731q-16 -65 45 -65h209q25 0 31.5 16.5t-3.5 48.5
q-40 131 -125 293q-11 18 -23.5 17t-21.5 -19q-34 -66 -66.5 -149.5t-45.5 -141.5z" />
    <glyph glyph-name="aogonek" unicode="&#x105;" horiz-adv-x="1241" 
d="M385 -27q-65 0 -130 24.5t-121.5 71t-92 125.5t-35.5 177q0 79 27 147.5t71 116t100.5 81.5t116 50t117.5 16q49 0 107.5 -6t64.5 -6q33 0 33 35q0 57 -39.5 96t-99.5 39q-33 0 -76.5 -16.5t-73.5 -33.5t-77.5 -48t-61.5 -39q-89 -54 -131 51q-47 118 -39.5 178t78.5 90
q42 17 150.5 31t209.5 14q286 0 432.5 -90t167.5 -307l37 -391q12 -119 72 -176q45 -45 45 -92q0 -61 -80 -105q-6 -6 -8 -10q-27 -34 -27 -76q0 -26 14.5 -40.5t39.5 -14.5q3 0 18.5 2t24.5 2q19 0 33 -16.5t14 -47.5q0 -49 -49 -94q-35 -33 -87 -52t-104 -19
q-111 0 -169 49t-58 127q0 48 35 93.5t96 74.5q-89 16 -170 77q-31 22 -62 0q-125 -88 -313 -88zM449 434q0 -77 39 -139t108 -62q54 0 80 37t18 101l-16 129q-6 45 -30.5 64.5t-76.5 19.5q-54 0 -88 -45.5t-34 -104.5z" />
    <glyph glyph-name="Cacute" unicode="&#x106;" horiz-adv-x="1468" 
d="M821 -39q-178 0 -332 68t-256 179t-159.5 250.5t-57.5 284.5q0 175 66 324.5t176 249t253 155.5t298 56q166 0 299.5 -42.5t255.5 -139.5q101 -81 70 -167.5t-207 -211.5q-48 -34 -92 -44t-81.5 9t-60.5 69q-67 145 -129 206t-139 61q-91 0 -142 -84t-51 -215
q0 -165 58 -308t160.5 -228t224.5 -85q86 0 159.5 30t159.5 89q29 24 59.5 20t71.5 -43q39 -35 39 -80.5t-45 -109.5q-92 -128 -255.5 -210.5t-342.5 -82.5zM588 1729l114 145q56 72 152 72h330q55 0 86 -24t20 -62.5t-69 -75.5l-238 -156q-44 -31 -100 -31h-260
q-37 0 -55 18.5t-12.5 48.5t32.5 65z" />
    <glyph glyph-name="cacute" unicode="&#x107;" horiz-adv-x="1163" 
d="M606 -35q-110 0 -215.5 43t-189.5 120.5t-135.5 197.5t-51.5 262q0 164 82.5 301t226.5 216t316 79q116 0 235.5 -42t184.5 -98q48 -41 66.5 -75t7.5 -71.5t-37.5 -70.5t-81.5 -86q-82 -79 -158 -79q-54 0 -98 81q-25 44 -39.5 67t-38.5 52.5t-48.5 42.5t-53.5 13
q-53 0 -84 -50t-31 -135q0 -113 38.5 -209.5t110 -155.5t160.5 -59q124 0 248 90q47 35 104 -28q34 -35 32.5 -75t-42.5 -91q-201 -240 -508 -240zM451 1352l151 223q50 72 150 72h247q86 0 103 -47.5t-58 -114.5l-239 -207q-29 -26 -55 -33.5t-74 -7.5h-182
q-49 0 -61.5 35.5t18.5 79.5z" />
    <glyph glyph-name="Cdotaccent" unicode="&#x10a;" horiz-adv-x="1468" 
d="M821 -39q-178 0 -332 68t-256 179t-159.5 250.5t-57.5 284.5q0 175 66 324.5t176 249t253 155.5t298 56q166 0 299.5 -42.5t255.5 -139.5q101 -81 70 -167.5t-207 -211.5q-48 -34 -92 -44t-81.5 9t-60.5 69q-67 145 -129 206t-139 61q-91 0 -142 -84t-51 -215
q0 -165 58 -308t160.5 -228t224.5 -85q86 0 159.5 30t159.5 89q29 24 59.5 20t71.5 -43q39 -35 39 -80.5t-45 -109.5q-92 -128 -255.5 -210.5t-342.5 -82.5zM571 1796q0 98 71 165t175 67q100 0 168 -63t68 -155q0 -98 -72 -165.5t-178 -67.5q-98 0 -165 63.5t-67 155.5z
" />
    <glyph glyph-name="cdotaccent" unicode="&#x10b;" horiz-adv-x="1163" 
d="M606 -35q-110 0 -215.5 43t-189.5 120.5t-135.5 197.5t-51.5 262q0 164 82.5 301t226.5 216t316 79q116 0 235.5 -42t184.5 -98q48 -41 66.5 -75t7.5 -71.5t-37.5 -70.5t-81.5 -86q-82 -79 -158 -79q-54 0 -98 81q-25 44 -39.5 67t-38.5 52.5t-48.5 42.5t-53.5 13
q-53 0 -84 -50t-31 -135q0 -113 38.5 -209.5t110 -155.5t160.5 -59q124 0 248 90q47 35 104 -28q34 -35 32.5 -75t-42.5 -91q-201 -240 -508 -240zM387 1468q0 106 80.5 183.5t189.5 77.5q100 0 173 -69t73 -163q0 -107 -79.5 -185.5t-188.5 -78.5q-100 0 -174 70t-74 165z
" />
    <glyph glyph-name="Ccaron" unicode="&#x10c;" horiz-adv-x="1468" 
d="M821 -39q-178 0 -332 68t-256 179t-159.5 250.5t-57.5 284.5q0 175 66 324.5t176 249t253 155.5t298 56q166 0 299.5 -42.5t255.5 -139.5q101 -81 70 -167.5t-207 -211.5q-48 -34 -92 -44t-81.5 9t-60.5 69q-67 145 -129 206t-139 61q-91 0 -142 -84t-51 -215
q0 -165 58 -308t160.5 -228t224.5 -85q86 0 159.5 30t159.5 89q29 24 59.5 20t71.5 -43q39 -35 39 -80.5t-45 -109.5q-92 -128 -255.5 -210.5t-342.5 -82.5zM410 1839q-31 34 -14 62t63 28h196q32 0 90 -35l99 -65l100 65q61 37 109 37h159q48 0 65 -27.5t-15 -64.5
l-195 -209q-27 -30 -66.5 -38.5t-162.5 -8.5q-117 0 -156.5 9.5t-69.5 41.5z" />
    <glyph glyph-name="ccaron" unicode="&#x10d;" horiz-adv-x="1163" 
d="M606 -35q-110 0 -215.5 43t-189.5 120.5t-135.5 197.5t-51.5 262q0 164 82.5 301t226.5 216t316 79q116 0 235.5 -42t184.5 -98q48 -41 66.5 -75t7.5 -71.5t-37.5 -70.5t-81.5 -86q-82 -79 -158 -79q-54 0 -98 81q-25 44 -39.5 67t-38.5 52.5t-48.5 42.5t-53.5 13
q-53 0 -84 -50t-31 -135q0 -113 38.5 -209.5t110 -155.5t160.5 -59q124 0 248 90q47 35 104 -28q34 -35 32.5 -75t-42.5 -91q-201 -240 -508 -240zM229 1526q-31 37 -13.5 67.5t63.5 30.5h196q39 0 90 -39l99 -74l100 74q58 41 108 41h160q47 0 64 -30t-15 -70l-194 -234
q-27 -33 -66.5 -42t-163.5 -9q-118 0 -156.5 10t-68.5 45z" />
    <glyph glyph-name="Dcaron" unicode="&#x10e;" horiz-adv-x="1579" 
d="M141 0q-59 0 -85.5 30.5t-26.5 73.5q0 57 53 93q38 28 51 62t12 103v785q1 68 -13.5 103t-53.5 63q-51 39 -51 94q2 44 27.5 73.5t82.5 28.5h635q376 0 585.5 -192t209.5 -576q0 -188 -61 -331t-174.5 -232t-268 -133.5t-348.5 -44.5h-574zM369 1819q-31 34 -14 62t63 28
h196q33 0 91 -35l98 -66l100 66q61 37 109 37h159q48 0 65 -27.5t-15 -64.5l-195 -209q-27 -30 -66.5 -38.5t-162.5 -8.5q-117 0 -156.5 9.5t-69.5 41.5zM616 426q0 -89 42 -136.5t118 -47.5q134 0 206.5 116t72.5 332q0 153 -51 286t-139 211.5t-191 78.5q-58 0 -58 -56
v-784z" />
    <glyph glyph-name="dcaron" unicode="&#x10f;" horiz-adv-x="1343" 
d="M479 -27q-129 0 -236.5 73.5t-169 200.5t-61.5 279q0 172 70 317.5t204 235.5t306 90q36 0 108 -10q46 -8 56 -8q32 0 32 33v26q0 66 -14.5 99.5t-52.5 60.5q-51 43 -51 90q0 42 27.5 72.5t90.5 30.5h297q73 0 103.5 -31.5t30.5 -106.5v-1069q0 -69 10 -101t41 -58
q55 -40 55 -93q0 -42 -25.5 -73t-82.5 -31h-299q-56 0 -82 22t-31 72q-3 31 -22 35t-38 -20q-52 -69 -115.5 -102.5t-150.5 -33.5zM459 688q0 -147 62.5 -262t150.5 -115q114 0 114 164v203q0 120 -48.5 187t-116.5 67q-76 0 -119 -67.5t-43 -176.5zM1311 1120l112 346
q13 44 48 68.5t83 24.5h248q53 0 77.5 -18t22.5 -49t-26 -73l-211 -372q-5 -9 -11.5 -15.5t-11.5 -11t-14.5 -7.5t-14.5 -4.5t-17.5 -2t-18 -0.5h-20.5h-21h-172q-92 0 -53 114z" />
    <glyph glyph-name="Dcroat" unicode="&#x110;" horiz-adv-x="1579" 
d="M141 0q-59 0 -85.5 30.5t-26.5 73.5q0 57 53 93q38 28 51 62t12 103v240h-61q-59 0 -85 10t-38 41.5t-12 102.5q0 98 26 126.5t109 28.5h61v236q1 68 -13.5 103t-53.5 63q-51 39 -51 94q2 44 27.5 73.5t82.5 28.5h635q376 0 585.5 -192t209.5 -576q0 -188 -61 -331
t-174.5 -232t-268 -133.5t-348.5 -44.5h-574zM616 426q0 -89 42 -136.5t118 -47.5q134 0 206.5 116t72.5 332q0 153 -51 286t-139 211.5t-191 78.5q-58 0 -58 -56v-299h136q81 0 106 -28.5t25 -126.5q0 -71 -11.5 -102.5t-37 -41.5t-82.5 -10h-136v-176z" />
    <glyph glyph-name="dcroat" unicode="&#x111;" horiz-adv-x="1343" 
d="M479 -27q-129 0 -236.5 73.5t-169 200.5t-61.5 279q0 172 70 317.5t204 235.5t306 90q36 0 108 -10q46 -8 56 -8q32 0 32 33v26v9h-149q-45 0 -61.5 19.5t-16.5 72.5q0 49 16 66.5t62 17.5h57q-26 29 -26 65q0 42 27.5 72.5t90.5 30.5h297q73 0 103.5 -31.5t30.5 -106.5
v-30q27 -4 36 -22t9 -62q0 -48 -9 -67.5t-36 -22.5v-865q0 -69 10 -101t41 -58q55 -40 55 -93q0 -42 -25.5 -73t-82.5 -31h-299q-56 0 -82 22t-31 72q-3 31 -22 35t-38 -20q-52 -69 -115.5 -102.5t-150.5 -33.5zM459 688q0 -147 62.5 -262t150.5 -115q114 0 114 164v203
q0 120 -48.5 187t-116.5 67q-76 0 -119 -67.5t-43 -176.5z" />
    <glyph glyph-name="Emacron" unicode="&#x112;" horiz-adv-x="1366" 
d="M141 0q-59 0 -85.5 30.5t-26.5 73.5q0 57 53 93q38 28 51 62t12 103v785q1 68 -13.5 103t-53.5 63q-51 39 -51 94q0 43 26 73t84 29h987q50 0 76 -17t41 -62q74 -230 74 -306q0 -43 -18 -66.5t-52 -23.5q-31 0 -82.5 25.5t-92.5 53t-105 73.5q-72 52 -119 74t-92 22
q-69 0 -103.5 -46t-34.5 -126v-86q0 -55 18 -74.5t71 -19.5h356q34 0 54 -20t20 -52q0 -89 -68 -184q-27 -36 -50 -52t-61 -16q-37 0 -117.5 33.5t-105.5 34.5q-117 3 -117 -191v-104q0 -75 34 -114t98 -38q17 0 37 5t44 15.5t42.5 19t46 24.5t39 23t37 23t26.5 17
q43 28 97 64.5t74.5 49.5t47.5 23.5t53 10.5q74 0 74 -82q0 -46 -43 -199q-38 -133 -68.5 -177t-101.5 -44h-1012zM270 1698v92q0 64 25 86t96 22h625q71 0 96 -22t25 -86v-92q0 -64 -25 -86.5t-96 -22.5h-625q-71 0 -96 22.5t-25 86.5z" />
    <glyph glyph-name="emacron" unicode="&#x113;" horiz-adv-x="1220" 
d="M635 -35q-172 0 -315 80.5t-224.5 219t-81.5 304.5q0 171 80 312.5t218.5 222t305.5 80.5q117 0 223.5 -38.5t183 -103t122 -153t45.5 -184.5q0 -71 -44 -114t-136 -65q-115 -26 -207 -43q-177 -42 -201 -53q-24 -7 -24 -27q0 -33 61 -71q64 -33 135 -33q137 0 275 102
q40 26 69 19t64 -51q29 -38 27.5 -69.5t-29.5 -72.5q-85 -118 -234.5 -190t-312.5 -72zM195 1368v92q0 65 28 87t111 22h584q83 0 111 -22t28 -87v-92q0 -65 -28 -86.5t-111 -21.5h-584q-83 0 -111 21.5t-28 86.5zM426 766q0 -57 15.5 -109.5t43.5 -52.5q5 0 13 5t21 14.5
t22 15.5q38 32 131 84q3 2 17.5 9t18.5 10.5t9.5 11.5t5.5 18q0 44 -53.5 97t-112.5 53q-57 0 -94 -40.5t-37 -115.5z" />
    <glyph glyph-name="Edotaccent" unicode="&#x116;" horiz-adv-x="1366" 
d="M141 0q-59 0 -85.5 30.5t-26.5 73.5q0 57 53 93q38 28 51 62t12 103v785q1 68 -13.5 103t-53.5 63q-51 39 -51 94q0 43 26 73t84 29h987q50 0 76 -17t41 -62q74 -230 74 -306q0 -43 -18 -66.5t-52 -23.5q-31 0 -82.5 25.5t-92.5 53t-105 73.5q-72 52 -119 74t-92 22
q-69 0 -103.5 -46t-34.5 -126v-86q0 -55 18 -74.5t71 -19.5h356q34 0 54 -20t20 -52q0 -89 -68 -184q-27 -36 -50 -52t-61 -16q-37 0 -117.5 33.5t-105.5 34.5q-117 3 -117 -191v-104q0 -75 34 -114t98 -38q17 0 37 5t44 15.5t42.5 19t46 24.5t39 23t37 23t26.5 17
q43 28 97 64.5t74.5 49.5t47.5 23.5t53 10.5q74 0 74 -82q0 -46 -43 -199q-38 -133 -68.5 -177t-101.5 -44h-1012zM455 1786q0 98 70.5 164.5t174.5 66.5q100 0 168 -62.5t68 -154.5q0 -98 -72 -165.5t-178 -67.5q-98 0 -164.5 63.5t-66.5 155.5z" />
    <glyph glyph-name="edotaccent" unicode="&#x117;" horiz-adv-x="1220" 
d="M635 -35q-172 0 -315 80.5t-224.5 219t-81.5 304.5q0 171 80 312.5t218.5 222t305.5 80.5q117 0 223.5 -38.5t183 -103t122 -153t45.5 -184.5q0 -71 -44 -114t-136 -65q-115 -26 -207 -43q-177 -42 -201 -53q-24 -7 -24 -27q0 -33 61 -71q64 -33 135 -33q137 0 275 102
q40 26 69 19t64 -51q29 -38 27.5 -69.5t-29.5 -72.5q-85 -118 -234.5 -190t-312.5 -72zM360 1464q0 105 81 182.5t190 77.5q100 0 173 -68.5t73 -162.5q0 -107 -80 -185.5t-189 -78.5q-100 0 -174 70t-74 165zM426 766q0 -57 15.5 -109.5t43.5 -52.5q5 0 13 5t21 14.5
t22 15.5q38 32 131 84q3 2 17.5 9t18.5 10.5t9.5 11.5t5.5 18q0 44 -53.5 97t-112.5 53q-57 0 -94 -40.5t-37 -115.5z" />
    <glyph glyph-name="Eogonek" unicode="&#x118;" horiz-adv-x="1366" 
d="M141 0q-59 0 -85.5 30.5t-26.5 73.5q0 57 53 93q38 28 51 62t12 103v785q1 68 -13.5 103t-53.5 63q-51 39 -51 94q0 43 26 73t84 29h987q50 0 76 -17t41 -62q74 -230 74 -306q0 -43 -18 -66.5t-52 -23.5q-31 0 -82.5 25.5t-92.5 53t-105 73.5q-72 52 -119 74t-92 22
q-69 0 -103.5 -46t-34.5 -126v-86q0 -55 18 -74.5t71 -19.5h356q34 0 54 -20t20 -52q0 -89 -68 -184q-27 -36 -50 -52t-61 -16q-37 0 -117.5 33.5t-105.5 34.5q-117 3 -117 -191v-104q0 -75 34 -114t98 -38q17 0 37 5t44 15.5t42.5 19t46 24.5t39 23t37 23t26.5 17
q43 28 97 64.5t74.5 49.5t47.5 23.5t53 10.5q74 0 74 -82q0 -46 -43 -199q-26 -94 -44.5 -137.5t-47.5 -63.5h2q-10 -8 -21 -22q-26 -32 -26 -76q0 -26 14 -40.5t39 -14.5q3 0 18.5 2t24.5 2q19 0 33 -16.5t14 -47.5q0 -49 -49 -94q-35 -33 -86.5 -52t-103.5 -19
q-111 0 -169.5 49.5t-58.5 126.5q0 56 46 106t122 76h-889z" />
    <glyph glyph-name="eogonek" unicode="&#x119;" horiz-adv-x="1220" 
d="M635 -35q-172 0 -315 80.5t-224.5 219t-81.5 304.5q0 171 80 312.5t218.5 222t305.5 80.5q117 0 223.5 -38.5t183 -103t122 -153t45.5 -184.5q0 -71 -44 -114t-136 -65q-115 -26 -207 -43q-177 -42 -201 -53q-24 -7 -24 -27q0 -33 61 -71q64 -33 135 -33q137 0 275 102
q40 26 69 19t64 -51q29 -38 27.5 -69.5t-29.5 -72.5q-94 -130 -260 -200q-3 -3 -8.5 -10.5t-8.5 -10.5q-26 -33 -26 -76q0 -26 14 -40.5t39 -14.5q3 0 18.5 2t24.5 2q19 0 33 -16t14 -47q0 -50 -49 -95q-35 -33 -87 -52t-104 -19q-111 0 -169 49t-58 127q0 77 84 139h-4z
M426 766q0 -57 15.5 -109.5t43.5 -52.5q5 0 13 5t21 14.5t22 15.5q38 32 131 84q3 2 17.5 9t18.5 10.5t9.5 11.5t5.5 18q0 44 -53.5 97t-112.5 53q-57 0 -94 -40.5t-37 -115.5z" />
    <glyph glyph-name="Ecaron" unicode="&#x11a;" horiz-adv-x="1366" 
d="M141 0q-59 0 -85.5 30.5t-26.5 73.5q0 57 53 93q38 28 51 62t12 103v785q1 68 -13.5 103t-53.5 63q-51 39 -51 94q0 43 26 73t84 29h987q50 0 76 -17t41 -62q74 -230 74 -306q0 -43 -18 -66.5t-52 -23.5q-31 0 -82.5 25.5t-92.5 53t-105 73.5q-72 52 -119 74t-92 22
q-69 0 -103.5 -46t-34.5 -126v-86q0 -55 18 -74.5t71 -19.5h356q34 0 54 -20t20 -52q0 -89 -68 -184q-27 -36 -50 -52t-61 -16q-37 0 -117.5 33.5t-105.5 34.5q-117 3 -117 -191v-104q0 -75 34 -114t98 -38q17 0 37 5t44 15.5t42.5 19t46 24.5t39 23t37 23t26.5 17
q43 28 97 64.5t74.5 49.5t47.5 23.5t53 10.5q74 0 74 -82q0 -46 -43 -199q-38 -133 -68.5 -177t-101.5 -44h-1012zM293 1829q-31 34 -14 62t63 28h197q32 0 90 -35l98 -65l100 65q61 37 109 37h160q47 0 64 -27.5t-15 -64.5l-195 -209q-27 -30 -66.5 -38.5t-162.5 -8.5
q-117 0 -155.5 9.5t-69.5 41.5z" />
    <glyph glyph-name="ecaron" unicode="&#x11b;" horiz-adv-x="1220" 
d="M635 -35q-172 0 -315 80.5t-224.5 219t-81.5 304.5q0 171 80 312.5t218.5 222t305.5 80.5q117 0 223.5 -38.5t183 -103t122 -153t45.5 -184.5q0 -71 -44 -114t-136 -65q-115 -26 -207 -43q-177 -42 -201 -53q-24 -7 -24 -27q0 -33 61 -71q64 -33 135 -33q137 0 275 102
q40 26 69 19t64 -51q29 -38 27.5 -69.5t-29.5 -72.5q-85 -118 -234.5 -190t-312.5 -72zM203 1522q-31 37 -14 67.5t63 30.5h197q39 0 90 -39l98 -74l100 74q58 41 109 41h160q47 0 64 -30t-15 -70l-195 -234q-27 -33 -66 -42t-163 -9q-118 0 -156.5 10t-68.5 45zM426 766
q0 -57 15.5 -109.5t43.5 -52.5q5 0 13 5t21 14.5t22 15.5q38 32 131 84q3 2 17.5 9t18.5 10.5t9.5 11.5t5.5 18q0 44 -53.5 97t-112.5 53q-57 0 -94 -40.5t-37 -115.5z" />
    <glyph glyph-name="Gbreve" unicode="&#x11e;" horiz-adv-x="1550" 
d="M829 -25q-176 0 -327 58.5t-258 161.5t-167.5 249.5t-60.5 317.5q0 161 65.5 305t178 247t269 163.5t331.5 60.5q178 0 343 -66.5t251 -166.5q56 -65 35 -123t-123 -123q-90 -58 -141 -85.5t-80 -27.5q-46 0 -90 72q-87 142 -150 201t-143 59q-101 0 -166.5 -100.5
t-65.5 -257.5q0 -163 62 -306t169.5 -229t231.5 -86q34 0 48 19t14 61v86q1 67 -17 102t-65 64q-36 22 -50 44t-14 52q0 42 32.5 71.5t102.5 28.5h353q62 0 95.5 -30.5t33.5 -89.5v-359q0 -101 -33 -162t-119 -102q-223 -109 -545 -109zM571 1937q67 102 177 54
q119 -49 213 -49q68 0 129 28q59 25 88 -4q41 -39 -4 -151q-45 -115 -125 -167.5t-199 -52.5q-156 0 -260 58q-72 40 -75 117t56 167z" />
    <glyph glyph-name="gbreve" unicode="&#x11f;" horiz-adv-x="1327" 
d="M623 -428q-119 0 -249.5 15t-217.5 40q-65 19 -71.5 73.5t42.5 182.5q27 71 67 84t109 -24q230 -121 326 -121q75 0 109 51t34 164v18q0 28 -19.5 37t-45.5 -14q-99 -92 -230 -92q-139 0 -245.5 70t-162 187.5t-55.5 262.5q0 136 48.5 257.5t132.5 208.5t201 138t249 51
q35 0 155 -11t216 -11q43 0 102 5t88 5h2q59 0 85 -31t26 -74q0 -48 -47 -90q-36 -27 -49.5 -60.5t-12.5 -100.5l-2 -428q0 -136 11 -248q10 -123 10 -150q0 -201 -148.5 -298t-457.5 -97zM338 1581q66 101 176 53q119 -49 213 -49q66 0 129 29q59 25 88 -4q42 -39 -4 -152
q-45 -115 -124.5 -167t-199.5 -52q-158 0 -260 57q-71 40 -74 117.5t56 167.5zM461 641q0 -142 54.5 -228.5t146.5 -86.5q61 0 89.5 30.5t28.5 96.5l2 239q1 94 -38 145.5t-111 51.5q-75 0 -123.5 -69.5t-48.5 -178.5z" />
    <glyph glyph-name="Gdotaccent" unicode="&#x120;" horiz-adv-x="1550" 
d="M829 -25q-176 0 -327 58.5t-258 161.5t-167.5 249.5t-60.5 317.5q0 161 65.5 305t178 247t269 163.5t331.5 60.5q178 0 343 -66.5t251 -166.5q56 -65 35 -123t-123 -123q-90 -58 -141 -85.5t-80 -27.5q-46 0 -90 72q-87 142 -150 201t-143 59q-101 0 -166.5 -100.5
t-65.5 -257.5q0 -163 62 -306t169.5 -229t231.5 -86q34 0 48 19t14 61v86q1 67 -17 102t-65 64q-36 22 -50 44t-14 52q0 42 32.5 71.5t102.5 28.5h353q62 0 95.5 -30.5t33.5 -89.5v-359q0 -101 -33 -162t-119 -102q-223 -109 -545 -109zM610 1804q0 98 71 165t175 67
q100 0 168 -62.5t68 -154.5q0 -98 -72 -166t-178 -68q-98 0 -165 63.5t-67 155.5z" />
    <glyph glyph-name="gdotaccent" unicode="&#x121;" horiz-adv-x="1327" 
d="M623 -428q-119 0 -249.5 15t-217.5 40q-65 19 -71.5 73.5t42.5 182.5q27 71 67 84t109 -24q230 -121 326 -121q75 0 109 51t34 164v18q0 28 -19.5 37t-45.5 -14q-99 -92 -230 -92q-139 0 -245.5 70t-162 187.5t-55.5 262.5q0 136 48.5 257.5t132.5 208.5t201 138t249 51
q35 0 155 -11t216 -11q43 0 102 5t88 5h2q59 0 85 -31t26 -74q0 -48 -47 -90q-36 -27 -49.5 -60.5t-12.5 -100.5l-2 -428q0 -136 11 -248q10 -123 10 -150q0 -201 -148.5 -298t-457.5 -97zM397 1448q0 105 81 182.5t190 77.5q100 0 172.5 -68.5t72.5 -162.5
q0 -107 -79.5 -186t-188.5 -79q-100 0 -174 70.5t-74 165.5zM461 641q0 -142 54.5 -228.5t146.5 -86.5q61 0 89.5 30.5t28.5 96.5l2 239q1 94 -38 145.5t-111 51.5q-75 0 -123.5 -69.5t-48.5 -178.5z" />
    <glyph glyph-name="uni0122" unicode="&#x122;" horiz-adv-x="1550" 
d="M829 -25q-176 0 -327 58.5t-258 161.5t-167.5 249.5t-60.5 317.5q0 161 65.5 305t178 247t269 163.5t331.5 60.5q178 0 343 -66.5t251 -166.5q56 -65 35 -123t-123 -123q-90 -58 -141 -85.5t-80 -27.5q-46 0 -90 72q-87 142 -150 201t-143 59q-101 0 -166.5 -100.5
t-65.5 -257.5q0 -163 62 -306t169.5 -229t231.5 -86q34 0 48 19t14 61v86q1 67 -17 102t-65 64q-36 22 -50 44t-14 52q0 42 32.5 71.5t102.5 28.5h353q62 0 95.5 -30.5t33.5 -89.5v-359q0 -101 -33 -162t-119 -102q-223 -109 -545 -109zM618 -291q0 96 63 158.5t157 62.5
q107 0 168 -69t61 -183q0 -123 -76 -234.5t-198 -172.5q-57 -34 -105 29q-52 63 -6 100q30 22 43.5 33t27 27.5t13.5 31.5q0 17 -27 29q-121 57 -121 188z" />
    <glyph glyph-name="uni0123" unicode="&#x123;" horiz-adv-x="1327" 
d="M623 -428q-119 0 -249.5 15t-217.5 40q-65 19 -71.5 73.5t42.5 182.5q27 71 67 84t109 -24q230 -121 326 -121q75 0 109 51t34 164v18q0 28 -19.5 37t-45.5 -14q-99 -92 -230 -92q-139 0 -245.5 70t-162 187.5t-55.5 262.5q0 136 48.5 257.5t132.5 208.5t201 138t249 51
q35 0 155 -11t216 -11q43 0 102 5t88 5h2q59 0 85 -31t26 -74q0 -48 -47 -90q-36 -27 -49.5 -60.5t-12.5 -100.5l-2 -428q0 -136 11 -248q10 -123 10 -150q0 -201 -148.5 -298t-457.5 -97zM408 1462q0 120 87 229.5t224 168.5q66 29 121 -29q58 -61 6 -96q-69 -45 -83 -63
q-11 -14 -11 -27q0 -18 28 -29q138 -53 138 -184q0 -92 -71 -152.5t-177 -60.5q-122 0 -192 67t-70 176zM461 641q0 -142 54.5 -228.5t146.5 -86.5q61 0 89.5 30.5t28.5 96.5l2 239q1 94 -38 145.5t-111 51.5q-75 0 -123.5 -69.5t-48.5 -178.5z" />
    <glyph glyph-name="Hbar" unicode="&#x126;" horiz-adv-x="1689" 
d="M139 0q-59 0 -85.5 30.5t-26.5 73.5q0 57 53 93q38 28 51 62t12 103v664h-18q-69 0 -84 7q-28 12 -31 70v21q0 37 4.5 57t21 30t33.5 12t56 2h14q-11 51 -59 88q-53 36 -53 92q0 43 26.5 73.5t85.5 30.5h477q69 0 100.5 -30.5t31.5 -73.5q0 -54 -62 -92q-58 -37 -68 -88
h449q-10 51 -68 88q-61 38 -61 92q0 43 31 73.5t100 30.5h479q59 0 86 -30.5t27 -73.5q0 -56 -53 -92q-50 -38 -60 -88h23q70 0 90 -15.5t20 -85.5q0 -37 -3.5 -57t-17.5 -29t-27.5 -10.5t-48.5 -1.5h-13h-27v-664q-1 -67 13.5 -102t54.5 -65q51 -36 51 -93q0 -43 -28 -73
t-87 -29h-479q-69 0 -100 30.5t-31 73.5q0 55 61 93q44 28 59.5 62t14.5 103v244q0 47 -20.5 59.5t-73.5 12.5h-317q-21 0 -33.5 -11.5t-12.5 -31.5l-2 -273q-1 -67 15.5 -102t60.5 -65q60 -37 60 -95q-2 -43 -33.5 -72t-100.5 -28h-477zM612 1022q0 -59 37 -59l348 -5
q47 0 60.5 13t15.5 55h-461v-4z" />
    <glyph glyph-name="hbar" unicode="&#x127;" horiz-adv-x="1386" 
d="M129 0q-57 0 -83 31t-26 73q0 53 56 93q31 26 41 58t10 101v801h-51q-45 0 -61.5 19.5t-16.5 72.5q0 49 16 66.5t62 17.5h10q-7 7 -23 19q-47 42 -47 92q2 43 28 73t85 29h317q54 0 80.5 -24t26.5 -82v-107h84q39 0 51 -16.5t12 -67.5q0 -54 -12 -73t-51 -19h-86v-108
q0 -30 19 -33.5t38 26.5q30 51 97.5 90t152.5 39q143 0 225.5 -82.5t108.5 -259.5l65 -444q19 -122 82 -180q47 -47 47 -103q0 -43 -25.5 -72.5t-74.5 -29.5h-158q-138 0 -211 39.5t-86 150.5l-57 492q-7 69 -39.5 103t-83.5 34q-43 0 -67.5 -19t-24.5 -55v-389
q0 -68 11 -100.5t44 -58.5q56 -40 56 -93q0 -42 -26.5 -73t-86.5 -31h-428z" />
    <glyph glyph-name="Itilde" unicode="&#x128;" horiz-adv-x="759" 
d="M141 0q-59 0 -85.5 30.5t-26.5 73.5q0 57 53 93q38 28 51 62t12 103v785q1 68 -13.5 103t-53.5 63q-51 39 -51 94q0 43 26 73t84 29h488q58 0 83 -30.5t25 -73.5q0 -56 -53 -94q-38 -26 -51.5 -60.5t-12.5 -103.5v-785q-1 -68 12 -102.5t52 -62.5q53 -36 53 -93
q0 -43 -26.5 -73.5t-85.5 -30.5h-480zM-55 1700q36 149 95.5 211.5t154.5 62.5q70 0 239 -59q157 -55 184 -55q42 0 74 51q38 66 105 41q64 -24 41 -125q-34 -156 -85 -216.5t-149 -60.5q-29 0 -71 9.5t-76 20.5t-103 34q-137 49 -178 49q-46 0 -78 -55q-36 -58 -96 -43
q-45 12 -58.5 46t1.5 89z" />
    <glyph glyph-name="itilde" unicode="&#x129;" horiz-adv-x="675" 
d="M129 0q-57 0 -83 31t-26 73q0 53 56 93q31 26 41 58t10 101v437q1 66 -13 100t-51 61q-47 42 -47 93q2 43 28 73t85 29h295q74 0 103.5 -33.5t29.5 -114.5v-645q0 -69 10 -101t41 -58q56 -40 56 -93q0 -42 -26 -73t-83 -31h-426zM-129 1370q36 165 95.5 235t154.5 70
q71 0 239 -65q159 -62 185 -62q23 0 39 13.5t34 44.5q39 74 105 45q63 -26 41 -140q-34 -172 -85 -239.5t-149 -67.5q-29 0 -72.5 11.5t-72 21.5t-104.5 39q-139 53 -179 53q-24 0 -41.5 -14t-35.5 -47q-36 -66 -97 -47q-45 13 -58 50.5t1 98.5z" />
    <glyph glyph-name="Imacron" unicode="&#x12a;" horiz-adv-x="759" 
d="M141 0q-59 0 -85.5 30.5t-26.5 73.5q0 57 53 93q38 28 51 62t12 103v785q1 68 -13.5 103t-53.5 63q-51 39 -51 94q0 43 26 73t84 29h488q58 0 83 -30.5t25 -73.5q0 -56 -53 -94q-38 -26 -51.5 -60.5t-12.5 -103.5v-785q-1 -68 12 -102.5t52 -62.5q53 -36 53 -93
q0 -43 -26.5 -73.5t-85.5 -30.5h-480zM-31 1688v92q0 64 23.5 86t91.5 22h594q67 0 91 -22t24 -86v-92q0 -64 -24 -86.5t-91 -22.5h-594q-68 0 -91.5 22.5t-23.5 86.5z" />
    <glyph glyph-name="imacron" unicode="&#x12b;" horiz-adv-x="675" 
d="M129 0q-57 0 -83 31t-26 73q0 53 56 93q31 26 41 58t10 101v437q1 66 -13 100t-51 61q-47 42 -47 93q2 43 28 73t85 29h295q74 0 103.5 -33.5t29.5 -114.5v-645q0 -69 10 -101t41 -58q56 -40 56 -93q0 -42 -26 -73t-83 -31h-426zM-25 1352v92q0 64 22.5 86t88.5 22h467
q66 0 89.5 -22t23.5 -86v-92q0 -64 -23.5 -86.5t-89.5 -22.5h-467q-66 0 -88.5 22t-22.5 87z" />
    <glyph glyph-name="Iogonek" unicode="&#x12e;" horiz-adv-x="759" 
d="M141 0q-59 0 -85.5 30.5t-26.5 73.5q0 57 53 93q38 28 51 62t12 103v785q1 68 -13.5 103t-53.5 63q-51 39 -51 94q0 43 26 73t84 29h488q58 0 83 -30.5t25 -73.5q0 -56 -53 -94q-38 -26 -51.5 -60.5t-12.5 -103.5v-785q-1 -68 12 -102.5t52 -62.5q53 -36 53 -93t-39 -84
h2q-8 -6 -20 -22q-27 -34 -27 -76q0 -26 14 -40.5t39 -14.5q3 0 18.5 2t24.5 2q19 0 33.5 -16.5t14.5 -47.5q0 -48 -50 -94q-35 -33 -86.5 -52t-103.5 -19q-111 0 -169 49t-58 127q0 56 46 106t122 76h-353z" />
    <glyph glyph-name="iogonek" unicode="&#x12f;" horiz-adv-x="671" 
d="M158 1231q-52 0 -82.5 31t-30.5 86q0 101 75 170t183 69t184 -70t76 -169q0 -56 -29.5 -86.5t-82.5 -30.5h-293zM16 1047q2 43 28 73t85 29h295q74 0 103.5 -33.5t29.5 -114.5v-645q0 -69 10 -101t41 -58q56 -40 56 -93q0 -57 -37 -84h14q-8 -6 -20 -22q-27 -34 -27 -76
q0 -26 14 -40.5t39 -14.5q3 0 18.5 2t24.5 2q19 0 33 -16.5t14 -47.5q0 -49 -49 -94q-35 -33 -86.5 -52t-103.5 -19q-111 0 -169.5 49.5t-58.5 126.5q0 56 46 106t122 76h-309q-57 0 -83 31t-26 73q0 53 56 93q31 26 41 58t10 101v437q1 66 -13 100t-51 61q-47 42 -47 93z
" />
    <glyph glyph-name="Idotaccent" unicode="&#x130;" horiz-adv-x="759" 
d="M141 0q-59 0 -85.5 30.5t-26.5 73.5q0 57 53 93q38 28 51 62t12 103v785q1 68 -13.5 103t-53.5 63q-51 39 -51 94q0 43 26 73t84 29h488q58 0 83 -30.5t25 -73.5q0 -56 -53 -94q-38 -26 -51.5 -60.5t-12.5 -103.5v-785q-1 -68 12 -102.5t52 -62.5q53 -36 53 -93
q0 -43 -26.5 -73.5t-85.5 -30.5h-480zM131 1776q0 98 71 164.5t175 66.5q100 0 167.5 -62.5t67.5 -154.5q0 -98 -72 -166t-178 -68q-98 0 -164.5 63.5t-66.5 156.5z" />
    <glyph glyph-name="dotlessi" unicode="&#x131;" horiz-adv-x="675" 
d="M129 0q-57 0 -83 31t-26 73q0 53 56 93q31 26 41 58t10 101v437q1 66 -13 100t-51 61q-47 42 -47 93q2 43 28 73t85 29h295q74 0 103.5 -33.5t29.5 -114.5v-645q0 -69 10 -101t41 -58q56 -40 56 -93q0 -42 -26 -73t-83 -31h-426z" />
    <glyph glyph-name="IJ" unicode="&#x132;" horiz-adv-x="1691" 
d="M141 0q-59 0 -85.5 30.5t-26.5 73.5q0 57 53 93q38 28 51 62t12 103v785q1 68 -13.5 103t-53.5 63q-51 39 -51 94q0 43 26 73t84 29h488q58 0 83 -30.5t25 -73.5q0 -56 -53 -94q-38 -26 -51.5 -60.5t-12.5 -103.5v-785q-1 -68 12 -102.5t52 -62.5q53 -36 53 -93
q0 -43 -26.5 -73.5t-85.5 -30.5h-480zM772 156q14 54 32 75t52 21q17 0 47.5 -1t50.5 -1q56 0 91.5 33t35.5 88v772q1 69 -15.5 104.5t-61.5 63.5q-34 22 -47 44.5t-13 51.5q2 44 32 73.5t97 28.5h488q58 0 83 -30.5t25 -73.5q0 -56 -53 -94q-38 -26 -51.5 -60.5
t-12.5 -103.5v-848q0 -143 -105.5 -231.5t-287.5 -92.5q-198 -6 -330 50q-48 20 -60 43.5t3 87.5z" />
    <glyph glyph-name="ij" unicode="&#x133;" horiz-adv-x="1288" 
d="M158 1231q-52 0 -82.5 31t-30.5 86q0 101 75 170t183 69t184 -70t76 -169q0 -56 -29.5 -86.5t-82.5 -30.5h-293zM16 1047q2 43 28 73t85 29h295q74 0 103.5 -33.5t29.5 -114.5v-645q0 -69 10 -101t41 -58q56 -40 56 -93q0 -42 -26 -73t-83 -31h-426q-57 0 -83 31t-26 73
q0 53 56 93q31 26 41 58t10 101v437q1 66 -13 100t-51 61q-47 42 -47 93zM537 -154q17 38 35 51.5t46 10.5q38 -6 76 -6q50 0 74.5 28.5t24.5 75.5v787q1 66 -13 100t-51 61q-47 42 -47 93q2 43 28 73t85 29h297q74 0 103.5 -33.5t29.5 -114.5v-1081q0 -131 -99 -212
t-249 -81q-89 0 -172 18.5t-130 49.5q-33 21 -46 45.5t-10 49t18 56.5zM707 1348q0 101 75 170t181 69q108 0 185 -69.5t77 -169.5q0 -56 -30 -86.5t-83 -30.5h-293q-52 0 -82 31t-30 86z" />
    <glyph glyph-name="uni0136" unicode="&#x136;" horiz-adv-x="1556" 
d="M139 0q-59 0 -85.5 30.5t-26.5 73.5q0 57 53 93q38 28 51 62t12 103v785q2 69 -11.5 103.5t-51.5 62.5q-53 36 -53 92q0 43 26.5 73.5t85.5 30.5h477q69 0 100.5 -30.5t31.5 -73.5q0 -54 -62 -92q-44 -28 -59.5 -62.5t-14.5 -103.5v-150q0 -23 16.5 -26t33.5 22
q149 226 264 334q99 91 198.5 139t180.5 45q43 -3 70 -33t48 -94q43 -128 43 -227q0 -26 -14.5 -44t-42.5 -21q-343 -33 -461 -121q-24 -17 -20.5 -40.5t39.5 -33.5q148 -39 224.5 -123t145.5 -274l35 -97q51 -143 121 -190q36 -25 51 -51.5t15 -65.5q0 -48 -31 -72t-82 -24
h-313q-79 0 -125 42.5t-74 127.5l-94 281q-63 190 -178 190q-46 0 -46 -55l-2 -224q-1 -67 15.5 -102t60.5 -65q60 -40 60 -95q-2 -43 -33.5 -72t-100.5 -28h-477zM625 -250q0 96 62.5 158.5t156.5 62.5q107 0 168 -69t61 -183q0 -123 -76 -234.5t-198 -172.5
q-57 -34 -105 29q-52 63 -6 100q30 22 43.5 33t27 27.5t13.5 31.5q0 17 -27 29q-120 56 -120 188z" />
    <glyph glyph-name="uni0137" unicode="&#x137;" horiz-adv-x="1269" 
d="M129 0q-57 0 -83 31t-26 73q0 53 56 93q31 26 41 58t10 101v834q1 67 -13 101t-51 61q-47 42 -47 92q2 43 28 73t85 29h322q53 0 79.5 -24t26.5 -82v-606q0 -25 17 -28.5t36 19.5q5 6 48.5 60.5t74.5 85.5q95 92 191.5 142t179.5 50q55 0 88 -69.5t33 -184.5
q0 -47 -21 -70t-67 -24q-139 -5 -193 -10q-33 -3 -39 -26t27 -40q129 -68 190 -245l52 -156q28 -89 67 -123q47 -41 47 -100q0 -53 -29 -84t-77 -31h-224q-100 0 -149.5 58t-73.5 171l-26 123q-22 98 -48 143.5t-61 45.5q-43 0 -43 -45v-140q0 -68 11 -100t42 -59
q56 -40 56 -93q0 -42 -26 -73t-83 -31h-428zM432 -291q0 96 62.5 158.5t156.5 62.5q107 0 168.5 -69t61.5 -183q0 -123 -76.5 -234.5t-198.5 -172.5q-57 -33 -104 29q-52 63 -6 100q30 22 43.5 33t27 27.5t13.5 31.5q0 17 -27 29q-121 57 -121 188z" />
    <glyph glyph-name="Lacute" unicode="&#x139;" horiz-adv-x="1261" 
d="M141 0q-59 -1 -86.5 29t-27.5 73q0 57 51 93q39 30 53.5 65t13.5 102v785q2 69 -11.5 103.5t-51.5 60.5q-53 38 -53 94q0 43 25 73.5t83 30.5h492q76 1 109.5 -29t33.5 -75q0 -31 -14 -54t-53 -46q-51 -30 -69.5 -66t-17.5 -106l-2 -705q0 -97 27 -142.5t100 -45.5
q11 0 23.5 2.5t23 6t25 12t24.5 14t26.5 18t25.5 19.5t28 23.5t27.5 24t29.5 26t30 26.5q40 36 59.5 52t56 36t64.5 20q76 0 76 -90q0 -53 -27 -163.5t-53 -186.5q-17 -45 -42.5 -62.5t-74.5 -17.5h-924zM315 1708l115 145q56 72 152 72h329q55 0 86 -24t20 -62.5t-69 -75.5
l-237 -155q-44 -31 -101 -31h-260q-57 0 -67 39.5t32 91.5z" />
    <glyph glyph-name="lacute" unicode="&#x13a;" horiz-adv-x="679" 
d="M129 0q-57 0 -83 31t-26 73q0 53 56 93q31 26 41 58t10 101v834q1 67 -13 101t-51 61q-47 42 -47 92q2 43 28 73t85 29h324q53 0 79.5 -24t26.5 -82v-1084q0 -69 10 -101t41 -58q56 -40 56 -93q0 -42 -26 -73t-83 -31h-428zM106 1747l115 145q56 72 152 72h329
q55 0 86 -24t20 -62.5t-69 -75.5l-237 -155q-44 -31 -101 -31h-260q-37 0 -55 18t-12.5 48t32.5 65z" />
    <glyph glyph-name="uni013B" unicode="&#x13b;" horiz-adv-x="1261" 
d="M141 0q-59 -1 -86.5 29t-27.5 73q0 57 51 93q39 30 53.5 65t13.5 102v785q2 69 -11.5 103.5t-51.5 60.5q-53 38 -53 94q0 43 25 73.5t83 30.5h492q76 1 109.5 -29t33.5 -75q0 -31 -14 -54t-53 -46q-51 -30 -69.5 -66t-17.5 -106l-2 -705q0 -97 27 -142.5t100 -45.5
q11 0 23.5 2.5t23 6t25 12t24.5 14t26.5 18t25.5 19.5t28 23.5t27.5 24t29.5 26t30 26.5q40 36 59.5 52t56 36t64.5 20q76 0 76 -90q0 -53 -27 -163.5t-53 -186.5q-17 -45 -42.5 -62.5t-74.5 -17.5h-924zM428 -291q0 96 62.5 158.5t156.5 62.5q107 0 168.5 -69t61.5 -183
q0 -123 -76.5 -234.5t-198.5 -172.5q-57 -33 -104 29q-52 63 -6 100q29 21 43 32.5t27 28t13 31.5q0 17 -26 29q-121 57 -121 188z" />
    <glyph glyph-name="uni013C" unicode="&#x13c;" horiz-adv-x="679" 
d="M129 0q-57 0 -83 31t-26 73q0 53 56 93q31 26 41 58t10 101v834q1 67 -13 101t-51 61q-47 42 -47 92q2 43 28 73t85 29h324q53 0 79.5 -24t26.5 -82v-1084q0 -69 10 -101t41 -58q56 -40 56 -93q0 -42 -26 -73t-83 -31h-428zM137 -291q0 96 62.5 158.5t156.5 62.5
q107 0 168.5 -69t61.5 -183q0 -123 -76.5 -234.5t-198.5 -172.5q-57 -33 -104 29q-52 63 -6 100q30 22 43.5 33t27 27.5t13.5 31.5q0 17 -27 29q-121 57 -121 188z" />
    <glyph glyph-name="Lcaron" unicode="&#x13d;" horiz-adv-x="1261" 
d="M141 0q-59 -1 -86.5 29t-27.5 73q0 57 51 93q39 30 53.5 65t13.5 102v785q2 69 -11.5 103.5t-51.5 60.5q-53 38 -53 94q0 43 25 73.5t83 30.5h492q76 1 109.5 -29t33.5 -75q0 -31 -14 -54t-53 -46q-51 -30 -69.5 -66t-17.5 -106l-2 -705q0 -97 27 -142.5t100 -45.5
q11 0 23.5 2.5t23 6t25 12t24.5 14t26.5 18t25.5 19.5t28 23.5t27.5 24t29.5 26t30 26.5q40 36 59.5 52t56 36t64.5 20q76 0 76 -90q0 -53 -27 -163.5t-53 -186.5q-17 -45 -42.5 -62.5t-74.5 -17.5h-924zM774 1071l113 346q13 44 48 68t83 24h248q78 0 95 -38.5t-22 -100.5
l-211 -373q-5 -9 -11.5 -15.5t-11.5 -11t-14.5 -7.5t-14.5 -4.5t-17.5 -2t-18 -0.5h-20.5h-21h-172q-92 0 -53 115z" />
    <glyph glyph-name="lcaron" unicode="&#x13e;" horiz-adv-x="679" 
d="M129 0q-57 0 -83 31t-26 73q0 53 56 93q31 26 41 58t10 101v834q1 67 -13 101t-51 61q-47 42 -47 92q2 43 28 73t85 29h324q53 0 79.5 -24t26.5 -82v-1084q0 -69 10 -101t41 -58q56 -40 56 -93q0 -42 -26 -73t-83 -31h-428zM606 1106l113 346q13 44 48 68t83 24h248
q53 0 77.5 -18t22 -48.5t-26.5 -72.5l-210 -373q-5 -9 -11.5 -15.5t-11.5 -11t-14.5 -7.5t-15 -4.5t-18 -2t-17.5 -0.5h-20.5h-21.5h-172q-92 0 -53 115z" />
    <glyph glyph-name="Lslash" unicode="&#x141;" horiz-adv-x="1261" 
d="M141 0q-59 -1 -86.5 29t-27.5 73q0 57 51 93q39 30 53.5 65t13.5 102v136l-77 -23q-39 -11 -56.5 0t-17.5 49v129q0 69 24.5 104t94.5 56l32 10v324q2 69 -11.5 103.5t-51.5 60.5q-53 38 -53 94q0 43 25 73.5t83 30.5h492q76 1 109.5 -29t33.5 -75q0 -31 -14 -54t-53 -46
q-51 -30 -69.5 -66t-17.5 -106v-166l144 43q88 26 88 -62v-114q0 -76 -27 -112.5t-102 -57.5l-105 -31v-205q0 -97 27 -142.5t100 -45.5q11 0 23.5 2.5t23 6t25 12t24.5 14t26.5 18t25.5 19.5t28 23.5t27.5 24t29.5 26t30 26.5q40 36 59.5 52t56 36t64.5 20q76 0 76 -90
q0 -53 -27 -163.5t-53 -186.5q-17 -45 -42.5 -62.5t-74.5 -17.5h-924z" />
    <glyph glyph-name="lslash" unicode="&#x142;" horiz-adv-x="679" 
d="M129 0q-57 0 -83 31t-26 73q0 53 56 93q31 26 41 58t10 101v207l-68 -24q-31 -11 -45 0t-14 49v129q0 69 19.5 104t74.5 56l33 12v301q1 67 -13 101t-51 61q-47 42 -47 92q2 43 28 73t85 29h324q53 0 79.5 -24t26.5 -82v-387l55 20q36 13 53 -1.5t17 -59.5v-115
q0 -77 -21 -113t-81 -57l-23 -8v-363q0 -69 10 -101t41 -58q56 -40 56 -93q0 -42 -26 -73t-83 -31h-428z" />
    <glyph glyph-name="Nacute" unicode="&#x143;" horiz-adv-x="1531" 
d="M1196 -4q-49 0 -79.5 27.5t-35.5 74.5q-9 83 -63 142l-520 559q-9 11 -20 7.5t-11 -18.5l-4 -426q-1 -67 17 -102t67 -65q66 -40 63 -95q0 -43 -34.5 -73t-110.5 -27h-324q-59 0 -85.5 30.5t-26.5 73.5q0 57 53 93q38 28 51 62t12 103v785q1 68 -13.5 103t-53.5 63
q-51 39 -51 94q0 43 26 73t84 29h303q77 0 116.5 -21t88.5 -75l391 -436q15 -18 26 -15t11 21v164q1 67 -15.5 102t-60.5 64q-59 39 -59 94q2 43 31.5 73t95.5 29h342q58 0 83.5 -30.5t25.5 -73.5q0 -55 -54 -94q-38 -26 -51.5 -60.5t-11.5 -103.5l2 -1004q0 -147 -107 -147
h-98zM532 1708l115 145q56 72 152 72h329q55 0 86 -24t20 -62.5t-69 -75.5l-237 -155q-44 -31 -101 -31h-260q-57 0 -67 39.5t32 91.5z" />
    <glyph glyph-name="nacute" unicode="&#x144;" horiz-adv-x="1386" 
d="M129 0q-57 0 -83 31t-26 73q0 53 56 93q31 26 41 58t10 101v437q1 66 -13 100t-51 61q-47 42 -47 93q2 43 28 73t85 29h283q56 0 84 -26.5t45 -96.5q4 -15 11.5 -21t17.5 -1.5t20 20.5q40 63 111.5 105t158.5 42q142 0 223.5 -81.5t108.5 -258.5l68 -446q19 -126 79 -180
q47 -44 47 -103q0 -43 -26 -72.5t-74 -29.5h-158q-137 0 -210.5 40t-86.5 150l-57 492q-7 69 -39.5 103t-83.5 34q-43 0 -67.5 -19t-24.5 -55v-389q0 -68 11 -100.5t44 -58.5q56 -40 56 -93q0 -42 -26.5 -73t-86.5 -31h-428zM492 1331l151 223q50 72 150 72h247
q86 0 103 -47t-58 -115l-239 -207q-29 -26 -54.5 -33t-74.5 -7h-182q-49 0 -61.5 35t18.5 79z" />
    <glyph glyph-name="uni0145" unicode="&#x145;" horiz-adv-x="1531" 
d="M1196 -4q-49 0 -79.5 27.5t-35.5 74.5q-9 83 -63 142l-520 559q-9 11 -20 7.5t-11 -18.5l-4 -426q-1 -67 17 -102t67 -65q66 -40 63 -95q0 -43 -34.5 -73t-110.5 -27h-324q-59 0 -85.5 30.5t-26.5 73.5q0 57 53 93q38 28 51 62t12 103v785q1 68 -13.5 103t-53.5 63
q-51 39 -51 94q0 43 26 73t84 29h303q77 0 116.5 -21t88.5 -75l391 -436q15 -18 26 -15t11 21v164q1 67 -15.5 102t-60.5 64q-59 39 -59 94q2 43 31.5 73t95.5 29h342q58 0 83.5 -30.5t25.5 -73.5q0 -55 -54 -94q-38 -26 -51.5 -60.5t-11.5 -103.5l2 -1004q0 -147 -107 -147
h-98zM606 -203q0 96 62.5 158.5t156.5 62.5q107 0 168.5 -68.5t61.5 -182.5q0 -123 -76.5 -235t-198.5 -173q-57 -33 -104 29q-52 63 -6 100q30 22 43.5 33t27 27.5t13.5 31.5q0 17 -27 29q-121 57 -121 188z" />
    <glyph glyph-name="uni0146" unicode="&#x146;" horiz-adv-x="1386" 
d="M129 0q-57 0 -83 31t-26 73q0 53 56 93q31 26 41 58t10 101v437q1 66 -13 100t-51 61q-47 42 -47 93q2 43 28 73t85 29h283q56 0 84 -26.5t45 -96.5q4 -15 11.5 -21t17.5 -1.5t20 20.5q40 63 111.5 105t158.5 42q142 0 223.5 -81.5t108.5 -258.5l68 -446q19 -126 79 -180
q47 -44 47 -103q0 -43 -26 -72.5t-74 -29.5h-158q-137 0 -210.5 40t-86.5 150l-57 492q-7 69 -39.5 103t-83.5 34q-43 0 -67.5 -19t-24.5 -55v-389q0 -68 11 -100.5t44 -58.5q56 -40 56 -93q0 -42 -26.5 -73t-86.5 -31h-428zM553 -291q0 96 62.5 158.5t156.5 62.5
q107 0 168 -69t61 -183q0 -123 -76 -234.5t-198 -172.5q-57 -33 -104 29q-52 64 -7 100q30 22 43.5 33t27 27.5t13.5 31.5q0 17 -26 29q-121 57 -121 188z" />
    <glyph glyph-name="Ncaron" unicode="&#x147;" horiz-adv-x="1531" 
d="M1196 -4q-49 0 -79.5 27.5t-35.5 74.5q-9 83 -63 142l-520 559q-9 11 -20 7.5t-11 -18.5l-4 -426q-1 -67 17 -102t67 -65q66 -40 63 -95q0 -43 -34.5 -73t-110.5 -27h-324q-59 0 -85.5 30.5t-26.5 73.5q0 57 53 93q38 28 51 62t12 103v785q1 68 -13.5 103t-53.5 63
q-51 39 -51 94q0 43 26 73t84 29h303q77 0 116.5 -21t88.5 -75l391 -436q15 -18 26 -15t11 21v164q1 67 -15.5 102t-60.5 64q-59 39 -59 94q2 43 31.5 73t95.5 29h342q58 0 83.5 -30.5t25.5 -73.5q0 -55 -54 -94q-38 -26 -51.5 -60.5t-11.5 -103.5l2 -1004q0 -147 -107 -147
h-98zM354 1819q-31 34 -14 62t63 28h197q32 0 90 -35l98 -66l101 66q61 37 108 37h160q47 0 64 -27.5t-15 -64.5l-194 -209q-27 -30 -67 -38.5t-163 -8.5q-117 0 -155.5 9.5t-69.5 41.5z" />
    <glyph glyph-name="ncaron" unicode="&#x148;" horiz-adv-x="1386" 
d="M129 0q-57 0 -83 31t-26 73q0 53 56 93q31 26 41 58t10 101v437q1 66 -13 100t-51 61q-47 42 -47 93q2 43 28 73t85 29h283q56 0 84 -26.5t45 -96.5q4 -15 11.5 -21t17.5 -1.5t20 20.5q40 63 111.5 105t158.5 42q142 0 223.5 -81.5t108.5 -258.5l68 -446q19 -126 79 -180
q47 -44 47 -103q0 -43 -26 -72.5t-74 -29.5h-158q-137 0 -210.5 40t-86.5 150l-57 492q-7 69 -39.5 103t-83.5 34q-43 0 -67.5 -19t-24.5 -55v-389q0 -68 11 -100.5t44 -58.5q56 -40 56 -93q0 -42 -26.5 -73t-86.5 -31h-428zM270 1505q-31 37 -14 68t63 31h197q39 0 90 -39
l99 -74l100 74q58 41 108 41h160q47 0 64 -30.5t-15 -70.5l-194 -233q-27 -33 -66.5 -42t-163.5 -9q-118 0 -156.5 10t-68.5 45z" />
    <glyph glyph-name="Eng" unicode="&#x14a;" horiz-adv-x="1531" 
d="M1196 -4q-49 0 -79.5 27.5t-35.5 74.5q-9 83 -63 142l-520 559q-9 11 -20 7.5t-11 -18.5l-4 -426q-1 -67 17 -102t67 -65q66 -40 63 -95q0 -43 -34.5 -73t-110.5 -27h-324q-59 0 -85.5 30.5t-26.5 73.5q0 57 53 93q38 28 51 62t12 103v785q1 68 -13.5 103t-53.5 63
q-51 39 -51 94q0 43 26 73t84 29h303q77 0 116.5 -21t88.5 -75l391 -436q15 -18 26 -15t11 21v164q1 67 -15.5 102t-60.5 64q-59 39 -59 94q2 43 31.5 73t95.5 29h342q58 0 83.5 -30.5t25.5 -73.5q0 -55 -54 -94q-38 -26 -51.5 -60.5t-11.5 -103.5l2 -1004q0 -147 -107 -147
h-98z" />
    <glyph glyph-name="eng" unicode="&#x14b;" horiz-adv-x="1306" 
d="M895 -352q-90 0 -172 18t-129 49q-91 60 -39 152q38 67 94 61q37 -6 64 -6q50 0 74 29t24 76v649q0 65 -34 100t-101 35q-62 0 -93.5 -36t-31.5 -101v-318q0 -69 10 -101t39 -58q53 -40 53 -93q0 -42 -24 -73t-80 -31h-426q-57 0 -83 31t-26 73q0 53 56 93q31 26 41 58
t10 101v437q1 66 -13 100t-51 61q-47 42 -47 93q2 43 28 73t85 29h301q48 0 68.5 -22t35.5 -76q6 -23 12.5 -32t18.5 -9q10 0 29 22q103 139 309 139q157 0 251.5 -85.5t94.5 -256.5v-888q0 -131 -99 -212t-249 -81z" />
    <glyph glyph-name="Omacron" unicode="&#x14c;" horiz-adv-x="1650" 
d="M852 -35q-243 0 -433.5 101.5t-296.5 284t-106 415.5q0 159 61.5 301t166.5 243.5t251 161t308 58.5q180 0 334.5 -62t263 -171.5t170 -264.5t61.5 -336q0 -202 -103.5 -370t-282.5 -264.5t-394 -96.5zM391 1698v92q0 64 25 86t96 22h625q71 0 95.5 -22t24.5 -86v-92
q0 -64 -24.5 -86.5t-95.5 -22.5h-625q-71 0 -96 22.5t-25 86.5zM530 940q0 -164 51.5 -325.5t141 -267t188.5 -105.5q100 0 153.5 87.5t53.5 248.5q0 163 -52.5 318.5t-142 255t-188.5 101.5q-98 2 -151.5 -79.5t-53.5 -233.5z" />
    <glyph glyph-name="omacron" unicode="&#x14d;" horiz-adv-x="1282" 
d="M629 -35q-170 0 -311.5 79.5t-222.5 218t-81 304.5q0 129 49.5 243.5t135 196.5t204.5 129.5t254 47.5q172 0 312.5 -83t219.5 -225t79 -311q0 -166 -84 -304t-231 -217t-324 -79zM209 1352v92q0 65 28 86.5t111 21.5h584q83 0 111 -21.5t28 -86.5v-92q0 -65 -28 -87
t-111 -22h-584q-83 0 -111 22t-28 87zM455 727q0 -102 32.5 -216.5t91 -197t121.5 -82.5q57 0 92 43t35 123q0 111 -33.5 231.5t-91.5 205t-120 84.5q-58 0 -92.5 -50t-34.5 -141z" />
    <glyph glyph-name="Ohungarumlaut" unicode="&#x150;" horiz-adv-x="1650" 
d="M852 -35q-243 0 -433.5 101.5t-296.5 284t-106 415.5q0 159 61.5 301t166.5 243.5t251 161t308 58.5q180 0 334.5 -62t263 -171.5t170 -264.5t61.5 -336q0 -202 -103.5 -370t-282.5 -264.5t-394 -96.5zM299 1686l123 190q40 61 149 61h248q86 0 101 -37.5t-56 -99.5
l-207 -174q-46 -37 -125 -37h-190q-48 0 -59 29.5t16 67.5zM530 940q0 -164 51.5 -325.5t141 -267t188.5 -105.5q100 0 153.5 87.5t53.5 248.5q0 163 -52.5 318.5t-142 255t-188.5 101.5q-98 2 -151.5 -79.5t-53.5 -233.5zM870 1686l152 190q50 61 149 61h248q86 0 103 -40
t-58 -97l-235 -174q-48 -37 -125 -37h-191q-49 0 -61.5 30t18.5 67z" />
    <glyph glyph-name="ohungarumlaut" unicode="&#x151;" horiz-adv-x="1282" 
d="M629 -35q-170 0 -311.5 79.5t-222.5 218t-81 304.5q0 129 49.5 243.5t135 196.5t204.5 129.5t254 47.5q172 0 312.5 -83t219.5 -225t79 -311q0 -166 -84 -304t-231 -217t-324 -79zM100 1350l123 223q41 72 150 72h248q86 0 101 -45t-56 -117l-207 -203q-45 -45 -125 -45
h-191q-48 0 -58.5 34.5t15.5 80.5zM455 727q0 -102 32.5 -216.5t91 -197t121.5 -82.5q57 0 92 43t35 123q0 111 -33.5 231.5t-91.5 205t-120 84.5q-58 0 -92.5 -50t-34.5 -141zM672 1350l151 223q50 72 150 72h248q86 0 103 -47.5t-58 -114.5l-236 -205q-49 -43 -125 -43
h-190q-49 0 -61.5 35.5t18.5 79.5z" />
    <glyph glyph-name="OE" unicode="&#x152;" horiz-adv-x="2361" 
d="M852 -35q-243 0 -433.5 101.5t-296.5 284t-106 415.5q0 159 61.5 301t166.5 243.5t251 161t308 58.5q141 0 262 -37q26 16 68 16h987q50 0 75.5 -17t40.5 -62q74 -230 74 -306q0 -90 -69 -90q-44 0 -113 40.5t-168 111.5q-72 52 -119 74t-92 22q-69 0 -103 -45.5
t-34 -126.5v-86q0 -56 18 -75t70 -19h356q34 0 54 -20t20 -52q0 -89 -68 -184q-27 -36 -49.5 -52t-60.5 -16q-37 0 -117.5 33.5t-105.5 34.5q-80 3 -105 -84q-2 -16 -10 -53q-2 -16 -2 -54v-104q0 -75 33.5 -114t97.5 -38q17 0 37 5t44 15.5t42.5 19t46 24.5t39 23t37 23
t26.5 17q43 27 97.5 64t75 50t47.5 23.5t53 10.5q73 0 73 -82q0 -46 -43 -199q-38 -133 -68.5 -177t-101.5 -44h-1011q-6 0 -17 1t-16 1q-115 -37 -252 -37zM530 940q0 -164 51.5 -325.5t141 -267t188.5 -105.5q100 0 153.5 87.5t53.5 248.5q0 163 -52.5 318.5t-142 255
t-188.5 101.5q-98 2 -151.5 -79.5t-53.5 -233.5z" />
    <glyph glyph-name="oe" unicode="&#x153;" horiz-adv-x="2058" 
d="M629 -35q-170 0 -311.5 79.5t-222.5 218t-81 304.5q0 129 49.5 243.5t135 196.5t204.5 129.5t254 47.5q230 0 396 -144q170 144 393 144q155 0 287.5 -65t209 -175.5t76.5 -238.5q0 -71 -44 -114t-136 -65q-115 -26 -207 -43q-175 -42 -200 -53q-25 -7 -25 -27
q0 -33 61 -71q64 -33 136 -33q136 0 274 102q40 26 69 19t64 -51q29 -38 27.5 -69.5t-29.5 -72.5q-85 -118 -234.5 -190t-312.5 -72q-234 0 -409 148q-179 -148 -424 -148zM455 727q0 -102 32.5 -216.5t91 -197t121.5 -82.5q57 0 92 43t35 123q0 111 -33.5 231.5t-91.5 205
t-120 84.5q-58 0 -92.5 -50t-34.5 -141zM1253 766q0 -56 16 -109t44 -53q5 0 13 5t20.5 14.5t21.5 15.5q38 32 131 84q3 2 17.5 9t18.5 10.5t9.5 11.5t5.5 18q0 44 -53.5 97t-112.5 53q-57 0 -94 -40.5t-37 -115.5z" />
    <glyph glyph-name="Racute" unicode="&#x154;" horiz-adv-x="1572" 
d="M141 0q-59 0 -85.5 30.5t-26.5 73.5q0 57 53 93q38 28 51 62t12 103v785q1 68 -13.5 103t-53.5 63q-51 39 -51 94q0 43 26 73t84 29h801q206 0 334.5 -111.5t128.5 -287.5q0 -125 -55 -207t-181 -160q-18 -11 -19.5 -24t15.5 -21q109 -54 185 -204l51 -99
q66 -127 121 -176q30 -27 41.5 -51t11.5 -66q0 -54 -29.5 -78t-95.5 -24h-232q-116 0 -168 34t-96 132q-62 138 -92 192q-51 97 -93 142t-95 45q-54 0 -54 -51v-132q-1 -67 15.5 -102t62.5 -65q60 -37 60 -95q-2 -42 -33.5 -71.5t-99.5 -28.5h-480zM532 1708l115 145
q56 72 152 72h329q55 0 86 -24t20 -62.5t-69 -75.5l-237 -155q-44 -31 -101 -31h-260q-57 0 -67 39.5t32 91.5zM616 870q0 -22 9.5 -31.5t31.5 -11.5h13q97 0 158 61t61 156q0 92 -57 150.5t-148 58.5h-4q-36 0 -50 -14t-14 -47v-322z" />
    <glyph glyph-name="racute" unicode="&#x155;" horiz-adv-x="913" 
d="M129 0q-57 0 -83 31t-26 73q0 53 56 93q31 26 41 58t10 101v437q1 66 -13 100t-51 61q-47 42 -47 93q2 43 28 73t85 29h311q77 0 97 -68l12 -45q6 -19 21 -20t24 18q37 75 79.5 107.5t104.5 32.5q135 0 135 -162q0 -69 -21.5 -149t-61.5 -140.5t-85 -60.5q-30 0 -63 22
q-31 16 -64 16q-59 0 -59 -75v-269q0 -68 11 -100.5t44 -58.5q60 -41 60 -93q0 -42 -27.5 -73t-89.5 -31h-428zM260 1331l152 223q50 72 149 72h248q86 0 103 -47t-58 -115l-240 -207q-29 -26 -54.5 -33t-74.5 -7h-182q-49 0 -61.5 35t18.5 79z" />
    <glyph glyph-name="uni0156" unicode="&#x156;" horiz-adv-x="1572" 
d="M141 0q-59 0 -85.5 30.5t-26.5 73.5q0 57 53 93q38 28 51 62t12 103v785q1 68 -13.5 103t-53.5 63q-51 39 -51 94q0 43 26 73t84 29h801q206 0 334.5 -111.5t128.5 -287.5q0 -125 -55 -207t-181 -160q-18 -11 -19.5 -24t15.5 -21q109 -54 185 -204l51 -99
q66 -127 121 -176q30 -27 41.5 -51t11.5 -66q0 -54 -29.5 -78t-95.5 -24h-232q-116 0 -168 34t-96 132q-62 138 -92 192q-51 97 -93 142t-95 45q-54 0 -54 -51v-132q-1 -67 15.5 -102t62.5 -65q60 -37 60 -95q-2 -42 -33.5 -71.5t-99.5 -28.5h-480zM616 870q0 -22 9.5 -31.5
t31.5 -11.5h13q97 0 158 61t61 156q0 92 -57 150.5t-148 58.5h-4q-36 0 -50 -14t-14 -47v-322zM647 -250q0 96 62.5 158.5t156.5 62.5q107 0 168.5 -69t61.5 -183q0 -123 -76.5 -234.5t-198.5 -172.5q-57 -33 -104 29q-52 63 -6 100q30 22 43.5 33t27 27.5t13.5 31.5
q0 17 -27 29q-121 57 -121 188z" />
    <glyph glyph-name="uni0157" unicode="&#x157;" horiz-adv-x="913" 
d="M129 0q-57 0 -83 31t-26 73q0 53 56 93q31 26 41 58t10 101v437q1 66 -13 100t-51 61q-47 42 -47 93q2 43 28 73t85 29h311q77 0 97 -68l12 -45q6 -19 21 -20t24 18q37 75 79.5 107.5t104.5 32.5q135 0 135 -162q0 -69 -21.5 -149t-61.5 -140.5t-85 -60.5q-30 0 -63 22
q-31 16 -64 16q-59 0 -59 -75v-269q0 -68 11 -100.5t44 -58.5q60 -41 60 -93q0 -42 -27.5 -73t-89.5 -31h-428zM199 -291q0 96 62.5 158.5t156.5 62.5q107 0 168 -69t61 -183q0 -123 -76 -234.5t-198 -172.5q-57 -34 -105 29q-52 63 -6 100q30 22 43.5 33t27 27.5t13.5 31.5
q0 17 -27 29q-120 56 -120 188z" />
    <glyph glyph-name="Rcaron" unicode="&#x158;" horiz-adv-x="1572" 
d="M141 0q-59 0 -85.5 30.5t-26.5 73.5q0 57 53 93q38 28 51 62t12 103v785q1 68 -13.5 103t-53.5 63q-51 39 -51 94q0 43 26 73t84 29h801q206 0 334.5 -111.5t128.5 -287.5q0 -125 -55 -207t-181 -160q-18 -11 -19.5 -24t15.5 -21q109 -54 185 -204l51 -99
q66 -127 121 -176q30 -27 41.5 -51t11.5 -66q0 -54 -29.5 -78t-95.5 -24h-232q-116 0 -168 34t-96 132q-62 138 -92 192q-51 97 -93 142t-95 45q-54 0 -54 -51v-132q-1 -67 15.5 -102t62.5 -65q60 -37 60 -95q-2 -42 -33.5 -71.5t-99.5 -28.5h-480zM354 1819q-31 34 -14 62
t63 28h197q32 0 90 -35l98 -66l101 66q61 37 108 37h160q47 0 64 -27.5t-15 -64.5l-194 -209q-27 -30 -67 -38.5t-163 -8.5q-117 0 -155.5 9.5t-69.5 41.5zM616 870q0 -22 9.5 -31.5t31.5 -11.5h13q97 0 158 61t61 156q0 92 -57 150.5t-148 58.5h-4q-36 0 -50 -14t-14 -47
v-322z" />
    <glyph glyph-name="rcaron" unicode="&#x159;" horiz-adv-x="913" 
d="M129 0q-57 0 -83 31t-26 73q0 53 56 93q31 26 41 58t10 101v437q1 66 -13 100t-51 61q-47 42 -47 93q2 43 28 73t85 29h311q77 0 97 -68l12 -45q6 -19 21 -20t24 18q37 75 79.5 107.5t104.5 32.5q135 0 135 -162q0 -69 -21.5 -149t-61.5 -140.5t-85 -60.5q-30 0 -63 22
q-31 16 -64 16q-59 0 -59 -75v-269q0 -68 11 -100.5t44 -58.5q60 -41 60 -93q0 -42 -27.5 -73t-89.5 -31h-428zM39 1505q-31 37 -14 68t63 31h197q39 0 90 -39l98 -74l100 74q58 41 109 41h160q47 0 64 -30.5t-15 -70.5l-195 -233q-27 -33 -66 -42t-163 -9q-118 0 -156.5 10
t-68.5 45z" />
    <glyph glyph-name="Sacute" unicode="&#x15a;" horiz-adv-x="1355" 
d="M682 -23q-151 0 -313 37t-267 121q-45 38 -63 70.5t-8 68t33.5 67t70.5 79.5q7 7 28 28.5t30 30t26.5 24t28.5 22t25.5 12.5t27.5 6q27 0 52 -24.5t57 -76.5q70 -113 139 -176t143 -63q72 0 117 42.5t45 110.5q0 74 -68 122.5t-219 82.5q-270 56 -395 167t-125 302
q0 118 51.5 214t140 158t204 95t247.5 33q142 0 287 -35t242 -106q40 -29 60.5 -56.5t24.5 -53t-10 -54.5t-38 -57t-64 -64q-105 -94 -150 -94q-55 0 -102 80q-70 116 -128 166.5t-124 50.5q-58 0 -101.5 -40.5t-43.5 -99.5q0 -69 68.5 -116t215.5 -76q275 -53 399 -167
t124 -316q0 -161 -87.5 -279t-237.5 -177t-343 -59zM475 1733l115 145q56 72 151 72h330q55 0 86 -24t20 -62.5t-69 -75.5l-238 -156q-43 -30 -100 -30h-260q-37 0 -55 18t-12.5 48t32.5 65z" />
    <glyph glyph-name="sacute" unicode="&#x15b;" horiz-adv-x="1054" 
d="M483 -31q-268 0 -397 76q-63 37 -75 93t22 153q31 110 94 110q13 0 25 -3.5t28.5 -15t26.5 -19.5t36 -30t40 -34q120 -106 204 -106q37 0 65 23.5t28 55.5q0 43 -49.5 79t-151.5 75q-192 66 -278.5 153.5t-86.5 215.5q0 178 152.5 285.5t398.5 107.5q102 0 195.5 -22
t150.5 -54q83 -46 98 -95.5t-22 -160.5q-26 -76 -76 -76q-39 0 -151 94q-115 97 -195 97q-39 0 -64.5 -23t-25.5 -57q-1 -42 47.5 -69.5t208.5 -86.5q318 -115 318 -352q0 -189 -154 -301.5t-412 -112.5zM336 1350l151 223q50 72 150 72h248q86 0 103 -47.5t-58 -114.5
l-240 -207q-29 -26 -55 -33.5t-74 -7.5h-182q-49 0 -61.5 35.5t18.5 79.5z" />
    <glyph glyph-name="Scedilla" unicode="&#x15e;" horiz-adv-x="1355" 
d="M618 -506q-51 0 -98 16t-76 44q-47 44 -12 96q13 20 38.5 25.5t49.5 -3.5q23 -10 55 -10q48 0 48 72q0 33 -12.5 48t-45.5 19q-34 3 -43.5 31t13.5 68l51 82q-134 8 -265 46t-219 107q-45 38 -63 70.5t-8 68t33.5 67t70.5 79.5q7 7 28 28.5t30 30t26.5 24t28.5 22
t25.5 12.5t27.5 6q27 0 52 -24.5t57 -76.5q70 -113 139 -176t143 -63q72 0 117 42.5t45 110.5q0 74 -68 122.5t-219 82.5q-270 56 -395 167t-125 302q0 118 51.5 214t140 158t204 95t247.5 33q142 0 287 -35t242 -106q40 -29 60.5 -56.5t24.5 -53t-10 -54.5t-38 -57t-64 -64
q-105 -94 -150 -94q-55 0 -102 80q-70 116 -128 166.5t-124 50.5q-58 0 -101.5 -40.5t-43.5 -99.5q0 -69 68.5 -116t215.5 -76q275 -53 399 -167t124 -316q0 -217 -153 -350.5t-404 -157.5l-45 -64q110 -26 169.5 -78t59.5 -118q0 -97 -103 -163.5t-256 -66.5z" />
    <glyph glyph-name="scedilla" unicode="&#x15f;" horiz-adv-x="1054" 
d="M446 -504q-51 0 -98 16t-76 44q-47 44 -12 96q13 20 38.5 25.5t49.5 -3.5q23 -10 55 -10q48 0 48 72q0 33 -12.5 48t-45.5 19q-34 3 -44 31t13 68l46 69q-214 9 -322 74q-63 37 -75 93t22 153q31 110 94 110q13 0 25 -3.5t28.5 -15t26.5 -19.5t36 -30t40 -34
q120 -106 204 -106q37 0 65 23.5t28 55.5q0 43 -49.5 79t-151.5 75q-192 66 -278.5 153.5t-86.5 215.5q0 178 152.5 285.5t398.5 107.5q102 0 195.5 -22t150.5 -54q83 -46 98 -95.5t-22 -160.5q-26 -76 -76 -76q-39 0 -151 94q-115 97 -195 97q-39 0 -64.5 -23t-25.5 -57
q-1 -42 47.5 -69.5t208.5 -86.5q318 -115 318 -352q0 -162 -116.5 -270t-318.5 -136l-39 -55q111 -26 170.5 -78t59.5 -118q0 -97 -103 -163.5t-256 -66.5z" />
    <glyph glyph-name="Scaron" unicode="&#x160;" horiz-adv-x="1355" 
d="M682 -23q-151 0 -313 37t-267 121q-45 38 -63 70.5t-8 68t33.5 67t70.5 79.5q7 7 28 28.5t30 30t26.5 24t28.5 22t25.5 12.5t27.5 6q27 0 52 -24.5t57 -76.5q70 -113 139 -176t143 -63q72 0 117 42.5t45 110.5q0 74 -68 122.5t-219 82.5q-270 56 -395 167t-125 302
q0 118 51.5 214t140 158t204 95t247.5 33q142 0 287 -35t242 -106q40 -29 60.5 -56.5t24.5 -53t-10 -54.5t-38 -57t-64 -64q-105 -94 -150 -94q-55 0 -102 80q-70 116 -128 166.5t-124 50.5q-58 0 -101.5 -40.5t-43.5 -99.5q0 -69 68.5 -116t215.5 -76q275 -53 399 -167
t124 -316q0 -161 -87.5 -279t-237.5 -177t-343 -59zM297 1843q-31 34 -14 62t63 28h197q32 0 90 -35l98 -65l100 65q61 37 109 37h160q47 0 64 -27.5t-15 -64.5l-195 -209q-27 -30 -66.5 -38.5t-162.5 -8.5q-117 0 -155.5 9.5t-69.5 41.5z" />
    <glyph glyph-name="scaron" unicode="&#x161;" horiz-adv-x="1054" 
d="M483 -31q-268 0 -397 76q-63 37 -75 93t22 153q31 110 94 110q13 0 25 -3.5t28.5 -15t26.5 -19.5t36 -30t40 -34q120 -106 204 -106q37 0 65 23.5t28 55.5q0 43 -49.5 79t-151.5 75q-192 66 -278.5 153.5t-86.5 215.5q0 178 152.5 285.5t398.5 107.5q102 0 195.5 -22
t150.5 -54q83 -46 98 -95.5t-22 -160.5q-26 -76 -76 -76q-39 0 -151 94q-115 97 -195 97q-39 0 -64.5 -23t-25.5 -57q-1 -42 47.5 -69.5t208.5 -86.5q318 -115 318 -352q0 -189 -154 -301.5t-412 -112.5zM115 1524q-31 37 -14 67.5t63 30.5h196q40 0 91 -39l98 -74l100 74
q58 41 109 41h160q47 0 64 -30t-15 -70l-195 -234q-27 -33 -66 -42t-163 -9q-118 0 -157 10t-69 45z" />
    <glyph glyph-name="uni0162" unicode="&#x162;" horiz-adv-x="1480" 
d="M504 0q-75 0 -108.5 30.5t-33.5 73.5q0 55 66 93q48 28 64.5 62.5t15.5 102.5l2 721q0 138 -74 138q-29 0 -66 -28.5t-96 -96.5l-15 -18q-41 -49 -62.5 -72.5t-54 -45.5t-62.5 -22q-46 0 -65 34t-19 81q0 77 12 169t31 150q23 77 59 107t103 30h1087q110 0 144 -110
q23 -69 38 -178.5t15 -198.5q0 -37 -21 -60.5t-53 -23.5q-43 0 -85 33t-109 112q-69 78 -105 108t-70 30q-77 0 -77 -138l2 -721q-1 -67 17 -102t67 -65q66 -38 63 -95q0 -43 -34 -72t-109 -28h-103l-57 -80q110 -26 169.5 -78t59.5 -118q0 -97 -102.5 -163.5t-255.5 -66.5
q-51 0 -98 16t-76 44q-47 44 -12 96q13 20 38.5 25.5t49.5 -3.5q23 -10 55 -10q47 0 47 72q0 33 -12 48t-45 19q-34 3 -44 31t13 68l64 100h-158z" />
    <glyph glyph-name="uni0163" unicode="&#x163;" horiz-adv-x="712" 
d="M340 -504q-51 0 -98 16t-76 44q-47 44 -12 96q13 20 38.5 25.5t49.5 -3.5q23 -10 55 -10q47 0 47 72q0 33 -12 48t-45 19q-34 3 -44 31t13 68l63 100q-131 9 -188 69.5t-57 188.5q0 110 37 338q36 218 36 274q0 23 -1.5 33.5t-9 22t-23.5 17t-45 9.5q-37 5 -52.5 28
t-15.5 77q0 72 74 108q104 51 155 107q26 27 46 52t42 56.5t27 38.5q49 62 105 62q83 0 83 -76v-207q0 -30 10 -40.5t46 -10.5h65q43 0 61 -22.5t17 -77.5q2 -65 -16.5 -94t-61.5 -29h-55q-44 0 -56 -14t-12 -68v-522q0 -48 12.5 -67t63.5 -40q58 -21 80.5 -43.5t22.5 -71.5
q0 -47 -23 -73.5t-63 -26.5h-99l-55 -78q110 -26 169.5 -78t59.5 -118q0 -97 -102.5 -163.5t-255.5 -66.5z" />
    <glyph glyph-name="Tcaron" unicode="&#x164;" horiz-adv-x="1480" 
d="M504 0q-75 0 -108.5 30.5t-33.5 73.5q0 55 66 93q48 28 64.5 62.5t15.5 102.5l2 721q0 138 -74 138q-29 0 -66 -28.5t-96 -96.5l-15 -18q-41 -49 -62.5 -72.5t-54 -45.5t-62.5 -22q-46 0 -65 34t-19 81q0 77 12 169t31 150q23 77 59 107t103 30h1087q110 0 144 -110
q23 -69 38 -178.5t15 -198.5q0 -37 -21 -60.5t-53 -23.5q-43 0 -85 33t-109 112q-69 78 -105 108t-70 30q-77 0 -77 -138l2 -721q-1 -67 17 -102t67 -65q66 -38 63 -95q0 -43 -34 -72t-109 -28h-467zM330 1819q-31 34 -14 62t63 28h196q33 0 91 -35l98 -66l100 66
q61 37 109 37h160q47 0 64 -27.5t-15 -64.5l-195 -209q-27 -30 -66.5 -38.5t-162.5 -8.5q-117 0 -156.5 9.5t-69.5 41.5z" />
    <glyph glyph-name="tcaron" unicode="&#x165;" horiz-adv-x="712" 
d="M375 0q-162 0 -231.5 60t-69.5 200q0 110 37 338q36 218 36 274q0 23 -1.5 33.5t-9 22t-23.5 17t-45 9.5q-37 5 -52.5 28t-15.5 77q0 72 74 108q104 51 155 107q26 27 46 52t42 56.5t27 38.5q49 62 105 62q83 0 83 -76v-207q0 -30 10 -40.5t46 -10.5h65q43 0 61 -22.5
t17 -77.5q2 -65 -16.5 -94t-61.5 -29h-55q-44 0 -56 -14t-12 -68v-522q0 -48 12.5 -67t63.5 -40q58 -21 80.5 -43.5t22.5 -71.5q0 -47 -23 -73.5t-63 -26.5h-248zM573 1303l113 346q13 44 48 68t83 24h248q78 0 95.5 -38.5t-21.5 -100.5l-211 -373q-5 -9 -11.5 -15.5
t-11.5 -11t-14.5 -7.5t-14.5 -4.5t-17.5 -2t-18 -0.5h-20.5h-21h-172q-93 0 -54 115z" />
    <glyph glyph-name="Tbar" unicode="&#x166;" horiz-adv-x="1480" 
d="M504 0q-75 0 -108.5 30.5t-33.5 73.5q0 55 66 93q48 28 64.5 62.5t15.5 102.5v240h-98q-36 0 -56.5 3t-38 11t-25.5 26t-12 44.5t-4 69.5q0 98 26.5 126.5t109.5 28.5h100v172q0 138 -74 138q-29 0 -66 -28.5t-96 -96.5l-15 -18q-41 -49 -62.5 -72.5t-54 -45.5t-62.5 -22
q-46 0 -65 34t-19 81q0 77 12 169t31 150q23 77 59 107t103 30h1087q110 0 144 -110q23 -69 38 -178.5t15 -198.5q0 -37 -21 -60.5t-53 -23.5q-43 0 -85 33t-109 112q-69 78 -105 108t-70 30q-77 0 -77 -138v-172h112q81 0 106 -28.5t25 -126.5q0 -71 -11.5 -102.5
t-37 -41.5t-82.5 -10h-110v-240q-1 -67 17 -102t67 -65q66 -38 63 -95q0 -43 -34 -72t-109 -28h-467z" />
    <glyph glyph-name="tbar" unicode="&#x167;" horiz-adv-x="712" 
d="M375 0q-162 0 -231.5 60t-69.5 200q0 77 18 225h-8q-45 0 -61.5 20t-16.5 73q0 49 16 66.5t62 17.5h37q26 169 26 210q0 23 -1.5 33.5t-9 22t-23.5 17t-45 9.5q-37 5 -52.5 28t-15.5 77q0 72 74 108q104 51 155 107q26 27 46 52t42 56.5t27 38.5q49 62 105 62
q83 0 83 -76v-207q0 -30 10 -40.5t46 -10.5h65q43 0 61 -22.5t17 -77.5q2 -65 -16.5 -94t-61.5 -29h-55q-44 0 -56 -14t-12 -68v-182h115q39 0 51.5 -17t12.5 -67q0 -54 -12.5 -73.5t-51.5 -19.5h-115v-163q0 -48 12.5 -67t63.5 -40q58 -21 80.5 -43.5t22.5 -71.5
q0 -47 -23 -73.5t-63 -26.5h-248z" />
    <glyph glyph-name="Utilde" unicode="&#x168;" horiz-adv-x="1550" 
d="M786 -27q-312 0 -479.5 125t-167.5 385v664q1 68 -13.5 103t-53.5 63q-52 39 -52 94q0 43 26.5 73t84.5 29h504q73 0 105 -30.5t32 -73.5q0 -28 -14 -50t-51 -44q-49 -26 -66.5 -60.5t-15.5 -103.5v-645q0 -96 63 -148.5t174 -52.5q93 0 152 54.5t59 140.5l2 651
q1 67 -18 102t-68 64q-37 24 -51 46.5t-12 49.5q0 43 33 72t106 28h356q58 0 83.5 -30.5t25.5 -73.5q0 -56 -53 -94q-38 -26 -51 -60t-13 -104l2 -608q0 -88 -17.5 -165.5t-62 -152.5t-114 -128.5t-181 -86.5t-254.5 -33zM401 1700q36 149 95.5 211.5t154.5 62.5
q71 0 240 -59q157 -55 184 -55q42 0 74 51q38 66 104 41q64 -24 41 -125q-34 -156 -84.5 -216.5t-148.5 -60.5q-29 0 -71 9.5t-76 20.5t-103 34q-137 49 -178 49q-46 0 -78 -55q-36 -58 -96 -43q-85 22 -58 135z" />
    <glyph glyph-name="utilde" unicode="&#x169;" horiz-adv-x="1341" 
d="M487 -33q-188 3 -278 92.5t-90 282.5v451q1 66 -13 100t-51 61q-47 42 -47 93q2 43 28 73t85 29h319q120 0 117 -121l-8 -551q-2 -67 31 -106t92 -39q112 0 112 119v342q0 67 -14.5 100.5t-52.5 60.5q-49 43 -49 93q0 42 27 72t89 30h299q77 0 106.5 -33.5t29.5 -120.5
l-2 -639q0 -69 10 -101t41 -58q55 -40 55 -93q0 -42 -26 -73t-83 -31h-313q-48 0 -69 21t-29 69q-5 29 -27 35t-43 -23q-86 -138 -246 -135zM197 1370q36 165 95 235t154 70q72 0 240 -65q159 -62 184 -62q23 0 39.5 13.5t34.5 44.5q39 74 105 45q63 -26 41 -140
q-34 -172 -85 -239.5t-149 -67.5q-29 0 -72 11.5t-73.5 22t-104.5 38.5q-139 53 -178 53q-45 0 -78 -61q-36 -65 -96 -47q-45 13 -58 50.5t1 98.5z" />
    <glyph glyph-name="Umacron" unicode="&#x16a;" horiz-adv-x="1550" 
d="M786 -27q-312 0 -479.5 125t-167.5 385v664q1 68 -13.5 103t-53.5 63q-52 39 -52 94q0 43 26.5 73t84.5 29h504q73 0 105 -30.5t32 -73.5q0 -28 -14 -50t-51 -44q-49 -26 -66.5 -60.5t-15.5 -103.5v-645q0 -96 63 -148.5t174 -52.5q93 0 152 54.5t59 140.5l2 651
q1 67 -18 102t-68 64q-37 24 -51 46.5t-12 49.5q0 43 33 72t106 28h356q58 0 83.5 -30.5t25.5 -73.5q0 -56 -53 -94q-38 -26 -51 -60t-13 -104l2 -608q0 -88 -17.5 -165.5t-62 -152.5t-114 -128.5t-181 -86.5t-254.5 -33zM403 1688v92q0 64 25 86t96 22h625q71 0 96 -22
t25 -86v-92q0 -64 -25 -86.5t-96 -22.5h-625q-71 0 -96 22.5t-25 86.5z" />
    <glyph glyph-name="umacron" unicode="&#x16b;" horiz-adv-x="1341" 
d="M487 -33q-188 3 -278 92.5t-90 282.5v451q1 66 -13 100t-51 61q-47 42 -47 93q2 43 28 73t85 29h319q120 0 117 -121l-8 -551q-2 -67 31 -106t92 -39q112 0 112 119v342q0 67 -14.5 100.5t-52.5 60.5q-49 43 -49 93q0 42 27 72t89 30h299q77 0 106.5 -33.5t29.5 -120.5
l-2 -639q0 -69 10 -101t41 -58q55 -40 55 -93q0 -42 -26 -73t-83 -31h-313q-48 0 -69 21t-29 69q-5 29 -27 35t-43 -23q-86 -138 -246 -135zM215 1352v92q0 65 28 86.5t111 21.5h584q83 0 111 -21.5t28 -86.5v-92q0 -65 -28 -87t-111 -22h-584q-83 0 -111 22t-28 87z" />
    <glyph glyph-name="Uring" unicode="&#x16e;" horiz-adv-x="1550" 
d="M786 -27q-312 0 -479.5 125t-167.5 385v664q1 68 -13.5 103t-53.5 63q-52 39 -52 94q0 43 26.5 73t84.5 29h504q73 0 105 -30.5t32 -73.5q0 -28 -14 -50t-51 -44q-49 -26 -66.5 -60.5t-15.5 -103.5v-645q0 -96 63 -148.5t174 -52.5q93 0 152 54.5t59 140.5l2 651
q1 67 -18 102t-68 64q-37 24 -51 46.5t-12 49.5q0 43 33 72t106 28h356q58 0 83.5 -30.5t25.5 -73.5q0 -56 -53 -94q-38 -26 -51 -60t-13 -104l2 -608q0 -88 -17.5 -165.5t-62 -152.5t-114 -128.5t-181 -86.5t-254.5 -33zM569 1796q0 101 78 173.5t187 72.5t186.5 -72.5
t77.5 -173.5t-77.5 -174.5t-186.5 -73.5t-187 73.5t-78 174.5zM725 1796q0 -52 30.5 -84.5t80.5 -32.5q46 0 76 32.5t30 84.5q0 50 -30 81.5t-76 31.5q-50 0 -80.5 -31t-30.5 -82z" />
    <glyph glyph-name="uring" unicode="&#x16f;" horiz-adv-x="1341" 
d="M487 -33q-188 3 -278 92.5t-90 282.5v451q1 66 -13 100t-51 61q-47 42 -47 93q2 43 28 73t85 29h319q120 0 117 -121l-8 -551q-2 -67 31 -106t92 -39q112 0 112 119v342q0 67 -14.5 100.5t-52.5 60.5q-49 43 -49 93q0 42 27 72t89 30h299q77 0 106.5 -33.5t29.5 -120.5
l-2 -639q0 -69 10 -101t41 -58q55 -40 55 -93q0 -42 -26 -73t-83 -31h-313q-48 0 -69 21t-29 69q-5 29 -27 35t-43 -23q-86 -138 -246 -135zM375 1473q0 106 81 182t193 76q113 0 192 -76t79 -182q0 -108 -79 -186.5t-192 -78.5q-112 0 -193 78.5t-81 186.5zM547 1470
q0 -43 30 -74.5t72 -31.5q41 0 72 31.5t31 74.5t-31 75t-72 32q-42 0 -72 -32t-30 -75z" />
    <glyph glyph-name="Uhungarumlaut" unicode="&#x170;" horiz-adv-x="1550" 
d="M786 -27q-312 0 -479.5 125t-167.5 385v664q1 68 -13.5 103t-53.5 63q-52 39 -52 94q0 43 26.5 73t84.5 29h504q73 0 105 -30.5t32 -73.5q0 -28 -14 -50t-51 -44q-49 -26 -66.5 -60.5t-15.5 -103.5v-645q0 -96 63 -148.5t174 -52.5q93 0 152 54.5t59 140.5l2 651
q1 67 -18 102t-68 64q-37 24 -51 46.5t-12 49.5q0 43 33 72t106 28h356q58 0 83.5 -30.5t25.5 -73.5q0 -56 -53 -94q-38 -26 -51 -60t-13 -104l2 -608q0 -88 -17.5 -165.5t-62 -152.5t-114 -128.5t-181 -86.5t-254.5 -33zM311 1675l123 191q40 61 150 61h247
q86 0 101.5 -37.5t-55.5 -99.5l-207 -174q-46 -37 -125 -37h-191q-48 0 -58.5 29t15.5 67zM883 1675l151 191q50 61 150 61h248q86 0 103 -40t-58 -97l-236 -174q-48 -37 -125 -37h-190q-49 0 -61.5 29.5t18.5 66.5z" />
    <glyph glyph-name="uhungarumlaut" unicode="&#x171;" horiz-adv-x="1341" 
d="M487 -33q-188 3 -278 92.5t-90 282.5v451q1 66 -13 100t-51 61q-47 42 -47 93q2 43 28 73t85 29h319q120 0 117 -121l-8 -551q-2 -67 31 -106t92 -39q112 0 112 119v342q0 67 -14.5 100.5t-52.5 60.5q-49 43 -49 93q0 42 27 72t89 30h299q77 0 106.5 -33.5t29.5 -120.5
l-2 -639q0 -69 10 -101t41 -58q55 -40 55 -93q0 -42 -26 -73t-83 -31h-313q-48 0 -69 21t-29 69q-5 29 -27 35t-43 -23q-86 -138 -246 -135zM106 1350l123 223q41 72 150 72h248q86 0 101 -45t-56 -117l-207 -203q-45 -45 -125 -45h-190q-48 0 -59 34.5t15 80.5zM678 1350
l151 223q50 72 150 72h248q86 0 103 -47.5t-58 -114.5l-236 -205q-49 -43 -125 -43h-190q-49 0 -61.5 35.5t18.5 79.5z" />
    <glyph glyph-name="Uogonek" unicode="&#x172;" horiz-adv-x="1550" 
d="M786 -27q-312 0 -479.5 125t-167.5 385v664q1 68 -13.5 103t-53.5 63q-52 39 -52 94q0 43 26.5 73t84.5 29h504q73 0 105 -30.5t32 -73.5q0 -28 -14 -50t-51 -44q-49 -26 -66.5 -60.5t-15.5 -103.5v-645q0 -96 63 -148.5t174 -52.5q93 0 152 54.5t59 140.5l2 651
q1 67 -18 102t-68 64q-37 24 -51 46.5t-12 49.5q0 43 33 72t106 28h356q58 0 83.5 -30.5t25.5 -73.5q0 -56 -53 -94q-38 -26 -51 -60t-13 -104l2 -608q0 -88 -18.5 -166.5t-60 -152t-117.5 -130t-181 -86.5q-12 -12 -18 -20q-27 -34 -27 -76q0 -26 14.5 -40.5t39.5 -14.5
q3 0 18.5 2t24.5 2q19 0 33 -16.5t14 -47.5q0 -48 -50 -94q-35 -33 -86.5 -52.5t-103.5 -19.5q-111 0 -169 49t-58 127q0 49 37 95t100 75h-21z" />
    <glyph glyph-name="uogonek" unicode="&#x173;" horiz-adv-x="1341" 
d="M487 -33q-188 3 -278 92.5t-90 282.5v451q1 66 -13 100t-51 61q-47 42 -47 93q2 43 28 73t85 29h319q120 0 117 -121l-8 -551q-2 -67 31 -106t92 -39q112 0 112 119v342q0 67 -14.5 100.5t-52.5 60.5q-49 43 -49 93q0 42 27 72t89 30h299q77 0 106.5 -33.5t29.5 -120.5
l-2 -639q0 -69 10 -101t41 -58q55 -40 55 -93q0 -37 -20.5 -66t-65.5 -36l-14 -18q-27 -34 -27 -76q0 -26 14 -40.5t39 -14.5q3 0 18.5 2t24.5 2q19 0 33 -16.5t14 -47.5q0 -49 -49 -94q-35 -33 -86.5 -52.5t-103.5 -19.5q-111 0 -169.5 49.5t-58.5 126.5q0 66 63 123
t161 74h-195q-48 0 -69 21t-29 69q-5 29 -27 35t-43 -23q-86 -138 -246 -135z" />
    <glyph glyph-name="Wcircumflex" unicode="&#x174;" horiz-adv-x="2189" 
d="M684 -14q-68 1 -103.5 12t-60.5 42t-51 97q-145 361 -227 625q-35 114 -111 393q-17 63 -33.5 96.5t-44.5 59.5q-29 27 -42 48.5t-13 53.5q0 40 27 68t73 28h533q44 0 69 -25t25 -71t-51 -106q-39 -48 -39 -97q0 -106 57 -297q24 -89 74 -211q9 -23 22.5 -29.5t25 2
t17.5 27.5q40 131 58 211q35 155 35 295q0 36 -11 59t-39 48q-38 35 -38 94q0 40 24 70t74 30h510q50 0 79 -29.5t29 -72.5t-55 -104q-37 -46 -37 -101q0 -76 53 -272q30 -120 80 -236q11 -25 26 -25t26 25q13 29 23.5 59.5t15.5 48.5t13.5 53t12.5 48q47 169 47 287
q0 68 -45 110q-49 49 -49 111q0 38 25 68t69 30h322q53 0 82.5 -27t29.5 -71q0 -57 -57 -106q-25 -22 -40.5 -50.5t-27.5 -76.5q-64 -267 -139 -510q-128 -416 -186 -541q-15 -36 -24.5 -55.5t-23.5 -37t-24 -24.5t-33 -12.5t-44 -7t-62 -2.5q-84 -2 -126 10t-63.5 38
t-50.5 91q-92 199 -164 489q-4 18 -15.5 25t-23.5 -1.5t-18 -29.5q-21 -80 -75 -246.5t-87 -246.5q-14 -34 -24.5 -55t-26 -36.5t-27.5 -23t-36.5 -12t-46 -5t-62.5 0.5zM678 1655l207 209q35 32 76 41.5t161 9.5q130 0 173.5 -9.5t74.5 -39.5l227 -209q38 -37 19 -65.5
t-72 -28.5h-196q-58 0 -119 39l-105 63l-104 -66q-58 -36 -98 -36h-191q-51 0 -69.5 28.5t16.5 63.5z" />
    <glyph glyph-name="wcircumflex" unicode="&#x175;" horiz-adv-x="1937" 
d="M596 -2q-59 0 -88 2.5t-59 10t-47.5 27.5t-35 49t-38.5 81q-133 314 -238 668q-20 64 -53 106q-37 53 -37 105q0 51 33.5 76.5t83.5 25.5h415q109 0 109 -92q0 -57 -57 -111q-31 -25 -37.5 -57.5t8.5 -77.5q41 -159 104 -307q9 -22 21.5 -30t24 -1t18.5 27q84 240 94 295
q11 56 4 92t-37 69q-43 53 -43 101q0 46 28 69t77 23h459q42 0 64 -27.5t22 -62.5q0 -58 -58 -113q-46 -46 -26 -127q55 -193 116 -321q12 -26 29 -26t29 26q75 160 104 327q17 81 -39 129q-25 23 -38 44t-13 51q0 44 29 72t78 28h231q53 0 77.5 -29t24.5 -69
q0 -56 -32 -105q-35 -53 -62 -153q-44 -154 -67.5 -231.5t-69.5 -206.5t-100 -251q-18 -39 -29.5 -56.5t-37.5 -30.5t-60 -15.5t-103 -3.5q-118 -2 -160.5 12t-66.5 66q-81 166 -148 348q-9 23 -24.5 23t-24.5 -23q-96 -253 -129 -330q-27 -63 -69 -79.5t-156 -16.5z
M588 1315l198 231q34 37 73 47.5t155 10.5q125 0 166.5 -10.5t72.5 -43.5l217 -233q36 -40 18 -72.5t-69 -32.5h-188q-55 0 -115 43l-100 72l-101 -74q-57 -41 -94 -41h-182q-49 0 -67 32.5t16 70.5z" />
    <glyph glyph-name="Ycircumflex" unicode="&#x176;" horiz-adv-x="1437" 
d="M500 0q-75 0 -108.5 30.5t-33.5 73.5q0 55 66 93q48 28 64.5 62.5t15.5 102.5v111q0 28 -4.5 50t-10 34t-16.5 33q-201 324 -344 610q-31 67 -78 111q-27 23 -40 45.5t-13 56.5q0 46 27 71t77 25h500q61 0 90 -24.5t29 -75.5q0 -54 -45 -90q-35 -28 -35 -64q0 -20 23 -73
q55 -120 135 -238q42 -65 80 0q78 133 120 244q19 43 19 67q0 32 -33 58q-27 23 -39 42.5t-12 49.5q0 104 121 104h282q50 0 76.5 -28t26.5 -72q0 -58 -45 -100q-39 -37 -66 -95q-74 -151 -313 -593q-26 -48 -33.5 -77t-7.5 -71v-111q-1 -67 17 -102t67 -65q66 -38 63 -95
q0 -43 -34 -72t-109 -28h-479zM258 1655l207 209q35 32 76 41.5t161 9.5q130 0 173.5 -9.5t74.5 -39.5l228 -209q38 -37 18.5 -65.5t-72.5 -28.5h-196q-58 0 -119 39l-104 63l-105 -66q-58 -36 -98 -36h-191q-51 0 -69.5 28.5t16.5 63.5z" />
    <glyph glyph-name="ycircumflex" unicode="&#x177;" horiz-adv-x="1234" 
d="M289 -369q-45 0 -78 30.5t-33 68.5q0 47 45 86l183 159q43 37 18 88q-194 406 -328 805q-17 51 -55 97q-41 41 -41 94q0 44 29 67t82 23h407q70 0 97.5 -21.5t27.5 -72.5q0 -45 -45 -78q-50 -40 -54.5 -71t17.5 -91q55 -194 129 -350q14 -29 32 -29t30 29q79 195 120 358
q12 38 6.5 71t-34.5 64q-2 2 -9 11t-10.5 13t-10 13t-9.5 15.5t-7 15.5t-5.5 17.5t-1.5 17.5q0 37 21 62.5t60 25.5h265q46 0 71 -27.5t27 -62.5q0 -46 -37 -86q-29 -33 -61 -137q-109 -368 -246 -713q-46 -115 -71 -173t-66.5 -137t-81.5 -130q-40 -52 -109 -52h-274z
M217 1315l199 231q34 37 72.5 47.5t154.5 10.5q125 0 167 -10.5t73 -43.5l217 -233q36 -40 18 -72.5t-69 -32.5h-189q-55 0 -115 43l-100 72l-100 -74q-57 -41 -94 -41h-183q-49 0 -67 32.5t16 70.5z" />
    <glyph glyph-name="Ydieresis" unicode="&#x178;" horiz-adv-x="1437" 
d="M500 0q-75 0 -108.5 30.5t-33.5 73.5q0 55 66 93q48 28 64.5 62.5t15.5 102.5v111q0 28 -4.5 50t-10 34t-16.5 33q-201 324 -344 610q-31 67 -78 111q-27 23 -40 45.5t-13 56.5q0 46 27 71t77 25h500q61 0 90 -24.5t29 -75.5q0 -54 -45 -90q-35 -28 -35 -64q0 -20 23 -73
q55 -120 135 -238q42 -65 80 0q78 133 120 244q19 43 19 67q0 32 -33 58q-27 23 -39 42.5t-12 49.5q0 104 121 104h282q50 0 76.5 -28t26.5 -72q0 -58 -45 -100q-39 -37 -66 -95q-74 -151 -313 -593q-26 -48 -33.5 -77t-7.5 -71v-111q-1 -67 17 -102t67 -65q66 -38 63 -95
q0 -43 -34 -72t-109 -28h-479zM205 1774q0 98 71 164.5t175 66.5q100 0 167.5 -62.5t67.5 -154.5q0 -98 -72 -166t-178 -68q-98 0 -164.5 63.5t-66.5 156.5zM737 1769q0 98 71 165t175 67q100 0 168 -62.5t68 -154.5q0 -98 -72 -166t-178 -68q-98 0 -165 63.5t-67 155.5z
" />
    <glyph glyph-name="Zacute" unicode="&#x179;" horiz-adv-x="1271" 
d="M135 0q-71 0 -103 29.5t-32 95.5q0 137 96 278l545 793q14 20 14 37q0 13 -15 18.5t-52 5.5q-67 0 -131 -28t-146 -90q-11 -9 -46.5 -39.5t-55.5 -46t-51 -30.5t-56 -15q-43 0 -65.5 40t-22.5 93q0 126 37 245q19 67 47.5 95t79.5 28h952q60 0 86.5 -23t26.5 -79
q0 -80 -22 -153t-84 -162l-537 -770q-20 -30 -20 -48q0 -22 61 -22q142 0 313 117q38 26 95 69.5t85.5 59.5t55.5 16q40 0 61 -32.5t21 -92.5q0 -169 -31 -287q-19 -66 -55 -84t-111 -18h-940zM424 1716l115 146q55 71 151 71h330q55 0 86 -23.5t20 -62t-69 -75.5l-238 -156
q-44 -31 -100 -31h-260q-57 0 -67 39.5t32 91.5z" />
    <glyph glyph-name="zacute" unicode="&#x17a;" horiz-adv-x="1058" 
d="M111 0q-49 0 -73 34t-24 89q0 66 64 158l391 571q25 40 25 53q0 29 -31 29q-35 0 -162 -84q-41 -26 -58 -37t-52.5 -26t-59.5 -15q-79 0 -82 78q-2 91 8 213q10 86 109 86h772q104 0 104 -117q0 -88 -53 -164l-411 -585q-15 -21 -15 -37q3 -21 29 -21q24 0 104 30t146 62
q87 41 125 41q44 0 63 -28.5t19 -89.5q0 -95 -13 -158q-15 -82 -123 -82h-802zM350 1331l152 223q50 72 149 72h248q86 0 103 -47t-58 -115l-239 -207q-29 -26 -55 -33t-75 -7h-182q-49 0 -61.5 35t18.5 79z" />
    <glyph glyph-name="Zdotaccent" unicode="&#x17b;" horiz-adv-x="1271" 
d="M135 0q-71 0 -103 29.5t-32 95.5q0 137 96 278l545 793q14 20 14 37q0 13 -15 18.5t-52 5.5q-67 0 -131 -28t-146 -90q-11 -9 -46.5 -39.5t-55.5 -46t-51 -30.5t-56 -15q-43 0 -65.5 40t-22.5 93q0 126 37 245q19 67 47.5 95t79.5 28h952q60 0 86.5 -23t26.5 -79
q0 -80 -22 -153t-84 -162l-537 -770q-20 -30 -20 -48q0 -22 61 -22q142 0 313 117q38 26 95 69.5t85.5 59.5t55.5 16q40 0 61 -32.5t21 -92.5q0 -169 -31 -287q-19 -66 -55 -84t-111 -18h-940zM408 1784q0 98 70.5 164.5t174.5 66.5q100 0 168 -62.5t68 -154.5
q0 -98 -72 -165.5t-178 -67.5q-98 0 -164.5 63.5t-66.5 155.5z" />
    <glyph glyph-name="zdotaccent" unicode="&#x17c;" horiz-adv-x="1058" 
d="M111 0q-49 0 -73 34t-24 89q0 66 64 158l391 571q25 40 25 53q0 29 -31 29q-35 0 -162 -84q-41 -26 -58 -37t-52.5 -26t-59.5 -15q-79 0 -82 78q-2 91 8 213q10 86 109 86h772q104 0 104 -117q0 -88 -53 -164l-411 -585q-15 -21 -15 -37q3 -21 29 -21q24 0 104 30t146 62
q87 41 125 41q44 0 63 -28.5t19 -89.5q0 -95 -13 -158q-15 -82 -123 -82h-802zM287 1448q0 106 80.5 183t189.5 77q100 0 173 -68.5t73 -162.5q0 -107 -79.5 -186t-188.5 -79q-100 0 -174 70.5t-74 165.5z" />
    <glyph glyph-name="Zcaron" unicode="&#x17d;" horiz-adv-x="1271" 
d="M135 0q-71 0 -103 29.5t-32 95.5q0 137 96 278l545 793q14 20 14 37q0 13 -15 18.5t-52 5.5q-67 0 -131 -28t-146 -90q-11 -9 -46.5 -39.5t-55.5 -46t-51 -30.5t-56 -15q-43 0 -65.5 40t-22.5 93q0 126 37 245q19 67 47.5 95t79.5 28h952q60 0 86.5 -23t26.5 -79
q0 -80 -22 -153t-84 -162l-537 -770q-20 -30 -20 -48q0 -22 61 -22q142 0 313 117q38 26 95 69.5t85.5 59.5t55.5 16q40 0 61 -32.5t21 -92.5q0 -169 -31 -287q-19 -66 -55 -84t-111 -18h-940zM246 1827q-31 34 -14 62t63 28h197q32 0 90 -35l98 -65l100 65q61 37 109 37
h160q47 0 64 -27.5t-15 -64.5l-195 -209q-27 -30 -66.5 -38.5t-162.5 -8.5q-117 0 -155.5 9.5t-69.5 41.5z" />
    <glyph glyph-name="zcaron" unicode="&#x17e;" horiz-adv-x="1058" 
d="M111 0q-49 0 -73 34t-24 89q0 66 64 158l391 571q25 40 25 53q0 29 -31 29q-35 0 -162 -84q-41 -26 -58 -37t-52.5 -26t-59.5 -15q-79 0 -82 78q-2 91 8 213q10 86 109 86h772q104 0 104 -117q0 -88 -53 -164l-411 -585q-15 -21 -15 -37q3 -21 29 -21q24 0 104 30t146 62
q87 41 125 41q44 0 63 -28.5t19 -89.5q0 -95 -13 -158q-15 -82 -123 -82h-802zM129 1505q-31 37 -14 68t63 31h197q39 0 90 -39l98 -74l101 74q58 41 108 41h160q47 0 64 -30.5t-15 -70.5l-195 -233q-27 -33 -66 -42t-163 -9q-118 0 -156.5 10t-68.5 45z" />
    <glyph glyph-name="uni018F" unicode="&#x18f;" horiz-adv-x="1560" 
d="M698 -29q-137 0 -263.5 47t-218 125.5t-146 185.5t-54.5 222q0 87 53.5 138.5t163.5 76.5q56 14 250 53q373 78 414 96q31 12 31 33q0 29 -15 53q-31 59 -118.5 96.5t-196.5 37.5q-93 0 -196 -34t-177 -89q-47 -32 -81.5 -23.5t-77.5 62.5q-35 45 -33.5 83t35.5 89
q101 141 282 226t379 85q176 0 327 -58.5t258 -161.5t167.5 -249t60.5 -317q0 -161 -65.5 -305t-178 -247.5t-269 -164t-331.5 -60.5zM545 446q0 -64 78 -140.5t165 -76.5q103 0 171.5 91.5t66.5 207.5q0 40 -6.5 77t-25.5 67t-46 30q-9 0 -21 -6.5t-30 -20t-27 -18.5
q-91 -65 -252 -139q-25 -11 -37 -17t-24 -21t-12 -34z" />
    <glyph glyph-name="uni0218" unicode="&#x218;" horiz-adv-x="1355" 
d="M682 -23q-151 0 -313 37t-267 121q-45 38 -63 70.5t-8 68t33.5 67t70.5 79.5q7 7 28 28.5t30 30t26.5 24t28.5 22t25.5 12.5t27.5 6q27 0 52 -24.5t57 -76.5q70 -113 139 -176t143 -63q72 0 117 42.5t45 110.5q0 74 -68 122.5t-219 82.5q-270 56 -395 167t-125 302
q0 118 51.5 214t140 158t204 95t247.5 33q142 0 287 -35t242 -106q40 -29 60.5 -56.5t24.5 -53t-10 -54.5t-38 -57t-64 -64q-105 -94 -150 -94q-55 0 -102 80q-70 116 -128 166.5t-124 50.5q-58 0 -101.5 -40.5t-43.5 -99.5q0 -69 68.5 -116t215.5 -76q275 -53 399 -167
t124 -316q0 -161 -87.5 -279t-237.5 -177t-343 -59zM475 -291q0 96 62.5 158.5t156.5 62.5q107 0 168.5 -69t61.5 -183q0 -123 -76.5 -234.5t-198.5 -172.5q-57 -33 -104 29q-52 63 -6 100q30 22 43.5 33t27 27.5t13.5 31.5q0 17 -27 29q-121 57 -121 188z" />
    <glyph glyph-name="uni0219" unicode="&#x219;" horiz-adv-x="1054" 
d="M483 -31q-268 0 -397 76q-63 37 -75 93t22 153q31 110 94 110q13 0 25 -3.5t28.5 -15t26.5 -19.5t36 -30t40 -34q120 -106 204 -106q37 0 65 23.5t28 55.5q0 43 -49.5 79t-151.5 75q-192 66 -278.5 153.5t-86.5 215.5q0 178 152.5 285.5t398.5 107.5q102 0 195.5 -22
t150.5 -54q83 -46 98 -95.5t-22 -160.5q-26 -76 -76 -76q-39 0 -151 94q-115 97 -195 97q-39 0 -64.5 -23t-25.5 -57q-1 -42 47.5 -69.5t208.5 -86.5q318 -115 318 -352q0 -189 -154 -301.5t-412 -112.5zM322 -291q0 96 62.5 158.5t156.5 62.5q107 0 168 -69t61 -183
q0 -123 -76 -234.5t-198 -172.5q-57 -34 -105 29q-52 63 -6 100q30 22 43.5 33t27 27.5t13.5 31.5q0 17 -27 29q-120 56 -120 188z" />
    <glyph glyph-name="uni021A" unicode="&#x21a;" horiz-adv-x="1480" 
d="M504 0q-75 0 -108.5 30.5t-33.5 73.5q0 55 66 93q48 28 64.5 62.5t15.5 102.5l2 721q0 138 -74 138q-29 0 -66 -28.5t-96 -96.5l-15 -18q-41 -49 -62.5 -72.5t-54 -45.5t-62.5 -22q-46 0 -65 34t-19 81q0 77 12 169t31 150q23 77 59 107t103 30h1087q110 0 144 -110
q23 -69 38 -178.5t15 -198.5q0 -37 -21 -60.5t-53 -23.5q-43 0 -85 33t-109 112q-69 78 -105 108t-70 30q-77 0 -77 -138l2 -721q-1 -67 17 -102t67 -65q66 -38 63 -95q0 -43 -34 -72t-109 -28h-467zM539 -291q0 96 62.5 158.5t156.5 62.5q107 0 168 -69t61 -183
q0 -123 -76 -234.5t-198 -172.5q-57 -34 -105 29q-52 63 -6 100q30 22 43.5 33t27 27.5t13.5 31.5q0 17 -27 29q-120 56 -120 188z" />
    <glyph glyph-name="uni021B" unicode="&#x21b;" horiz-adv-x="712" 
d="M375 0q-162 0 -231.5 60t-69.5 200q0 110 37 338q36 218 36 274q0 23 -1.5 33.5t-9 22t-23.5 17t-45 9.5q-37 5 -52.5 28t-15.5 77q0 72 74 108q104 51 155 107q26 27 46 52t42 56.5t27 38.5q49 62 105 62q83 0 83 -76v-207q0 -30 10 -40.5t46 -10.5h65q43 0 61 -22.5
t17 -77.5q2 -65 -16.5 -94t-61.5 -29h-55q-44 0 -56 -14t-12 -68v-522q0 -48 12.5 -67t63.5 -40q58 -21 80.5 -43.5t22.5 -71.5q0 -47 -23 -73.5t-63 -26.5h-248zM215 -291q0 96 62.5 158.5t156.5 62.5q107 0 168.5 -69t61.5 -183q0 -123 -76.5 -234.5t-198.5 -172.5
q-57 -33 -104 29q-52 63 -6 100q29 21 43 32.5t27 28t13 31.5q0 17 -26 29q-121 57 -121 188z" />
    <glyph glyph-name="uni0237" unicode="&#x237;" horiz-adv-x="616" 
d="M205 -373q-89 0 -171.5 18.5t-129.5 49.5q-48 30 -55 69.5t16 81.5q17 38 35.5 51.5t46.5 10.5q37 -6 76 -6q50 0 74 28.5t24 75.5v787q1 66 -13 100t-51 61q-47 42 -47 93q2 43 28 73t85 29h297q74 0 103.5 -33.5t29.5 -114.5v-1081q0 -131 -99 -212t-249 -81z" />
    <glyph glyph-name="uni0259" unicode="&#x259;" horiz-adv-x="1220" 
d="M586 1184q172 0 314.5 -80.5t224 -219t81.5 -304.5q0 -171 -80 -312.5t-218.5 -222t-305.5 -80.5q-155 0 -287.5 65t-209 175.5t-76.5 238.5q0 71 44 114t136 65q115 26 207 43q175 42 200 53q25 7 25 26q0 34 -61 72q-64 33 -136 33q-136 0 -274 -102q-40 -26 -69 -19
t-64 51q-29 38 -27.5 69.5t29.5 72.5q85 118 234.5 190t312.5 72zM498 377q0 -44 53.5 -97t112.5 -53q57 0 94 40.5t37 115.5q0 56 -16 109t-44 53q-5 0 -13 -5t-20.5 -14.5t-21.5 -15.5q-38 -32 -131 -84q-3 -2 -17.5 -9t-18.5 -10.5t-9.5 -11.5t-5.5 -18z" />
    <glyph glyph-name="circumflex" unicode="&#x2c6;" horiz-adv-x="868" 
d="M637 1124q-55 0 -115 43l-100 72l-100 -74q-57 -41 -95 -41h-182q-49 0 -67 32.5t16 70.5l199 231q34 37 72.5 47.5t154.5 10.5q125 0 166.5 -10.5t72.5 -43.5l218 -233q36 -40 17.5 -72.5t-69.5 -32.5h-188z" />
    <glyph glyph-name="caron" unicode="&#x2c7;" horiz-adv-x="884" 
d="M819 1507q47 0 64 -30t-15 -70l-194 -233q-27 -33 -67 -42.5t-163 -9.5q-82 0 -123 5t-61 15.5t-41 35.5l-203 229q-31 37 -13.5 67.5t63.5 30.5h196q39 0 90 -39l99 -73l100 73q58 41 108 41h160z" />
    <glyph glyph-name="breve" unicode="&#x2d8;" horiz-adv-x="679" 
d="M334 1081q-156 0 -260 58q-72 40 -75 117t56 167q66 102 176 54q121 -50 213 -50q66 0 129 29q60 25 89 -4q41 -38 -5 -152q-45 -115 -124 -167t-199 -52z" />
    <glyph glyph-name="dotaccent" unicode="&#x2d9;" horiz-adv-x="505" 
d="M238 1106q-97 0 -167.5 78.5t-70.5 187.5q0 118 78 201.5t188 83.5q98 0 169 -76.5t71 -183.5q0 -120 -79 -205.5t-189 -85.5z" />
    <glyph glyph-name="ring" unicode="&#x2da;" horiz-adv-x="550" 
d="M287 1112q-112 0 -193.5 78.5t-81.5 185.5q0 106 81 182t194 76t191.5 -76t78.5 -182q0 -108 -78.5 -186t-191.5 -78zM184 1374q0 -43 30.5 -74.5t72.5 -31.5q41 0 71.5 31.5t30.5 74.5t-30.5 75t-71.5 32q-42 0 -72.5 -32t-30.5 -75z" />
    <glyph glyph-name="ogonek" unicode="&#x2db;" horiz-adv-x="516" 
d="M244 -373q-111 0 -169.5 49.5t-58.5 126.5q0 78 85 140.5t210 62.5h76q-8 -6 -20 -22q-27 -34 -27 -76q0 -26 14 -40.5t39 -14.5q3 0 18.5 2t24.5 2q19 0 33 -16.5t14 -47.5q0 -49 -49 -94q-35 -33 -86.5 -52.5t-103.5 -19.5z" />
    <glyph glyph-name="tilde" unicode="&#x2dc;" horiz-adv-x="907" 
d="M668 1110q-29 0 -72 11.5t-73.5 22t-104.5 38.5q-139 53 -178 53q-45 0 -78 -61q-37 -66 -96 -48q-85 25 -58 150q36 165 95.5 235t154.5 70q72 0 240 -65q159 -62 184 -62q23 0 40 13t34 44q39 73 104 45q63 -26 41 -139q-34 -173 -84.5 -240t-148.5 -67z" />
    <glyph glyph-name="hungarumlaut" unicode="&#x2dd;" horiz-adv-x="1245" 
d="M61 1124q-48 0 -58.5 34.5t15.5 80.5l123 223q41 72 150 72h248q86 0 101 -45t-56 -117l-207 -203q-45 -45 -125 -45h-191zM590 1239l151 223q50 72 150 72h248q86 0 103 -47t-58 -115l-236 -205q-49 -43 -125 -43h-190q-49 0 -61.5 35.5t18.5 79.5z" />
    <glyph glyph-name="gravecomb" unicode="&#x300;" 
d="M360 1124q-48 0 -74 7.5t-55 33.5l-239 207q-75 68 -58 115t103 47h266q100 0 150 -72l151 -223q31 -44 18.5 -79.5t-61.5 -35.5h-201z" />
    <glyph glyph-name="acutecomb" unicode="&#x301;" 
d="M31 1126q-49 0 -61.5 35.5t18.5 79.5l151 223q50 72 150 72h248q86 0 103 -47t-58 -115l-240 -207q-29 -26 -55 -33.5t-74 -7.5h-182z" />
    <glyph glyph-name="uni0302" unicode="&#x302;" 
d="M664 1210q-55 0 -115 43l-100 72l-101 -74q-57 -41 -94 -41h-182q-49 0 -67.5 32.5t15.5 70.5l199 231q34 37 72.5 47.5t154.5 10.5q125 0 167 -10.5t73 -43.5l217 -233q36 -40 18 -72.5t-69 -32.5h-188z" />
    <glyph glyph-name="tildecomb" unicode="&#x303;" 
d="M668 1110q-29 0 -72 11.5t-73.5 22t-104.5 38.5q-139 53 -178 53q-45 0 -78 -61q-37 -66 -96 -48q-85 25 -58 150q36 165 95.5 235t154.5 70q72 0 240 -65q159 -62 184 -62q23 0 40 13t34 44q39 73 104 45q63 -26 41 -139q-34 -173 -84.5 -240t-148.5 -67z" />
    <glyph glyph-name="uni0304" unicode="&#x304;" 
d="M141 1104q-83 0 -111 21.5t-28 86.5v93q0 65 28 86.5t111 21.5h584q83 0 111 -21.5t28 -86.5v-93q0 -65 -28 -86.5t-111 -21.5h-584z" />
    <glyph glyph-name="uni0306" unicode="&#x306;" 
d="M297 1057q-158 0 -260 57q-72 40 -75 117.5t56 167.5q66 102 177 53q119 -49 213 -49q66 0 129 29q59 24 88 -5q41 -39 -4 -151q-45 -115 -124.5 -167t-199.5 -52z" />
    <glyph glyph-name="uni0307" unicode="&#x307;" 
d="M254 1122q-100 0 -174 70.5t-74 165.5q0 106 80.5 183t189.5 77q100 0 173 -69t73 -163q0 -107 -79.5 -185.5t-188.5 -78.5z" />
    <glyph glyph-name="uni0308" unicode="&#x308;" 
d="M793 1126q-95 0 -164.5 70.5t-69.5 167.5q0 98 71.5 170t168.5 72t167 -70t70 -166q0 -98 -72.5 -171t-170.5 -73zM23 1364q0 98 71.5 170t169.5 72q95 0 164.5 -70.5t69.5 -165.5q0 -98 -73 -171t-171 -73q-94 0 -162.5 70.5t-68.5 167.5z" />
    <glyph glyph-name="uni030A" unicode="&#x30a;" 
d="M291 1118q-112 0 -193.5 78.5t-81.5 185.5q0 106 81 182t194 76t191.5 -76t78.5 -182q0 -108 -78.5 -186t-191.5 -78zM188 1380q0 -43 30.5 -74.5t72.5 -31.5q41 0 71.5 31.5t30.5 74.5t-30.5 75t-71.5 32q-42 0 -72.5 -32t-30.5 -75z" />
    <glyph glyph-name="uni030B" unicode="&#x30b;" 
d="M61 1192q-48 0 -58.5 34.5t15.5 80.5l123 223q41 72 150 72h248q86 0 101 -45t-56 -117l-207 -203q-45 -45 -125 -45h-191zM590 1307l151 223q50 72 150 72h248q86 0 103 -47t-58 -115l-236 -205q-49 -43 -125 -43h-190q-49 0 -61.5 35.5t18.5 79.5z" />
    <glyph glyph-name="uni030C" unicode="&#x30c;" 
d="M819 1608q47 0 64 -30.5t-15 -70.5l-194 -233q-27 -33 -66.5 -42t-163.5 -9q-118 0 -156.5 10t-68.5 45l-203 229q-31 37 -13.5 68t63.5 31h196q39 0 90 -39l99 -74l100 74q58 41 108 41h160z" />
    <glyph glyph-name="uni0312" unicode="&#x312;" 
d="M446 1987q66 34 121 -33q58 -67 6 -107q-67 -48 -81 -66q-13 -16 -13 -32q0 -21 29 -33q137 -59 137 -205q0 -102 -71 -169.5t-177 -67.5q-123 0 -192.5 74.5t-69.5 197.5q0 133 87 253.5t224 187.5z" />
    <glyph glyph-name="uni0326" unicode="&#x326;" 
d="M295 -729q-57 -34 -105 29q-52 63 -6 100q30 22 43.5 33t27 27.5t13.5 31.5q0 17 -26 29q-121 57 -121 188q0 96 62.5 158.5t156.5 62.5q107 0 168 -69t61 -183q0 -123 -76 -234.5t-198 -172.5z" />
    <glyph glyph-name="uni0327" unicode="&#x327;" 
d="M182 -504q-51 0 -98 16t-76 44q-47 44 -12 96q13 20 38.5 25.5t49.5 -3.5q23 -10 55 -10q47 0 47 72q0 33 -12 48t-45 19q-34 3 -44 31t13 68l72 112l205 -2l-64 -90q111 -26 170.5 -78t59.5 -118q0 -97 -103 -163.5t-256 -66.5z" />
    <glyph glyph-name="uni0328" unicode="&#x328;" 
d="M244 -373q-111 0 -169.5 49.5t-58.5 126.5q0 78 85 140.5t210 62.5h76q-8 -6 -20 -22q-27 -34 -27 -76q0 -26 14 -40.5t39 -14.5q3 0 18.5 2t24.5 2q19 0 33 -16.5t14 -47.5q0 -49 -49 -94q-35 -33 -86.5 -52.5t-103.5 -19.5z" />
    <glyph glyph-name="uni0335" unicode="&#x335;" 
d="M88 590q-45 0 -61.5 19.5t-16.5 72.5q0 49 16 66.5t62 17.5h561q39 0 51.5 -17t12.5 -67q0 -54 -12.5 -73t-51.5 -19h-561z" />
    <glyph glyph-name="uni0337" unicode="&#x337;" 
d="M74 565q-39 -11 -56.5 0t-17.5 49v129q0 69 24.5 104t94.5 56l649 197q88 26 88 -62v-114q0 -76 -27 -112.5t-102 -57.5z" />
    <glyph glyph-name="uni0338" unicode="&#x338;" 
d="M39 -137q-51 20 -60.5 48t15.5 77l661 1284q19 37 41.5 44.5t59.5 -9.5q47 -23 53 -53.5t-23 -88.5l-649 -1269q-17 -34 -39 -41t-59 8z" />
    <glyph glyph-name="uni1E20" unicode="&#x1e20;" horiz-adv-x="1550" 
d="M829 -25q-176 0 -327 58.5t-258 161.5t-167.5 249.5t-60.5 317.5q0 161 65.5 305t178 247t269 163.5t331.5 60.5q178 0 343 -66.5t251 -166.5q56 -65 35 -123t-123 -123q-90 -58 -141 -85.5t-80 -27.5q-46 0 -90 72q-87 142 -150 201t-143 59q-101 0 -166.5 -100.5
t-65.5 -257.5q0 -163 62 -306t169.5 -229t231.5 -86q34 0 48 19t14 61v86q1 67 -17 102t-65 64q-36 22 -50 44t-14 52q0 42 32.5 71.5t102.5 28.5h353q62 0 95.5 -30.5t33.5 -89.5v-359q0 -101 -33 -162t-119 -102q-223 -109 -545 -109zM426 1716v92q0 64 25 86.5t96 22.5
h624q71 0 96 -22.5t25 -86.5v-92q0 -64 -25 -86t-96 -22h-624q-71 0 -96 22t-25 86z" />
    <glyph glyph-name="uni1E21" unicode="&#x1e21;" horiz-adv-x="1327" 
d="M623 -428q-119 0 -249.5 15t-217.5 40q-65 19 -71.5 73.5t42.5 182.5q27 71 67 84t109 -24q230 -121 326 -121q75 0 109 51t34 164v18q0 28 -19.5 37t-45.5 -14q-99 -92 -230 -92q-139 0 -245.5 70t-162 187.5t-55.5 262.5q0 136 48.5 257.5t132.5 208.5t201 138t249 51
q35 0 155 -11t216 -11q43 0 102 5t88 5h2q59 0 85 -31t26 -74q0 -48 -47 -90q-36 -27 -49.5 -60.5t-12.5 -100.5l-2 -428q0 -136 11 -248q10 -123 10 -150q0 -201 -148.5 -298t-457.5 -97zM231 1352v92q0 64 28.5 86t111.5 22h583q83 0 111.5 -22t28.5 -86v-92
q0 -65 -28.5 -87t-111.5 -22h-583q-83 0 -111.5 22t-28.5 87zM461 641q0 -142 54.5 -228.5t146.5 -86.5q61 0 89.5 30.5t28.5 96.5l2 239q1 94 -38 145.5t-111 51.5q-75 0 -123.5 -69.5t-48.5 -178.5z" />
    <glyph glyph-name="Wgrave" unicode="&#x1e80;" horiz-adv-x="2189" 
d="M684 -14q-68 1 -103.5 12t-60.5 42t-51 97q-145 361 -227 625q-35 114 -111 393q-17 63 -33.5 96.5t-44.5 59.5q-29 27 -42 48.5t-13 53.5q0 40 27 68t73 28h533q44 0 69 -25t25 -71t-51 -106q-39 -48 -39 -97q0 -106 57 -297q24 -89 74 -211q9 -23 22.5 -29.5t25 2
t17.5 27.5q40 131 58 211q35 155 35 295q0 36 -11 59t-39 48q-38 35 -38 94q0 40 24 70t74 30h510q50 0 79 -29.5t29 -72.5t-55 -104q-37 -46 -37 -101q0 -76 53 -272q30 -120 80 -236q11 -25 26 -25t26 25q13 29 23.5 59.5t15.5 48.5t13.5 53t12.5 48q47 169 47 287
q0 68 -45 110q-49 49 -49 111q0 38 25 68t69 30h322q53 0 82.5 -27t29.5 -71q0 -57 -57 -106q-25 -22 -40.5 -50.5t-27.5 -76.5q-64 -267 -139 -510q-128 -416 -186 -541q-15 -36 -24.5 -55.5t-23.5 -37t-24 -24.5t-33 -12.5t-44 -7t-62 -2.5q-84 -2 -126 10t-63.5 38
t-50.5 91q-92 199 -164 489q-4 18 -15.5 25t-23.5 -1.5t-18 -29.5q-21 -80 -75 -246.5t-87 -246.5q-14 -34 -24.5 -55t-26 -36.5t-27.5 -23t-36.5 -12t-46 -5t-62.5 0.5zM788 1755q-56 38 -67 76.5t19 62t85 23.5h330q96 0 152 -72l114 -145q42 -52 32 -91.5t-67 -39.5h-270
q-51 0 -90 26z" />
    <glyph glyph-name="wgrave" unicode="&#x1e81;" horiz-adv-x="1937" 
d="M596 -2q-59 0 -88 2.5t-59 10t-47.5 27.5t-35 49t-38.5 81q-133 314 -238 668q-20 64 -53 106q-37 53 -37 105q0 51 33.5 76.5t83.5 25.5h415q109 0 109 -92q0 -57 -57 -111q-31 -25 -37.5 -57.5t8.5 -77.5q41 -159 104 -307q9 -22 21.5 -30t24 -1t18.5 27q84 240 94 295
q11 56 4 92t-37 69q-43 53 -43 101q0 46 28 69t77 23h459q42 0 64 -27.5t22 -62.5q0 -58 -58 -113q-46 -46 -26 -127q55 -193 116 -321q12 -26 29 -26t29 26q75 160 104 327q17 81 -39 129q-25 23 -38 44t-13 51q0 44 29 72t78 28h231q53 0 77.5 -29t24.5 -69
q0 -56 -32 -105q-35 -53 -62 -153q-44 -154 -67.5 -231.5t-69.5 -206.5t-100 -251q-18 -39 -29.5 -56.5t-37.5 -30.5t-60 -15.5t-103 -3.5q-118 -2 -160.5 12t-66.5 66q-81 166 -148 348q-9 23 -24.5 23t-24.5 -23q-96 -253 -129 -330q-27 -63 -69 -79.5t-156 -16.5z
M682 1462q-75 68 -58 115t103 47h266q100 0 150 -72l151 -223q31 -44 18.5 -79.5t-61.5 -35.5h-200q-48 0 -74 7.5t-55 33.5z" />
    <glyph glyph-name="Wacute" unicode="&#x1e82;" horiz-adv-x="2189" 
d="M684 -14q-68 1 -103.5 12t-60.5 42t-51 97q-145 361 -227 625q-35 114 -111 393q-17 63 -33.5 96.5t-44.5 59.5q-29 27 -42 48.5t-13 53.5q0 40 27 68t73 28h533q44 0 69 -25t25 -71t-51 -106q-39 -48 -39 -97q0 -106 57 -297q24 -89 74 -211q9 -23 22.5 -29.5t25 2
t17.5 27.5q40 131 58 211q35 155 35 295q0 36 -11 59t-39 48q-38 35 -38 94q0 40 24 70t74 30h510q50 0 79 -29.5t29 -72.5t-55 -104q-37 -46 -37 -101q0 -76 53 -272q30 -120 80 -236q11 -25 26 -25t26 25q13 29 23.5 59.5t15.5 48.5t13.5 53t12.5 48q47 169 47 287
q0 68 -45 110q-49 49 -49 111q0 38 25 68t69 30h322q53 0 82.5 -27t29.5 -71q0 -57 -57 -106q-25 -22 -40.5 -50.5t-27.5 -76.5q-64 -267 -139 -510q-128 -416 -186 -541q-15 -36 -24.5 -55.5t-23.5 -37t-24 -24.5t-33 -12.5t-44 -7t-62 -2.5q-84 -2 -126 10t-63.5 38
t-50.5 91q-92 199 -164 489q-4 18 -15.5 25t-23.5 -1.5t-18 -29.5q-21 -80 -75 -246.5t-87 -246.5q-14 -34 -24.5 -55t-26 -36.5t-27.5 -23t-36.5 -12t-46 -5t-62.5 0.5zM905 1708l115 145q56 72 151 72h330q55 0 86 -24t20 -62.5t-69 -75.5l-238 -155q-44 -31 -100 -31
h-260q-57 0 -67 39.5t32 91.5z" />
    <glyph glyph-name="wacute" unicode="&#x1e83;" horiz-adv-x="1937" 
d="M596 -2q-59 0 -88 2.5t-59 10t-47.5 27.5t-35 49t-38.5 81q-133 314 -238 668q-20 64 -53 106q-37 53 -37 105q0 51 33.5 76.5t83.5 25.5h415q109 0 109 -92q0 -57 -57 -111q-31 -25 -37.5 -57.5t8.5 -77.5q41 -159 104 -307q9 -22 21.5 -30t24 -1t18.5 27q84 240 94 295
q11 56 4 92t-37 69q-43 53 -43 101q0 46 28 69t77 23h459q42 0 64 -27.5t22 -62.5q0 -58 -58 -113q-46 -46 -26 -127q55 -193 116 -321q12 -26 29 -26t29 26q75 160 104 327q17 81 -39 129q-25 23 -38 44t-13 51q0 44 29 72t78 28h231q53 0 77.5 -29t24.5 -69
q0 -56 -32 -105q-35 -53 -62 -153q-44 -154 -67.5 -231.5t-69.5 -206.5t-100 -251q-18 -39 -29.5 -56.5t-37.5 -30.5t-60 -15.5t-103 -3.5q-118 -2 -160.5 12t-66.5 66q-81 166 -148 348q-9 23 -24.5 23t-24.5 -23q-96 -253 -129 -330q-27 -63 -69 -79.5t-156 -16.5z
M827 1331l152 223q50 72 149 72h248q86 0 103 -47t-58 -115l-239 -207q-29 -26 -54.5 -33t-74.5 -7h-183q-49 0 -61.5 35t18.5 79z" />
    <glyph glyph-name="Wdieresis" unicode="&#x1e84;" horiz-adv-x="2189" 
d="M684 -14q-68 1 -103.5 12t-60.5 42t-51 97q-145 361 -227 625q-35 114 -111 393q-17 63 -33.5 96.5t-44.5 59.5q-29 27 -42 48.5t-13 53.5q0 40 27 68t73 28h533q44 0 69 -25t25 -71t-51 -106q-39 -48 -39 -97q0 -106 57 -297q24 -89 74 -211q9 -23 22.5 -29.5t25 2
t17.5 27.5q40 131 58 211q35 155 35 295q0 36 -11 59t-39 48q-38 35 -38 94q0 40 24 70t74 30h510q50 0 79 -29.5t29 -72.5t-55 -104q-37 -46 -37 -101q0 -76 53 -272q30 -120 80 -236q11 -25 26 -25t26 25q13 29 23.5 59.5t15.5 48.5t13.5 53t12.5 48q47 169 47 287
q0 68 -45 110q-49 49 -49 111q0 38 25 68t69 30h322q53 0 82.5 -27t29.5 -71q0 -57 -57 -106q-25 -22 -40.5 -50.5t-27.5 -76.5q-64 -267 -139 -510q-128 -416 -186 -541q-15 -36 -24.5 -55.5t-23.5 -37t-24 -24.5t-33 -12.5t-44 -7t-62 -2.5q-84 -2 -126 10t-63.5 38
t-50.5 91q-92 199 -164 489q-4 18 -15.5 25t-23.5 -1.5t-18 -29.5q-21 -80 -75 -246.5t-87 -246.5q-14 -34 -24.5 -55t-26 -36.5t-27.5 -23t-36.5 -12t-46 -5t-62.5 0.5zM625 1774q0 98 70.5 164.5t174.5 66.5q100 0 168 -62.5t68 -154.5q0 -98 -72 -166t-178 -68
q-98 0 -164.5 63.5t-66.5 156.5zM1157 1769q0 98 71 165t175 67q100 0 167.5 -62.5t67.5 -154.5q0 -99 -72 -166.5t-177 -67.5q-98 0 -165 63.5t-67 155.5z" />
    <glyph glyph-name="wdieresis" unicode="&#x1e85;" horiz-adv-x="1937" 
d="M596 -2q-59 0 -88 2.5t-59 10t-47.5 27.5t-35 49t-38.5 81q-133 314 -238 668q-20 64 -53 106q-37 53 -37 105q0 51 33.5 76.5t83.5 25.5h415q109 0 109 -92q0 -57 -57 -111q-31 -25 -37.5 -57.5t8.5 -77.5q41 -159 104 -307q9 -22 21.5 -30t24 -1t18.5 27q84 240 94 295
q11 56 4 92t-37 69q-43 53 -43 101q0 46 28 69t77 23h459q42 0 64 -27.5t22 -62.5q0 -58 -58 -113q-46 -46 -26 -127q55 -193 116 -321q12 -26 29 -26t29 26q75 160 104 327q17 81 -39 129q-25 23 -38 44t-13 51q0 44 29 72t78 28h231q53 0 77.5 -29t24.5 -69
q0 -56 -32 -105q-35 -53 -62 -153q-44 -154 -67.5 -231.5t-69.5 -206.5t-100 -251q-18 -39 -29.5 -56.5t-37.5 -30.5t-60 -15.5t-103 -3.5q-118 -2 -160.5 12t-66.5 66q-81 166 -148 348q-9 23 -24.5 23t-24.5 -23q-96 -253 -129 -330q-27 -63 -69 -79.5t-156 -16.5z
M526 1423q0 98 72 170t170 72q95 0 164 -70t69 -165q0 -98 -72.5 -171t-170.5 -73q-94 0 -163 70t-69 167zM1063 1423q0 98 71.5 170t168.5 72t167 -70t70 -165q0 -98 -73 -171t-171 -73q-95 0 -164 70t-69 167z" />
    <glyph glyph-name="uni1E9E" unicode="&#x1e9e;" horiz-adv-x="2691" 
d="M682 -23q-151 0 -313 37t-267 121q-45 38 -63 70.5t-8 68t33.5 67t70.5 79.5q7 7 28 28.5t30 30t26.5 24t28.5 22t25.5 12.5t27.5 6q27 0 52 -24.5t57 -76.5q70 -113 139 -176t143 -63q72 0 117 42.5t45 110.5q0 74 -68 122.5t-219 82.5q-270 56 -395 167t-125 302
q0 118 51.5 214t140 158t204 95t247.5 33q142 0 287 -35t242 -106q40 -29 60.5 -56.5t24.5 -53t-10 -54.5t-38 -57t-64 -64q-105 -94 -150 -94q-55 0 -102 80q-70 116 -128 166.5t-124 50.5q-58 0 -101.5 -40.5t-43.5 -99.5q0 -69 68.5 -116t215.5 -76q275 -53 399 -167
t124 -316q0 -161 -87.5 -279t-237.5 -177t-343 -59zM1382 1030q0 118 51.5 214t140 158t204 95t247.5 33q142 0 287 -35t242 -106q40 -29 60.5 -56.5t24.5 -53t-10 -54.5t-38 -57t-64 -64q-105 -94 -149 -94q-56 0 -103 80q-70 116 -128 166.5t-124 50.5q-58 0 -101.5 -40.5
t-43.5 -99.5q0 -68 69 -115.5t216 -76.5q274 -53 398 -167t124 -316q0 -161 -87.5 -279t-237.5 -177t-343 -59q-151 0 -312.5 37t-266.5 121q-37 30 -54.5 58t-20.5 52.5t12 54t36 56t59 64.5q7 7 28 28.5t30 30t26.5 24t28.5 22t25.5 12.5t27.5 6q27 0 52 -24.5t57 -76.5
q149 -239 283 -239q72 0 116.5 42.5t44.5 110.5q0 74 -68 122.5t-218 82.5q-271 56 -396 167t-125 302z" />
    <glyph glyph-name="uni1EBC" unicode="&#x1ebc;" horiz-adv-x="1366" 
d="M141 0q-59 0 -85.5 30.5t-26.5 73.5q0 57 53 93q38 28 51 62t12 103v785q1 68 -13.5 103t-53.5 63q-51 39 -51 94q0 43 26 73t84 29h987q50 0 76 -17t41 -62q74 -230 74 -306q0 -43 -18 -66.5t-52 -23.5q-31 0 -82.5 25.5t-92.5 53t-105 73.5q-72 52 -119 74t-92 22
q-69 0 -103.5 -46t-34.5 -126v-86q0 -55 18 -74.5t71 -19.5h356q34 0 54 -20t20 -52q0 -89 -68 -184q-27 -36 -50 -52t-61 -16q-37 0 -117.5 33.5t-105.5 34.5q-117 3 -117 -191v-104q0 -75 34 -114t98 -38q17 0 37 5t44 15.5t42.5 19t46 24.5t39 23t37 23t26.5 17
q43 28 97 64.5t74.5 49.5t47.5 23.5t53 10.5q74 0 74 -82q0 -46 -43 -199q-38 -133 -68.5 -177t-101.5 -44h-1012zM268 1710q36 149 95.5 212t154.5 63q68 0 240 -60q157 -55 184 -55q42 0 74 51q38 66 104 41q64 -24 41 -125q-34 -156 -84.5 -216t-148.5 -60q-64 0 -250 63
q-137 49 -178 49q-46 0 -78 -55q-36 -58 -96 -43q-85 22 -58 135z" />
    <glyph glyph-name="uni1EBD" unicode="&#x1ebd;" horiz-adv-x="1220" 
d="M635 -35q-172 0 -315 80.5t-224.5 219t-81.5 304.5q0 171 80 312.5t218.5 222t305.5 80.5q117 0 223.5 -38.5t183 -103t122 -153t45.5 -184.5q0 -71 -44 -114t-136 -65q-115 -26 -207 -43q-177 -42 -201 -53q-24 -7 -24 -27q0 -33 61 -71q64 -33 135 -33q137 0 275 102
q40 26 69 19t64 -51q29 -38 27.5 -69.5t-29.5 -72.5q-85 -118 -234.5 -190t-312.5 -72zM176 1386q36 165 95.5 235.5t154.5 70.5q69 0 240 -66q156 -61 184 -61q23 0 40 13t34 44q39 73 104 45q63 -26 41 -139q-34 -173 -84.5 -240t-148.5 -67q-29 0 -71 10.5t-76 22.5
t-103 38q-142 54 -178 54q-45 0 -78 -62q-36 -66 -97 -47q-45 13 -58 50.5t1 98.5zM426 766q0 -57 15.5 -109.5t43.5 -52.5q5 0 13 5t21 14.5t22 15.5q38 32 131 84q3 2 17.5 9t18.5 10.5t9.5 11.5t5.5 18q0 44 -53.5 97t-112.5 53q-57 0 -94 -40.5t-37 -115.5z" />
    <glyph glyph-name="Ygrave" unicode="&#x1ef2;" horiz-adv-x="1437" 
d="M500 0q-75 0 -108.5 30.5t-33.5 73.5q0 55 66 93q48 28 64.5 62.5t15.5 102.5v111q0 28 -4.5 50t-10 34t-16.5 33q-201 324 -344 610q-31 67 -78 111q-27 23 -40 45.5t-13 56.5q0 46 27 71t77 25h500q61 0 90 -24.5t29 -75.5q0 -54 -45 -90q-35 -28 -35 -64q0 -20 23 -73
q55 -120 135 -238q42 -65 80 0q78 133 120 244q19 43 19 67q0 32 -33 58q-27 23 -39 42.5t-12 49.5q0 104 121 104h282q50 0 76.5 -28t26.5 -72q0 -58 -45 -100q-39 -37 -66 -95q-74 -151 -313 -593q-26 -48 -33.5 -77t-7.5 -71v-111q-1 -67 17 -102t67 -65q66 -38 63 -95
q0 -43 -34 -72t-109 -28h-479zM369 1755q-56 38 -67 76.5t19 62t85 23.5h329q96 0 152 -72l114 -145q42 -52 32.5 -91.5t-66.5 -39.5h-271q-51 0 -90 26z" />
    <glyph glyph-name="ygrave" unicode="&#x1ef3;" horiz-adv-x="1234" 
d="M289 -369q-45 0 -78 30.5t-33 68.5q0 47 45 86l183 159q43 37 18 88q-194 406 -328 805q-17 51 -55 97q-41 41 -41 94q0 44 29 67t82 23h407q70 0 97.5 -21.5t27.5 -72.5q0 -45 -45 -78q-50 -40 -54.5 -71t17.5 -91q55 -194 129 -350q14 -29 32 -29t30 29q79 195 120 358
q12 38 6.5 71t-34.5 64q-2 2 -9 11t-10.5 13t-10 13t-9.5 15.5t-7 15.5t-5.5 17.5t-1.5 17.5q0 37 21 62.5t60 25.5h265q46 0 71 -27.5t27 -62.5q0 -46 -37 -86q-29 -33 -61 -137q-109 -368 -246 -713q-46 -115 -71 -173t-66.5 -137t-81.5 -130q-40 -52 -109 -52h-274z
M311 1462q-75 68 -58 115t103 47h267q99 0 149 -72l152 -223q31 -44 18.5 -79.5t-61.5 -35.5h-201q-48 0 -74 7.5t-55 33.5z" />
    <glyph glyph-name="uni1EF8" unicode="&#x1ef8;" horiz-adv-x="1437" 
d="M500 0q-75 0 -108.5 30.5t-33.5 73.5q0 55 66 93q48 28 64.5 62.5t15.5 102.5v111q0 28 -4.5 50t-10 34t-16.5 33q-201 324 -344 610q-31 67 -78 111q-27 23 -40 45.5t-13 56.5q0 46 27 71t77 25h500q61 0 90 -24.5t29 -75.5q0 -54 -45 -90q-35 -28 -35 -64q0 -20 23 -73
q55 -120 135 -238q42 -65 80 0q78 133 120 244q19 43 19 67q0 32 -33 58q-27 23 -39 42.5t-12 49.5q0 104 121 104h282q50 0 76.5 -28t26.5 -72q0 -58 -45 -100q-39 -37 -66 -95q-74 -151 -313 -593q-26 -48 -33.5 -77t-7.5 -71v-111q-1 -67 17 -102t67 -65q66 -38 63 -95
q0 -43 -34 -72t-109 -28h-479zM283 1700q36 149 95 211.5t154 62.5q71 0 240 -59q157 -55 184 -55q42 0 74 51q38 66 105 41q64 -24 41 -125q-34 -156 -85 -216.5t-149 -60.5q-29 0 -71 9.5t-76 20.5t-103 34q-137 49 -178 49q-46 0 -78 -55q-36 -58 -96 -43
q-45 12 -58.5 46t1.5 89z" />
    <glyph glyph-name="uni1EF9" unicode="&#x1ef9;" horiz-adv-x="1234" 
d="M289 -369q-45 0 -78 30.5t-33 68.5q0 47 45 86l183 159q43 37 18 88q-194 406 -328 805q-17 51 -55 97q-41 41 -41 94q0 44 29 67t82 23h407q70 0 97.5 -21.5t27.5 -72.5q0 -45 -45 -78q-50 -40 -54.5 -71t17.5 -91q55 -194 129 -350q14 -29 32 -29t30 29q79 195 120 358
q12 38 6.5 71t-34.5 64q-2 2 -9 11t-10.5 13t-10 13t-9.5 15.5t-7 15.5t-5.5 17.5t-1.5 17.5q0 37 21 62.5t60 25.5h265q46 0 71 -27.5t27 -62.5q0 -46 -37 -86q-29 -33 -61 -137q-109 -368 -246 -713q-46 -115 -71 -173t-66.5 -137t-81.5 -130q-40 -52 -109 -52h-274z
M209 1370q36 165 95.5 235t154.5 70q71 0 239 -65q159 -62 185 -62q23 0 39 13.5t34 44.5q39 74 105 45q63 -26 41 -140q-34 -172 -85 -239.5t-149 -67.5q-29 0 -72 11.5t-73.5 22t-104.5 38.5q-139 53 -178 53q-45 0 -78 -61q-36 -65 -96 -47q-45 13 -58 50.5t1 98.5z" />
    <glyph glyph-name="uni2009" unicode="&#x2009;" horiz-adv-x="307" 
 />
    <glyph glyph-name="endash" unicode="&#x2013;" horiz-adv-x="794" 
d="M125 666q-67 0 -91 22t-24 86v92q0 64 24 86.5t91 22.5h547q65 0 88.5 -22.5t23.5 -86.5v-92q0 -64 -23.5 -86t-88.5 -22h-547z" />
    <glyph glyph-name="emdash" unicode="&#x2014;" horiz-adv-x="1501" 
d="M143 520q-78 0 -105.5 24.5t-27.5 94.5v72q0 70 27.5 94t105.5 24h1215q78 0 105.5 -24t27.5 -94v-72q0 -70 -27.5 -94.5t-105.5 -24.5h-1215z" />
    <glyph glyph-name="quoteleft" unicode="&#x2018;" horiz-adv-x="552" 
d="M336 1503q68 39 127 -35q61 -75 6 -118q-69 -53 -84 -73q-16 -20 -16 -38q0 -23 30 -35q146 -68 146 -227q0 -115 -74.5 -189.5t-187.5 -74.5q-128 0 -201.5 82.5t-73.5 218.5q0 148 91.5 282t236.5 207z" />
    <glyph glyph-name="quoteright" unicode="&#x2019;" horiz-adv-x="552" 
d="M217 735q-68 -39 -127 35q-61 76 -6 119q5 4 17 13.5t17 13t15 11.5t14.5 12.5t12 11.5t10.5 12t7 11.5t5.5 12.5t1.5 12q0 23 -30 35q-146 68 -146 228q0 115 74.5 189.5t187.5 74.5q128 0 201.5 -82.5t73.5 -218.5q0 -148 -91.5 -282.5t-236.5 -207.5z" />
    <glyph glyph-name="quotesinglbase" unicode="&#x201a;" horiz-adv-x="552" 
d="M217 -295q-68 -39 -127 35q-61 76 -6 119q5 4 17 13.5t17 13t15 11.5t14.5 12.5t12 11.5t10.5 12t7 11.5t5.5 12.5t1.5 12q0 23 -30 35q-146 68 -146 227q0 115 74.5 190t187.5 75q128 0 201.5 -82.5t73.5 -218.5q0 -148 -91.5 -282.5t-236.5 -207.5z" />
    <glyph glyph-name="quotedblleft" unicode="&#x201c;" horiz-adv-x="1058" 
d="M315 1505q66 39 119 -35q58 -75 6 -118q-5 -4 -16 -13t-16 -13.5t-14 -12.5t-13.5 -12.5t-11 -11.5t-10 -12t-7 -11.5t-5 -12.5t-1.5 -12q0 -22 29 -35q137 -67 137 -227q0 -115 -70.5 -189.5t-175.5 -74.5q-121 0 -189.5 82.5t-68.5 218.5q0 148 85.5 282t221.5 207z
M547 1016q0 148 85.5 282t221.5 207q66 39 119 -35q58 -75 6 -118q-5 -4 -16 -13t-16 -13.5t-14 -12.5t-13.5 -12.5t-11 -11.5t-10 -12t-7 -11.5t-5 -12.5t-1.5 -12q0 -23 28 -35q138 -67 138 -227q0 -115 -70.5 -189.5t-175.5 -74.5q-121 0 -189.5 82.5t-68.5 218.5z" />
    <glyph glyph-name="quotedblright" unicode="&#x201d;" horiz-adv-x="1058" 
d="M743 735q-64 -39 -120 35q-56 77 -5 119q6 5 20 16.5t20.5 17t17 15t15.5 16t11 14.5t8.5 15.5t2.5 15.5q0 22 -29 35q-137 67 -137 228q0 115 70 189.5t176 74.5q121 0 189.5 -82.5t68.5 -218.5q0 -148 -86 -282.5t-222 -207.5zM8 1262q0 115 70 189.5t176 74.5
q121 0 189.5 -82.5t68.5 -218.5q0 -148 -85.5 -282.5t-221.5 -207.5q-65 -39 -121 35q-55 76 -4 119q5 4 20 16.5t20.5 17t16.5 15t15.5 16t11 14t8.5 16t2 15.5q0 22 -29 35q-137 67 -137 228z" />
    <glyph glyph-name="ellipsis" unicode="&#x2026;" horiz-adv-x="1757" 
d="M276 -37q-107 0 -187.5 82t-80.5 191q0 110 81 189t190 79q110 0 189 -79t79 -189t-79.5 -191.5t-188.5 -81.5h-3zM610 236q0 110 81 189t190 79q110 0 189 -79t79 -189t-79.5 -191.5t-188.5 -81.5h-2q-107 0 -188 82t-81 191zM1210 236q0 110 81 189t190 79
q110 0 189 -79t79 -189t-79.5 -191.5t-188.5 -81.5h-2q-107 0 -188 82t-81 191z" />
    <glyph glyph-name="guilsinglleft" unicode="&#x2039;" horiz-adv-x="765" 
d="M356 0q-35 0 -58.5 13t-43.5 44l-193 312q-23 36 -31 50.5t-14 35.5t-6 47q0 35 10.5 58.5t42.5 68.5l230 332q29 43 88 43h319q42 0 53 -34t-20 -77l-262 -358q-3 -5 -8 -11t-7.5 -9.5t-4.5 -9t-2 -11.5q0 -15 18 -39l233 -340q31 -44 21 -79.5t-53 -35.5h-312z" />
    <glyph glyph-name="guilsinglright" unicode="&#x203a;" horiz-adv-x="765" 
d="M410 1006q64 0 102 -58l193 -311q23 -36 31 -50.5t14 -35.5t6 -47q0 -25 -7 -45.5t-15.5 -34.5t-31.5 -47l-229 -332q-29 -43 -88 -43h-319q-42 0 -53 34t20 77l262 358q3 5 8 11t7.5 9.5t4.5 9t2 11.5q0 15 -18 39l-233 340q-31 44 -21 79.5t53 35.5h312z" />
    <glyph glyph-name="fraction" unicode="&#x2044;" horiz-adv-x="346" 
d="M-287 0q-37 0 -51 21.5t6 62.5l410 729l325 637q29 59 93 59h137q36 0 50 -21t-5 -61l-387 -706l-348 -662q-18 -31 -39 -45t-54 -14h-137z" />
    <glyph glyph-name="Euro" unicode="&#x20ac;" horiz-adv-x="1613" 
d="M969 -39q-145 0 -274.5 45t-226 123t-166 178t-105.5 215h-109q-43 0 -60.5 16t-17.5 60v55q0 44 17.5 60t60.5 16h76v14q0 36 2 52h-78q-44 0 -61 16t-17 59v56q0 43 17 59t61 16h115q53 161 168.5 281.5t267 183t317.5 62.5t299.5 -42.5t255.5 -139.5
q101 -81 70 -167.5t-207 -211.5q-36 -25 -69.5 -37t-64.5 -10t-56.5 22.5t-42.5 58.5q-67 145 -129.5 206t-139.5 61q-85 0 -135.5 -75.5t-56.5 -195.5l330 4q45 0 62.5 -15.5t17.5 -59.5v-56q0 -44 -17.5 -59.5t-62.5 -15.5l-314 2l19 -72l397 4q45 0 62.5 -16t17.5 -60
v-55q0 -44 -17.5 -60t-62.5 -16l-299 2q61 -84 140.5 -130t168.5 -46q86 0 160 30t160 89q29 24 59.5 20t71.5 -43q39 -35 39 -80.5t-45 -109.5q-92 -128 -255.5 -210.5t-342.5 -82.5z" />
    <glyph glyph-name="trademark" unicode="&#x2122;" horiz-adv-x="1085" 
d="M522 889q-271 0 -393.5 72.5t-122.5 240.5q0 170 123 244t393 74h41q270 0 393 -74t123 -244q0 -168 -122.5 -240.5t-393.5 -72.5h-41zM100 1204q0 -134 94 -190t328 -56h41q234 0 328 56t94 190t-94 190t-328 56h-41q-234 0 -328 -56t-94 -190zM188 1331v17q0 28 29 28
h229q29 0 29 -28v-17q0 -28 -29 -28h-63q-12 0 -12 -15v-229q0 -16 -6 -22.5t-23 -6.5h-23q-17 0 -22.5 6.5t-5.5 22.5v229q0 15 -12 15h-62q-29 0 -29 28zM510 1059v289q0 15 6 21.5t23 6.5h51q23 0 31 -22l63 -172q3 -9 5.5 -12t5 0t5.5 12l62 172q8 22 31 22h47
q17 0 22.5 -6t5.5 -22v-289q0 -16 -5.5 -22.5t-22.5 -6.5h-23q-29 0 -29 29l3 141q0 9 -4 9t-7 -9l-51 -147q-9 -23 -31 -23h-12q-24 0 -33 23l-53 147q-3 9 -6.5 9t-3.5 -9v-141q0 -29 -29 -29h-22q-17 0 -23 6.5t-6 22.5z" />
    <glyph glyph-name="uni2150" unicode="&#x2150;" horiz-adv-x="1544" 
d="M96 696q-42 0 -63 19.5t-21 54.5q0 40 39 66q32 19 41.5 39.5t9.5 56.5v307q0 25 -11.5 36.5t-45.5 20.5q-45 12 -45 54q0 36 32 63.5t124 59.5q73 25 109 32.5t87 7.5q60 0 60 -45v-536q0 -33 9.5 -55.5t37.5 -42.5q30 -22 30 -66q0 -34 -19.5 -53t-51.5 -19h-322z
M184 84l410 729l326 637q29 59 92 59h137q36 0 50 -21t-5 -61l-387 -706l-348 -662q-18 -32 -38.5 -45.5t-53.5 -13.5h-138q-37 0 -51 21.5t6 62.5zM858 580q0 135 23 194q13 37 59 37h528q50 0 63 -10t13 -45q0 -79 -39 -187l-188 -530q-8 -22 -22 -30.5t-44 -8.5h-256
q-29 0 -38 16t4 47l233 521q14 32 14 43t-7 18.5t-17 7.5q-55 0 -148 -75q-53 -42 -79.5 -59t-49.5 -17q-49 0 -49 78z" />
    <glyph glyph-name="uni2151" unicode="&#x2151;" horiz-adv-x="1683" 
d="M96 696q-42 0 -63 19.5t-21 54.5q0 40 39 66q32 19 41.5 39.5t9.5 56.5v307q0 25 -11.5 36.5t-45.5 20.5q-45 12 -45 54q0 36 32 63.5t124 59.5q73 25 109 32.5t87 7.5q60 0 60 -45v-536q0 -33 9.5 -55.5t37.5 -42.5q30 -22 30 -66q0 -34 -19.5 -53t-51.5 -19h-322z
M184 84l410 729l326 637q29 59 92 59h137q36 0 50 -21t-5 -61l-387 -706l-348 -662q-18 -32 -38.5 -45.5t-53.5 -13.5h-138q-37 0 -51 21.5t6 62.5zM868 489q0 145 115 237.5t297 92.5q187 0 292 -87t105 -251q0 -98 -34 -176.5t-119 -169.5q-99 -99 -109 -108
q-20 -16 -39.5 -22.5t-60.5 -6.5h-268q-24 0 -29.5 18t12.5 31l178 137q9 6 6.5 15.5t-10.5 9.5h-8q-151 0 -239.5 75t-88.5 205zM1200 532q0 -75 27.5 -118t72.5 -43q33 0 54.5 32t21.5 76q0 73 -29 117.5t-71 44.5q-32 0 -54 -31.5t-22 -77.5z" />
    <glyph glyph-name="uni2152" unicode="&#x2152;" horiz-adv-x="2236" 
d="M96 696q-42 0 -63 19.5t-21 54.5q0 40 39 66q32 19 41.5 39.5t9.5 56.5v307q0 25 -11.5 36.5t-45.5 20.5q-45 12 -45 54q0 36 32 63.5t124 59.5q73 25 109 32.5t87 7.5q60 0 60 -45v-536q0 -33 9.5 -55.5t37.5 -42.5q30 -22 30 -66q0 -34 -19.5 -53t-51.5 -19h-322z
M184 84l410 729l326 637q29 59 92 59h137q36 0 50 -21t-5 -61l-387 -706l-348 -662q-18 -32 -38.5 -45.5t-53.5 -13.5h-138q-37 0 -51 21.5t6 62.5zM862 653q0 36 32 63.5t124 59.5q74 25 110 33t86 8q60 0 60 -45v-536q0 -33 9.5 -56t37.5 -43q31 -23 31 -65q0 -34 -20 -53
t-52 -19h-322q-42 0 -63 19.5t-21 54.5q0 20 7.5 34.5t31.5 30.5q32 19 42 40.5t10 56.5v307q0 25 -12 36.5t-46 20.5q-45 12 -45 53zM1337 412q0 174 129 296t320 121q130 -1 231.5 -60.5t157 -163.5t55.5 -234q0 -156 -127.5 -271.5t-310.5 -115.5q-208 0 -331.5 118.5
t-123.5 309.5zM1673 532q0 -92 23 -178t60 -138t75 -52q59 0 59 123q0 94 -22 177.5t-56.5 131t-70.5 47.5q-33 0 -50.5 -31t-17.5 -80z" />
    <glyph glyph-name="uni2153" unicode="&#x2153;" horiz-adv-x="1615" 
d="M96 696q-42 0 -63 19.5t-21 54.5q0 40 39 66q32 19 41.5 39.5t9.5 56.5v307q0 25 -11.5 36.5t-45.5 20.5q-45 12 -45 54q0 36 32 63.5t124 59.5q73 25 109 32.5t87 7.5q60 0 60 -45v-536q0 -33 9.5 -55.5t37.5 -42.5q30 -22 30 -66q0 -34 -19.5 -53t-51.5 -19h-322z
M184 84l410 729l326 637q29 59 92 59h137q36 0 50 -21t-5 -61l-387 -706l-348 -662q-18 -32 -38.5 -45.5t-53.5 -13.5h-138q-37 0 -51 21.5t6 62.5zM889 690q56 63 153 99t215 36q151 0 245.5 -59.5t94.5 -149.5q0 -81 -139 -120q-16 -5 -17.5 -18t15.5 -19
q79 -32 118.5 -79t39.5 -118q0 -121 -108 -197.5t-279 -76.5q-201 0 -322 80q-31 20 -39 39.5t7.5 43t56 50t110.5 61.5q44 24 69 22t38 -34q24 -54 42 -77t48 -23q23 0 37 18.5t14 46.5q0 65 -34 92t-109 29q-29 1 -39 15t-10 48q0 52 12.5 73.5t48.5 27.5q32 5 48.5 9.5
t34.5 14t25 25t7 39.5q0 27 -14.5 48t-36.5 21q-25 0 -39.5 -19t-32.5 -63q-15 -33 -39 -40t-84 12q-113 41 -142.5 72t5.5 71z" />
    </font>
</defs>
</svg>
