<svg width="94" height="29" viewBox="0 0 94 29" fill="none" xmlns="http://www.w3.org/2000/svg">
<path d="M54.9166 2.03272C59.7345 -0.822667 65.0021 0.567013 67.9484 3.90619C71.0438 7.39304 71.4684 12.5726 68.9467 16.4903C67.4497 18.7859 65.4017 20.2737 62.756 20.9349C60.1101 21.5961 57.5373 21.1267 55.1659 19.8328V26.1873C55.1659 27.7301 54.2175 28.8905 52.8196 28.9919C51.3715 29.1175 50.1477 28.0309 50.0737 26.5156C50.0485 26.2115 50.0737 25.9084 50.0737 25.6053V3.54913C50.0598 3.14759 50.1103 2.74643 50.2228 2.36113C50.5723 1.4255 51.2213 0.844719 52.1957 0.692642C53.119 0.516318 53.9181 0.844719 54.5671 1.55223C54.6954 1.70323 54.8122 1.86385 54.9166 2.03272ZM55.191 10.8259C55.0418 13.2019 57.0136 16.108 60.3834 16.108C63.2295 16.1333 65.5519 13.7574 65.577 10.8512C65.577 7.91982 63.2796 5.54492 60.3834 5.57026C57.1137 5.59561 55.0657 8.40034 55.191 10.8259Z" fill="#E6E6E6"/>
<path d="M39.9369 2.6143C40.1122 2.48867 40.1122 2.33658 40.1612 2.20985C40.686 1.09789 41.7846 0.51712 42.9583 0.74414C43.5144 0.848056 44.0194 1.13944 44.3911 1.57087C44.7628 2.00228 44.9792 2.54834 45.0052 3.12014V18.509C45.0226 18.9127 44.9632 19.3161 44.8299 19.697C44.4303 20.7076 43.6823 21.2883 42.6088 21.3644C41.5603 21.4151 40.7579 20.9346 40.2363 20.0254C40.1518 19.8701 40.0769 19.7096 40.0121 19.5449C39.8367 19.4943 39.7377 19.6463 39.6375 19.7224C33.7699 23.942 25.7009 20.9599 23.8096 13.7835C22.3615 8.32504 25.4569 2.58895 30.6996 0.975567C33.7699 0.0145884 36.6879 0.495077 39.3881 2.28919C39.5869 2.36748 39.7721 2.47721 39.9369 2.6143ZM28.5775 11.0548C28.5741 11.5405 28.633 12.0248 28.7527 12.4952C29.6761 16.1595 33.9202 17.7254 36.8164 15.4519C39.4131 13.4297 39.6625 9.51301 37.3608 7.16352C36.1631 5.95127 34.69 5.39364 32.9926 5.67246C30.4001 6.1265 28.6025 8.35037 28.5775 11.0548Z" fill="#E6E6E6"/>
<path d="M84.2171 6.84832C84.2319 6.86616 84.2504 6.88051 84.2713 6.89036C84.2921 6.9002 84.3149 6.9053 84.3379 6.9053C84.361 6.9053 84.3837 6.9002 84.4046 6.89036C84.4255 6.88051 84.444 6.86616 84.4588 6.84832C85.0924 6.06587 85.7251 5.30547 86.3359 4.5704C87.11 3.63477 87.8602 2.69694 88.6332 1.76572C89.3323 0.956815 90.2055 0.603065 91.2539 0.884086C91.6365 0.984316 91.9904 1.17446 92.2867 1.43907C92.5829 1.70367 92.8135 2.03528 92.9594 2.40697C93.1054 2.77865 93.1627 3.17994 93.1267 3.57825C93.0907 3.97656 92.9624 4.36065 92.7522 4.69935C92.5661 4.98354 92.3575 5.25186 92.1283 5.50163C90.7303 7.21971 89.3323 8.91799 87.9092 10.6317C87.4661 11.1926 87.6065 11.0063 88.0573 11.6234L92.4124 16.8879C93.7593 18.3547 93.1747 20.5698 91.3585 21.166C90.3601 21.4966 89.3116 21.166 88.6126 20.3064C87.3637 18.79 86.141 17.2989 84.8921 15.7881C84.768 15.636 84.6679 15.5093 84.5427 15.3582C84.2933 15.0552 84.2683 15.0552 84.0189 15.3836C82.8953 16.7226 81.7967 18.0869 80.6731 19.4259C80.4237 19.7301 80.1984 20.0331 79.949 20.3075C79.0006 21.4195 77.4524 21.5958 76.356 20.6866C75.2323 19.7521 75.1082 18.1596 76.0294 16.997C77.5776 15.1026 79.1248 13.2325 80.6731 11.3623C80.9725 10.9832 80.9725 10.9832 80.6731 10.6295C79.1748 8.80993 77.6778 6.99269 76.1796 5.19636C75.5731 4.46681 75.2465 3.68327 75.5013 2.74652C75.6028 2.30577 75.8178 1.9001 76.1245 1.57081C76.4313 1.24152 76.8187 1.00038 77.2474 0.871928C77.6762 0.743476 78.1309 0.732309 78.5652 0.83956C78.9997 0.94681 79.3982 1.16865 79.7203 1.48249C79.8695 1.63457 80.0198 1.8131 80.1689 1.98833C81.3296 3.40775 83.6597 6.18489 84.2171 6.84832Z" fill="#8DBC1A"/>
<path d="M11.7949 0.00138278C14.5169 0.00138278 16.8633 0.937013 18.9102 2.70578C20.0589 3.71635 20.208 5.33304 19.2368 6.41966C18.8368 6.87934 18.2868 7.17819 17.6872 7.26174C17.0876 7.34528 16.4783 7.20796 15.9705 6.8748C15.7461 6.72271 15.5709 6.54418 15.3465 6.39431C12.7236 4.24644 8.64938 4.90325 6.80169 7.73439C4.75475 10.8675 6.45219 15.1886 10.1476 16.1484C12.0944 16.6543 13.8669 16.3006 15.4402 15.0111C16.2382 14.329 17.1377 14.102 18.111 14.481C18.4881 14.6228 18.8263 14.8538 19.0974 15.1545C19.3685 15.4553 19.5648 15.8173 19.6698 16.2103C19.7748 16.6034 19.7856 17.0161 19.7012 17.4142C19.6168 17.8123 19.4397 18.1843 19.1846 18.4991C18.979 18.7222 18.7609 18.933 18.5312 19.1306C16.136 21.004 13.414 21.8338 10.3925 21.4305C6.47288 20.8795 3.55164 18.8022 1.85421 15.1886C-0.642398 9.85691 1.55479 2.95594 8.09518 0.632848C9.27977 0.194622 10.5338 -0.0194184 11.7949 0.00138278Z" fill="#E6E6E6"/>
</svg>
