<svg width="172" height="32" viewBox="0 0 172 32" fill="none" xmlns="http://www.w3.org/2000/svg">
<path d="M15.9999 0C11.3795 0 0 11.3792 0 15.9999C0 20.6206 11.3795 32 15.9999 32C20.6203 32 32 20.6204 32 15.9999C32 11.3794 20.6205 0 15.9999 0ZM13.5066 25.1492C11.5582 24.6183 6.31981 15.455 6.85083 13.5066C7.38185 11.5581 16.545 6.31979 18.4933 6.8508C20.4418 7.38173 25.6802 16.5449 25.1492 18.4934C24.6182 20.4418 15.455 25.6802 13.5066 25.1492Z" fill="#F1F5F9"/>
<path d="M55.2952 19.5466V19.5407L46.2488 2.77274C46.0707 2.44268 45.5786 2.52173 45.5117 2.89112L41.0065 27.7945C40.9623 28.0385 41.1489 28.2632 41.3957 28.2632H44.8814C45.0727 28.2632 45.2365 28.1257 45.2707 27.9366L47.8943 13.4059L54.9464 26.9168C55.0945 27.2006 55.4989 27.2006 55.6471 26.9168L62.6991 13.4059L65.3227 27.9366C65.3569 28.1257 65.5207 28.2632 65.712 28.2632H69.1977C69.4445 28.2632 69.6311 28.0385 69.5869 27.7945L65.0817 2.89112C65.0149 2.52173 64.5227 2.44268 64.3446 2.77274L55.2952 19.5466Z" fill="white"/>
<path d="M84.2453 3.24219C77.0695 3.24219 71.4482 8.84611 71.4482 16.0015C71.4482 23.1569 77.0695 28.7639 84.2453 28.7639C91.4026 28.7639 97.0098 23.1584 97.0098 16.0015C97.0098 8.84454 91.4026 3.24219 84.2453 3.24219ZM84.2453 24.4916C79.5659 24.4916 75.8996 20.7619 75.8996 16.0015C75.8996 11.2411 79.5659 7.51451 84.2453 7.51451C88.9061 7.51451 92.5585 11.2427 92.5585 16.0015C92.5585 20.7603 88.9061 24.4916 84.2453 24.4916Z" fill="white"/>
<path d="M116.733 18.929L101.727 2.69809C101.483 2.43339 101.042 2.6074 101.042 2.9687V27.8666C101.042 28.0862 101.219 28.2642 101.438 28.2642H105.065C105.284 28.2642 105.461 28.0862 105.461 27.8666V13.0475L120.433 29.3091C120.677 29.5746 121.119 29.4008 121.119 29.0391V4.14111C121.119 3.92153 120.942 3.74353 120.723 3.74353H117.128C116.91 3.74353 116.733 3.92153 116.733 4.14111V18.929Z" fill="white"/>
<path d="M124.963 28.2658H128.859C129.013 28.2658 129.153 28.1756 129.218 28.0349L132.136 21.6842H141.467L144.319 28.0318C144.383 28.1742 144.524 28.2658 144.679 28.2658H148.906C149.197 28.2658 149.389 27.9592 149.262 27.6952L137.291 2.79882C137.147 2.49935 136.722 2.49935 136.578 2.79882L124.607 27.6952C124.48 27.9592 124.672 28.2658 124.963 28.2658ZM133.965 17.744L136.865 11.4197L139.71 17.744H133.965Z" fill="white"/>
<path d="M158.714 3.74219H152.729C152.51 3.74219 152.333 3.9202 152.333 4.13977V27.8653C152.333 28.0849 152.51 28.2629 152.729 28.2629H158.714C166.135 28.2629 170.747 23.5649 170.747 16.001C170.747 8.43708 166.136 3.74219 158.714 3.74219ZM158.714 24.056H156.784V7.91629H158.714C163.532 7.91629 166.295 10.8633 166.295 16.001C166.295 21.12 163.532 24.056 158.714 24.056Z" fill="white"/>
</svg>
