<svg width="130" height="24" viewBox="0 0 130 24" fill="none" xmlns="http://www.w3.org/2000/svg">
<path d="M12.4999 0C9.03462 0 0.5 8.53443 0.5 11.9999C0.5 15.4654 9.03462 24 12.4999 24C15.9652 24 24.5 15.4653 24.5 11.9999C24.5 8.53458 15.9654 0 12.4999 0ZM10.6299 18.8619C9.16866 18.4637 5.23986 11.5912 5.63812 10.1299C6.03638 8.66856 12.9087 4.73984 14.37 5.1381C15.8313 5.5363 19.7601 12.4087 19.3619 13.87C18.9636 15.3314 12.0912 19.2602 10.6299 18.8619Z" fill="#8DBC1A"/>
<path d="M41.9714 14.6604V14.656L35.1866 2.08004C35.053 1.8325 34.6839 1.89179 34.6338 2.16883L31.2549 20.8463C31.2218 21.0294 31.3617 21.1979 31.5468 21.1979H34.1611C34.3045 21.1979 34.4274 21.0947 34.453 20.9529L36.4207 10.0549L41.7098 20.1881C41.8209 20.401 42.1242 20.401 42.2353 20.1881L47.5243 10.0549L49.492 20.9529C49.5177 21.0947 49.6406 21.1979 49.784 21.1979H52.3983C52.5834 21.1979 52.7233 21.0294 52.6902 20.8463L49.3113 2.16883C49.2611 1.89179 48.892 1.8325 48.7585 2.08004L41.9714 14.6604Z" fill="white"/>
<path d="M63.6837 2.43164C58.3019 2.43164 54.0859 6.63458 54.0859 12.0011C54.0859 17.3676 58.3019 21.5729 63.6837 21.5729C69.0517 21.5729 73.2571 17.3688 73.2571 12.0011C73.2571 6.63341 69.0517 2.43164 63.6837 2.43164ZM63.6837 18.3687C60.1742 18.3687 57.4245 15.5714 57.4245 12.0011C57.4245 8.43082 60.1742 5.63588 63.6837 5.63588C67.1794 5.63588 69.9186 8.432 69.9186 12.0011C69.9186 15.5702 67.1794 18.3687 63.6837 18.3687Z" fill="white"/>
<path d="M88.0494 14.1948L76.7954 2.02161C76.6119 1.82309 76.2812 1.9536 76.2812 2.22457V20.898C76.2812 21.0627 76.4142 21.1962 76.5781 21.1962H79.2987C79.4626 21.1962 79.5954 21.0627 79.5954 20.898V9.7837L90.8245 21.9799C91.0078 22.179 91.339 22.0486 91.339 21.7774V3.10388C91.339 2.9392 91.2062 2.80569 91.0423 2.80569H88.3461C88.1822 2.80569 88.0494 2.9392 88.0494 3.10388V14.1948Z" fill="white"/>
<path d="M94.2229 21.1964H97.1442C97.2599 21.1964 97.3651 21.1288 97.4136 21.0232L99.602 16.2602H106.6L108.739 21.0209C108.787 21.1277 108.893 21.1964 109.01 21.1964H112.179C112.398 21.1964 112.542 20.9665 112.447 20.7685L103.468 2.09618C103.36 1.87158 103.042 1.87158 102.934 2.09618L93.9557 20.7685C93.8605 20.9665 94.004 21.1964 94.2229 21.1964ZM100.974 13.3051L103.149 8.56184L105.283 13.3051H100.974Z" fill="white"/>
<path d="M119.536 2.80664H115.047C114.883 2.80664 114.75 2.94015 114.75 3.10483V20.899C114.75 21.0636 114.883 21.1971 115.047 21.1971H119.536C125.102 21.1971 128.56 17.6736 128.56 12.0007C128.56 6.32781 125.102 2.80664 119.536 2.80664ZM119.536 18.042H118.089V5.93721H119.536C123.149 5.93721 125.222 8.14744 125.222 12.0007C125.222 15.84 123.149 18.042 119.536 18.042Z" fill="white"/>
</svg>
