<?xml version="1.0" encoding="utf-8"?>
<!-- Generator: Adobe Illustrator 27.1.1, SVG Export Plug-In . SVG Version: 6.00 Build 0)  -->
<svg version="1.1" id="Layer_1" xmlns="http://www.w3.org/2000/svg" xmlns:xlink="http://www.w3.org/1999/xlink" x="0px" y="0px"
	 viewBox="0 0 606 329" style="enable-background:new 0 0 606 329;" xml:space="preserve">
<style type="text/css">
	.st0{fill:#C9FE36;}
</style>
<path class="st0" d="M88.6,211.1l1.3,6.1c0.8,3.8,3.8,6.8,7.6,7.6l6.1,1.3l-6.1,1.3c-3.8,0.8-6.8,3.8-7.6,7.6l-1.3,6.1l-1.3-6.1
	c-0.8-3.8-3.8-6.8-7.6-7.6l-6.1-1.3l6.1-1.3c3.8-0.8,6.8-3.8,7.6-7.6L88.6,211.1z"/>
<path class="st0" d="M592.6,182.1l1.1,5.3c0.7,3.3,3.3,5.9,6.6,6.6l5.3,1.1l-5.3,1.1c-3.3,0.7-5.9,3.3-6.6,6.6l-1.1,5.3l-1.1-5.3
	c-0.7-3.3-3.3-5.9-6.6-6.6l-5.3-1.1l5.3-1.1c3.3-0.7,5.9-3.3,6.6-6.6L592.6,182.1z"/>
<path class="st0" d="M543.6,102.1l0.5,2.4c0.3,1.5,1.5,2.7,3,3l2.4,0.5l-2.4,0.5c-1.5,0.3-2.7,1.5-3,3l-0.5,2.4l-0.5-2.4
	c-0.3-1.5-1.5-2.7-3-3l-2.4-0.5l2.4-0.5c1.5-0.3,2.7-1.5,3-3L543.6,102.1z"/>
<path class="st0" d="M553.6,286.1l0.5,2.4c0.3,1.5,1.5,2.7,3,3l2.4,0.5l-2.4,0.5c-1.5,0.3-2.7,1.5-3,3l-0.5,2.4l-0.5-2.4
	c-0.3-1.5-1.5-2.7-3-3l-2.4-0.5l2.4-0.5c1.5-0.3,2.7-1.5,3-3L553.6,286.1z"/>
<path class="st0" d="M57.6,316.1l0.5,2.4c0.3,1.5,1.5,2.7,3,3l2.4,0.5l-2.4,0.5c-1.5,0.3-2.7,1.5-3,3l-0.5,2.4l-0.5-2.4
	c-0.3-1.5-1.5-2.7-3-3l-2.4-0.5l2.4-0.5c1.5-0.3,2.7-1.5,3-3L57.6,316.1z"/>
<path class="st0" d="M77.6,78.1l0.5,2.4c0.3,1.5,1.5,2.7,3,3l2.4,0.5l-2.4,0.5c-1.5,0.3-2.7,1.5-3,3l-0.5,2.4l-0.5-2.4
	c-0.3-1.5-1.5-2.7-3-3l-2.4-0.5l2.4-0.5c1.5-0.3,2.7-1.5,3-3L77.6,78.1z"/>
<path class="st0" d="M578.6,0.1l2.1,9.7c1.3,6.1,6.1,10.9,12.2,12.2l9.7,2.1l-9.7,2.1c-6.1,1.3-10.9,6.1-12.2,12.2l-2.1,9.7
	l-2.1-9.7c-1.3-6.1-6.1-10.9-12.2-12.2l-9.7-2.1l9.7-2.1c6.1-1.3,10.9-6.1,12.2-12.2L578.6,0.1z"/>
<path class="st0" d="M25.1,122.1l2.3,11.8c1.2,6.1,5.9,10.9,11.9,12.3l10.2,2.4l-10.2,2.4c-6.1,1.4-10.7,6.2-11.9,12.3L25.1,175
	l-2.3-11.8c-1.2-6.1-5.9-10.9-11.9-12.3l-10.2-2.4l10.2-2.4c6.1-1.4,10.7-6.2,11.9-12.3L25.1,122.1z"/>
</svg>
